<svg width="1440" height="1746" viewBox="0 0 1440 1746" fill="none" xmlns="http://www.w3.org/2000/svg">
<g clip-path="url(#clip0_1412_5444)">
<rect width="1440" height="1746" fill="url(#paint0_linear_1412_5444)"/>
<g opacity="0.8">
<g style="mix-blend-mode:overlay" opacity="0.96">
<path fill-rule="evenodd" clip-rule="evenodd" d="M-56.7938 777.986C-128.132 782.186 -123.472 701.877 -129.432 666.504C-134.857 634.293 -180.252 588.397 -168.627 566.553C-138.909 510.71 -85.1718 592.797 -25.0705 567.558C73.0431 526.338 105.927 622.896 87.4871 671.024C69.0471 719.152 26.0317 773.122 -56.7938 777.986Z" stroke="#ECFFFE" stroke-width="2" stroke-miterlimit="10"/>
</g>
<g style="mix-blend-mode:overlay" opacity="0.96">
<path fill-rule="evenodd" clip-rule="evenodd" d="M-305.7 698.485C-326.264 675.839 -336.813 646.305 -335.14 616.065C-332.693 570.68 -319.541 507.823 -271.167 466.711C-187.914 396.126 -168.694 438.984 -84.4855 404.118C-0.277329 369.253 36.8821 366.977 111.623 425.645C186.363 484.313 142.023 459.692 221.038 533.99C300.053 608.289 288.956 654.248 253.764 694.382C211.638 742.429 -30.1255 813.67 69.5798 981.012C119.785 1065.28 -62.6455 1149.64 -141.026 1085C-219.406 1020.35 -351.971 1030.05 -309.411 959.659C-266.851 889.264 -269.807 860.4 -262.599 796.963C-258.299 759.234 -284.089 722.269 -305.7 698.485Z" stroke="#ECFFFE" stroke-miterlimit="10"/>
</g>
<g style="mix-blend-mode:overlay" opacity="0.96">
<path fill-rule="evenodd" clip-rule="evenodd" d="M195.829 567.318C248.51 631.565 241.706 666.374 211.937 700.347C197.593 716.738 161.441 731.692 126.124 753.243C68.2438 788.555 12.7295 859.84 35.7926 937.574C64.689 1034.97 -68.0199 1063.39 -135.231 1012.53C-164.414 990.446 -181.667 997.153 -210.564 984.056C-248.506 966.878 -276.999 941.526 -267.535 903.714C-251.442 839.2 -247.307 816.704 -244.919 771.528C-244.735 767.842 -244.536 764.057 -244.298 760.118C-242.375 728.76 -263.178 697.858 -280.592 676.847C-297.01 657.169 -305.433 632.371 -304.322 606.988C-302.547 569.434 -291.323 519.207 -252.769 485.829C-187.765 429.901 -169.716 459.775 -102.837 432.153C-68.641 418.028 -40.3991 411.902 -13.9381 411.832C20.1036 411.84 52.4627 422.937 92.4057 450.987C135.751 481.411 143.649 489.161 158.086 508.485C167.892 521.721 174.756 541.677 195.829 567.318Z" stroke="#ECFFFE" stroke-width="0.86" stroke-miterlimit="10"/>
</g>
<g style="mix-blend-mode:overlay" opacity="0.96">
<path fill-rule="evenodd" clip-rule="evenodd" d="M170.572 600.653C198.031 652.169 194.421 678.531 170.092 706.351C157.667 720.546 130.412 733.551 103.986 751.257C58.4289 781.754 5.98323 833.719 14.2887 900.955C20.5656 952.101 9.54345 1076.54 -129.428 940.098C-147.183 922.677 -171.645 914.268 -193.82 903.435C-217.688 891.729 -231.733 880.497 -234.189 853.367C-237.252 818.987 -226.678 785.367 -225.756 751.167C-224.917 716.874 -235.327 683.342 -255.509 655.328C-267.744 638.658 -274.026 618.575 -273.428 598.044C-272.317 568.304 -263.051 530.611 -234.288 505.062C-218.601 491.132 -201.356 479.943 -180.506 475.157C-131.679 463.925 -84.2153 443.31 -33.5813 444.301C1.01031 444.956 35.4467 453.557 73.1571 476.404C112.604 500.347 128.667 511.938 144.35 534.147C156.197 550.833 157.289 575.726 170.572 600.653Z" stroke="#ECFFFE" stroke-width="0.72" stroke-miterlimit="10"/>
</g>
<g style="mix-blend-mode:overlay" opacity="0.96">
<path fill-rule="evenodd" clip-rule="evenodd" d="M149.929 618.572C153.235 648.66 146.893 679.731 128.635 705.55C103.352 741.374 59.6771 761.726 32.3665 796.147C13.3581 820.042 1.90837 850.882 -24.4839 867.037C-45.7952 880.059 -72.9746 880.654 -97.4342 875.558C-124.871 869.808 -150.332 857.658 -171.587 840.172C-189.689 825.236 -204.919 805.391 -207.525 782.479C-209.76 762.652 -202.412 742.799 -202.477 722.821C-202.623 681.11 -234.374 645.579 -241.19 604.392C-260.832 485.316 -79.6209 465.758 2.36565 484.75C52.2662 496.321 111.508 522.677 134.959 568.673C142.936 584.305 148.001 601.19 149.929 618.572V618.572Z" stroke="#ECFFFE" stroke-width="0.58" stroke-miterlimit="10"/>
</g>
<g style="mix-blend-mode:overlay" opacity="0.96">
<path fill-rule="evenodd" clip-rule="evenodd" d="M-188.89 654.781C-194.278 639.581 -201.623 625.043 -206.465 609.655C-211.307 594.267 -213.583 576.968 -208.231 561.368C-203.007 546.099 -190.908 533.542 -176.715 524.973C-143.414 504.855 -101.456 505.869 -62.5872 509.429C-32.7839 512.171 -2.94227 516.051 25.5501 524.634C73.8985 539.131 128.235 571.762 128.888 626.334C129.556 687.785 71.8333 742.044 25.414 777.661C4.9233 793.381 -17.2693 807.747 -42.2156 815.233C-67.162 822.718 -95.3479 822.676 -118.059 810.596C-144.507 796.507 -159.632 768.51 -167.892 740.493C-176.153 712.476 -179.038 683.032 -188.688 655.434L-188.89 654.781Z" stroke="#ECFFFE" stroke-width="0.44" stroke-miterlimit="10"/>
</g>
</g>
<g opacity="0.8">
<g style="mix-blend-mode:overlay" opacity="0.96">
<path fill-rule="evenodd" clip-rule="evenodd" d="M1455.21 384.986C1383.87 389.186 1388.53 308.877 1382.57 273.504C1377.14 241.293 1331.75 195.397 1343.37 173.553C1373.09 117.71 1426.83 199.797 1486.93 174.558C1585.04 133.338 1617.93 229.896 1599.49 278.024C1581.05 326.152 1538.03 380.122 1455.21 384.986Z" stroke="#FFA6A6" stroke-width="2" stroke-miterlimit="10"/>
</g>
<g style="mix-blend-mode:overlay" opacity="0.96">
<path fill-rule="evenodd" clip-rule="evenodd" d="M1206.3 305.485C1185.74 282.839 1175.19 253.305 1176.86 223.065C1179.31 177.68 1192.46 114.823 1240.83 73.7105C1324.09 3.12626 1343.31 45.9837 1427.52 11.1183C1511.72 -23.7471 1548.88 -26.0233 1623.62 32.6446C1698.36 91.3125 1654.02 66.6918 1733.04 140.99C1812.05 215.289 1800.96 261.248 1765.76 301.382C1723.64 349.429 1481.88 420.67 1581.58 588.012C1631.79 672.283 1449.35 756.643 1370.97 691.999C1292.59 627.354 1160.03 637.054 1202.59 566.659C1245.15 496.264 1242.19 467.4 1249.4 403.963C1253.7 366.234 1227.91 329.269 1206.3 305.485Z" stroke="#FFA6A6" stroke-miterlimit="10"/>
</g>
<g style="mix-blend-mode:overlay" opacity="0.96">
<path fill-rule="evenodd" clip-rule="evenodd" d="M1707.83 174.318C1760.51 238.565 1753.71 273.374 1723.94 307.347C1709.59 323.738 1673.44 338.692 1638.12 360.243C1580.24 395.555 1524.73 466.84 1547.79 544.574C1576.69 641.972 1443.98 670.392 1376.77 619.535C1347.59 597.446 1330.33 604.153 1301.44 591.056C1263.49 573.878 1235 548.526 1244.47 510.714C1260.56 446.2 1264.69 423.704 1267.08 378.528C1267.27 374.842 1267.46 371.057 1267.7 367.118C1269.63 335.76 1248.82 304.858 1231.41 283.847C1214.99 264.169 1206.57 239.371 1207.68 213.988C1209.45 176.434 1220.68 126.207 1259.23 92.8291C1324.24 36.9006 1342.28 66.7748 1409.16 39.1528C1443.36 25.0282 1471.6 18.9025 1498.06 18.8318C1532.1 18.8402 1564.46 29.9368 1604.41 57.9866C1647.75 88.4113 1655.65 96.1607 1670.09 115.485C1679.89 128.721 1686.76 148.677 1707.83 174.318Z" stroke="#FFA6A6" stroke-width="0.86" stroke-miterlimit="10"/>
</g>
<g style="mix-blend-mode:overlay" opacity="0.96">
<path fill-rule="evenodd" clip-rule="evenodd" d="M1682.57 207.653C1710.03 259.169 1706.42 285.531 1682.09 313.351C1669.67 327.546 1642.41 340.551 1615.99 358.257C1570.43 388.754 1517.98 440.719 1526.29 507.955C1532.57 559.101 1521.54 683.535 1382.57 547.098C1364.82 529.677 1340.36 521.268 1318.18 510.435C1294.31 498.729 1280.27 487.497 1277.81 460.367C1274.75 425.987 1285.32 392.367 1286.24 358.167C1287.08 323.874 1276.67 290.342 1256.49 262.328C1244.26 245.658 1237.97 225.575 1238.57 205.044C1239.68 175.304 1248.95 137.611 1277.71 112.062C1293.4 98.1316 1310.64 86.9431 1331.49 82.1572C1380.32 70.9253 1427.79 50.3102 1478.42 51.3007C1513.01 51.956 1547.45 60.5571 1585.16 83.4043C1624.6 107.347 1640.67 118.938 1656.35 141.147C1668.2 157.833 1669.29 182.726 1682.57 207.653Z" stroke="#FFA6A6" stroke-width="0.72" stroke-miterlimit="10"/>
</g>
<g style="mix-blend-mode:overlay" opacity="0.96">
<path fill-rule="evenodd" clip-rule="evenodd" d="M1661.93 225.572C1665.24 255.66 1658.89 286.731 1640.64 312.55C1615.35 348.374 1571.68 368.726 1544.37 403.147C1525.36 427.042 1513.91 457.882 1487.52 474.037C1466.21 487.059 1439.03 487.654 1414.57 482.558C1387.13 476.808 1361.67 464.658 1340.41 447.172C1322.31 432.236 1307.08 412.391 1304.48 389.479C1302.24 369.652 1309.59 349.799 1309.52 329.821C1309.38 288.11 1277.63 252.579 1270.81 211.392C1251.17 92.3157 1432.38 72.7585 1514.37 91.7496C1564.27 103.321 1623.51 129.677 1646.96 175.673C1654.94 191.305 1660 208.19 1661.93 225.572V225.572Z" stroke="#FFA6A6" stroke-width="0.58" stroke-miterlimit="10"/>
</g>
<g style="mix-blend-mode:overlay" opacity="0.96">
<path fill-rule="evenodd" clip-rule="evenodd" d="M1323.11 261.781C1317.72 246.581 1310.38 232.043 1305.54 216.655C1300.69 201.267 1298.42 183.968 1303.77 168.368C1308.99 153.099 1321.09 140.542 1335.29 131.973C1368.59 111.855 1410.54 112.869 1449.41 116.429C1479.22 119.171 1509.06 123.051 1537.55 131.634C1585.9 146.131 1640.24 178.762 1640.89 233.334C1641.56 294.785 1583.83 349.044 1537.41 384.661C1516.92 400.381 1494.73 414.747 1469.78 422.233C1444.84 429.718 1416.65 429.676 1393.94 417.596C1367.49 403.507 1352.37 375.51 1344.11 347.493C1335.85 319.476 1332.96 290.032 1323.31 262.434L1323.11 261.781Z" stroke="#FFA6A6" stroke-width="0.44" stroke-miterlimit="10"/>
</g>
</g>
<g opacity="0.7">
<path opacity="0.7" d="M1336.74 1517.6L1306.52 1511.17C1190.31 1486.33 1070.15 1460.65 956.807 1484.12C889.181 1498.12 831.732 1528.67 776.19 1558.22C730.278 1582.65 682.777 1607.93 629.34 1624.07C522.511 1656.36 397.704 1649.84 300.904 1640.55C276.294 1638.2 251.387 1635.49 227.237 1632.86C142.763 1623.69 55.4264 1614.15 -30.5207 1618.42C-34.4176 1618.6 -38.26 1618.84 -42.1466 1619.07L-49.584 1618.04C-43.4599 1617.57 -37.1667 1617.16 -30.7122 1616.84C55.4642 1612.57 142.938 1622.11 227.544 1631.3C251.672 1633.93 276.602 1636.64 301.208 1639.01C397.72 1648.25 522.116 1654.76 628.584 1622.63C681.75 1606.57 729.143 1581.36 774.972 1556.98C830.693 1527.36 888.258 1496.71 956.296 1482.62C1070.12 1459 1190.62 1484.75 1307.13 1509.7C1317.27 1511.87 1327.34 1514.02 1337.34 1516.13C1383.34 1525.81 1434.26 1535.05 1485.86 1539.52L1485.46 1541.07C1433.77 1536.53 1382.8 1527.29 1336.74 1517.6Z" fill="#FFEE81"/>
<path opacity="0.7" d="M172.96 1669.01C301.349 1708.83 447.799 1684.58 548.053 1657.18C599.649 1643.1 650.165 1625.85 699.017 1609.17C762.266 1587.58 827.683 1565.27 895.898 1549.63C962.464 1534.37 1130.65 1505.81 1254.09 1569.75C1325.04 1606.54 1371.53 1670.21 1392.27 1758.98C1394.2 1767.32 1395.91 1775.77 1397.53 1784.21L1400.27 1784.35C1398.63 1775.77 1396.9 1767.21 1394.93 1758.72C1374.12 1669.46 1327.21 1605.38 1255.65 1568.28C1131.21 1503.78 961.97 1532.51 894.986 1547.86C826.604 1563.53 761.103 1585.87 697.796 1607.5C648.972 1624.16 598.515 1641.38 547.029 1655.44C447.252 1682.7 301.582 1706.81 174.074 1667.33C128.639 1653.23 87.8235 1631.67 48.3832 1610.81C31.9522 1602.12 15.2806 1593.34 -1.86475 1585.02L-2.0271 1587.2C14.5577 1595.3 30.7016 1603.8 46.6814 1612.28C86.2817 1633.2 127.201 1654.84 172.96 1669.01Z" fill="#ECFFFE"/>
</g>
</g>
<defs>
<linearGradient id="paint0_linear_1412_5444" x1="720" y1="0" x2="720" y2="1746" gradientUnits="userSpaceOnUse">
<stop offset="0.0001" stop-color="#FFEE81"/>
<stop offset="1" stop-color="#FFA6A6"/>
</linearGradient>
<clipPath id="clip0_1412_5444">
<rect width="1440" height="1746" fill="white"/>
</clipPath>
</defs>
</svg>
