<svg width="1440" height="1024" viewBox="0 0 1440 1024" fill="none" xmlns="http://www.w3.org/2000/svg">
<g clip-path="url(#clip0_1244_6292)">
<rect width="1440" height="1024" fill="#ECFFFE"/>
<g opacity="0.7">
<path opacity="0.7" d="M-38.1679 169.5L-4.39758 177.845C125.492 210.063 259.781 243.365 389.925 227.195C467.573 217.547 534.889 190.73 599.972 164.789C653.771 143.339 709.431 121.156 771.156 108.463C894.554 83.068 1035.51 97.5517 1144.52 113.002C1172.24 116.924 1200.27 121.225 1227.44 125.389C1322.5 139.944 1420.77 155.046 1518.48 156.274C1522.91 156.344 1527.28 156.354 1531.7 156.373L1540.05 157.876C1533.08 157.948 1525.92 157.954 1518.58 157.863C1420.62 156.62 1322.19 141.506 1226.98 126.924C1199.83 122.764 1171.78 118.459 1144.07 114.522C1035.37 99.1299 894.886 84.6812 771.908 109.941C710.497 122.577 654.964 144.703 601.262 166.106C535.971 192.106 468.516 219.012 390.395 228.72C259.7 245.018 125.025 211.614 -5.19005 179.272C-16.5222 176.455 -27.7792 173.673 -38.9606 170.927C-90.3787 158.32 -147.416 145.852 -205.556 138.088L-204.995 136.57C-146.747 144.402 -89.6606 156.88 -38.1679 169.5Z" fill="#5ED9D1"/>
<path opacity="0.7" d="M1291.57 92.7795C1148.98 44.8344 981.264 59.68 865.671 80.6152C806.182 91.3638 747.688 105.352 691.119 118.877C617.88 136.383 542.133 154.465 463.7 165.714C387.162 176.684 194.506 194.435 59.2747 122.732C-18.4588 81.4815 -66.5235 14.9758 -83.5788 -74.9395C-85.1626 -83.3904 -86.4814 -91.9275 -87.7079 -100.455L-90.7977 -100.766C-89.5611 -92.1058 -88.2285 -83.4545 -86.6064 -74.8493C-69.5036 15.5596 -21.0061 82.5037 57.3942 124.103C193.721 196.424 387.586 178.569 464.605 167.535C543.23 156.267 619.075 138.158 692.381 120.621C748.916 107.112 807.343 93.154 866.705 82.4115C981.746 61.59 1148.56 46.8424 1290.19 94.3888C1340.65 111.367 1385.33 135.492 1428.51 158.826C1446.5 168.551 1464.76 178.379 1483.58 187.774L1483.92 185.609C1465.72 176.464 1448.04 166.958 1430.55 157.47C1387.19 134.062 1342.39 109.851 1291.57 92.7795Z" fill="#8989C7"/>
</g>
<g opacity="0.5">
<g style="mix-blend-mode:overlay" opacity="0.96">
<path fill-rule="evenodd" clip-rule="evenodd" d="M-141.789 683.595C-172.042 748.336 -95.6916 773.67 -65.0216 792.275C-37.0925 809.214 -11.2095 868.352 13.3835 865.617C76.2541 858.628 19.8217 778.37 65.4753 731.842C140.022 655.893 62.4386 589.668 10.9027 589.027C-40.6332 588.385 -106.675 608.423 -141.789 683.595Z" stroke="#8989C7" stroke-width="2" stroke-miterlimit="10"/>
</g>
<g style="mix-blend-mode:overlay" opacity="0.96">
<path fill-rule="evenodd" clip-rule="evenodd" d="M-159.85 944.265C-146.401 971.739 -122.853 992.451 -94.1327 1002.07C-51.054 1016.56 12.2156 1027.55 68.2891 997.785C164.634 946.492 131.906 912.8 195.41 847.426C258.915 782.051 274.756 748.361 247.844 657.235C220.933 566.109 227.434 616.408 187.576 515.537C147.718 414.666 100.91 408.002 50.6151 425.881C-9.59381 447.28 -165.099 645.632 -283.778 491.165C-343.544 413.383 -489.324 551.752 -458.203 648.467C-427.081 745.182 -485.062 864.79 -403.925 851.242C-322.788 837.694 -297.056 851.102 -235.443 867.836C-198.794 877.776 -173.969 915.396 -159.85 944.265Z" stroke="#8989C7" stroke-miterlimit="10"/>
</g>
<g style="mix-blend-mode:overlay" opacity="0.96">
<path fill-rule="evenodd" clip-rule="evenodd" d="M147.293 526.653C107.049 453.967 72.1891 447.432 29.6221 462.547C9.0919 469.822 -18.1578 497.894 -51.2305 522.752C-105.424 563.496 -192.174 588.754 -255.891 538.609C-335.728 475.779 -411.158 588.605 -388.723 669.849C-378.975 705.127 -391.581 718.682 -390.084 750.374C-388.137 791.978 -375.102 827.82 -336.468 832.992C-270.572 841.867 -248.139 846.334 -205.277 860.801C-201.783 861.992 -198.192 863.205 -194.444 864.44C-164.593 874.235 -143.561 904.981 -130.468 928.924C-118.246 951.45 -98.3132 968.437 -74.3142 976.78C-38.761 989.002 12.0605 997.125 57.3185 973.627C133.302 933.879 112.208 906.071 162.58 854.124C188.337 827.564 204.461 803.582 214.301 779.019C226.867 747.381 228.508 713.212 217.196 665.732C204.934 614.214 200.649 604.013 188.025 583.459C179.346 569.457 163.337 555.707 147.293 526.653Z" stroke="#8989C7" stroke-width="0.86" stroke-miterlimit="10"/>
</g>
<g style="mix-blend-mode:overlay" opacity="0.96">
<path fill-rule="evenodd" clip-rule="evenodd" d="M106.986 537.811C69.2569 493.265 43.425 486.883 8.5865 499.215C-9.19437 505.518 -31.3471 526.042 -57.5616 544.059C-102.729 575.129 -170.392 604.672 -229.805 572.118C-275.016 547.393 -394.721 511.673 -319.265 691.213C-309.635 714.146 -310.856 739.985 -308.98 764.594C-306.919 791.097 -301.669 808.298 -277.364 820.601C-246.547 836.147 -211.399 838.739 -179.277 850.515C-147.099 862.402 -119.784 884.462 -101.206 913.564C-90.2339 931.091 -73.8916 944.347 -54.5917 951.375C-26.5443 961.329 11.9054 966.64 46.2718 949.348C65.0117 939.917 81.7788 928.024 93.9279 910.416C122.401 869.19 159.09 832.699 176.872 785.28C189.041 752.892 193.768 717.714 186.466 674.231C178.787 628.73 173.949 609.521 159.103 586.745C147.973 569.572 125.245 559.362 106.986 537.811Z" stroke="#8989C7" stroke-width="0.72" stroke-miterlimit="10"/>
</g>
<g style="mix-blend-mode:overlay" opacity="0.96">
<path fill-rule="evenodd" clip-rule="evenodd" d="M82.7103 550.375C55.9708 536.189 24.7543 530.606 -5.9822 538.036C-48.6121 548.298 -83.6571 581.367 -125.732 594.032C-154.958 602.87 -187.846 602.118 -212.607 620.677C-232.581 635.671 -243.173 660.708 -247.472 685.321C-252.263 712.941 -250.377 741.089 -241.979 767.3C-234.786 789.639 -221.969 811.122 -201.64 822.006C-184.041 831.407 -162.878 831.912 -144.337 839.352C-105.629 854.895 -84.339 897.525 -48.5825 919.072C54.8174 981.309 139.926 820.137 152.562 736.934C160.241 686.288 157.631 621.5 123.551 582.718C111.97 569.531 98.1503 558.587 82.7103 550.375V550.375Z" stroke="#8989C7" stroke-width="0.58" stroke-miterlimit="10"/>
</g>
<g style="mix-blend-mode:overlay" opacity="0.96">
<path fill-rule="evenodd" clip-rule="evenodd" d="M-76.0897 851.859C-63.9547 862.481 -53.1578 874.676 -40.6466 884.859C-28.1354 895.042 -12.9002 903.548 3.57356 904.337C19.6924 905.121 35.8307 898.517 49.036 888.492C80.032 864.978 94.587 825.613 105.637 788.178C114.097 759.469 121.514 730.305 124.062 700.657C128.45 650.373 118.196 587.826 67.7254 567.062C10.8672 543.742 -60.8761 577.341 -111.121 607.321C-133.298 620.556 -154.846 635.873 -171.016 656.29C-187.186 676.708 -197.559 702.916 -194.723 728.483C-191.398 758.264 -170.969 782.661 -147.984 800.686C-124.999 818.711 -98.7032 832.268 -76.6215 851.43L-76.0897 851.859Z" stroke="#8989C7" stroke-width="0.44" stroke-miterlimit="10"/>
</g>
</g>
</g>
<defs>
<clipPath id="clip0_1244_6292">
<rect width="1440" height="1024" fill="white"/>
</clipPath>
</defs>
</svg>
