<svg width="757" height="553" viewBox="0 0 757 553" fill="none" xmlns="http://www.w3.org/2000/svg">
<g clip-path="url(#clip0_712_32)">
<rect width="757" height="553" fill="#171753"/>
<path opacity="0.8" d="M-177.447 277.863L-172.317 264.903C-152.646 215.004 -132.306 163.417 -89.659 133.611C-64.2145 115.829 -33.4202 108.102 -3.64113 100.637C20.9783 94.4692 46.4452 88.0843 69.0497 76.0416C114.25 51.9741 145.291 6.35875 167.288 -30.6918C172.883 -40.1088 178.383 -49.771 183.718 -59.1373C202.385 -91.8948 221.659 -125.784 247.347 -153.73C248.505 -155.003 249.675 -156.235 250.855 -157.484L252.389 -160.456C250.48 -158.528 248.552 -156.519 246.622 -154.421C220.871 -126.396 201.562 -92.4581 182.867 -59.6475C177.536 -50.2901 172.033 -40.619 166.446 -31.1973C144.508 5.7383 113.575 51.2087 68.5521 75.2141C46.0586 87.1926 20.6534 93.566 -3.91752 99.7261C-33.7807 107.225 -64.6541 114.954 -90.2545 132.844C-133.109 162.751 -153.506 214.489 -173.206 264.531C-174.919 268.887 -176.629 273.207 -178.335 277.491C-186.192 297.183 -195.625 318.395 -207.581 337.956L-206.712 338.431C-194.759 318.812 -185.317 297.582 -177.447 277.863Z" fill="#8989C7"/>
<path d="M119.684 -59.7184C114.081 -43.4248 114.86 -27.2282 116.928 -10.9253C118.909 4.73894 121.399 20.6552 118.072 36.7967C111.251 70.0233 85.3237 96.0204 59.0929 114.353C29.7724 134.826 -3.55108 149.887 -28.69 176.77C-41.0213 189.96 -50.86 206.564 -52.2686 224.794C-53.4769 239.907 -47.7629 252.736 -38.5356 263.05C-33.2907 268.915 -27.33 273.952 -21.3023 278.891L-23.5146 282.118C-25.2247 280.718 -26.9291 279.323 -28.6066 277.888C-38.3431 269.539 -47.9431 260.215 -52.7806 247.584C-58.2957 233.268 -56.4257 216.35 -49.9405 201.723C-42.0205 183.871 -28.0723 169.531 -13.2959 157.738C0.936314 146.37 16.4125 137.069 31.7333 127.626C60.9662 109.61 92.318 88.8851 107.999 55.6139C111.717 47.8432 114.218 39.5659 115.396 31.1294C116.507 22.8029 116.154 14.4974 115.331 6.31845C113.706 -9.66271 110.303 -25.5694 112.049 -42.0009C113.931 -59.1657 120.973 -75.6615 132.124 -89.0256L132.169 -89.0908L135.115 -86.9487C128.355 -78.9338 123.105 -69.6685 119.684 -59.7184V-59.7184Z" fill="#5ED9D1"/>
<path d="M194.407 -75.2021C180.225 -25.1388 137.121 9.99983 103.441 30.6513C86.1177 41.2878 67.8154 50.6068 50.117 59.6203C27.2044 71.291 3.51619 83.3695 -18.24 98.3675C-39.4675 113.005 -89.2417 153.138 -92.9595 209.359C-95.0839 241.688 -81.1887 275.342 -51.658 309.387C-48.8781 312.582 -46.007 315.743 -43.1185 318.878L-43.6959 319.721C-46.6312 316.539 -49.5417 313.337 -52.3702 310.081C-82.0734 275.86 -96.0342 241.956 -93.8898 209.351C-90.1557 152.662 -40.0717 112.276 -18.7125 97.5442C3.09333 82.5067 26.8139 70.4139 49.7531 58.7373C67.4382 49.7267 85.7139 40.4137 103.007 29.8053C136.52 9.24782 179.388 -25.7097 193.5 -75.4076C198.514 -93.1276 199.582 -111.849 200.606 -129.947C201.031 -137.488 201.478 -145.126 202.213 -152.758L203.093 -152.118C202.404 -144.718 201.968 -137.325 201.566 -129.981C200.529 -111.817 199.468 -93.0396 194.407 -75.2021Z" fill="#ECFFFE"/>
<mask id="path-4-inside-1_712_32" fill="white">
<ellipse cx="4.58177" cy="4.17839" rx="4.58177" ry="4.17839" transform="matrix(0.566351 -0.82413 -0.808609 -0.588467 21.4365 80.9443)"/>
</mask>
<path d="M20.55 74.859C20.662 74.9405 20.7876 74.9916 20.9019 75.0136C21.0107 75.0345 21.0877 75.0256 21.1266 75.017C21.1997 75.0009 21.1756 74.9808 21.1256 75.0536L13.4225 69.4477C16.1061 65.5427 21.6257 63.8646 25.9452 67.0081L20.55 74.859ZM21.1256 75.0536C21.0755 75.1264 21.1019 75.1431 21.0923 75.0668C21.0872 75.0262 21.0698 74.9485 21.0143 74.8499C20.9561 74.7464 20.8674 74.6415 20.7554 74.56L15.3602 82.4109C11.0407 79.2674 10.7389 73.3528 13.4225 69.4477L21.1256 75.0536ZM20.7554 74.56C20.6435 74.4786 20.5179 74.4274 20.4036 74.4054C20.2947 74.3845 20.2178 74.3935 20.1789 74.4021C20.1058 74.4182 20.1299 74.4382 20.1799 74.3654L27.8829 79.9713C25.1993 83.8764 19.6797 85.5545 15.3602 82.4109L20.7554 74.56ZM20.1799 74.3654C20.2299 74.2926 20.2035 74.2759 20.2131 74.3522C20.2182 74.3928 20.2356 74.4705 20.2911 74.5691C20.3494 74.6727 20.438 74.7775 20.55 74.859L25.9452 67.0081C30.2647 70.1516 30.5665 76.0662 27.8829 79.9713L20.1799 74.3654Z" fill="#ECFFFE" mask="url(#path-4-inside-1_712_32)"/>
<g opacity="0.3">
<path opacity="0.8" d="M-185.231 624.111C-185.231 624.111 -85.9444 537.42 191.772 603.5C340.182 638.822 387.586 549.176 451.549 534.459C548.015 512.327 623.135 595.962 776.004 445.709" stroke="#8989C7" stroke-width="1.28882" stroke-miterlimit="10"/>
<path opacity="0.8" d="M-182.751 634.896C-182.751 634.896 -79.9921 530.843 194.804 594.762C348.387 629.943 393.359 555.732 460.126 539.848C557.367 517.024 633.198 588.766 776.493 447.919" stroke="#8989C7" stroke-width="1.28882" stroke-miterlimit="10"/>
<path opacity="0.8" d="M-180.29 645.558C-180.29 645.558 -74.4012 524.999 197.688 585.9C356.308 621.481 398.922 561.903 468.521 544.972C566.478 521.2 643.113 581.412 776.824 449.963" stroke="#8989C7" stroke-width="1.28882" stroke-miterlimit="10"/>
<path opacity="0.8" d="M-177.789 656.37C-177.789 656.37 -68.5175 518.717 200.761 577.242C364.59 612.772 404.701 568.379 477.102 550.27C575.802 525.665 653.189 574.086 777.302 452.029" stroke="#8989C7" stroke-width="1.28882" stroke-miterlimit="10"/>
<path opacity="0.8" d="M-175.275 667.193C-175.275 667.193 -62.7905 512.35 203.809 568.446C372.849 603.907 410.332 574.727 485.659 555.404C585.1 529.958 663.268 566.705 777.904 454.006" stroke="#8989C7" stroke-width="1.28882" stroke-miterlimit="10"/>
<path opacity="0.8" d="M-172.774 677.908C-172.774 677.908 -56.9691 505.841 206.827 559.517C380.954 594.922 416.066 580.889 494.22 560.5C594.399 534.206 673.317 559.149 778.344 455.834" stroke="#8989C7" stroke-width="1.28882" stroke-miterlimit="10"/>
<path opacity="0.8" d="M-170.229 688.778C-170.229 688.778 -51.0261 499.33 209.87 550.719C389.213 586.022 421.862 587.286 502.783 565.574C603.727 538.548 683.235 551.59 778.778 457.625" stroke="#8989C7" stroke-width="1.28882" stroke-miterlimit="10"/>
<path opacity="0.8" d="M-167.661 699.729C-167.661 699.729 -45.2213 492.914 212.904 541.959C397.592 577.104 427.634 593.565 511.347 570.643C613.051 542.872 693.297 544.099 779.224 459.506" stroke="#8989C7" stroke-width="1.28882" stroke-miterlimit="10"/>
<path opacity="0.8" d="M-165.082 710.741C-165.082 710.741 -39.3694 486.366 215.762 533.197C405.642 568.045 433.28 599.916 519.778 575.761C622.332 547.065 703.175 536.491 779.605 461.227" stroke="#8989C7" stroke-width="1.28882" stroke-miterlimit="10"/>
<path opacity="0.8" d="M-162.458 721.872C-162.458 721.872 -33.4897 479.908 218.767 524.514C413.834 559.068 439.057 606.232 528.335 580.839C631.639 551.372 713.192 528.967 780.01 463.065" stroke="#8989C7" stroke-width="1.28882" stroke-miterlimit="10"/>
<path opacity="0.8" d="M-159.817 733.002C-159.817 733.002 -27.6394 473.291 221.763 515.809C422.081 549.793 444.836 612.542 536.894 585.906C640.945 555.664 723.164 521.3 780.383 464.771" stroke="#8989C7" stroke-width="1.28882" stroke-miterlimit="10"/>
<path opacity="0.8" d="M-157.188 744.007C-157.188 744.007 -21.8179 466.512 224.724 506.956C430.345 540.619 450.648 618.969 545.453 590.963C650.25 559.944 733.148 513.735 780.781 466.59" stroke="#8989C7" stroke-width="1.28882" stroke-miterlimit="10"/>
<path opacity="0.8" d="M-154.518 755.137C-154.518 755.137 -15.9678 459.823 227.707 498.206C438.47 531.459 456.432 625.277 554.01 596.021C659.552 564.225 743.089 506.039 781.147 468.292" stroke="#8989C7" stroke-width="1.28882" stroke-miterlimit="10"/>
<path opacity="0.8" d="M-151.835 766.27C-151.835 766.27 -10.02 452.944 230.557 489.462C446.554 522.152 462.179 631.988 562.441 601.106C668.783 568.78 752.919 498.48 781.54 470.118" stroke="#8989C7" stroke-width="1.28882" stroke-miterlimit="10"/>
<path opacity="0.8" d="M-149.171 777.274C-149.171 777.274 -4.19867 446.055 233.5 480.535C454.852 512.635 467.966 638.296 570.968 606.034C678.051 572.929 762.804 490.624 781.873 471.697" stroke="#8989C7" stroke-width="1.28882" stroke-miterlimit="10"/>
<path opacity="0.8" d="M-146.444 788.585C-146.444 788.585 1.767 438.809 236.441 471.792C463.049 502.91 473.738 644.691 579.528 611.274C687.343 577.372 772.718 483.146 782.246 473.67" stroke="#8989C7" stroke-width="1.28882" stroke-miterlimit="10"/>
<path opacity="0.8" d="M-143.709 799.933C-143.709 799.933 7.62092 432.221 239.37 463.039C471.118 493.857 479.532 651.242 588.047 616.418C696.562 581.593 782.548 475.421 782.548 475.421" stroke="#8989C7" stroke-width="1.28882" stroke-miterlimit="10"/>
</g>
<path opacity="0.8" d="M525.932 615.388L531.062 602.428C550.733 552.528 571.073 500.942 613.72 471.136C639.164 453.353 669.959 445.626 699.738 438.161C724.357 431.994 749.824 425.609 772.429 413.566C817.629 389.499 848.67 343.883 870.667 306.833C876.262 297.416 881.762 287.753 887.097 278.387C905.764 245.63 925.038 211.74 950.725 183.794C951.884 182.521 953.054 181.29 954.234 180.041L955.768 177.068C953.859 178.997 951.931 181.005 950.001 183.103C924.25 211.129 904.941 245.066 886.246 277.877C880.915 287.234 875.411 296.905 869.825 306.327C847.887 343.263 816.954 388.733 771.931 412.738C749.438 424.717 724.032 431.09 699.461 437.25C669.598 444.749 638.725 452.478 613.124 470.368C570.27 500.276 549.873 552.013 530.173 602.055C528.46 606.411 526.75 610.732 525.044 615.016C517.187 634.707 507.754 655.92 495.798 675.481L496.667 675.956C508.62 656.336 518.062 635.106 525.932 615.388Z" fill="#ECFFFE"/>
<path d="M808.865 329.402C804.445 343.344 805.741 357.453 808.195 371.704C810.55 385.398 813.368 399.33 810.982 413.23C806.096 441.843 783.82 463.421 760.989 478.326C735.468 494.97 706.16 506.753 684.623 529.133C674.059 540.113 665.855 554.159 665.265 569.949C664.74 583.038 670.334 594.413 678.984 603.74C683.901 609.044 689.429 613.656 695.013 618.186L693.15 620.905C691.565 619.621 689.986 618.341 688.43 617.028C679.396 609.389 670.449 600.907 665.647 589.738C660.177 577.078 661.228 562.446 666.5 549.987C672.939 534.781 684.91 522.865 697.717 513.194C710.052 503.872 723.578 496.395 736.96 488.788C762.493 474.277 789.824 457.494 802.65 429.19C805.695 422.582 807.631 415.485 808.375 408.199C809.063 401.005 808.441 393.772 807.401 386.63C805.355 372.675 801.718 358.716 802.676 344.502C803.73 329.656 809.432 315.594 818.932 304.416L818.97 304.361L821.689 306.339C815.927 313.04 811.563 320.887 808.865 329.402V329.402Z" fill="#8989C7"/>
<path d="M911.631 285.308C896.748 344.172 845.592 383.704 805.278 406.488C784.543 418.224 762.539 428.339 741.261 438.122C713.715 450.789 685.237 463.9 659.279 480.593C633.952 496.885 574.859 542.005 573.136 608.767C572.162 647.157 590.927 687.989 628.913 730.127C632.488 734.082 636.174 738.001 639.879 741.891L639.213 742.863C635.447 738.915 631.711 734.945 628.073 730.915C589.867 688.558 571.009 647.425 571.993 608.708C573.712 541.39 633.173 495.983 658.657 479.587C684.674 462.85 713.191 449.723 740.77 437.05C762.032 427.27 784.003 417.162 804.702 405.457C844.817 382.776 895.691 343.447 910.507 285.014C915.768 264.179 916.133 241.938 916.476 220.438C916.616 211.479 916.778 202.406 917.295 193.356L918.408 194.166C917.936 202.942 917.774 211.724 917.652 220.449C917.298 242.028 916.944 264.335 911.631 285.308Z" fill="#5ED9D1"/>
<path d="M707.479 452.122C706.183 451.179 704.395 451.484 703.485 452.808C702.575 454.132 702.891 455.968 704.187 456.911C705.482 457.854 707.271 457.548 708.18 456.225C709.09 454.901 708.774 453.064 707.479 452.122Z" stroke="#5ED9D1" stroke-width="4.76314"/>
<g opacity="0.2" clip-path="url(#clip1_712_32)">
<path d="M749.758 152.924C750.791 153.195 751.429 154.276 751.187 155.335C750.923 156.393 749.868 157.047 748.834 156.799C747.801 156.528 747.164 155.447 747.405 154.388C747.647 153.307 748.703 152.654 749.758 152.924Z" fill="#5ED9D1"/>
<path d="M758.992 156.956C760.091 157.226 760.751 158.375 760.487 159.479C760.223 160.605 759.102 161.281 758.024 161.011C756.925 160.74 756.265 159.592 756.529 158.488C756.793 157.361 757.892 156.686 758.992 156.956Z" fill="#5ED9D1"/>
<path d="M759.189 103.411C760.311 103.704 760.992 104.853 760.706 105.979C760.421 107.128 759.299 107.827 758.2 107.534C757.079 107.241 756.397 106.092 756.683 104.966C756.947 103.817 758.068 103.119 759.189 103.411Z" fill="#5ED9D1"/>
<path d="M752.133 129.834C753.233 130.105 753.914 131.253 753.65 132.402C753.386 133.529 752.265 134.227 751.144 133.957C750.044 133.686 749.363 132.537 749.627 131.389C749.891 130.24 751.012 129.541 752.133 129.834Z" fill="#5ED9D1"/>
<path d="M740.743 168.872C741.667 169.098 742.216 170.066 741.997 170.99C741.777 171.936 740.831 172.499 739.93 172.274C739.006 172.049 738.457 171.08 738.677 170.156C738.896 169.233 739.82 168.647 740.743 168.872Z" fill="#5ED9D1"/>
<path d="M750.527 173.401C751.495 173.648 752.088 174.662 751.846 175.653C751.605 176.644 750.615 177.253 749.648 177.005C748.68 176.757 748.087 175.743 748.329 174.752C748.57 173.761 749.56 173.175 750.527 173.401Z" fill="#5ED9D1"/>
<path d="M750.946 99.4916C752.001 99.7619 752.661 100.866 752.397 101.947C752.133 103.028 751.056 103.704 750 103.434C748.945 103.163 748.285 102.06 748.549 100.978C748.813 99.8745 749.868 99.2213 750.946 99.4916Z" fill="#5ED9D1"/>
<path d="M743.337 125.623C744.371 125.893 744.986 126.952 744.744 128.01C744.481 129.069 743.447 129.7 742.414 129.452C741.38 129.182 740.765 128.123 741.007 127.064C741.271 126.006 742.326 125.352 743.337 125.623Z" fill="#5ED9D1"/>
<path d="M740.458 148.486C741.448 148.734 742.041 149.77 741.8 150.784C741.558 151.797 740.546 152.405 739.557 152.158C738.568 151.91 737.974 150.874 738.216 149.86C738.458 148.846 739.469 148.238 740.458 148.486Z" fill="#5ED9D1"/>
<path d="M732.741 182.253C733.532 182.456 734.038 183.29 733.84 184.1C733.642 184.911 732.828 185.43 732.037 185.227C731.245 185.024 730.74 184.191 730.938 183.38C731.135 182.546 731.949 182.051 732.741 182.253Z" fill="#5ED9D1"/>
<path d="M743.095 187.209C743.953 187.434 744.48 188.312 744.261 189.191C744.041 190.069 743.183 190.61 742.326 190.385C741.468 190.16 740.941 189.281 741.161 188.403C741.38 187.547 742.238 187.006 743.095 187.209Z" fill="#5ED9D1"/>
<path d="M753.341 191.782C754.243 192.007 754.793 192.953 754.573 193.877C754.353 194.801 753.429 195.364 752.528 195.138C751.626 194.913 751.077 193.967 751.297 193.043C751.517 192.12 752.44 191.557 753.341 191.782Z" fill="#5ED9D1"/>
<path d="M756.926 65.6569C757.893 65.9047 758.487 66.9184 758.245 67.9095C758.003 68.9007 757.014 69.5089 756.046 69.2611C755.079 69.0133 754.485 67.9996 754.727 67.0085C754.969 66.0173 755.958 65.4091 756.926 65.6569Z" fill="#5ED9D1"/>
<path d="M742.59 95.1667C743.557 95.4144 744.151 96.4281 743.909 97.4193C743.667 98.4104 742.678 99.0186 741.71 98.7708C740.743 98.5231 740.149 97.5094 740.391 96.5182C740.633 95.5271 741.622 94.9189 742.59 95.1667Z" fill="#5ED9D1"/>
<path d="M734.564 120.869C735.532 121.117 736.125 122.13 735.884 123.121C735.642 124.113 734.652 124.721 733.685 124.473C732.717 124.225 732.124 123.212 732.366 122.22C732.608 121.229 733.597 120.621 734.564 120.869Z" fill="#5ED9D1"/>
<path d="M731.136 143.575C732.082 143.823 732.653 144.792 732.411 145.76C732.169 146.729 731.224 147.315 730.279 147.067C729.333 146.819 728.762 145.851 729.003 144.882C729.245 143.913 730.191 143.328 731.136 143.575Z" fill="#5ED9D1"/>
<path d="M730.872 163.894C731.752 164.119 732.279 165.02 732.06 165.899C731.84 166.8 730.96 167.341 730.103 167.115C729.223 166.89 728.696 165.989 728.915 165.111C729.135 164.232 730.015 163.691 730.872 163.894Z" fill="#5ED9D1"/>
<path d="M725.002 193.629C725.661 193.809 726.079 194.485 725.903 195.183C725.727 195.859 725.068 196.287 724.386 196.107C723.726 195.926 723.309 195.251 723.485 194.552C723.66 193.854 724.342 193.448 725.002 193.629Z" fill="#5ED9D1"/>
<path d="M735.928 198.945C736.653 199.125 737.115 199.891 736.917 200.634C736.741 201.378 735.993 201.851 735.268 201.648C734.542 201.468 734.081 200.702 734.279 199.959C734.454 199.215 735.202 198.765 735.928 198.945Z" fill="#5ED9D1"/>
<path d="M746.723 203.856C747.515 204.059 747.977 204.87 747.801 205.681C747.603 206.492 746.811 206.965 746.02 206.784C745.228 206.582 744.767 205.771 744.942 204.96C745.14 204.149 745.932 203.653 746.723 203.856Z" fill="#5ED9D1"/>
<path d="M748.395 61.7824C749.274 62.0077 749.824 62.9313 749.604 63.8323C749.384 64.7334 748.483 65.2965 747.603 65.0713C746.724 64.846 746.174 63.9224 746.394 63.0214C746.614 62.0978 747.515 61.5572 748.395 61.7824Z" fill="#5ED9D1"/>
<path d="M734.148 90.3914C735.05 90.6167 735.599 91.5628 735.379 92.4863C735.159 93.4099 734.236 93.9731 733.335 93.7478C732.433 93.5225 731.883 92.5764 732.103 91.6529C732.323 90.7293 733.247 90.1661 734.148 90.3914Z" fill="#5ED9D1"/>
<path d="M725.748 115.688C726.628 115.914 727.177 116.837 726.957 117.738C726.738 118.639 725.836 119.202 724.957 118.977C724.077 118.752 723.527 117.828 723.747 116.927C723.945 116.026 724.847 115.463 725.748 115.688Z" fill="#5ED9D1"/>
<path d="M721.791 138.169C722.671 138.394 723.22 139.318 723 140.219C722.78 141.12 721.879 141.683 721 141.458C720.12 141.233 719.57 140.309 719.79 139.408C720.01 138.485 720.912 137.944 721.791 138.169Z" fill="#5ED9D1"/>
<path d="M719.087 160.104C719.154 160.96 719.884 161.598 720.72 161.53C721.555 161.463 722.178 160.714 722.112 159.858C722.046 159.002 721.315 158.364 720.48 158.431C719.645 158.499 719.021 159.248 719.087 160.104Z" fill="#5ED9D1"/>
<path d="M722.318 176.847C723.065 177.027 723.527 177.815 723.329 178.581C723.153 179.347 722.384 179.82 721.636 179.618C720.889 179.437 720.427 178.649 720.625 177.883C720.801 177.117 721.57 176.644 722.318 176.847Z" fill="#5ED9D1"/>
<path d="M717.043 203.315C717.548 203.45 717.878 203.968 717.746 204.509C717.614 205.027 717.109 205.365 716.581 205.23C716.075 205.095 715.745 204.576 715.877 204.036C716.009 203.518 716.515 203.18 717.043 203.315Z" fill="#5ED9D1"/>
<path d="M728.157 211.231C728.787 211.273 729.331 210.783 729.372 210.138C729.413 209.492 728.935 208.935 728.305 208.893C727.675 208.851 727.131 209.341 727.09 209.986C727.049 210.632 727.527 211.189 728.157 211.231Z" fill="#5ED9D1"/>
<path d="M739.819 214.24C740.457 214.398 740.83 215.051 740.676 215.705C740.522 216.358 739.885 216.741 739.247 216.583C738.61 216.426 738.236 215.772 738.39 215.119C738.566 214.466 739.203 214.083 739.819 214.24Z" fill="#5ED9D1"/>
<path d="M751.011 219.061C751.693 219.241 752.11 219.939 751.934 220.638C751.758 221.336 751.077 221.764 750.395 221.584C749.714 221.403 749.296 220.705 749.472 220.007C749.626 219.309 750.329 218.881 751.011 219.061Z" fill="#5ED9D1"/>
<path d="M739.468 57.5932C740.26 57.796 740.743 58.6069 740.546 59.4179C740.348 60.2288 739.556 60.7244 738.765 60.5217C737.973 60.3189 737.489 59.508 737.687 58.697C737.885 57.8861 738.677 57.3905 739.468 57.5932Z" fill="#5ED9D1"/>
<path d="M725.55 85.0973C726.408 85.3226 726.936 86.2011 726.716 87.0796C726.496 87.9582 725.638 88.4988 724.781 88.2735C723.923 88.0483 723.396 87.1697 723.616 86.2912C723.835 85.4352 724.693 84.8946 725.55 85.0973Z" fill="#5ED9D1"/>
<path d="M716.91 109.921C717.767 110.147 718.295 111.025 718.075 111.904C717.855 112.782 716.998 113.323 716.14 113.097C715.283 112.872 714.755 111.994 714.975 111.115C715.173 110.237 716.052 109.696 716.91 109.921Z" fill="#5ED9D1"/>
<path d="M712.447 132.267C713.261 132.47 713.766 133.326 713.568 134.159C713.371 134.993 712.535 135.511 711.722 135.308C710.908 135.105 710.402 134.249 710.6 133.416C710.798 132.56 711.612 132.064 712.447 132.267Z" fill="#5ED9D1"/>
<path d="M711.062 152.474C711.831 152.677 712.293 153.465 712.117 154.253C711.919 155.042 711.15 155.515 710.38 155.335C709.611 155.132 709.149 154.343 709.325 153.555C709.523 152.767 710.292 152.294 711.062 152.474Z" fill="#5ED9D1"/>
<path d="M711.831 170.945C712.513 171.125 712.931 171.823 712.755 172.521C712.579 173.22 711.897 173.648 711.216 173.467C710.534 173.287 710.116 172.589 710.292 171.891C710.468 171.192 711.15 170.764 711.831 170.945Z" fill="#5ED9D1"/>
<path d="M714.03 187.794C714.646 187.952 715.02 188.583 714.866 189.213C714.712 189.844 714.096 190.227 713.481 190.069C712.865 189.912 712.491 189.281 712.645 188.65C712.799 188.02 713.415 187.637 714.03 187.794Z" fill="#5ED9D1"/>
<path d="M708.468 211.582C708.819 211.672 709.039 212.055 708.951 212.416C708.863 212.776 708.49 213.002 708.138 212.911C707.786 212.821 707.566 212.438 707.654 212.078C707.764 211.718 708.116 211.492 708.468 211.582Z" fill="#5ED9D1"/>
<path d="M720.428 217.619C720.846 217.732 721.087 218.16 720.977 218.565C720.867 218.993 720.45 219.241 720.054 219.128C719.636 219.016 719.394 218.588 719.504 218.182C719.614 217.777 720.032 217.529 720.428 217.619Z" fill="#5ED9D1"/>
<path d="M732.3 223.183C732.762 223.296 733.047 223.792 732.937 224.265C732.827 224.738 732.344 225.031 731.882 224.918C731.42 224.805 731.135 224.31 731.244 223.837C731.354 223.341 731.838 223.048 732.3 223.183Z" fill="#5ED9D1"/>
<path d="M744.041 228.184C744.59 228.319 744.942 228.905 744.81 229.49C744.678 230.053 744.107 230.414 743.535 230.279C742.985 230.143 742.633 229.558 742.765 228.972C742.897 228.409 743.469 228.049 744.041 228.184Z" fill="#5ED9D1"/>
<path d="M755.585 232.869C756.222 233.027 756.596 233.68 756.442 234.334C756.288 234.987 755.651 235.37 755.013 235.212C754.375 235.054 754.002 234.401 754.155 233.748C754.309 233.095 754.947 232.712 755.585 232.869Z" fill="#5ED9D1"/>
<path d="M748.02 24.8622C748.614 25.0199 748.965 25.6281 748.812 26.2138C748.658 26.822 748.064 27.1824 747.492 27.0247C746.899 26.867 746.547 26.2588 746.701 25.6731C746.833 25.0649 747.426 24.7045 748.02 24.8622Z" fill="#5ED9D1"/>
<path d="M730.124 53.0427C730.805 53.2229 731.201 53.8987 731.047 54.597C730.871 55.2953 730.211 55.7008 729.53 55.5431C728.848 55.3629 728.453 54.6871 728.606 53.9888C728.782 53.2905 729.464 52.885 730.124 53.0427Z" fill="#5ED9D1"/>
<path d="M716.757 79.5113C717.504 79.6915 717.944 80.4574 717.768 81.2233C717.592 81.9892 716.845 82.4397 716.097 82.2595C715.349 82.0793 714.91 81.3134 715.086 80.5475C715.284 79.7816 716.031 79.3311 716.757 79.5113Z" fill="#5ED9D1"/>
<path d="M708.005 103.727C708.775 103.929 709.236 104.718 709.06 105.506C708.862 106.295 708.093 106.768 707.323 106.588C706.554 106.385 706.092 105.596 706.268 104.808C706.444 104.02 707.235 103.546 708.005 103.727Z" fill="#5ED9D1"/>
<path d="M703.081 125.847C703.828 126.027 704.268 126.793 704.092 127.559C703.916 128.325 703.169 128.776 702.421 128.595C701.674 128.415 701.234 127.649 701.41 126.883C701.608 126.118 702.355 125.667 703.081 125.847Z" fill="#5ED9D1"/>
<path d="M701.146 146.03C701.827 146.211 702.245 146.909 702.069 147.607C701.893 148.306 701.212 148.734 700.53 148.553C699.848 148.373 699.431 147.675 699.607 146.977C699.783 146.278 700.464 145.85 701.146 146.03Z" fill="#5ED9D1"/>
<path d="M701.365 164.434C702.002 164.592 702.398 165.268 702.244 165.921C702.09 166.574 701.431 166.98 700.793 166.822C700.155 166.665 699.76 165.989 699.914 165.335C700.067 164.682 700.705 164.277 701.365 164.434Z" fill="#5ED9D1"/>
<path d="M702.993 181.419C703.564 181.554 703.894 182.14 703.762 182.726C703.63 183.312 703.059 183.649 702.487 183.514C701.915 183.379 701.585 182.793 701.717 182.208C701.871 181.622 702.443 181.284 702.993 181.419Z" fill="#5ED9D1"/>
<path d="M705.499 197.097C705.96 197.21 706.246 197.683 706.114 198.156C706.004 198.629 705.543 198.922 705.081 198.787C704.619 198.674 704.333 198.201 704.465 197.728C704.575 197.278 705.059 196.985 705.499 197.097Z" fill="#5ED9D1"/>
<path d="M699.123 218.566C699.321 218.611 699.431 218.813 699.387 219.016C699.343 219.219 699.145 219.331 698.947 219.286C698.749 219.241 698.639 219.039 698.683 218.836C698.727 218.633 698.925 218.52 699.123 218.566Z" fill="#5ED9D1"/>
<path d="M711.545 224.985C711.809 225.053 711.963 225.323 711.897 225.594C711.831 225.864 711.567 226.022 711.303 225.954C711.039 225.886 710.885 225.616 710.951 225.346C711.039 225.075 711.303 224.918 711.545 224.985Z" fill="#5ED9D1"/>
<path d="M723.901 230.864C724.209 230.954 724.407 231.27 724.319 231.585C724.231 231.9 723.923 232.103 723.615 232.013C723.307 231.923 723.11 231.608 723.198 231.292C723.285 230.977 723.593 230.774 723.901 230.864Z" fill="#5ED9D1"/>
<path d="M736.126 236.203C736.5 236.293 736.742 236.699 736.654 237.082C736.566 237.465 736.17 237.713 735.796 237.622C735.423 237.532 735.181 237.127 735.269 236.744C735.379 236.338 735.752 236.113 736.126 236.203Z" fill="#5ED9D1"/>
<path d="M748.22 241.091C748.681 241.204 748.967 241.7 748.857 242.173C748.747 242.646 748.264 242.939 747.802 242.826C747.34 242.713 747.054 242.218 747.164 241.745C747.274 241.272 747.736 240.979 748.22 241.091Z" fill="#5ED9D1"/>
<path d="M736.477 21.5958C736.961 21.7085 737.247 22.2041 737.137 22.6996C737.027 23.1952 736.543 23.488 736.059 23.3754C735.576 23.2628 735.29 22.7672 735.4 22.2716C735.51 21.7761 735.993 21.4607 736.477 21.5958Z" fill="#5ED9D1"/>
<path d="M720.45 48.042C721.043 48.1997 721.395 48.8079 721.241 49.3936C721.087 49.9793 720.494 50.3622 719.922 50.2046C719.328 50.0469 718.977 49.4387 719.131 48.853C719.262 48.2673 719.856 47.9069 720.45 48.042Z" fill="#5ED9D1"/>
<path d="M707.785 73.451C708.422 73.6087 708.818 74.2845 708.664 74.9378C708.51 75.591 707.851 75.9965 707.213 75.8388C706.575 75.6811 706.18 75.0053 706.333 74.3521C706.509 73.6988 707.147 73.2933 707.785 73.451Z" fill="#5ED9D1"/>
<path d="M699.056 97.0593C699.737 97.2395 700.155 97.9378 699.979 98.6361C699.803 99.3344 699.122 99.7624 698.44 99.5822C697.759 99.402 697.341 98.7037 697.517 98.0054C697.671 97.3071 698.352 96.9016 699.056 97.0593Z" fill="#5ED9D1"/>
<path d="M693.78 118.842C694.462 119.022 694.88 119.721 694.704 120.419C694.528 121.117 693.846 121.545 693.165 121.365C692.483 121.185 692.066 120.486 692.241 119.788C692.395 119.09 693.099 118.662 693.78 118.842Z" fill="#5ED9D1"/>
<path d="M691.295 138.935C691.933 139.093 692.307 139.746 692.153 140.4C691.999 141.053 691.361 141.436 690.724 141.278C690.086 141.121 689.712 140.467 689.866 139.814C690.02 139.183 690.658 138.778 691.295 138.935Z" fill="#5ED9D1"/>
<path d="M690.899 157.452C691.47 157.587 691.8 158.172 691.668 158.758C691.536 159.344 690.965 159.682 690.393 159.546C689.821 159.411 689.492 158.826 689.624 158.24C689.777 157.654 690.349 157.316 690.899 157.452Z" fill="#5ED9D1"/>
<path d="M691.977 174.549C692.461 174.662 692.747 175.18 692.637 175.653C692.527 176.148 692.021 176.441 691.559 176.329C691.076 176.216 690.79 175.698 690.9 175.225C691.01 174.729 691.493 174.414 691.977 174.549Z" fill="#5ED9D1"/>
<path d="M693.979 190.295C694.396 190.407 694.638 190.835 694.528 191.241C694.418 191.669 694.001 191.917 693.605 191.804C693.187 191.691 692.945 191.263 693.055 190.858C693.143 190.453 693.561 190.205 693.979 190.295Z" fill="#5ED9D1"/>
<path d="M696.462 204.982C696.748 205.05 696.946 205.365 696.858 205.658C696.792 205.951 696.484 206.153 696.198 206.063C695.912 205.996 695.715 205.68 695.802 205.387C695.868 205.095 696.154 204.914 696.462 204.982Z" fill="#5ED9D1"/>
<path d="M688.833 224.422C688.855 224.422 688.877 224.467 688.877 224.489C688.877 224.512 688.833 224.534 688.811 224.534C688.789 224.534 688.767 224.489 688.767 224.467C688.789 224.422 688.811 224.399 688.833 224.422Z" fill="#5ED9D1"/>
<path d="M701.696 231.225C701.784 231.248 701.85 231.338 701.828 231.45C701.806 231.54 701.718 231.608 701.608 231.585C701.52 231.563 701.454 231.473 701.476 231.36C701.498 231.27 701.608 231.203 701.696 231.225Z" fill="#5ED9D1"/>
<path d="M714.492 237.464C714.624 237.509 714.712 237.645 714.69 237.802C714.646 237.937 714.514 238.028 714.36 238.005C714.228 237.96 714.14 237.825 714.162 237.667C714.206 237.532 714.36 237.442 714.492 237.464Z" fill="#5ED9D1"/>
<path d="M727.199 243.141C727.419 243.187 727.529 243.412 727.485 243.637C727.441 243.862 727.221 243.975 727.001 243.93C726.781 243.885 726.671 243.66 726.715 243.434C726.781 243.209 726.979 243.074 727.199 243.141Z" fill="#5ED9D1"/>
<path d="M739.754 248.3C740.039 248.368 740.193 248.661 740.127 248.954C740.061 249.246 739.776 249.404 739.49 249.337C739.204 249.269 739.05 248.976 739.116 248.683C739.182 248.413 739.468 248.233 739.754 248.3Z" fill="#5ED9D1"/>
<path d="M752.11 253.098C752.439 253.188 752.637 253.526 752.549 253.863C752.461 254.201 752.132 254.404 751.802 254.314C751.472 254.224 751.274 253.886 751.362 253.548C751.472 253.21 751.802 253.007 752.11 253.098Z" fill="#5ED9D1"/>
<path d="M724.715 17.7893C725.045 17.8794 725.243 18.2173 725.177 18.5552C725.089 18.8931 724.759 19.0958 724.429 19.0283C724.099 18.9382 723.902 18.6003 723.968 18.2624C724.055 17.9245 724.385 17.7217 724.715 17.7893Z" fill="#5ED9D1"/>
<path d="M710.489 42.6359C710.973 42.7485 711.281 43.2666 711.149 43.7622C711.039 44.2578 710.533 44.5731 710.05 44.438C709.566 44.3253 709.258 43.8072 709.39 43.3117C709.522 42.8161 710.006 42.5007 710.489 42.6359Z" fill="#5ED9D1"/>
<path d="M698.683 66.9409C699.233 67.076 699.584 67.6617 699.43 68.2249C699.299 68.788 698.727 69.1484 698.177 68.9907C697.628 68.8556 697.276 68.2699 697.43 67.7068C697.562 67.1436 698.133 66.8057 698.683 66.9409Z" fill="#5ED9D1"/>
<path d="M690.063 89.8958C690.679 90.0535 691.053 90.6842 690.899 91.315C690.745 91.9457 690.129 92.3286 689.514 92.171C688.898 92.0133 688.524 91.3825 688.678 90.7518C688.832 90.1211 689.448 89.7381 690.063 89.8958Z" fill="#5ED9D1"/>
<path d="M684.501 111.385C685.095 111.543 685.469 112.151 685.315 112.782C685.161 113.413 684.567 113.773 683.952 113.615C683.358 113.458 682.984 112.849 683.138 112.219C683.292 111.61 683.908 111.227 684.501 111.385Z" fill="#5ED9D1"/>
<path d="M681.511 131.321C682.082 131.457 682.434 132.042 682.28 132.628C682.148 133.214 681.577 133.574 681.005 133.416C680.433 133.281 680.082 132.696 680.235 132.11C680.367 131.547 680.961 131.186 681.511 131.321Z" fill="#5ED9D1"/>
<path d="M680.545 149.838C681.05 149.973 681.38 150.491 681.248 151.032C681.116 151.55 680.611 151.888 680.083 151.753C679.577 151.617 679.247 151.099 679.379 150.559C679.511 150.018 680.039 149.703 680.545 149.838Z" fill="#5ED9D1"/>
<path d="M681.028 167.003C681.446 167.115 681.71 167.543 681.6 167.994C681.49 168.422 681.05 168.692 680.633 168.58C680.215 168.467 679.951 168.016 680.061 167.588C680.171 167.16 680.589 166.913 681.028 167.003Z" fill="#5ED9D1"/>
<path d="M682.457 182.951C682.809 183.041 683.007 183.402 682.919 183.739C682.831 184.1 682.479 184.303 682.149 184.212C681.797 184.122 681.599 183.762 681.687 183.424C681.775 183.064 682.105 182.861 682.457 182.951Z" fill="#5ED9D1"/>
<path d="M684.436 197.751C684.678 197.818 684.832 198.066 684.766 198.314C684.7 198.562 684.458 198.719 684.216 198.652C683.974 198.584 683.821 198.336 683.886 198.089C683.952 197.841 684.194 197.706 684.436 197.751Z" fill="#5ED9D1"/>
<path d="M686.656 211.538C686.788 211.583 686.876 211.718 686.854 211.876C686.81 212.011 686.678 212.101 686.524 212.078C686.392 212.033 686.304 211.898 686.326 211.74C686.37 211.605 686.524 211.515 686.656 211.538Z" fill="#5ED9D1"/>
<path d="M677.685 228.635C677.817 228.657 677.883 228.792 677.861 228.928C677.839 229.063 677.707 229.13 677.575 229.108C677.443 229.085 677.377 228.95 677.399 228.815C677.421 228.68 677.553 228.59 677.685 228.635Z" fill="#5ED9D1"/>
<path d="M704.003 243.006L704.025 243.029L704.003 243.053L703.981 243.029C703.981 243.006 703.981 243.006 704.003 243.006Z" fill="#5ED9D1"/>
<path d="M717.129 249.065C717.195 249.088 717.217 249.133 717.217 249.201C717.195 249.268 717.151 249.291 717.085 249.291C717.019 249.268 716.997 249.223 716.997 249.156C716.997 249.088 717.063 249.065 717.129 249.065Z" fill="#5ED9D1"/>
<path d="M730.123 254.584C730.233 254.607 730.299 254.72 730.277 254.832C730.255 254.945 730.145 255.012 730.035 254.99C729.925 254.967 729.859 254.855 729.881 254.742C729.903 254.629 730.013 254.562 730.123 254.584Z" fill="#5ED9D1"/>
<path d="M742.987 259.585C743.163 259.63 743.273 259.81 743.229 259.991C743.185 260.171 743.009 260.283 742.833 260.238C742.657 260.193 742.547 260.013 742.591 259.833C742.613 259.653 742.789 259.54 742.987 259.585Z" fill="#5ED9D1"/>
<path d="M755.628 264.158C755.869 264.226 756.023 264.473 755.957 264.721C755.891 264.969 755.65 265.127 755.408 265.059C755.166 264.991 755.012 264.744 755.078 264.496C755.144 264.248 755.386 264.113 755.628 264.158Z" fill="#5ED9D1"/>
<path d="M713.062 13.3065C713.282 13.3516 713.414 13.5768 713.348 13.8021C713.304 14.0274 713.084 14.1625 712.864 14.0949C712.645 14.0499 712.513 13.8246 712.579 13.5994C712.645 13.3741 712.864 13.2389 713.062 13.3065Z" fill="#5ED9D1"/>
<path d="M700.42 36.8465C700.75 36.9366 700.948 37.2745 700.882 37.6124C700.794 37.9503 700.464 38.153 700.134 38.0855C699.805 37.9953 699.607 37.6575 699.673 37.3196C699.761 36.9591 700.09 36.7564 700.42 36.8465Z" fill="#5ED9D1"/>
<path d="M689.493 60.0036C689.955 60.1162 690.241 60.6118 690.131 61.0849C690.021 61.5579 689.537 61.8507 689.075 61.7381C688.614 61.6255 688.328 61.1299 688.438 60.6569C688.548 60.1838 689.031 59.891 689.493 60.0036Z" fill="#5ED9D1"/>
<path d="M681.071 82.3492C681.577 82.4843 681.885 83.0024 681.753 83.498C681.621 84.0161 681.115 84.3315 680.631 84.1963C680.126 84.0611 679.818 83.5431 679.95 83.0475C680.06 82.5294 680.565 82.2365 681.071 82.3492Z" fill="#5ED9D1"/>
<path d="M675.29 103.389C675.818 103.524 676.148 104.065 676.016 104.606C675.884 105.146 675.356 105.484 674.829 105.349C674.301 105.214 673.971 104.673 674.103 104.133C674.235 103.592 674.763 103.254 675.29 103.389Z" fill="#5ED9D1"/>
<path d="M671.836 123.212C672.32 123.325 672.606 123.843 672.496 124.338C672.386 124.834 671.88 125.127 671.397 125.014C670.913 124.902 670.627 124.383 670.737 123.888C670.869 123.392 671.353 123.077 671.836 123.212Z" fill="#5ED9D1"/>
<path d="M670.297 141.661C670.737 141.773 671.001 142.224 670.891 142.675C670.781 143.125 670.341 143.395 669.902 143.283C669.462 143.17 669.198 142.72 669.308 142.269C669.44 141.841 669.88 141.571 670.297 141.661Z" fill="#5ED9D1"/>
<path d="M670.189 158.871C670.562 158.961 670.804 159.367 670.716 159.75C670.628 160.132 670.233 160.38 669.859 160.29C669.485 160.2 669.243 159.795 669.331 159.412C669.419 159.006 669.815 158.758 670.189 158.871Z" fill="#5ED9D1"/>
<path d="M671.045 174.978C671.309 175.045 671.463 175.315 671.397 175.586C671.331 175.856 671.067 176.014 670.803 175.946C670.539 175.879 670.385 175.608 670.451 175.338C670.495 175.068 670.781 174.91 671.045 174.978Z" fill="#5ED9D1"/>
<path d="M672.496 189.89C672.694 189.935 672.804 190.137 672.76 190.34C672.716 190.543 672.518 190.655 672.32 190.61C672.122 190.565 672.012 190.363 672.056 190.16C672.122 189.98 672.298 189.845 672.496 189.89Z" fill="#5ED9D1"/>
<path d="M674.234 203.9C674.3 203.923 674.344 203.99 674.344 204.08C674.322 204.148 674.256 204.193 674.168 204.193C674.102 204.171 674.058 204.103 674.058 204.013C674.08 203.923 674.168 203.878 674.234 203.9Z" fill="#5ED9D1"/>
<path d="M719.328 259.766C719.394 259.788 719.438 259.856 719.416 259.923C719.394 259.991 719.328 260.036 719.262 260.013C719.196 259.991 719.152 259.923 719.174 259.856C719.174 259.788 719.24 259.743 719.328 259.766Z" fill="#5ED9D1"/>
<path d="M745.647 270.218C745.691 270.218 745.713 270.263 745.713 270.309C745.713 270.354 745.669 270.376 745.625 270.376C745.581 270.376 745.559 270.331 745.559 270.286C745.581 270.218 745.625 270.196 745.647 270.218Z" fill="#5ED9D1"/>
<path d="M701.761 8.2157C701.849 8.23823 701.893 8.32833 701.871 8.39591C701.849 8.48602 701.761 8.53107 701.695 8.50854C701.608 8.48602 701.564 8.39591 701.586 8.32833C701.608 8.23823 701.673 8.19318 701.761 8.2157Z" fill="#5ED9D1"/>
<path d="M690.459 30.4267C690.723 30.4943 690.877 30.7646 690.811 31.035C690.745 31.3053 690.481 31.463 690.217 31.3954C689.953 31.3278 689.8 31.0575 689.866 30.7872C689.931 30.5168 690.195 30.3592 690.459 30.4267Z" fill="#5ED9D1"/>
<path d="M680.302 52.7044C680.654 52.7945 680.896 53.1775 680.786 53.5379C680.698 53.8983 680.324 54.1461 679.972 54.0335C679.62 53.9434 679.379 53.5604 679.489 53.2C679.576 52.8396 679.95 52.6143 680.302 52.7044Z" fill="#5ED9D1"/>
<path d="M672.145 74.3078C672.585 74.4204 672.849 74.8709 672.739 75.2989C672.629 75.7494 672.189 76.0197 671.771 75.9071C671.332 75.7945 671.068 75.344 671.178 74.916C671.266 74.4654 671.705 74.1951 672.145 74.3078Z" fill="#5ED9D1"/>
<path d="M666.209 94.9636C666.671 95.0763 666.935 95.5493 666.825 95.9998C666.715 96.4729 666.253 96.7432 665.813 96.6306C665.352 96.5179 665.088 96.0449 665.198 95.5944C665.286 95.1438 665.747 94.851 666.209 94.9636Z" fill="#5ED9D1"/>
<path d="M662.34 114.517C662.779 114.629 663.021 115.08 662.933 115.508C662.823 115.958 662.384 116.206 661.966 116.116C661.526 116.003 661.284 115.553 661.372 115.125C661.482 114.674 661.922 114.404 662.34 114.517Z" fill="#5ED9D1"/>
<path d="M660.251 132.898C660.625 132.989 660.867 133.394 660.779 133.777C660.691 134.16 660.295 134.408 659.921 134.318C659.548 134.227 659.306 133.822 659.394 133.439C659.482 133.056 659.877 132.808 660.251 132.898Z" fill="#5ED9D1"/>
<path d="M659.525 150.175C659.81 150.243 660.008 150.558 659.92 150.851C659.854 151.144 659.547 151.347 659.261 151.257C658.975 151.189 658.777 150.874 658.865 150.581C658.931 150.288 659.239 150.108 659.525 150.175Z" fill="#5ED9D1"/>
<path d="M659.788 166.305C660.008 166.372 660.162 166.598 660.096 166.823C660.03 167.048 659.81 167.206 659.59 167.138C659.37 167.071 659.216 166.845 659.282 166.62C659.348 166.395 659.568 166.237 659.788 166.305Z" fill="#5ED9D1"/>
<path d="M660.69 181.442C660.799 181.464 660.865 181.577 660.843 181.69C660.821 181.802 660.712 181.87 660.602 181.847C660.492 181.825 660.426 181.712 660.448 181.6C660.47 181.487 660.58 181.419 660.69 181.442Z" fill="#5ED9D1"/>
<path d="M663.33 208.473C663.395 208.496 663.439 208.563 663.439 208.654C663.417 208.721 663.352 208.766 663.264 208.766C663.198 208.744 663.154 208.676 663.154 208.609C663.176 208.496 663.242 208.451 663.33 208.473Z" fill="#5ED9D1"/>
<path d="M734.477 275.016C734.609 275.061 734.697 275.196 734.653 275.331C734.609 275.467 734.477 275.557 734.345 275.512C734.213 275.467 734.125 275.331 734.169 275.196C734.213 275.061 734.345 274.993 734.477 275.016Z" fill="#5ED9D1"/>
<path d="M747.801 279.927C747.867 279.949 747.911 280.017 747.889 280.084C747.867 280.152 747.801 280.197 747.735 280.175C747.669 280.152 747.625 280.084 747.647 280.017C747.647 279.949 747.713 279.904 747.801 279.927Z" fill="#5ED9D1"/>
<path d="M691.053 2.33594C691.119 2.35846 691.163 2.42604 691.141 2.49362C691.119 2.5612 691.053 2.60625 690.987 2.58373C690.921 2.5612 690.877 2.49362 690.899 2.42604C690.921 2.35847 690.987 2.31341 691.053 2.33594Z" fill="#5ED9D1"/>
<path d="M680.719 23.7355C680.829 23.758 680.917 23.8932 680.873 24.0058C680.851 24.1184 680.719 24.2085 680.609 24.1635C680.499 24.141 680.411 24.0058 680.455 23.8932C680.477 23.7805 680.587 23.6904 680.719 23.7355Z" fill="#5ED9D1"/>
<path d="M671.244 45.0006C671.508 45.0682 671.662 45.3385 671.596 45.6088C671.53 45.8792 671.266 46.0368 671.002 45.9693C670.739 45.9017 670.585 45.6314 670.651 45.3611C670.717 45.1133 670.98 44.9331 671.244 45.0006Z" fill="#5ED9D1"/>
<path d="M663.329 65.9731C663.637 66.0632 663.835 66.3786 663.747 66.6939C663.659 67.0093 663.351 67.212 663.043 67.1219C662.735 67.0318 662.537 66.7165 662.625 66.4011C662.691 66.0857 662.999 65.9055 663.329 65.9731Z" fill="#5ED9D1"/>
<path d="M657.282 86.1341C657.655 86.2242 657.875 86.6071 657.787 86.99C657.699 87.373 657.326 87.5983 656.952 87.5081C656.578 87.418 656.358 87.0351 656.446 86.6522C656.534 86.2692 656.908 86.0439 657.282 86.1341Z" fill="#5ED9D1"/>
<path d="M653.061 105.371C653.435 105.461 653.655 105.844 653.567 106.227C653.479 106.61 653.105 106.836 652.731 106.745C652.357 106.655 652.137 106.272 652.225 105.889C652.313 105.507 652.687 105.281 653.061 105.371Z" fill="#5ED9D1"/>
<path d="M650.444 123.64C650.752 123.73 650.95 124.046 650.862 124.361C650.774 124.676 650.466 124.879 650.158 124.789C649.85 124.699 649.653 124.383 649.741 124.068C649.806 123.753 650.114 123.573 650.444 123.64Z" fill="#5ED9D1"/>
<path d="M649.126 140.872C649.367 140.94 649.521 141.188 649.455 141.435C649.389 141.683 649.148 141.841 648.906 141.773C648.664 141.706 648.51 141.458 648.576 141.21C648.642 140.962 648.884 140.805 649.126 140.872Z" fill="#5ED9D1"/>
<path d="M648.795 157.047C648.971 157.092 649.081 157.272 649.037 157.452C648.993 157.632 648.817 157.745 648.641 157.7C648.466 157.655 648.356 157.475 648.4 157.294C648.444 157.092 648.619 157.001 648.795 157.047Z" fill="#5ED9D1"/>
<path d="M649.125 172.273C649.191 172.296 649.213 172.341 649.213 172.409C649.191 172.476 649.147 172.499 649.081 172.499C649.015 172.476 648.993 172.431 648.993 172.364C648.993 172.296 649.059 172.273 649.125 172.273Z" fill="#5ED9D1"/>
<path d="M649.873 186.353C649.939 186.375 649.961 186.42 649.961 186.488C649.939 186.555 649.895 186.578 649.829 186.578C649.763 186.555 649.741 186.51 649.741 186.443C649.741 186.375 649.807 186.33 649.873 186.353Z" fill="#5ED9D1"/>
<path d="M735.73 284.162C735.993 284.229 736.169 284.5 736.103 284.792C736.037 285.063 735.773 285.243 735.488 285.175C735.224 285.108 735.048 284.837 735.114 284.545C735.18 284.274 735.466 284.094 735.73 284.162Z" fill="#5ED9D1"/>
<path d="M662.449 37.0034C662.603 37.0485 662.691 37.1837 662.647 37.3413C662.603 37.499 662.471 37.5891 662.317 37.5441C662.163 37.499 662.075 37.3639 662.119 37.2062C662.141 37.071 662.295 36.9809 662.449 37.0034Z" fill="#5ED9D1"/>
<path d="M654.754 57.2098C654.996 57.2773 655.15 57.5251 655.084 57.7729C655.018 58.0207 654.776 58.1784 654.535 58.1108C654.293 58.0432 654.139 57.7954 654.205 57.5476C654.249 57.2999 654.491 57.1647 654.754 57.2098Z" fill="#5ED9D1"/>
<path d="M648.575 76.9433C648.839 77.0108 649.015 77.2812 648.949 77.5515C648.883 77.8218 648.619 78.002 648.355 77.9344C648.091 77.8668 647.916 77.5965 647.982 77.3262C648.048 77.0334 648.311 76.8757 648.575 76.9433Z" fill="#5ED9D1"/>
<path d="M644.025 95.8427C644.311 95.9102 644.487 96.2031 644.399 96.4959C644.333 96.7888 644.047 96.969 643.762 96.8789C643.476 96.8113 643.3 96.5184 643.388 96.2256C643.476 95.9328 643.74 95.7525 644.025 95.8427Z" fill="#5ED9D1"/>
<path d="M640.923 113.908C641.165 113.976 641.297 114.201 641.231 114.449C641.165 114.696 640.945 114.832 640.703 114.764C640.462 114.696 640.33 114.471 640.396 114.223C640.44 113.998 640.681 113.863 640.923 113.908Z" fill="#5ED9D1"/>
<path d="M639.034 131.028C639.209 131.074 639.319 131.254 639.275 131.456C639.231 131.637 639.056 131.749 638.858 131.704C638.682 131.659 638.572 131.479 638.616 131.276C638.682 131.096 638.858 130.983 639.034 131.028Z" fill="#5ED9D1"/>
<path d="M638.11 147.224C638.198 147.247 638.264 147.337 638.242 147.45C638.22 147.54 638.132 147.607 638.022 147.585C637.934 147.562 637.868 147.472 637.89 147.36C637.912 147.247 638.022 147.202 638.11 147.224Z" fill="#5ED9D1"/>
<path d="M637.845 162.475C637.845 162.475 637.869 162.475 637.845 162.475C637.845 162.475 637.845 162.502 637.845 162.475C637.845 162.475 637.845 162.502 637.845 162.475Z" fill="#5ED9D1"/>
<path d="M638.089 176.441C638.199 176.463 638.265 176.576 638.221 176.689C638.199 176.801 638.089 176.869 637.979 176.824C637.869 176.801 637.803 176.689 637.847 176.576C637.891 176.486 638.001 176.418 638.089 176.441Z" fill="#5ED9D1"/>
<path d="M646.465 48.2895C646.575 48.312 646.641 48.4472 646.619 48.5598C646.597 48.6724 646.465 48.74 646.355 48.7175C646.245 48.6949 646.179 48.5598 646.201 48.4472C646.223 48.3345 646.355 48.2669 646.465 48.2895Z" fill="#5ED9D1"/>
<path d="M640.221 67.3692C640.419 67.4143 640.551 67.617 640.485 67.8198C640.441 68.0225 640.243 68.1577 640.045 68.0901C639.847 68.045 639.715 67.8423 639.781 67.6396C639.825 67.4368 640.023 67.3242 640.221 67.3692Z" fill="#5ED9D1"/>
<path d="M635.361 85.8856C635.581 85.9307 635.713 86.156 635.647 86.3812C635.603 86.6065 635.383 86.7416 635.163 86.6741C634.943 86.629 634.812 86.4037 634.877 86.1785C634.921 85.9757 635.141 85.8406 635.361 85.8856Z" fill="#5ED9D1"/>
<path d="M631.779 103.726C631.955 103.771 632.043 103.929 631.999 104.109C631.955 104.289 631.801 104.38 631.625 104.335C631.449 104.289 631.361 104.132 631.405 103.952C631.449 103.771 631.625 103.681 631.779 103.726Z" fill="#5ED9D1"/>
<path d="M629.359 120.666C629.491 120.689 629.557 120.824 629.535 120.959C629.513 121.094 629.381 121.162 629.249 121.139C629.117 121.117 629.051 120.981 629.073 120.846C629.117 120.711 629.227 120.621 629.359 120.666Z" fill="#5ED9D1"/>
<path d="M627.842 136.795C627.886 136.795 627.908 136.84 627.908 136.885C627.908 136.93 627.864 136.953 627.82 136.953C627.776 136.953 627.754 136.908 627.754 136.863C627.754 136.818 627.798 136.773 627.842 136.795Z" fill="#5ED9D1"/>
<path d="M627.028 151.887C627.072 151.887 627.094 151.932 627.094 151.977C627.094 152.023 627.05 152.045 627.006 152.045C626.962 152.045 626.94 152 626.94 151.955C626.962 151.887 626.984 151.865 627.028 151.887Z" fill="#5ED9D1"/>
<path d="M626.72 165.877C626.874 165.922 626.962 166.079 626.94 166.237C626.896 166.395 626.742 166.485 626.588 166.462C626.434 166.417 626.346 166.26 626.368 166.102C626.412 165.922 626.566 165.832 626.72 165.877Z" fill="#5ED9D1"/>
<path d="M626.655 179.032C626.919 179.1 627.095 179.393 627.029 179.663C626.963 179.933 626.677 180.113 626.413 180.046C626.15 179.978 625.974 179.685 626.04 179.415C626.128 179.122 626.391 178.965 626.655 179.032Z" fill="#5ED9D1"/>
<path d="M638.638 39.0312C638.66 39.0312 638.682 39.0761 638.682 39.0986C638.682 39.121 638.638 39.1434 638.615 39.1434C638.593 39.1434 638.571 39.0986 638.571 39.0761C638.571 39.0537 638.593 39.0312 638.638 39.0312Z" fill="#5ED9D1"/>
<path d="M632.261 57.5708C632.371 57.5933 632.415 57.7059 632.393 57.796C632.371 57.9087 632.261 57.9537 632.173 57.9312C632.063 57.9087 632.019 57.796 632.041 57.7059C632.063 57.6158 632.173 57.5482 632.261 57.5708Z" fill="#5ED9D1"/>
<path d="M627.094 75.6818C627.204 75.7043 627.27 75.8395 627.248 75.9521C627.226 76.0647 627.094 76.1323 626.984 76.1098C626.874 76.0872 626.808 75.9521 626.83 75.8395C626.874 75.7268 626.984 75.6367 627.094 75.6818Z" fill="#5ED9D1"/>
<path d="M623.115 93.0718C623.247 93.0944 623.313 93.2295 623.291 93.3647C623.269 93.4998 623.137 93.5674 623.005 93.5449C622.873 93.5224 622.807 93.3872 622.829 93.252C622.851 93.1394 622.983 93.0493 623.115 93.0718Z" fill="#5ED9D1"/>
<path d="M620.168 109.854C620.234 109.876 620.278 109.944 620.256 110.011C620.234 110.079 620.168 110.124 620.102 110.101C620.036 110.079 619.992 110.011 620.014 109.944C620.036 109.899 620.102 109.854 620.168 109.854Z" fill="#5ED9D1"/>
<path d="M619.377 65.1162C619.421 65.1387 619.465 65.1838 619.443 65.2288C619.421 65.2739 619.377 65.319 619.333 65.2964C619.289 65.2739 619.246 65.2288 619.267 65.1838C619.267 65.1387 619.333 65.1162 619.377 65.1162Z" fill="#5ED9D1"/>
</g>
</g>
<defs>
<clipPath id="clip0_712_32">
<rect width="757" height="553" fill="white"/>
</clipPath>
<clipPath id="clip1_712_32">
<rect width="412.05" height="273.887" fill="white" transform="translate(893.154 -35.1025) rotate(90)"/>
</clipPath>
</defs>
</svg>
