<svg width="1181" height="679" viewBox="0 0 1181 679" fill="none" xmlns="http://www.w3.org/2000/svg">
<g clip-path="url(#clip0_703_2)">
<rect width="1181" height="679" fill="#171753"/>
<path opacity="0.8" d="M-275.872 348.37L-267.446 332.342C-235.119 270.637 -201.692 206.846 -136.026 168.578C-96.847 145.747 -50.2084 134.926 -5.10779 124.47C32.1782 115.831 70.7481 106.888 105.342 91.1819C174.516 59.7907 223.661 2.78745 258.753 -43.3661C267.68 -55.0969 276.475 -67.1223 285.009 -78.7795C314.863 -119.55 345.691 -161.726 385.808 -196.954C387.617 -198.557 389.443 -200.112 391.283 -201.688L393.752 -205.38C390.779 -202.943 387.773 -200.408 384.76 -197.763C344.544 -162.436 313.659 -120.198 283.761 -79.3624C275.235 -67.7162 266.432 -55.6798 257.518 -43.9436C222.521 2.0671 173.547 58.8887 104.642 90.1961C70.2184 105.82 31.7418 114.745 -5.47113 123.373C-50.6998 133.874 -97.4573 144.701 -136.876 167.67C-202.86 206.071 -236.379 270.048 -268.758 331.929C-271.574 337.315 -274.383 342.658 -277.185 347.957C-290.083 372.311 -305.431 398.591 -324.473 422.974L-323.196 423.513C-304.156 399.059 -288.793 372.757 -275.872 348.37Z" fill="#8989C7"/>
<path d="M191.784 -73.336C182.449 -53.3874 182.748 -33.8583 184.983 -14.2618C187.124 4.56716 190.018 23.6765 184.125 43.3336C172.037 83.7955 131.522 116.429 90.9636 139.819C45.6292 165.939 -5.44985 185.713 -44.824 219.379C-64.1384 235.897 -79.8778 256.422 -82.9897 278.511C-85.6308 296.825 -77.7068 312.052 -64.3474 324.074C-56.7538 330.91 -48.0358 336.713 -39.2114 342.394L-42.7231 346.398C-45.2268 344.788 -47.722 343.183 -50.1746 341.529C-64.4084 331.905 -78.3836 321.095 -84.9962 306.065C-92.5395 289.033 -88.8028 268.507 -78.2287 250.53C-65.3156 228.588 -43.5003 210.605 -20.5736 195.659C1.50917 181.252 25.3564 169.282 48.9769 157.148C94.0461 134 142.458 107.478 167.912 66.5426C173.941 56.9792 178.162 46.8614 180.396 36.6141C182.522 26.5029 182.44 16.4862 181.642 6.64478C180.056 -12.584 175.784 -31.6385 179.307 -51.5709C183.076 -72.3958 194.592 -92.6569 212.135 -109.329L212.206 -109.41L216.534 -106.962C205.904 -96.9597 197.482 -85.5182 191.784 -73.336V-73.336Z" fill="#5ED9D1"/>
<path d="M304.138 -96.1653C280.012 -34.9697 213.016 9.55658 161.038 36.1216C134.302 49.8029 106.159 61.9378 78.9444 73.6747C43.7117 88.8715 7.2859 104.598 -26.3804 123.763C-59.2289 142.466 -136.567 193.346 -145.225 261.49C-150.183 300.673 -131.021 340.698 -88.2695 380.454C-84.2446 384.184 -80.0799 387.869 -75.8877 391.522L-76.8052 392.568C-81.0657 388.86 -85.2876 385.128 -89.3826 381.326C-132.385 341.366 -151.632 301.042 -146.629 261.525C-137.921 192.815 -60.1019 141.613 -27.0495 122.79C6.69404 103.575 43.1695 87.8297 78.4427 72.6245C105.637 60.8917 133.74 48.7653 160.428 35.1195C212.151 8.67597 278.778 -35.6202 302.779 -96.3706C311.311 -118.031 313.938 -140.714 316.464 -162.641C317.514 -171.778 318.602 -181.033 320.125 -190.294L321.419 -189.562C319.978 -180.584 318.919 -171.625 317.914 -162.729C315.366 -140.72 312.746 -117.97 304.138 -96.1653Z" fill="#ECFFFE"/>
<path d="M34.8651 88.731C33.3653 87.887 30.7946 88.2247 29.2007 90.0317C27.6068 91.8387 28.074 93.8857 29.5738 94.7297C31.0736 95.5736 33.6443 95.236 35.2382 93.429C36.8321 91.622 36.3649 89.5749 34.8651 88.731Z" stroke="#ECFFFE" stroke-width="4.76314"/>
<g opacity="0.3">
<path opacity="0.8" d="M-288.029 744.764C-288.029 744.764 -137.87 627.508 301.551 743.425C536.375 805.384 605.033 679.982 704.356 663.613C854.155 639.018 977.152 764.975 1207.29 560.304" stroke="#8989C7" stroke-width="1.28882" stroke-miterlimit="10"/>
<path opacity="0.8" d="M-283.582 760.292C-283.582 760.292 -129.077 618.228 305.667 730.844C548.611 793.003 614.422 689.558 718.072 671.703C869.049 646.144 992.429 755.097 1208.15 563.112" stroke="#8989C7" stroke-width="1.28882" stroke-miterlimit="10"/>
<path opacity="0.8" d="M-279.094 775.73C-279.094 775.73 -120.724 610.123 309.594 718.195C560.462 781.31 623.499 698.741 731.522 679.588C883.564 652.714 1007.48 745.137 1208.77 565.941" stroke="#8989C7" stroke-width="1.28882" stroke-miterlimit="10"/>
<path opacity="0.8" d="M-274.461 791.353C-274.461 791.353 -111.861 601.504 313.87 705.926C572.879 769.345 632.952 708.484 745.288 687.865C898.434 659.874 1022.77 735.351 1209.62 569.055" stroke="#8989C7" stroke-width="1.28882" stroke-miterlimit="10"/>
<path opacity="0.8" d="M-269.753 806.97C-269.753 806.97 -103.184 592.865 318.133 693.554C585.266 757.243 642.177 718.119 759.014 696.012C913.256 666.919 1038.06 725.618 1210.64 572.252" stroke="#8989C7" stroke-width="1.28882" stroke-miterlimit="10"/>
<path opacity="0.8" d="M-265.028 822.361C-265.028 822.361 -94.3077 584.13 322.374 681.08C597.417 745.038 651.557 727.547 772.743 704.179C928.071 673.999 1053.28 715.756 1211.4 575.392" stroke="#8989C7" stroke-width="1.28882" stroke-miterlimit="10"/>
<path opacity="0.8" d="M-260.211 837.812C-260.211 837.812 -85.2096 575.433 326.671 668.822C609.802 732.987 661.025 737.272 786.445 712.298C942.902 681.227 1068.26 705.935 1212.11 578.556" stroke="#8989C7" stroke-width="1.28882" stroke-miterlimit="10"/>
<path opacity="0.8" d="M-255.357 853.007C-255.357 853.007 -76.2959 566.809 330.943 656.552C622.326 720.84 670.382 746.651 800.074 720.273C957.642 688.337 1083.39 696.203 1212.76 581.871" stroke="#8989C7" stroke-width="1.28882" stroke-miterlimit="10"/>
<path opacity="0.8" d="M-250.516 867.507C-250.516 867.507 -67.2986 557.804 334.885 644.046C634.207 708.222 679.395 755.706 813.328 727.966C972.12 694.997 1098.02 686.153 1213.11 584.895" stroke="#8989C7" stroke-width="1.28882" stroke-miterlimit="10"/>
<path opacity="0.8" d="M-245.608 882.131C-245.608 882.131 -58.2426 549.053 339.081 631.804C646.331 695.88 688.602 764.699 826.771 735.602C986.64 701.813 1112.9 676.355 1213.51 588.089" stroke="#8989C7" stroke-width="1.28882" stroke-miterlimit="10"/>
<path opacity="0.8" d="M-240.679 896.707C-240.679 896.707 -49.2282 540.206 343.287 619.681C658.541 683.279 697.809 773.672 840.206 743.225C1001.15 708.617 1127.7 666.487 1213.86 591.106" stroke="#8989C7" stroke-width="1.28882" stroke-miterlimit="10"/>
<path opacity="0.8" d="M-235.779 911.06C-235.779 911.06 -40.2526 531.261 347.451 607.493C670.8 670.977 707.07 782.801 853.635 750.832C1015.64 715.408 1142.55 656.897 1214.27 594.301" stroke="#8989C7" stroke-width="1.28882" stroke-miterlimit="10"/>
<path opacity="0.8" d="M-230.824 925.549C-230.824 925.549 -31.2289 522.534 351.668 595.562C682.851 658.801 716.273 791.725 867.053 758.415C1030.13 722.174 1157.32 647.205 1214.62 597.297" stroke="#8989C7" stroke-width="1.28882" stroke-miterlimit="10"/>
<path opacity="0.8" d="M-225.858 939.995C-225.858 939.995 -22.0588 513.65 355.692 583.745C694.84 646.543 725.432 801.183 880.263 766.01C1044.51 729.302 1171.93 637.796 1215.03 600.457" stroke="#8989C7" stroke-width="1.28882" stroke-miterlimit="10"/>
<path opacity="0.8" d="M-220.934 954.248C-220.934 954.248 -13.0801 504.848 359.868 571.803C707.167 634.142 734.633 810.076 893.614 773.394C1058.92 735.866 1186.63 628.083 1215.34 603.263" stroke="#8989C7" stroke-width="1.28882" stroke-miterlimit="10"/>
<path opacity="0.8" d="M-215.962 968.262C-215.962 968.262 -3.91836 495.446 363.992 560.001C719.216 621.323 743.664 818.662 906.869 780.849C1073.21 742.526 1201.23 618.805 1215.58 606.438" stroke="#8989C7" stroke-width="1.28882" stroke-miterlimit="10"/>
<path opacity="0.8" d="M-211.004 982.196C-211.004 982.196 5.08737 486.989 368.086 548.241C731.085 609.492 752.702 827.36 920.015 788.071C1087.33 748.781 1215.66 609.213 1215.66 609.213" stroke="#8989C7" stroke-width="1.28882" stroke-miterlimit="10"/>
</g>
<path opacity="0.8" d="M821.474 762.798L829.9 746.771C862.227 685.066 895.654 621.274 961.32 583.007C1000.5 560.176 1047.14 549.355 1092.24 538.899C1129.52 530.26 1168.09 521.317 1202.69 505.611C1271.86 474.219 1321.01 417.216 1356.1 371.063C1365.03 359.332 1373.82 347.306 1382.35 335.649C1412.21 294.879 1443.04 252.702 1483.15 217.475C1484.96 215.871 1486.79 214.317 1488.63 212.741L1491.1 209.049C1488.13 211.486 1485.12 214.021 1482.11 216.666C1441.89 251.993 1411.01 294.23 1381.11 335.066C1372.58 346.713 1363.78 358.749 1354.86 370.485C1319.87 416.496 1270.89 473.317 1201.99 504.625C1167.56 520.248 1129.09 529.174 1091.87 537.802C1046.65 548.302 999.888 559.13 960.47 582.099C894.485 620.5 860.966 684.477 828.588 746.358C825.771 751.744 822.963 757.087 820.161 762.385C807.263 786.74 791.914 813.02 772.872 837.402L774.149 837.941C793.19 813.487 808.553 787.186 821.474 762.798Z" fill="#ECFFFE"/>
<path d="M1266.48 404.444C1259.05 421.511 1260.25 438.507 1263.18 455.621C1266 472.065 1269.5 488.775 1265.14 505.694C1256.21 540.52 1221.4 567.667 1186.11 586.772C1146.67 608.107 1101.76 623.744 1068.02 651.825C1051.47 665.602 1038.32 682.974 1036.58 702.093C1035.08 717.943 1042.91 731.43 1055.47 742.296C1062.61 748.475 1070.71 753.788 1078.9 759L1075.93 762.375C1073.61 760.898 1071.29 759.426 1069.02 757.912C1055.79 749.105 1042.73 739.276 1036.08 726C1028.51 710.953 1030.89 693.214 1039.52 677.9C1050.07 659.209 1068.8 644.234 1088.66 631.934C1107.8 620.077 1128.63 610.395 1149.25 600.562C1188.6 581.805 1230.79 560.215 1251.69 525.386C1256.65 517.252 1259.96 508.58 1261.48 499.735C1262.91 491.005 1262.36 482.289 1261.18 473.705C1258.84 456.93 1254.1 440.225 1256.32 422.995C1258.71 404.996 1268.09 387.724 1283.04 373.758L1283.1 373.69L1287.1 375.951C1278.04 384.327 1271.02 394.022 1266.48 404.444V404.444Z" fill="#8989C7"/>
<path d="M1423.28 345.524C1397.59 417.456 1318.09 467.724 1255.9 497.212C1223.91 512.4 1190.09 525.685 1157.38 538.535C1115.04 555.174 1071.27 572.394 1031.11 593.827C991.928 614.746 900.126 672.154 893.909 753.016C890.358 799.513 916.525 848.025 971.686 897.202C976.878 901.818 982.239 906.384 987.633 910.914L986.572 912.122C981.092 907.525 975.657 902.899 970.374 898.196C914.891 848.764 888.6 799.892 892.184 752.998C898.426 671.464 990.799 613.692 1030.22 592.639C1070.47 571.15 1114.31 553.909 1156.7 537.263C1189.38 524.416 1223.15 511.139 1255.08 495.992C1316.97 466.638 1396.03 416.629 1421.6 345.222C1430.68 319.761 1432.44 292.833 1434.12 266.802C1434.82 255.956 1435.55 244.969 1436.82 233.995L1438.46 234.922C1437.27 245.563 1436.55 256.197 1435.9 266.759C1434.19 292.886 1432.45 319.894 1423.28 345.524Z" fill="#5ED9D1"/>
<path d="M1104.48 554.33C1102.05 552.964 1098.61 553.55 1096.79 555.612C1094.97 557.675 1095.44 560.458 1097.87 561.823C1100.29 563.189 1103.73 562.603 1105.55 560.541C1107.37 558.479 1106.9 555.696 1104.48 554.33Z" stroke="#5ED9D1" stroke-width="4.76314"/>
<g opacity="0.2" clip-path="url(#clip1_703_2)">
<path d="M1169.7 187.767C1171.31 188.099 1172.31 189.427 1171.93 190.727C1171.52 192.027 1169.87 192.829 1168.26 192.525C1166.65 192.193 1165.65 190.865 1166.03 189.565C1166.41 188.237 1168.06 187.435 1169.7 187.767Z" fill="#5ED9D1"/>
<path d="M1184.11 192.719C1185.82 193.05 1186.85 194.461 1186.44 195.816C1186.03 197.199 1184.28 198.029 1182.6 197.697C1180.88 197.365 1179.86 195.955 1180.27 194.599C1180.68 193.216 1182.39 192.387 1184.11 192.719Z" fill="#5ED9D1"/>
<path d="M1184.42 126.974C1186.17 127.333 1187.23 128.744 1186.78 130.127C1186.34 131.537 1184.59 132.395 1182.87 132.035C1181.12 131.676 1180.06 130.265 1180.51 128.882C1180.92 127.471 1182.67 126.614 1184.42 126.974Z" fill="#5ED9D1"/>
<path d="M1173.41 159.417C1175.12 159.749 1176.19 161.159 1175.77 162.57C1175.36 163.953 1173.61 164.81 1171.86 164.478C1170.15 164.147 1169.09 162.736 1169.5 161.325C1169.91 159.915 1171.66 159.057 1173.41 159.417Z" fill="#5ED9D1"/>
<path d="M1155.64 207.349C1157.08 207.626 1157.94 208.815 1157.59 209.949C1157.25 211.111 1155.78 211.802 1154.37 211.526C1152.93 211.249 1152.07 210.06 1152.41 208.926C1152.76 207.792 1154.2 207.073 1155.64 207.349Z" fill="#5ED9D1"/>
<path d="M1170.9 212.91C1172.41 213.214 1173.34 214.459 1172.96 215.675C1172.58 216.892 1171.04 217.639 1169.53 217.335C1168.02 217.031 1167.1 215.786 1167.47 214.569C1167.85 213.352 1169.39 212.633 1170.9 212.91Z" fill="#5ED9D1"/>
<path d="M1171.55 122.161C1173.2 122.493 1174.23 123.848 1173.82 125.176C1173.41 126.503 1171.73 127.333 1170.08 127.001C1168.43 126.669 1167.4 125.314 1167.82 123.986C1168.23 122.631 1169.87 121.829 1171.55 122.161Z" fill="#5ED9D1"/>
<path d="M1159.69 154.245C1161.3 154.577 1162.26 155.877 1161.88 157.177C1161.47 158.477 1159.86 159.251 1158.25 158.947C1156.63 158.615 1155.67 157.315 1156.05 156.015C1156.46 154.715 1158.11 153.913 1159.69 154.245Z" fill="#5ED9D1"/>
<path d="M1155.19 182.319C1156.74 182.623 1157.66 183.895 1157.29 185.14C1156.91 186.385 1155.33 187.131 1153.79 186.827C1152.24 186.523 1151.32 185.251 1151.69 184.006C1152.07 182.761 1153.65 182.015 1155.19 182.319Z" fill="#5ED9D1"/>
<path d="M1143.15 223.779C1144.39 224.028 1145.18 225.052 1144.87 226.047C1144.56 227.043 1143.29 227.679 1142.06 227.43C1140.82 227.181 1140.03 226.158 1140.34 225.162C1140.65 224.139 1141.92 223.53 1143.15 223.779Z" fill="#5ED9D1"/>
<path d="M1159.31 229.864C1160.65 230.14 1161.47 231.219 1161.13 232.298C1160.78 233.377 1159.45 234.04 1158.11 233.764C1156.77 233.487 1155.95 232.408 1156.29 231.33C1156.63 230.279 1157.97 229.615 1159.31 229.864Z" fill="#5ED9D1"/>
<path d="M1175.29 235.479C1176.7 235.755 1177.56 236.917 1177.21 238.051C1176.87 239.185 1175.43 239.877 1174.02 239.6C1172.62 239.323 1171.76 238.162 1172.1 237.028C1172.45 235.894 1173.89 235.202 1175.29 235.479Z" fill="#5ED9D1"/>
<path d="M1180.89 80.6168C1182.39 80.921 1183.32 82.1657 1182.94 83.3826C1182.57 84.5996 1181.02 85.3464 1179.51 85.0422C1178 84.7379 1177.08 83.4933 1177.45 82.2763C1177.83 81.0593 1179.38 80.3125 1180.89 80.6168Z" fill="#5ED9D1"/>
<path d="M1158.52 116.85C1160.03 117.154 1160.96 118.399 1160.58 119.616C1160.2 120.833 1158.66 121.58 1157.15 121.276C1155.64 120.971 1154.71 119.727 1155.09 118.51C1155.47 117.293 1157.01 116.546 1158.52 116.85Z" fill="#5ED9D1"/>
<path d="M1146 148.409C1147.51 148.713 1148.44 149.958 1148.06 151.175C1147.68 152.392 1146.14 153.138 1144.63 152.834C1143.12 152.53 1142.19 151.285 1142.57 150.068C1142.95 148.851 1144.49 148.105 1146 148.409Z" fill="#5ED9D1"/>
<path d="M1140.65 176.289C1142.12 176.593 1143.02 177.782 1142.64 178.971C1142.26 180.161 1140.79 180.88 1139.31 180.576C1137.84 180.271 1136.95 179.082 1137.32 177.893C1137.7 176.703 1139.17 175.984 1140.65 176.289Z" fill="#5ED9D1"/>
<path d="M1140.24 201.237C1141.61 201.513 1142.43 202.62 1142.09 203.698C1141.75 204.805 1140.38 205.469 1139.04 205.192C1137.67 204.915 1136.84 203.809 1137.19 202.73C1137.53 201.652 1138.9 200.988 1140.24 201.237Z" fill="#5ED9D1"/>
<path d="M1131.08 237.747C1132.11 237.968 1132.76 238.798 1132.48 239.655C1132.21 240.485 1131.18 241.011 1130.12 240.789C1129.09 240.568 1128.44 239.738 1128.71 238.881C1128.99 238.023 1130.05 237.526 1131.08 237.747Z" fill="#5ED9D1"/>
<path d="M1148.13 244.274C1149.26 244.496 1149.98 245.436 1149.67 246.349C1149.4 247.261 1148.23 247.842 1147.1 247.593C1145.97 247.372 1145.25 246.432 1145.55 245.519C1145.83 244.606 1146.99 244.053 1148.13 244.274Z" fill="#5ED9D1"/>
<path d="M1164.97 250.304C1166.2 250.553 1166.92 251.548 1166.65 252.544C1166.34 253.54 1165.11 254.121 1163.87 253.899C1162.64 253.65 1161.92 252.655 1162.19 251.659C1162.5 250.663 1163.73 250.055 1164.97 250.304Z" fill="#5ED9D1"/>
<path d="M1167.58 75.8595C1168.95 76.1361 1169.81 77.2701 1169.46 78.3764C1169.12 79.4828 1167.71 80.1742 1166.34 79.8977C1164.97 79.6211 1164.11 78.4871 1164.45 77.3807C1164.8 76.2467 1166.2 75.5829 1167.58 75.8595Z" fill="#5ED9D1"/>
<path d="M1145.35 110.987C1146.75 111.263 1147.61 112.425 1147.27 113.559C1146.93 114.693 1145.49 115.384 1144.08 115.108C1142.67 114.831 1141.82 113.67 1142.16 112.536C1142.5 111.402 1143.94 110.71 1145.35 110.987Z" fill="#5ED9D1"/>
<path d="M1132.24 142.047C1133.62 142.324 1134.47 143.458 1134.13 144.564C1133.79 145.671 1132.38 146.362 1131.01 146.085C1129.64 145.809 1128.78 144.675 1129.12 143.569C1129.43 142.462 1130.84 141.771 1132.24 142.047Z" fill="#5ED9D1"/>
<path d="M1126.07 169.65C1127.44 169.927 1128.3 171.061 1127.96 172.167C1127.61 173.274 1126.21 173.965 1124.84 173.689C1123.46 173.412 1122.61 172.278 1122.95 171.172C1123.29 170.038 1124.7 169.374 1126.07 169.65Z" fill="#5ED9D1"/>
<path d="M1121.85 196.583C1121.96 197.634 1123.1 198.418 1124.4 198.335C1125.7 198.252 1126.67 197.332 1126.57 196.281C1126.47 195.231 1125.33 194.446 1124.02 194.53C1122.72 194.613 1121.75 195.532 1121.85 196.583Z" fill="#5ED9D1"/>
<path d="M1126.89 217.141C1128.06 217.362 1128.78 218.33 1128.47 219.27C1128.2 220.211 1127 220.792 1125.83 220.543C1124.66 220.321 1123.94 219.353 1124.25 218.413C1124.53 217.473 1125.73 216.892 1126.89 217.141Z" fill="#5ED9D1"/>
<path d="M1118.66 249.64C1119.45 249.806 1119.96 250.442 1119.76 251.106C1119.55 251.742 1118.76 252.157 1117.94 251.991C1117.15 251.825 1116.64 251.189 1116.84 250.525C1117.05 249.889 1117.84 249.474 1118.66 249.64Z" fill="#5ED9D1"/>
<path d="M1136 259.36C1136.99 259.411 1137.83 258.81 1137.9 258.018C1137.96 257.225 1137.22 256.541 1136.23 256.489C1135.25 256.438 1134.4 257.039 1134.34 257.832C1134.27 258.624 1135.02 259.309 1136 259.36Z" fill="#5ED9D1"/>
<path d="M1154.2 263.054C1155.19 263.248 1155.78 264.05 1155.54 264.852C1155.3 265.654 1154.3 266.124 1153.31 265.931C1152.31 265.737 1151.73 264.935 1151.97 264.133C1152.24 263.331 1153.24 262.861 1154.2 263.054Z" fill="#5ED9D1"/>
<path d="M1171.66 268.973C1172.72 269.195 1173.37 270.052 1173.1 270.91C1172.82 271.767 1171.76 272.293 1170.7 272.071C1169.63 271.85 1168.98 270.993 1169.26 270.135C1169.5 269.278 1170.59 268.752 1171.66 268.973Z" fill="#5ED9D1"/>
<path d="M1153.65 70.7149C1154.88 70.9638 1155.64 71.9596 1155.33 72.9553C1155.02 73.951 1153.79 74.5595 1152.55 74.3106C1151.32 74.0616 1150.56 73.0659 1150.87 72.0702C1151.18 71.0745 1152.41 70.466 1153.65 70.7149Z" fill="#5ED9D1"/>
<path d="M1131.94 104.487C1133.27 104.763 1134.1 105.842 1133.75 106.921C1133.41 108 1132.07 108.663 1130.74 108.387C1129.4 108.11 1128.57 107.032 1128.92 105.953C1129.26 104.902 1130.6 104.238 1131.94 104.487Z" fill="#5ED9D1"/>
<path d="M1118.46 134.967C1119.79 135.244 1120.62 136.322 1120.27 137.401C1119.93 138.48 1118.59 139.144 1117.26 138.867C1115.92 138.59 1115.09 137.512 1115.44 136.433C1115.75 135.354 1117.12 134.691 1118.46 134.967Z" fill="#5ED9D1"/>
<path d="M1111.49 162.404C1112.76 162.653 1113.55 163.704 1113.24 164.728C1112.93 165.751 1111.63 166.387 1110.36 166.138C1109.09 165.889 1108.3 164.838 1108.61 163.815C1108.92 162.764 1110.19 162.155 1111.49 162.404Z" fill="#5ED9D1"/>
<path d="M1109.33 187.214C1110.53 187.463 1111.25 188.431 1110.98 189.399C1110.67 190.367 1109.47 190.948 1108.27 190.727C1107.07 190.478 1106.35 189.51 1106.62 188.542C1106.93 187.573 1108.13 186.993 1109.33 187.214Z" fill="#5ED9D1"/>
<path d="M1110.53 209.894C1111.6 210.116 1112.25 210.973 1111.97 211.83C1111.7 212.688 1110.64 213.213 1109.57 212.992C1108.51 212.771 1107.86 211.913 1108.13 211.056C1108.41 210.199 1109.47 209.673 1110.53 209.894Z" fill="#5ED9D1"/>
<path d="M1113.96 230.584C1114.92 230.777 1115.51 231.552 1115.27 232.326C1115.03 233.101 1114.07 233.571 1113.11 233.377C1112.14 233.183 1111.56 232.409 1111.8 231.635C1112.04 230.86 1113 230.39 1113.96 230.584Z" fill="#5ED9D1"/>
<path d="M1105.28 259.791C1105.83 259.902 1106.18 260.372 1106.04 260.814C1105.9 261.257 1105.32 261.534 1104.77 261.423C1104.22 261.312 1103.88 260.842 1104.02 260.4C1104.19 259.957 1104.74 259.68 1105.28 259.791Z" fill="#5ED9D1"/>
<path d="M1123.94 267.203C1124.6 267.342 1124.97 267.867 1124.8 268.365C1124.63 268.891 1123.98 269.195 1123.36 269.056C1122.71 268.918 1122.33 268.393 1122.5 267.895C1122.67 267.397 1123.33 267.093 1123.94 267.203Z" fill="#5ED9D1"/>
<path d="M1142.47 274.035C1143.19 274.173 1143.63 274.781 1143.46 275.362C1143.29 275.943 1142.54 276.303 1141.81 276.164C1141.09 276.026 1140.65 275.418 1140.82 274.837C1140.99 274.228 1141.75 273.869 1142.47 274.035Z" fill="#5ED9D1"/>
<path d="M1160.78 280.176C1161.64 280.341 1162.19 281.061 1161.98 281.78C1161.78 282.471 1160.89 282.914 1159.99 282.748C1159.14 282.582 1158.59 281.863 1158.79 281.144C1159 280.452 1159.89 280.01 1160.78 280.176Z" fill="#5ED9D1"/>
<path d="M1178.79 285.928C1179.79 286.122 1180.37 286.924 1180.13 287.726C1179.89 288.528 1178.89 288.998 1177.9 288.805C1176.91 288.611 1176.32 287.809 1176.56 287.007C1176.8 286.205 1177.8 285.735 1178.79 285.928Z" fill="#5ED9D1"/>
<path d="M1166.99 30.5269C1167.92 30.7205 1168.47 31.4673 1168.23 32.1864C1167.99 32.9332 1167.06 33.3757 1166.17 33.1821C1165.24 32.9885 1164.69 32.2417 1164.93 31.5226C1165.14 30.7758 1166.07 30.3333 1166.99 30.5269Z" fill="#5ED9D1"/>
<path d="M1139.07 65.1285C1140.13 65.3498 1140.75 66.1796 1140.51 67.037C1140.24 67.8944 1139.21 68.3923 1138.15 68.1987C1137.08 67.9774 1136.46 67.1476 1136.7 66.2902C1136.98 65.4328 1138.04 64.9349 1139.07 65.1285Z" fill="#5ED9D1"/>
<path d="M1118.22 97.6277C1119.38 97.849 1120.07 98.7894 1119.79 99.7298C1119.52 100.67 1118.35 101.223 1117.19 101.002C1116.02 100.781 1115.34 99.8404 1115.61 98.9C1115.92 97.9596 1117.08 97.4064 1118.22 97.6277Z" fill="#5ED9D1"/>
<path d="M1104.56 127.36C1105.76 127.609 1106.48 128.577 1106.21 129.545C1105.9 130.514 1104.7 131.094 1103.5 130.873C1102.3 130.624 1101.58 129.656 1101.85 128.688C1102.13 127.72 1103.36 127.139 1104.56 127.36Z" fill="#5ED9D1"/>
<path d="M1096.88 154.521C1098.05 154.743 1098.73 155.683 1098.46 156.623C1098.18 157.564 1097.02 158.117 1095.85 157.896C1094.69 157.674 1094 156.734 1094.27 155.794C1094.58 154.853 1095.75 154.3 1096.88 154.521Z" fill="#5ED9D1"/>
<path d="M1093.86 179.304C1094.93 179.525 1095.58 180.382 1095.3 181.24C1095.03 182.097 1093.96 182.623 1092.9 182.401C1091.84 182.18 1091.19 181.323 1091.46 180.465C1091.74 179.608 1092.8 179.082 1093.86 179.304Z" fill="#5ED9D1"/>
<path d="M1094.21 201.901C1095.2 202.095 1095.82 202.925 1095.58 203.727C1095.34 204.529 1094.31 205.027 1093.31 204.833C1092.32 204.639 1091.7 203.81 1091.94 203.008C1092.18 202.205 1093.18 201.708 1094.21 201.901Z" fill="#5ED9D1"/>
<path d="M1096.74 222.756C1097.64 222.922 1098.15 223.641 1097.94 224.36C1097.74 225.079 1096.85 225.494 1095.95 225.328C1095.06 225.162 1094.55 224.443 1094.75 223.724C1094.99 223.005 1095.89 222.59 1096.74 222.756Z" fill="#5ED9D1"/>
<path d="M1100.65 242.006C1101.37 242.145 1101.82 242.725 1101.61 243.306C1101.44 243.887 1100.72 244.247 1100 244.081C1099.28 243.942 1098.84 243.362 1099.04 242.781C1099.21 242.227 1099.97 241.868 1100.65 242.006Z" fill="#5ED9D1"/>
<path d="M1090.71 268.365C1091.01 268.42 1091.19 268.669 1091.12 268.918C1091.05 269.167 1090.74 269.305 1090.43 269.25C1090.12 269.194 1089.95 268.946 1090.02 268.697C1090.09 268.448 1090.4 268.309 1090.71 268.365Z" fill="#5ED9D1"/>
<path d="M1110.09 276.248C1110.5 276.331 1110.74 276.663 1110.64 276.994C1110.53 277.326 1110.12 277.52 1109.71 277.437C1109.3 277.354 1109.06 277.022 1109.16 276.69C1109.3 276.358 1109.71 276.165 1110.09 276.248Z" fill="#5ED9D1"/>
<path d="M1129.36 283.467C1129.84 283.577 1130.15 283.965 1130.02 284.352C1129.88 284.739 1129.4 284.988 1128.92 284.877C1128.44 284.767 1128.13 284.38 1128.27 283.992C1128.4 283.605 1128.88 283.356 1129.36 283.467Z" fill="#5ED9D1"/>
<path d="M1148.44 290.022C1149.02 290.133 1149.4 290.631 1149.26 291.101C1149.12 291.571 1148.5 291.875 1147.92 291.765C1147.34 291.654 1146.96 291.156 1147.1 290.686C1147.27 290.188 1147.85 289.912 1148.44 290.022Z" fill="#5ED9D1"/>
<path d="M1167.3 296.024C1168.02 296.162 1168.47 296.771 1168.3 297.351C1168.12 297.932 1167.37 298.292 1166.65 298.153C1165.93 298.015 1165.48 297.407 1165.66 296.826C1165.83 296.245 1166.55 295.885 1167.3 296.024Z" fill="#5ED9D1"/>
<path d="M1148.98 26.5171C1149.74 26.6554 1150.18 27.2638 1150.01 27.8723C1149.84 28.4808 1149.09 28.8404 1148.33 28.7021C1147.58 28.5638 1147.13 27.9553 1147.3 27.3468C1147.47 26.7383 1148.23 26.3511 1148.98 26.5171Z" fill="#5ED9D1"/>
<path d="M1123.98 58.988C1124.9 59.1816 1125.45 59.9284 1125.21 60.6475C1124.97 61.3666 1124.05 61.8368 1123.16 61.6432C1122.23 61.4496 1121.68 60.7028 1121.92 59.9837C1122.13 59.2646 1123.05 58.822 1123.98 58.988Z" fill="#5ED9D1"/>
<path d="M1104.22 90.1873C1105.22 90.3809 1105.83 91.2107 1105.59 92.0128C1105.35 92.8149 1104.32 93.3127 1103.33 93.1191C1102.33 92.9255 1101.72 92.0958 1101.96 91.2936C1102.23 90.4915 1103.23 89.9937 1104.22 90.1873Z" fill="#5ED9D1"/>
<path d="M1090.6 119.173C1091.67 119.395 1092.32 120.252 1092.04 121.11C1091.77 121.967 1090.71 122.493 1089.64 122.271C1088.58 122.05 1087.93 121.193 1088.2 120.335C1088.44 119.478 1089.51 118.98 1090.6 119.173Z" fill="#5ED9D1"/>
<path d="M1082.37 145.92C1083.43 146.141 1084.09 146.998 1083.81 147.856C1083.54 148.713 1082.47 149.239 1081.41 149.018C1080.35 148.796 1079.7 147.939 1079.97 147.081C1080.21 146.224 1081.31 145.698 1082.37 145.92Z" fill="#5ED9D1"/>
<path d="M1078.5 170.592C1079.49 170.785 1080.07 171.587 1079.83 172.39C1079.59 173.192 1078.6 173.662 1077.6 173.468C1076.61 173.275 1076.03 172.472 1076.27 171.67C1076.51 170.896 1077.5 170.398 1078.5 170.592Z" fill="#5ED9D1"/>
<path d="M1077.88 193.326C1078.77 193.492 1079.28 194.212 1079.08 194.931C1078.87 195.65 1077.98 196.065 1077.09 195.899C1076.2 195.733 1075.68 195.014 1075.89 194.295C1076.13 193.575 1077.02 193.16 1077.88 193.326Z" fill="#5ED9D1"/>
<path d="M1079.56 214.32C1080.31 214.458 1080.76 215.094 1080.59 215.675C1080.42 216.284 1079.63 216.643 1078.91 216.505C1078.15 216.367 1077.71 215.73 1077.88 215.15C1078.05 214.541 1078.8 214.154 1079.56 214.32Z" fill="#5ED9D1"/>
<path d="M1082.68 233.654C1083.33 233.792 1083.71 234.317 1083.54 234.815C1083.37 235.341 1082.71 235.645 1082.1 235.507C1081.44 235.368 1081.07 234.843 1081.24 234.345C1081.38 233.847 1082.03 233.543 1082.68 233.654Z" fill="#5ED9D1"/>
<path d="M1086.56 251.686C1087 251.769 1087.31 252.157 1087.17 252.516C1087.07 252.876 1086.59 253.125 1086.14 253.014C1085.7 252.931 1085.39 252.544 1085.53 252.184C1085.63 251.825 1086.08 251.603 1086.56 251.686Z" fill="#5ED9D1"/>
<path d="M1074.65 275.557C1074.69 275.557 1074.72 275.613 1074.72 275.641C1074.72 275.669 1074.65 275.697 1074.62 275.697C1074.58 275.697 1074.55 275.641 1074.55 275.613C1074.58 275.557 1074.62 275.529 1074.65 275.557Z" fill="#5ED9D1"/>
<path d="M1094.72 283.91C1094.86 283.937 1094.96 284.048 1094.92 284.187C1094.89 284.297 1094.75 284.381 1094.58 284.353C1094.44 284.325 1094.34 284.214 1094.38 284.076C1094.41 283.965 1094.58 283.882 1094.72 283.91Z" fill="#5ED9D1"/>
<path d="M1114.68 291.571C1114.89 291.626 1115.03 291.792 1114.99 291.986C1114.92 292.152 1114.72 292.263 1114.48 292.235C1114.27 292.18 1114.13 292.014 1114.17 291.82C1114.24 291.654 1114.48 291.543 1114.68 291.571Z" fill="#5ED9D1"/>
<path d="M1134.51 298.541C1134.85 298.596 1135.02 298.873 1134.95 299.149C1134.89 299.426 1134.54 299.564 1134.2 299.509C1133.86 299.454 1133.69 299.177 1133.75 298.901C1133.86 298.624 1134.17 298.458 1134.51 298.541Z" fill="#5ED9D1"/>
<path d="M1154.1 304.875C1154.54 304.958 1154.78 305.317 1154.68 305.677C1154.58 306.037 1154.13 306.23 1153.68 306.147C1153.24 306.064 1153 305.705 1153.1 305.345C1153.2 305.013 1153.65 304.792 1154.1 304.875Z" fill="#5ED9D1"/>
<path d="M1173.37 310.766C1173.89 310.876 1174.2 311.291 1174.06 311.706C1173.92 312.121 1173.41 312.37 1172.89 312.259C1172.38 312.148 1172.07 311.734 1172.21 311.319C1172.38 310.904 1172.89 310.655 1173.37 310.766Z" fill="#5ED9D1"/>
<path d="M1130.63 21.8421C1131.15 21.9527 1131.46 22.3676 1131.35 22.7825C1131.22 23.1973 1130.7 23.4463 1130.19 23.3633C1129.67 23.2527 1129.36 22.8378 1129.47 22.4229C1129.6 22.008 1130.12 21.7591 1130.63 21.8421Z" fill="#5ED9D1"/>
<path d="M1108.44 52.3501C1109.19 52.4884 1109.67 53.1245 1109.47 53.733C1109.3 54.3415 1108.51 54.7287 1107.75 54.5628C1107 54.4245 1106.52 53.7883 1106.72 53.1798C1106.93 52.5713 1107.69 52.1841 1108.44 52.3501Z" fill="#5ED9D1"/>
<path d="M1090.02 82.1937C1090.88 82.3597 1091.43 83.0788 1091.19 83.7703C1090.98 84.4618 1090.09 84.9043 1089.23 84.7107C1088.37 84.5447 1087.82 83.8256 1088.07 83.1341C1088.27 82.4427 1089.16 82.0278 1090.02 82.1937Z" fill="#5ED9D1"/>
<path d="M1076.57 110.379C1077.53 110.572 1078.12 111.347 1077.88 112.121C1077.64 112.895 1076.68 113.366 1075.72 113.172C1074.76 112.978 1074.17 112.204 1074.41 111.43C1074.65 110.655 1075.61 110.185 1076.57 110.379Z" fill="#5ED9D1"/>
<path d="M1067.9 136.764C1068.82 136.958 1069.4 137.705 1069.16 138.479C1068.92 139.254 1068 139.696 1067.04 139.503C1066.11 139.309 1065.53 138.562 1065.77 137.788C1066.01 137.041 1066.97 136.571 1067.9 136.764Z" fill="#5ED9D1"/>
<path d="M1063.23 161.243C1064.12 161.409 1064.67 162.128 1064.43 162.847C1064.23 163.566 1063.33 164.009 1062.44 163.815C1061.55 163.649 1061 162.93 1061.24 162.211C1061.45 161.52 1062.37 161.077 1063.23 161.243Z" fill="#5ED9D1"/>
<path d="M1061.72 183.978C1062.51 184.144 1063.03 184.78 1062.82 185.444C1062.61 186.08 1061.83 186.495 1061 186.329C1060.21 186.163 1059.7 185.527 1059.9 184.863C1060.11 184.199 1060.93 183.812 1061.72 183.978Z" fill="#5ED9D1"/>
<path d="M1062.48 205.054C1063.13 205.192 1063.54 205.718 1063.37 206.271C1063.2 206.796 1062.51 207.128 1061.86 206.99C1061.21 206.852 1060.8 206.298 1060.97 205.773C1061.14 205.247 1061.79 204.943 1062.48 205.054Z" fill="#5ED9D1"/>
<path d="M1064.71 224.637C1065.26 224.747 1065.56 225.19 1065.43 225.605C1065.29 226.047 1064.74 226.296 1064.23 226.185C1063.68 226.075 1063.37 225.632 1063.51 225.217C1063.64 224.775 1064.16 224.526 1064.71 224.637Z" fill="#5ED9D1"/>
<path d="M1067.79 242.808C1068.17 242.891 1068.41 243.196 1068.31 243.5C1068.2 243.804 1067.83 243.998 1067.45 243.915C1067.07 243.832 1066.83 243.528 1066.94 243.223C1067.04 242.919 1067.42 242.753 1067.79 242.808Z" fill="#5ED9D1"/>
<path d="M1071.26 259.736C1071.46 259.791 1071.6 259.957 1071.57 260.151C1071.5 260.317 1071.29 260.428 1071.05 260.4C1070.85 260.345 1070.71 260.179 1070.74 259.985C1070.81 259.819 1071.05 259.708 1071.26 259.736Z" fill="#5ED9D1"/>
<path d="M1057.26 280.728C1057.47 280.756 1057.57 280.922 1057.54 281.088C1057.5 281.255 1057.3 281.338 1057.09 281.31C1056.88 281.282 1056.78 281.116 1056.82 280.95C1056.85 280.784 1057.06 280.673 1057.26 280.728Z" fill="#5ED9D1"/>
<path d="M1098.32 298.375L1098.36 298.403L1098.32 298.432L1098.29 298.403C1098.29 298.375 1098.29 298.375 1098.32 298.375Z" fill="#5ED9D1"/>
<path d="M1118.8 305.815C1118.9 305.843 1118.94 305.899 1118.94 305.982C1118.9 306.065 1118.83 306.092 1118.73 306.092C1118.63 306.065 1118.59 306.009 1118.59 305.926C1118.59 305.843 1118.7 305.815 1118.8 305.815Z" fill="#5ED9D1"/>
<path d="M1139.07 312.591C1139.24 312.619 1139.35 312.757 1139.31 312.896C1139.28 313.034 1139.11 313.118 1138.93 313.09C1138.76 313.062 1138.66 312.924 1138.69 312.785C1138.73 312.647 1138.9 312.564 1139.07 312.591Z" fill="#5ED9D1"/>
<path d="M1159.14 318.732C1159.41 318.787 1159.58 319.009 1159.52 319.23C1159.45 319.451 1159.17 319.589 1158.9 319.534C1158.62 319.479 1158.45 319.257 1158.52 319.036C1158.55 318.815 1158.83 318.677 1159.14 318.732Z" fill="#5ED9D1"/>
<path d="M1178.86 324.346C1179.24 324.429 1179.48 324.734 1179.38 325.038C1179.27 325.342 1178.9 325.536 1178.52 325.453C1178.14 325.37 1177.9 325.066 1178 324.761C1178.11 324.457 1178.48 324.291 1178.86 324.346Z" fill="#5ED9D1"/>
<path d="M1112.45 16.3378C1112.8 16.3932 1113 16.6697 1112.9 16.9463C1112.83 17.2229 1112.49 17.3889 1112.14 17.3059C1111.8 17.2506 1111.6 16.974 1111.7 16.6974C1111.8 16.4208 1112.14 16.2549 1112.45 16.3378Z" fill="#5ED9D1"/>
<path d="M1092.73 45.242C1093.24 45.3526 1093.55 45.7675 1093.45 46.1824C1093.31 46.5973 1092.8 46.8462 1092.28 46.7632C1091.77 46.6526 1091.46 46.2377 1091.56 45.8228C1091.7 45.3803 1092.22 45.1314 1092.73 45.242Z" fill="#5ED9D1"/>
<path d="M1075.68 73.6751C1076.4 73.8134 1076.85 74.4219 1076.68 75.0027C1076.51 75.5836 1075.75 75.9431 1075.03 75.8048C1074.31 75.6665 1073.86 75.058 1074.04 74.4772C1074.21 73.8964 1074.96 73.5368 1075.68 73.6751Z" fill="#5ED9D1"/>
<path d="M1062.55 101.112C1063.33 101.278 1063.81 101.915 1063.61 102.523C1063.4 103.159 1062.61 103.546 1061.86 103.38C1061.07 103.214 1060.59 102.578 1060.8 101.97C1060.97 101.334 1061.76 100.974 1062.55 101.112Z" fill="#5ED9D1"/>
<path d="M1053.52 126.946C1054.35 127.112 1054.86 127.776 1054.66 128.439C1054.45 129.103 1053.63 129.518 1052.8 129.352C1051.98 129.186 1051.47 128.522 1051.67 127.859C1051.88 127.195 1052.7 126.78 1053.52 126.946Z" fill="#5ED9D1"/>
<path d="M1048.14 151.286C1048.89 151.424 1049.34 152.06 1049.17 152.669C1049 153.277 1048.21 153.637 1047.45 153.498C1046.7 153.36 1046.25 152.724 1046.42 152.115C1046.63 151.507 1047.38 151.12 1048.14 151.286Z" fill="#5ED9D1"/>
<path d="M1045.74 173.938C1046.42 174.077 1046.83 174.63 1046.66 175.183C1046.49 175.736 1045.81 176.068 1045.12 175.93C1044.43 175.791 1044.02 175.238 1044.19 174.685C1044.4 174.16 1045.09 173.828 1045.74 173.938Z" fill="#5ED9D1"/>
<path d="M1045.57 195.07C1046.15 195.18 1046.53 195.678 1046.39 196.148C1046.25 196.618 1045.63 196.923 1045.05 196.812C1044.47 196.701 1044.09 196.204 1044.23 195.733C1044.36 195.236 1044.98 194.931 1045.57 195.07Z" fill="#5ED9D1"/>
<path d="M1046.9 214.845C1047.31 214.928 1047.55 215.26 1047.45 215.592C1047.35 215.924 1046.94 216.118 1046.53 216.035C1046.11 215.952 1045.87 215.62 1045.98 215.288C1046.05 214.956 1046.49 214.762 1046.9 214.845Z" fill="#5ED9D1"/>
<path d="M1049.17 233.155C1049.48 233.211 1049.65 233.459 1049.58 233.708C1049.51 233.957 1049.2 234.096 1048.89 234.04C1048.58 233.985 1048.41 233.736 1048.48 233.487C1048.58 233.266 1048.86 233.1 1049.17 233.155Z" fill="#5ED9D1"/>
<path d="M1051.88 250.36C1051.98 250.387 1052.05 250.47 1052.05 250.581C1052.01 250.664 1051.91 250.72 1051.77 250.72C1051.67 250.692 1051.6 250.609 1051.6 250.498C1051.64 250.387 1051.77 250.332 1051.88 250.36Z" fill="#5ED9D1"/>
<path d="M1122.23 318.953C1122.33 318.98 1122.4 319.063 1122.37 319.146C1122.33 319.229 1122.23 319.285 1122.13 319.257C1122.02 319.23 1121.95 319.146 1121.99 319.063C1121.99 318.98 1122.09 318.925 1122.23 318.953Z" fill="#5ED9D1"/>
<path d="M1163.29 331.787C1163.36 331.787 1163.39 331.842 1163.39 331.898C1163.39 331.953 1163.32 331.981 1163.25 331.981C1163.18 331.981 1163.15 331.925 1163.15 331.87C1163.18 331.787 1163.25 331.759 1163.29 331.787Z" fill="#5ED9D1"/>
<path d="M1094.82 10.0871C1094.96 10.1148 1095.03 10.2256 1094.99 10.3087C1094.96 10.4195 1094.82 10.4749 1094.72 10.4472C1094.58 10.4195 1094.51 10.3087 1094.55 10.2256C1094.58 10.1148 1094.68 10.0594 1094.82 10.0871Z" fill="#5ED9D1"/>
<path d="M1077.19 37.359C1077.6 37.442 1077.84 37.7739 1077.74 38.1058C1077.64 38.4377 1077.23 38.6313 1076.81 38.5483C1076.4 38.4654 1076.16 38.1335 1076.27 37.8016C1076.37 37.4696 1076.78 37.276 1077.19 37.359Z" fill="#5ED9D1"/>
<path d="M1061.34 64.7129C1061.89 64.8235 1062.27 65.2937 1062.1 65.7363C1061.96 66.1788 1061.38 66.483 1060.83 66.3447C1060.28 66.2341 1059.9 65.7639 1060.08 65.3214C1060.21 64.8788 1060.8 64.6022 1061.34 64.7129Z" fill="#5ED9D1"/>
<path d="M1048.62 91.2384C1049.3 91.3767 1049.72 91.9298 1049.55 92.4554C1049.37 93.0085 1048.69 93.3404 1048.04 93.2021C1047.35 93.0639 1046.94 92.5107 1047.11 91.9852C1047.25 91.432 1047.93 91.1001 1048.62 91.2384Z" fill="#5ED9D1"/>
<path d="M1039.36 116.601C1040.08 116.739 1040.49 117.32 1040.32 117.873C1040.15 118.454 1039.43 118.786 1038.74 118.648C1038.02 118.509 1037.61 117.929 1037.78 117.375C1037.92 116.822 1038.64 116.463 1039.36 116.601Z" fill="#5ED9D1"/>
<path d="M1033.32 140.609C1034.01 140.748 1034.38 141.301 1034.25 141.826C1034.07 142.38 1033.39 142.684 1032.74 142.573C1032.05 142.435 1031.67 141.882 1031.81 141.356C1031.98 140.803 1032.67 140.471 1033.32 140.609Z" fill="#5ED9D1"/>
<path d="M1030.06 163.179C1030.64 163.29 1031.02 163.788 1030.88 164.258C1030.75 164.728 1030.13 165.032 1029.55 164.922C1028.96 164.811 1028.59 164.313 1028.72 163.843C1028.86 163.373 1029.48 163.068 1030.06 163.179Z" fill="#5ED9D1"/>
<path d="M1028.93 184.393C1029.38 184.476 1029.68 184.864 1029.55 185.223C1029.44 185.583 1028.96 185.832 1028.52 185.721C1028.07 185.638 1027.76 185.251 1027.9 184.891C1028 184.532 1028.48 184.31 1028.93 184.393Z" fill="#5ED9D1"/>
<path d="M1029.34 204.196C1029.68 204.279 1029.92 204.556 1029.82 204.832C1029.72 205.109 1029.38 205.302 1029.03 205.22C1028.69 205.137 1028.45 204.86 1028.55 204.583C1028.66 204.307 1029 204.113 1029.34 204.196Z" fill="#5ED9D1"/>
<path d="M1030.75 222.784C1030.92 222.811 1031.02 222.95 1030.99 223.088C1030.95 223.227 1030.78 223.31 1030.61 223.282C1030.44 223.255 1030.34 223.116 1030.37 222.978C1030.4 222.839 1030.58 222.756 1030.75 222.784Z" fill="#5ED9D1"/>
<path d="M1034.86 255.974C1034.97 256.001 1035.04 256.085 1035.04 256.195C1035 256.278 1034.9 256.334 1034.76 256.334C1034.66 256.306 1034.59 256.223 1034.59 256.14C1034.62 256.001 1034.73 255.946 1034.86 255.974Z" fill="#5ED9D1"/>
<path d="M1145.86 337.678C1146.07 337.733 1146.21 337.9 1146.14 338.066C1146.07 338.232 1145.86 338.343 1145.66 338.288C1145.45 338.232 1145.31 338.066 1145.38 337.9C1145.45 337.734 1145.66 337.65 1145.86 337.678Z" fill="#5ED9D1"/>
<path d="M1166.65 343.707C1166.75 343.735 1166.82 343.818 1166.79 343.901C1166.75 343.984 1166.65 344.04 1166.55 344.012C1166.44 343.984 1166.37 343.901 1166.41 343.818C1166.41 343.735 1166.51 343.68 1166.65 343.707Z" fill="#5ED9D1"/>
<path d="M1078.12 2.86853C1078.22 2.89623 1078.29 2.97933 1078.25 3.06243C1078.22 3.14553 1078.12 3.20093 1078.01 3.17323C1077.91 3.14553 1077.84 3.06243 1077.88 2.97933C1077.91 2.89624 1078.01 2.84083 1078.12 2.86853Z" fill="#5ED9D1"/>
<path d="M1062 29.1445C1062.17 29.1722 1062.3 29.3383 1062.24 29.4768C1062.2 29.6153 1062 29.7261 1061.82 29.6707C1061.65 29.643 1061.52 29.4768 1061.58 29.3383C1061.62 29.1998 1061.79 29.0891 1062 29.1445Z" fill="#5ED9D1"/>
<path d="M1047.21 55.2539C1047.62 55.3369 1047.86 55.6688 1047.76 56.0007C1047.66 56.3326 1047.25 56.5262 1046.84 56.4432C1046.42 56.3603 1046.18 56.0284 1046.29 55.6965C1046.39 55.3922 1046.8 55.1709 1047.21 55.2539Z" fill="#5ED9D1"/>
<path d="M1034.86 81.0046C1035.34 81.1153 1035.65 81.5025 1035.52 81.8897C1035.38 82.2769 1034.9 82.5259 1034.42 82.4152C1033.94 82.3046 1033.63 81.9174 1033.77 81.5302C1033.87 81.1429 1034.35 80.9217 1034.86 81.0046Z" fill="#5ED9D1"/>
<path d="M1025.43 105.759C1026.01 105.869 1026.36 106.34 1026.22 106.81C1026.08 107.28 1025.5 107.556 1024.92 107.446C1024.33 107.335 1023.99 106.865 1024.13 106.395C1024.26 105.925 1024.85 105.648 1025.43 105.759Z" fill="#5ED9D1"/>
<path d="M1018.84 129.38C1019.43 129.49 1019.77 129.961 1019.63 130.431C1019.5 130.901 1018.91 131.178 1018.33 131.067C1017.75 130.956 1017.4 130.486 1017.54 130.016C1017.68 129.546 1018.26 129.269 1018.84 129.38Z" fill="#5ED9D1"/>
<path d="M1014.76 151.811C1015.24 151.922 1015.55 152.309 1015.41 152.696C1015.28 153.084 1014.8 153.333 1014.32 153.222C1013.84 153.111 1013.53 152.724 1013.67 152.337C1013.77 151.95 1014.25 151.728 1014.76 151.811Z" fill="#5ED9D1"/>
<path d="M1012.7 172.969C1013.08 173.052 1013.32 173.357 1013.22 173.661C1013.12 173.965 1012.74 174.159 1012.36 174.076C1011.98 173.993 1011.74 173.689 1011.85 173.384C1011.95 173.08 1012.33 172.886 1012.7 172.969Z" fill="#5ED9D1"/>
<path d="M1012.19 192.828C1012.46 192.884 1012.64 193.105 1012.57 193.326C1012.5 193.548 1012.22 193.686 1011.95 193.631C1011.68 193.575 1011.5 193.354 1011.57 193.133C1011.64 192.884 1011.92 192.773 1012.19 192.828Z" fill="#5ED9D1"/>
<path d="M1012.7 211.526C1012.81 211.554 1012.84 211.609 1012.84 211.693C1012.81 211.776 1012.74 211.803 1012.64 211.803C1012.53 211.776 1012.5 211.72 1012.5 211.637C1012.5 211.554 1012.6 211.526 1012.7 211.526Z" fill="#5ED9D1"/>
<path d="M1013.87 228.813C1013.97 228.841 1014.01 228.896 1014.01 228.979C1013.97 229.062 1013.91 229.09 1013.8 229.09C1013.7 229.062 1013.67 229.007 1013.67 228.924C1013.67 228.841 1013.77 228.785 1013.87 228.813Z" fill="#5ED9D1"/>
<path d="M1147.82 348.907C1148.23 348.99 1148.5 349.322 1148.4 349.682C1148.3 350.013 1147.89 350.235 1147.44 350.152C1147.03 350.069 1146.75 349.737 1146.86 349.377C1146.96 349.045 1147.41 348.824 1147.82 348.907Z" fill="#5ED9D1"/>
<path d="M1033.49 45.4349C1033.73 45.4902 1033.87 45.6562 1033.8 45.8498C1033.73 46.0434 1033.53 46.154 1033.29 46.0987C1033.05 46.0434 1032.91 45.8774 1032.98 45.6838C1033.01 45.5179 1033.25 45.4072 1033.49 45.4349Z" fill="#5ED9D1"/>
<path d="M1021.49 70.2449C1021.86 70.3279 1022.1 70.6321 1022 70.9364C1021.9 71.2406 1021.52 71.4342 1021.14 71.3513C1020.77 71.2683 1020.53 70.964 1020.63 70.6598C1020.7 70.3556 1021.07 70.1896 1021.49 70.2449Z" fill="#5ED9D1"/>
<path d="M1011.85 94.4741C1012.26 94.5571 1012.53 94.889 1012.43 95.2209C1012.33 95.5528 1011.92 95.7741 1011.5 95.6911C1011.09 95.6081 1010.82 95.2762 1010.92 94.9443C1011.02 94.5848 1011.44 94.3912 1011.85 94.4741Z" fill="#5ED9D1"/>
<path d="M1004.75 117.68C1005.19 117.763 1005.47 118.123 1005.33 118.482C1005.23 118.842 1004.78 119.063 1004.33 118.952C1003.89 118.869 1003.61 118.51 1003.75 118.15C1003.89 117.791 1004.3 117.569 1004.75 117.68Z" fill="#5ED9D1"/>
<path d="M999.91 139.862C1000.29 139.945 1000.49 140.222 1000.39 140.526C1000.29 140.83 999.945 140.996 999.567 140.913C999.19 140.83 998.984 140.554 999.087 140.249C999.156 139.973 999.533 139.807 999.91 139.862Z" fill="#5ED9D1"/>
<path d="M996.961 160.883C997.235 160.939 997.407 161.16 997.338 161.409C997.27 161.63 996.995 161.768 996.687 161.713C996.412 161.658 996.241 161.436 996.309 161.188C996.412 160.966 996.687 160.828 996.961 160.883Z" fill="#5ED9D1"/>
<path d="M995.52 180.77C995.657 180.797 995.76 180.908 995.726 181.047C995.691 181.157 995.554 181.241 995.382 181.213C995.245 181.185 995.142 181.074 995.176 180.936C995.21 180.797 995.382 180.742 995.52 180.77Z" fill="#5ED9D1"/>
<path d="M995.108 199.495C995.108 199.495 995.144 199.495 995.108 199.495C995.108 199.495 995.108 199.529 995.108 199.495C995.108 199.495 995.108 199.529 995.108 199.495Z" fill="#5ED9D1"/>
<path d="M995.486 216.643C995.657 216.671 995.76 216.809 995.691 216.948C995.657 217.086 995.486 217.169 995.314 217.114C995.143 217.086 995.04 216.948 995.108 216.809C995.177 216.698 995.348 216.615 995.486 216.643Z" fill="#5ED9D1"/>
<path d="M1008.55 59.2924C1008.73 59.3201 1008.83 59.4863 1008.79 59.6248C1008.76 59.7633 1008.55 59.8464 1008.38 59.8187C1008.21 59.791 1008.11 59.6248 1008.14 59.4863C1008.18 59.3478 1008.38 59.2647 1008.55 59.2924Z" fill="#5ED9D1"/>
<path d="M998.813 82.7191C999.121 82.7745 999.327 83.0234 999.224 83.2723C999.156 83.5212 998.847 83.6872 998.538 83.6042C998.229 83.5489 998.024 83.3 998.127 83.051C998.195 82.8021 998.504 82.6638 998.813 82.7191Z" fill="#5ED9D1"/>
<path d="M991.233 105.455C991.576 105.51 991.781 105.787 991.678 106.063C991.61 106.34 991.267 106.506 990.924 106.423C990.581 106.368 990.375 106.091 990.478 105.815C990.547 105.566 990.89 105.4 991.233 105.455Z" fill="#5ED9D1"/>
<path d="M985.641 127.361C985.916 127.416 986.053 127.61 985.984 127.831C985.916 128.052 985.676 128.163 985.401 128.108C985.127 128.052 984.99 127.859 985.058 127.637C985.127 127.416 985.401 127.305 985.641 127.361Z" fill="#5ED9D1"/>
<path d="M981.868 148.16C982.073 148.188 982.176 148.354 982.142 148.52C982.108 148.686 981.902 148.769 981.696 148.742C981.49 148.714 981.387 148.548 981.422 148.382C981.49 148.215 981.662 148.105 981.868 148.16Z" fill="#5ED9D1"/>
<path d="M979.501 167.963C979.57 167.963 979.604 168.019 979.604 168.074C979.604 168.13 979.536 168.157 979.467 168.157C979.398 168.157 979.364 168.102 979.364 168.047C979.364 167.991 979.433 167.936 979.501 167.963Z" fill="#5ED9D1"/>
<path d="M978.232 186.495C978.301 186.495 978.335 186.55 978.335 186.606C978.335 186.661 978.266 186.689 978.198 186.689C978.129 186.689 978.094 186.633 978.094 186.578C978.129 186.495 978.163 186.467 978.232 186.495Z" fill="#5ED9D1"/>
<path d="M977.751 203.671C977.991 203.727 978.129 203.92 978.094 204.114C978.026 204.307 977.786 204.418 977.546 204.39C977.305 204.335 977.168 204.142 977.203 203.948C977.271 203.727 977.511 203.616 977.751 203.671Z" fill="#5ED9D1"/>
<path d="M977.649 219.824C978.061 219.907 978.335 220.266 978.232 220.598C978.129 220.93 977.683 221.151 977.272 221.068C976.86 220.985 976.586 220.626 976.689 220.294C976.826 219.934 977.237 219.741 977.649 219.824Z" fill="#5ED9D1"/>
<path d="M996.343 47.9248C996.378 47.9248 996.412 47.9807 996.412 48.0086C996.412 48.0366 996.343 48.0645 996.309 48.0645C996.274 48.0645 996.24 48.0086 996.24 47.9807C996.24 47.9527 996.274 47.9248 996.343 47.9248Z" fill="#5ED9D1"/>
<path d="M986.396 70.688C986.567 70.7157 986.636 70.8542 986.602 70.965C986.567 71.1035 986.396 71.1589 986.258 71.1312C986.086 71.1035 986.018 70.965 986.052 70.8542C986.086 70.7434 986.258 70.6603 986.396 70.688Z" fill="#5ED9D1"/>
<path d="M978.335 92.9257C978.507 92.9534 978.61 93.1196 978.575 93.2581C978.541 93.3966 978.335 93.4797 978.164 93.452C977.992 93.4243 977.889 93.2581 977.924 93.1196C977.992 92.9811 978.164 92.8703 978.335 92.9257Z" fill="#5ED9D1"/>
<path d="M972.126 114.278C972.332 114.305 972.435 114.472 972.401 114.638C972.366 114.804 972.161 114.887 971.955 114.859C971.749 114.832 971.646 114.666 971.68 114.499C971.715 114.361 971.921 114.25 972.126 114.278Z" fill="#5ED9D1"/>
<path d="M967.529 134.884C967.632 134.911 967.701 134.995 967.667 135.078C967.632 135.161 967.529 135.216 967.426 135.188C967.323 135.161 967.255 135.078 967.289 134.995C967.323 134.939 967.426 134.884 967.529 134.884Z" fill="#5ED9D1"/>
<path d="M966.295 79.9531C966.364 79.9808 966.432 80.0362 966.398 80.0916C966.364 80.147 966.295 80.2024 966.226 80.1747C966.158 80.147 966.089 80.0916 966.123 80.0362C966.123 79.9808 966.226 79.9531 966.295 79.9531Z" fill="#5ED9D1"/>
</g>
</g>
<defs>
<clipPath id="clip0_703_2">
<rect width="1181" height="679" fill="white"/>
</clipPath>
<clipPath id="clip1_703_2">
<rect width="505.935" height="427.292" fill="white" transform="translate(1393.42 -43.1006) rotate(90)"/>
</clipPath>
</defs>
</svg>
