<svg width="1181" height="679" viewBox="0 0 1181 679" fill="none" xmlns="http://www.w3.org/2000/svg">
<g clip-path="url(#clip0_722_27)">
<rect width="1181" height="679" fill="white"/>
<rect width="1449" height="1029" fill="url(#paint0_linear_722_27)"/>
<path opacity="0.8" d="M-275.88 348.429L-267.457 332.401C-235.142 270.692 -201.729 206.897 -136.056 168.616C-96.873 145.777 -50.2234 134.944 -5.11228 124.478C32.1825 115.83 70.7614 106.878 105.361 91.1638C174.545 59.7573 223.684 2.74584 258.771 -43.4131C267.695 -55.1454 276.49 -67.1721 285.021 -78.8306C314.87 -119.605 345.692 -161.787 385.808 -197.022C387.618 -198.626 389.443 -200.18 391.283 -201.757L393.752 -205.449C390.779 -203.012 387.773 -200.476 384.76 -197.83C344.544 -162.496 313.666 -120.254 283.773 -79.4132C275.249 -67.7656 266.447 -55.7279 257.535 -43.9903C222.544 2.02583 173.575 58.8557 104.66 90.1783C70.2311 105.809 31.7454 114.744 -5.47615 123.381C-50.7154 133.892 -97.4838 144.73 -136.907 167.708C-202.898 206.123 -236.404 270.104 -268.769 331.988C-271.585 337.375 -274.392 342.718 -277.193 348.017C-290.086 372.373 -305.43 398.654 -324.469 423.04L-323.191 423.579C-304.154 399.122 -288.795 372.818 -275.88 348.429Z" fill="#8989C7"/>
<path d="M191.867 -73.3358C182.522 -53.3863 182.806 -33.8516 185.025 -14.2486C187.151 4.5868 190.028 23.7029 184.124 43.3626C172.012 83.8298 131.496 116.452 90.9434 139.828C45.6157 165.933 -5.44849 185.686 -44.8252 219.343C-64.1408 235.855 -79.8866 256.378 -83.0134 278.472C-85.6669 296.789 -77.7591 312.025 -64.4166 324.057C-56.8327 330.899 -48.1242 336.708 -39.3092 342.395L-42.8219 346.398C-45.323 344.786 -47.8155 343.179 -50.2654 341.524C-64.4836 331.89 -78.4424 321.07 -85.0397 306.033C-92.5657 288.992 -88.8156 268.462 -78.234 250.485C-65.3118 228.544 -43.4956 210.567 -20.5709 195.628C1.50985 181.228 25.3523 169.267 48.9681 157.142C94.0286 134.009 142.432 107.504 167.903 66.57C173.936 57.0069 178.161 46.8884 180.402 36.6394C182.534 26.5264 182.46 16.5068 181.67 6.66225C180.1 -12.5727 175.844 -31.6346 179.381 -51.5709C183.163 -72.3997 194.687 -92.6607 212.233 -109.329L212.304 -109.41L216.628 -106.959C205.996 -96.959 197.571 -85.5185 191.867 -73.3358V-73.3358Z" fill="#5ED9D1"/>
<path opacity="0.5" d="M303.741 -96.191L303.742 -96.1911C312.327 -117.907 314.967 -140.573 317.527 -162.552L317.542 -162.686C318.546 -171.516 319.604 -180.413 321.035 -189.331L320.535 -189.615C319.059 -180.564 317.99 -171.519 316.956 -162.581L316.956 -162.581C314.415 -140.656 311.768 -117.926 303.207 -96.2193L303.206 -96.219C279.118 -35.3288 212.37 9.00792 160.634 35.4436C133.933 49.0879 105.822 61.2094 78.6372 72.9299L78.473 72.6435L78.6371 72.93C43.3688 88.1226 6.92841 103.843 -26.7824 123.029C-43.2874 132.424 -70.9667 149.898 -95.6092 173.599C-120.253 197.301 -141.834 227.204 -146.2 261.464C-151.215 300.86 -132.082 341.117 -89.1815 381.069C-85.2082 384.766 -81.1142 388.398 -76.9796 392.008L-76.5962 391.571C-80.7048 387.981 -84.7867 384.358 -88.7348 380.691L-88.7352 380.69C-131.474 340.86 -150.662 300.725 -145.659 261.403L-145.291 261.414L-145.659 261.403C-141.292 227.221 -119.72 197.397 -95.1581 173.794C-70.5946 150.189 -43.0146 132.781 -26.5738 123.424L-26.3861 123.66L-26.5738 123.424C7.11566 104.256 43.5582 88.5337 78.7778 73.353L78.8643 73.3157C106.048 61.6003 134.137 49.4946 160.823 35.8468L160.823 35.8467C212.767 9.31376 279.634 -35.1263 303.741 -96.191Z" fill="#ECFFFE" stroke="#8989C7" stroke-width="0.793856"/>
<path opacity="0.5" d="M81.6802 51.7377C80.1823 50.8928 77.6122 51.228 76.0164 53.0334C74.4205 54.8388 74.885 56.8858 76.3829 57.7307C77.8808 58.5757 80.4509 58.2405 82.0468 56.4351C83.6426 54.6297 83.1781 52.5827 81.6802 51.7377Z" stroke="#8989C7" stroke-width="4.76314"/>
<g opacity="0.3">
<path opacity="0.8" d="M-287.847 747.665C-287.847 747.665 -138.6 631.864 302.005 743.1C537.463 802.557 605.101 679.218 704.334 662.62C853.998 637.678 978.113 760.504 1206.64 558.549" stroke="#8989C7" stroke-width="1.28882" stroke-miterlimit="10"/>
<path opacity="0.8" d="M-283.292 762.872C-283.292 762.872 -129.894 622.722 306 730.769C549.581 790.391 614.562 688.596 718.114 670.52C868.952 644.631 993.3 750.791 1207.53 561.355" stroke="#8989C7" stroke-width="1.28882" stroke-miterlimit="10"/>
<path opacity="0.8" d="M-278.68 777.992C-278.68 777.992 -121.609 614.736 309.819 718.356C561.334 778.873 623.715 697.564 731.632 678.192C883.525 651.009 1008.27 740.959 1208.17 564.142" stroke="#8989C7" stroke-width="1.28882" stroke-miterlimit="10"/>
<path opacity="0.8" d="M-273.904 793.312C-273.904 793.312 -112.816 606.263 313.995 706.309C573.661 767.067 633.254 707.061 745.47 686.224C898.457 657.935 1023.49 731.258 1209.03 567.17" stroke="#8989C7" stroke-width="1.28882" stroke-miterlimit="10"/>
<path opacity="0.8" d="M-269.031 808.632C-269.031 808.632 -104.206 597.781 318.165 694.154C585.965 755.108 642.57 716.431 759.273 694.105C913.34 664.72 1038.7 721.576 1210.06 570.244" stroke="#8989C7" stroke-width="1.28882" stroke-miterlimit="10"/>
<path opacity="0.8" d="M-264.123 823.738C-264.123 823.738 -95.3983 589.216 322.313 681.895C598.035 743.035 652.047 725.58 773.084 701.982C928.219 671.513 1053.85 711.739 1210.82 573.233" stroke="#8989C7" stroke-width="1.28882" stroke-miterlimit="10"/>
<path opacity="0.8" d="M-259.101 838.918C-259.101 838.918 -86.3718 580.705 326.515 669.855C610.337 731.106 661.62 735.009 786.869 709.799C943.113 678.433 1068.75 701.925 1211.52 576.225" stroke="#8989C7" stroke-width="1.28882" stroke-miterlimit="10"/>
<path opacity="0.8" d="M-254.015 853.888C-254.015 853.888 -77.54 572.305 330.681 657.825C622.766 719.089 671.079 744.099 800.574 717.469C957.905 685.223 1083.77 692.18 1212.13 579.344" stroke="#8989C7" stroke-width="1.28882" stroke-miterlimit="10"/>
<path opacity="0.8" d="M-248.901 868.271C-248.901 868.271 -68.652 563.613 334.487 645.616C634.519 706.638 680.183 752.89 813.884 724.867C972.399 691.564 1098.25 682.11 1212.38 582.157" stroke="#8989C7" stroke-width="1.28882" stroke-miterlimit="10"/>
<path opacity="0.8" d="M-243.7 882.771C-243.7 882.771 -59.7037 555.144 338.54 633.656C646.502 694.452 689.484 761.618 827.381 732.206C986.934 698.055 1112.96 672.285 1212.69 585.133" stroke="#8989C7" stroke-width="1.28882" stroke-miterlimit="10"/>
<path opacity="0.8" d="M-238.459 897.221C-238.459 897.221 -50.7978 546.558 342.595 621.8C658.552 682.004 698.789 770.326 840.871 739.528C1001.46 704.529 1127.57 662.389 1212.93 587.934" stroke="#8989C7" stroke-width="1.28882" stroke-miterlimit="10"/>
<path opacity="0.8" d="M-233.23 911.452C-233.23 911.452 -41.931 537.85 346.602 609.868C670.641 669.839 708.152 779.185 854.355 746.833C1015.96 710.987 1142.21 652.757 1213.23 590.908" stroke="#8989C7" stroke-width="1.28882" stroke-miterlimit="10"/>
<path opacity="0.8" d="M-227.934 925.815C-227.934 925.815 -33.0144 529.332 350.655 598.174C682.508 657.792 717.455 787.85 867.825 754.118C1030.45 717.424 1156.76 643.025 1213.48 593.693" stroke="#8989C7" stroke-width="1.28882" stroke-miterlimit="10"/>
<path opacity="0.8" d="M-222.613 940.138C-222.613 940.138 -23.9536 520.635 354.511 586.579C694.299 645.653 726.723 797.042 881.086 761.417C1044.84 724.218 1171.14 633.565 1213.77 596.64" stroke="#8989C7" stroke-width="1.28882" stroke-miterlimit="10"/>
<path opacity="0.8" d="M-217.323 954.27C-217.323 954.27 -15.0819 511.996 358.514 574.844C706.415 633.358 736.027 805.68 894.484 768.509C1059.25 730.461 1185.58 623.8 1213.97 599.244" stroke="#8989C7" stroke-width="1.28882" stroke-miterlimit="10"/>
<path opacity="0.8" d="M-211.954 968.263C-211.954 968.263 -6.05827 502.799 362.427 563.274C718.193 620.675 745.132 814.07 907.748 775.71C1073.49 736.827 1199.86 614.467 1214.03 602.224" stroke="#8989C7" stroke-width="1.28882" stroke-miterlimit="10"/>
<path opacity="0.8" d="M-206.594 982.197C-206.594 982.197 2.81203 494.514 366.294 551.736C729.777 608.957 754.232 822.588 920.882 782.7C1087.53 742.813 1213.92 604.83 1213.92 604.83" stroke="#8989C7" stroke-width="1.28882" stroke-miterlimit="10"/>
</g>
<path opacity="0.8" d="M821.466 762.858L829.889 746.829C862.203 685.121 895.617 621.326 961.29 583.045C1000.47 560.205 1047.12 549.373 1092.23 538.907C1129.53 530.259 1168.11 521.307 1202.71 505.592C1271.89 474.186 1321.03 417.175 1356.12 371.016C1365.04 359.283 1373.84 347.257 1382.37 335.598C1412.22 294.823 1443.04 252.642 1483.15 217.407C1484.96 215.803 1486.79 214.248 1488.63 212.672L1491.1 208.979C1488.12 211.417 1485.12 213.953 1482.11 216.599C1441.89 251.933 1411.01 294.175 1381.12 335.016C1372.59 346.663 1363.79 358.701 1354.88 370.438C1319.89 416.455 1270.92 473.284 1202.01 504.607C1167.58 520.238 1129.09 529.173 1091.87 537.81C1046.63 548.321 999.862 559.159 960.439 582.137C894.448 620.551 860.942 684.533 828.576 746.417C825.761 751.803 822.953 757.146 820.153 762.445C807.26 786.802 791.916 813.083 772.877 837.469L774.155 838.007C793.192 813.551 808.55 787.247 821.466 762.858Z" fill="#ECFFFE"/>
<path d="M1266.56 404.445C1259.12 421.513 1260.3 438.515 1263.22 455.635C1266.02 472.085 1269.51 488.802 1265.14 505.723C1256.19 540.554 1221.38 567.69 1186.09 586.782C1146.65 608.102 1101.77 623.72 1068.02 651.791C1051.47 665.563 1038.31 682.933 1036.55 702.056C1035.04 717.909 1042.86 731.405 1055.4 742.28C1062.53 748.465 1070.62 753.784 1078.8 759.002L1075.84 762.376C1073.52 760.897 1071.21 759.423 1068.93 757.908C1055.71 749.092 1042.67 739.252 1036.04 725.969C1028.48 710.915 1030.87 693.171 1039.52 677.858C1050.07 659.167 1068.8 644.197 1088.67 631.905C1107.8 620.055 1128.63 610.381 1149.25 600.557C1188.59 581.814 1230.77 560.242 1251.69 525.414C1256.65 517.28 1259.96 508.607 1261.48 499.76C1262.92 491.028 1262.38 482.31 1261.2 473.722C1258.88 456.942 1254.16 440.23 1256.39 422.996C1258.8 404.993 1268.18 387.721 1283.14 373.759L1283.2 373.691L1287.19 375.956C1278.12 384.329 1271.11 394.022 1266.56 404.445V404.445Z" fill="#8989C7"/>
<path d="M1423.3 345.607C1397.56 417.546 1318.07 467.784 1255.89 497.245C1223.91 512.419 1190.09 525.69 1157.4 538.525C1115.07 555.145 1071.31 572.345 1031.16 593.762C991.981 614.664 900.186 672.038 893.904 752.919C890.317 799.428 916.427 847.968 971.512 897.19C976.697 901.81 982.052 906.38 987.438 910.915L986.377 912.122C980.904 907.52 975.476 902.89 970.2 898.183C914.793 848.706 888.559 799.806 892.18 752.901C898.488 671.347 990.854 613.61 1030.27 592.574C1070.51 571.1 1114.34 553.879 1156.71 537.251C1189.39 524.42 1223.15 511.158 1255.08 496.024C1316.95 466.697 1396.01 416.718 1421.62 345.305C1430.72 319.842 1432.5 292.907 1434.2 266.87C1434.9 256.021 1435.65 245.031 1436.93 234.055L1438.57 234.982C1437.37 245.626 1436.64 256.263 1435.97 266.828C1434.25 292.961 1432.49 319.976 1423.3 345.607Z" fill="#5ED9D1"/>
<path d="M1104.48 554.334C1102.06 552.966 1098.62 553.549 1096.8 555.609C1094.97 557.669 1095.44 560.452 1097.86 561.82C1100.29 563.187 1103.72 562.605 1105.55 560.544C1107.37 558.484 1106.9 555.701 1104.48 554.334Z" stroke="#5ED9D1" stroke-width="4.76314"/>
<g opacity="0.5" clip-path="url(#clip1_722_27)">
<path d="M1169.7 163.896C1171.31 164.228 1172.31 165.556 1171.93 166.856C1171.52 168.156 1169.87 168.958 1168.26 168.653C1166.65 168.322 1165.65 166.994 1166.03 165.694C1166.41 164.366 1168.06 163.564 1169.7 163.896Z" fill="#5ED9D1"/>
<path d="M1184.11 168.847C1185.82 169.179 1186.85 170.59 1186.44 171.945C1186.03 173.328 1184.28 174.158 1182.6 173.826C1180.88 173.494 1179.86 172.084 1180.27 170.728C1180.68 169.345 1182.39 168.516 1184.11 168.847Z" fill="#5ED9D1"/>
<path d="M1184.42 103.102C1186.17 103.462 1187.23 104.873 1186.78 106.256C1186.34 107.666 1184.59 108.524 1182.87 108.164C1181.12 107.804 1180.06 106.394 1180.51 105.011C1180.92 103.6 1182.67 102.743 1184.42 103.102Z" fill="#5ED9D1"/>
<path d="M1173.41 135.546C1175.12 135.878 1176.19 137.288 1175.77 138.699C1175.36 140.082 1173.61 140.939 1171.86 140.607C1170.15 140.275 1169.09 138.865 1169.5 137.454C1169.91 136.044 1171.66 135.186 1173.41 135.546Z" fill="#5ED9D1"/>
<path d="M1155.64 183.478C1157.08 183.755 1157.94 184.944 1157.59 186.078C1157.25 187.24 1155.78 187.931 1154.37 187.655C1152.93 187.378 1152.07 186.189 1152.41 185.055C1152.76 183.921 1154.2 183.202 1155.64 183.478Z" fill="#5ED9D1"/>
<path d="M1170.9 189.039C1172.41 189.343 1173.34 190.587 1172.96 191.804C1172.58 193.021 1171.04 193.768 1169.53 193.464C1168.02 193.16 1167.1 191.915 1167.47 190.698C1167.85 189.481 1169.39 188.762 1170.9 189.039Z" fill="#5ED9D1"/>
<path d="M1171.55 98.2896C1173.2 98.6215 1174.23 99.9768 1173.82 101.304C1173.41 102.632 1171.73 103.462 1170.08 103.13C1168.43 102.798 1167.4 101.443 1167.82 100.115C1168.23 98.7598 1169.87 97.9577 1171.55 98.2896Z" fill="#5ED9D1"/>
<path d="M1159.69 130.374C1161.3 130.706 1162.26 132.006 1161.88 133.306C1161.47 134.606 1159.86 135.38 1158.25 135.076C1156.63 134.744 1155.67 133.444 1156.05 132.144C1156.46 130.844 1158.11 130.042 1159.69 130.374Z" fill="#5ED9D1"/>
<path d="M1155.19 158.448C1156.74 158.752 1157.66 160.024 1157.29 161.269C1156.91 162.514 1155.33 163.26 1153.79 162.956C1152.24 162.652 1151.32 161.38 1151.69 160.135C1152.07 158.89 1153.65 158.143 1155.19 158.448Z" fill="#5ED9D1"/>
<path d="M1143.15 199.908C1144.39 200.157 1145.18 201.18 1144.87 202.176C1144.56 203.172 1143.29 203.808 1142.06 203.559C1140.82 203.31 1140.03 202.287 1140.34 201.291C1140.65 200.268 1141.92 199.659 1143.15 199.908Z" fill="#5ED9D1"/>
<path d="M1159.31 205.993C1160.65 206.269 1161.47 207.348 1161.13 208.427C1160.78 209.505 1159.45 210.169 1158.11 209.893C1156.77 209.616 1155.95 208.537 1156.29 207.459C1156.63 206.408 1157.97 205.744 1159.31 205.993Z" fill="#5ED9D1"/>
<path d="M1175.29 211.608C1176.7 211.884 1177.56 213.046 1177.21 214.18C1176.87 215.314 1175.43 216.006 1174.02 215.729C1172.62 215.452 1171.76 214.291 1172.1 213.157C1172.45 212.023 1173.89 211.331 1175.29 211.608Z" fill="#5ED9D1"/>
<path d="M1180.89 56.7457C1182.39 57.0499 1183.32 58.2946 1182.94 59.5115C1182.57 60.7285 1181.02 61.4753 1179.51 61.1711C1178 60.8668 1177.08 59.6222 1177.45 58.4052C1177.83 57.1882 1179.38 56.4414 1180.89 56.7457Z" fill="#5ED9D1"/>
<path d="M1158.52 92.9791C1160.03 93.2833 1160.96 94.528 1160.58 95.7449C1160.2 96.9619 1158.66 97.7087 1157.15 97.4045C1155.64 97.1002 1154.71 95.8556 1155.09 94.6386C1155.47 93.4216 1157.01 92.6748 1158.52 92.9791Z" fill="#5ED9D1"/>
<path d="M1146 124.538C1147.51 124.842 1148.44 126.087 1148.06 127.304C1147.68 128.521 1146.14 129.267 1144.63 128.963C1143.12 128.659 1142.19 127.414 1142.57 126.197C1142.95 124.98 1144.49 124.233 1146 124.538Z" fill="#5ED9D1"/>
<path d="M1140.65 152.417C1142.12 152.722 1143.02 153.911 1142.64 155.1C1142.26 156.29 1140.79 157.009 1139.31 156.705C1137.84 156.4 1136.95 155.211 1137.32 154.022C1137.7 152.832 1139.17 152.113 1140.65 152.417Z" fill="#5ED9D1"/>
<path d="M1140.24 177.366C1141.61 177.642 1142.43 178.749 1142.09 179.827C1141.75 180.934 1140.38 181.598 1139.04 181.321C1137.67 181.044 1136.84 179.938 1137.19 178.859C1137.53 177.781 1138.9 177.117 1140.24 177.366Z" fill="#5ED9D1"/>
<path d="M1131.08 213.876C1132.11 214.097 1132.76 214.927 1132.48 215.784C1132.21 216.614 1131.18 217.139 1130.12 216.918C1129.09 216.697 1128.44 215.867 1128.71 215.01C1128.99 214.152 1130.05 213.654 1131.08 213.876Z" fill="#5ED9D1"/>
<path d="M1148.13 220.403C1149.26 220.624 1149.98 221.565 1149.67 222.478C1149.4 223.39 1148.23 223.971 1147.1 223.722C1145.97 223.501 1145.25 222.561 1145.55 221.648C1145.83 220.735 1146.99 220.182 1148.13 220.403Z" fill="#5ED9D1"/>
<path d="M1164.97 226.433C1166.2 226.682 1166.92 227.677 1166.65 228.673C1166.34 229.669 1165.11 230.25 1163.87 230.028C1162.64 229.779 1161.92 228.784 1162.19 227.788C1162.5 226.792 1163.73 226.184 1164.97 226.433Z" fill="#5ED9D1"/>
<path d="M1167.58 51.9884C1168.95 52.265 1169.81 53.399 1169.46 54.5053C1169.12 55.6117 1167.71 56.3032 1166.34 56.0266C1164.97 55.75 1164.11 54.616 1164.45 53.5096C1164.8 52.3756 1166.2 51.7118 1167.58 51.9884Z" fill="#5ED9D1"/>
<path d="M1145.35 87.1156C1146.75 87.3922 1147.61 88.5539 1147.27 89.6879C1146.93 90.8219 1145.49 91.5133 1144.08 91.2368C1142.67 90.9602 1141.82 89.7985 1142.16 88.6645C1142.5 87.5305 1143.94 86.839 1145.35 87.1156Z" fill="#5ED9D1"/>
<path d="M1132.24 118.176C1133.62 118.453 1134.47 119.587 1134.13 120.693C1133.79 121.8 1132.38 122.491 1131.01 122.214C1129.64 121.938 1128.78 120.804 1129.12 119.697C1129.43 118.591 1130.84 117.9 1132.24 118.176Z" fill="#5ED9D1"/>
<path d="M1126.07 145.779C1127.44 146.056 1128.3 147.19 1127.96 148.296C1127.61 149.403 1126.21 150.094 1124.84 149.818C1123.46 149.541 1122.61 148.407 1122.95 147.301C1123.29 146.167 1124.7 145.503 1126.07 145.779Z" fill="#5ED9D1"/>
<path d="M1121.85 172.712C1121.96 173.763 1123.1 174.547 1124.4 174.464C1125.7 174.38 1126.67 173.461 1126.57 172.41C1126.47 171.36 1125.33 170.575 1124.02 170.659C1122.72 170.742 1121.75 171.661 1121.85 172.712Z" fill="#5ED9D1"/>
<path d="M1126.89 193.27C1128.06 193.491 1128.78 194.459 1128.47 195.399C1128.2 196.34 1127 196.921 1125.83 196.672C1124.66 196.45 1123.94 195.482 1124.25 194.542C1124.53 193.602 1125.73 193.021 1126.89 193.27Z" fill="#5ED9D1"/>
<path d="M1118.66 225.769C1119.45 225.935 1119.96 226.571 1119.76 227.235C1119.55 227.871 1118.76 228.286 1117.94 228.12C1117.15 227.954 1116.64 227.318 1116.84 226.654C1117.05 226.018 1117.84 225.603 1118.66 225.769Z" fill="#5ED9D1"/>
<path d="M1136 235.489C1136.99 235.54 1137.83 234.939 1137.9 234.147C1137.96 233.354 1137.22 232.67 1136.23 232.618C1135.25 232.567 1134.4 233.168 1134.34 233.961C1134.27 234.753 1135.02 235.437 1136 235.489Z" fill="#5ED9D1"/>
<path d="M1154.2 239.183C1155.19 239.377 1155.78 240.179 1155.54 240.981C1155.3 241.783 1154.3 242.253 1153.31 242.06C1152.31 241.866 1151.73 241.064 1151.97 240.262C1152.24 239.46 1153.24 238.989 1154.2 239.183Z" fill="#5ED9D1"/>
<path d="M1171.66 245.102C1172.72 245.324 1173.37 246.181 1173.1 247.038C1172.82 247.896 1171.76 248.421 1170.7 248.2C1169.63 247.979 1168.98 247.121 1169.26 246.264C1169.5 245.407 1170.59 244.881 1171.66 245.102Z" fill="#5ED9D1"/>
<path d="M1153.65 46.8438C1154.88 47.0927 1155.64 48.0885 1155.33 49.0842C1155.02 50.0799 1153.79 50.6884 1152.55 50.4395C1151.32 50.1905 1150.56 49.1948 1150.87 48.1991C1151.18 47.2034 1152.41 46.5949 1153.65 46.8438Z" fill="#5ED9D1"/>
<path d="M1131.94 80.6158C1133.27 80.8924 1134.1 81.9711 1133.75 83.0498C1133.41 84.1285 1132.07 84.7923 1130.74 84.5157C1129.4 84.2391 1128.57 83.1604 1128.92 82.0817C1129.26 81.0307 1130.6 80.3669 1131.94 80.6158Z" fill="#5ED9D1"/>
<path d="M1118.46 111.096C1119.79 111.373 1120.62 112.451 1120.27 113.53C1119.93 114.609 1118.59 115.272 1117.26 114.996C1115.92 114.719 1115.09 113.641 1115.44 112.562C1115.75 111.483 1117.12 110.819 1118.46 111.096Z" fill="#5ED9D1"/>
<path d="M1111.49 138.533C1112.76 138.782 1113.55 139.833 1113.24 140.856C1112.93 141.88 1111.63 142.516 1110.36 142.267C1109.09 142.018 1108.3 140.967 1108.61 139.944C1108.92 138.893 1110.19 138.284 1111.49 138.533Z" fill="#5ED9D1"/>
<path d="M1109.33 163.343C1110.53 163.592 1111.25 164.56 1110.98 165.528C1110.67 166.496 1109.47 167.077 1108.27 166.855C1107.07 166.607 1106.35 165.639 1106.62 164.67C1106.93 163.702 1108.13 163.122 1109.33 163.343Z" fill="#5ED9D1"/>
<path d="M1110.53 186.023C1111.6 186.245 1112.25 187.102 1111.97 187.959C1111.7 188.817 1110.64 189.342 1109.57 189.121C1108.51 188.9 1107.86 188.042 1108.13 187.185C1108.41 186.328 1109.47 185.802 1110.53 186.023Z" fill="#5ED9D1"/>
<path d="M1113.96 206.712C1114.92 206.906 1115.51 207.681 1115.27 208.455C1115.03 209.229 1114.07 209.7 1113.11 209.506C1112.14 209.312 1111.56 208.538 1111.8 207.764C1112.04 206.989 1113 206.519 1113.96 206.712Z" fill="#5ED9D1"/>
<path d="M1105.28 235.92C1105.83 236.031 1106.18 236.501 1106.04 236.943C1105.9 237.386 1105.32 237.662 1104.77 237.552C1104.22 237.441 1103.88 236.971 1104.02 236.528C1104.19 236.086 1104.74 235.809 1105.28 235.92Z" fill="#5ED9D1"/>
<path d="M1123.94 243.332C1124.6 243.471 1124.97 243.996 1124.8 244.494C1124.63 245.019 1123.98 245.324 1123.36 245.185C1122.71 245.047 1122.33 244.522 1122.5 244.024C1122.67 243.526 1123.33 243.222 1123.94 243.332Z" fill="#5ED9D1"/>
<path d="M1142.47 250.164C1143.19 250.302 1143.63 250.91 1143.46 251.491C1143.29 252.072 1142.54 252.432 1141.81 252.293C1141.09 252.155 1140.65 251.546 1140.82 250.966C1140.99 250.357 1141.75 249.998 1142.47 250.164Z" fill="#5ED9D1"/>
<path d="M1160.78 256.304C1161.64 256.47 1162.19 257.19 1161.98 257.909C1161.78 258.6 1160.89 259.043 1159.99 258.877C1159.14 258.711 1158.59 257.992 1158.79 257.273C1159 256.581 1159.89 256.138 1160.78 256.304Z" fill="#5ED9D1"/>
<path d="M1178.79 262.057C1179.79 262.251 1180.37 263.053 1180.13 263.855C1179.89 264.657 1178.89 265.127 1177.9 264.934C1176.91 264.74 1176.32 263.938 1176.56 263.136C1176.8 262.334 1177.8 261.864 1178.79 262.057Z" fill="#5ED9D1"/>
<path d="M1166.99 6.65579C1167.92 6.8494 1168.47 7.59619 1168.23 8.31532C1167.99 9.06211 1167.06 9.50464 1166.17 9.31103C1165.24 9.11742 1164.69 8.37063 1164.93 7.6515C1165.14 6.90471 1166.07 6.46218 1166.99 6.65579Z" fill="#5ED9D1"/>
<path d="M1139.07 41.2574C1140.13 41.4787 1140.75 42.3085 1140.51 43.1659C1140.24 44.0233 1139.21 44.5212 1138.15 44.3276C1137.08 44.1063 1136.46 43.2765 1136.7 42.4191C1136.98 41.5617 1138.04 41.0638 1139.07 41.2574Z" fill="#5ED9D1"/>
<path d="M1118.22 73.7566C1119.38 73.9779 1120.07 74.9183 1119.79 75.8587C1119.52 76.7991 1118.35 77.3523 1117.19 77.131C1116.02 76.9097 1115.34 75.9693 1115.61 75.0289C1115.92 74.0885 1117.08 73.5353 1118.22 73.7566Z" fill="#5ED9D1"/>
<path d="M1104.56 103.489C1105.76 103.738 1106.48 104.706 1106.21 105.674C1105.9 106.642 1104.7 107.223 1103.5 107.002C1102.3 106.753 1101.58 105.785 1101.85 104.817C1102.13 103.849 1103.36 103.268 1104.56 103.489Z" fill="#5ED9D1"/>
<path d="M1096.88 130.65C1098.05 130.871 1098.73 131.812 1098.46 132.752C1098.18 133.693 1097.02 134.246 1095.85 134.025C1094.69 133.803 1094 132.863 1094.27 131.922C1094.58 130.982 1095.75 130.429 1096.88 130.65Z" fill="#5ED9D1"/>
<path d="M1093.86 155.432C1094.93 155.654 1095.58 156.511 1095.3 157.369C1095.03 158.226 1093.96 158.752 1092.9 158.53C1091.84 158.309 1091.19 157.452 1091.46 156.594C1091.74 155.737 1092.8 155.211 1093.86 155.432Z" fill="#5ED9D1"/>
<path d="M1094.21 178.03C1095.2 178.224 1095.82 179.053 1095.58 179.856C1095.34 180.658 1094.31 181.156 1093.31 180.962C1092.32 180.768 1091.7 179.939 1091.94 179.136C1092.18 178.334 1093.18 177.836 1094.21 178.03Z" fill="#5ED9D1"/>
<path d="M1096.74 198.885C1097.64 199.051 1098.15 199.77 1097.94 200.489C1097.74 201.208 1096.85 201.623 1095.95 201.457C1095.06 201.291 1094.55 200.572 1094.75 199.853C1094.99 199.134 1095.89 198.719 1096.74 198.885Z" fill="#5ED9D1"/>
<path d="M1100.65 218.135C1101.37 218.273 1101.82 218.854 1101.61 219.435C1101.44 220.016 1100.72 220.376 1100 220.21C1099.28 220.071 1098.84 219.49 1099.04 218.91C1099.21 218.356 1099.97 217.997 1100.65 218.135Z" fill="#5ED9D1"/>
<path d="M1090.71 244.494C1091.01 244.549 1091.19 244.798 1091.12 245.047C1091.05 245.296 1090.74 245.434 1090.43 245.379C1090.12 245.323 1089.95 245.074 1090.02 244.825C1090.09 244.577 1090.4 244.438 1090.71 244.494Z" fill="#5ED9D1"/>
<path d="M1110.09 252.377C1110.5 252.46 1110.74 252.791 1110.64 253.123C1110.53 253.455 1110.12 253.649 1109.71 253.566C1109.3 253.483 1109.06 253.151 1109.16 252.819C1109.3 252.487 1109.71 252.294 1110.09 252.377Z" fill="#5ED9D1"/>
<path d="M1129.36 259.596C1129.84 259.706 1130.15 260.094 1130.02 260.481C1129.88 260.868 1129.4 261.117 1128.92 261.006C1128.44 260.896 1128.13 260.508 1128.27 260.121C1128.4 259.734 1128.88 259.485 1129.36 259.596Z" fill="#5ED9D1"/>
<path d="M1148.44 266.151C1149.02 266.262 1149.4 266.76 1149.26 267.23C1149.12 267.7 1148.5 268.004 1147.92 267.894C1147.34 267.783 1146.96 267.285 1147.1 266.815C1147.27 266.317 1147.85 266.041 1148.44 266.151Z" fill="#5ED9D1"/>
<path d="M1167.3 272.153C1168.02 272.291 1168.47 272.899 1168.3 273.48C1168.12 274.061 1167.37 274.421 1166.65 274.282C1165.93 274.144 1165.48 273.536 1165.66 272.955C1165.83 272.374 1166.55 272.014 1167.3 272.153Z" fill="#5ED9D1"/>
<path d="M1148.98 2.64596C1149.74 2.78426 1150.18 3.39275 1150.01 4.00125C1149.84 4.60974 1149.09 4.96931 1148.33 4.83101C1147.58 4.69272 1147.13 4.08422 1147.3 3.47573C1147.47 2.86723 1148.23 2.48001 1148.98 2.64596Z" fill="#5ED9D1"/>
<path d="M1123.98 35.1169C1124.9 35.3105 1125.45 36.0573 1125.21 36.7764C1124.97 37.4955 1124.05 37.9657 1123.16 37.7721C1122.23 37.5785 1121.68 36.8317 1121.92 36.1126C1122.13 35.3935 1123.05 34.9509 1123.98 35.1169Z" fill="#5ED9D1"/>
<path d="M1104.22 66.3162C1105.22 66.5098 1105.83 67.3396 1105.59 68.1417C1105.35 68.9438 1104.32 69.4416 1103.33 69.248C1102.33 69.0544 1101.72 68.2247 1101.96 67.4226C1102.23 66.6204 1103.23 66.1226 1104.22 66.3162Z" fill="#5ED9D1"/>
<path d="M1090.6 95.3024C1091.67 95.5236 1092.32 96.3811 1092.04 97.2385C1091.77 98.0959 1090.71 98.6214 1089.64 98.4001C1088.58 98.1789 1087.93 97.3215 1088.2 96.464C1088.44 95.6066 1089.51 95.1087 1090.6 95.3024Z" fill="#5ED9D1"/>
<path d="M1082.37 122.049C1083.43 122.27 1084.09 123.127 1083.81 123.985C1083.54 124.842 1082.47 125.368 1081.41 125.146C1080.35 124.925 1079.7 124.068 1079.97 123.21C1080.21 122.353 1081.31 121.827 1082.37 122.049Z" fill="#5ED9D1"/>
<path d="M1078.5 146.721C1079.49 146.914 1080.07 147.716 1079.83 148.518C1079.59 149.321 1078.6 149.791 1077.6 149.597C1076.61 149.403 1076.03 148.601 1076.27 147.799C1076.51 147.025 1077.5 146.527 1078.5 146.721Z" fill="#5ED9D1"/>
<path d="M1077.88 169.455C1078.77 169.621 1079.28 170.34 1079.08 171.06C1078.87 171.779 1077.98 172.194 1077.09 172.028C1076.2 171.862 1075.68 171.143 1075.89 170.423C1076.13 169.704 1077.02 169.289 1077.88 169.455Z" fill="#5ED9D1"/>
<path d="M1079.56 190.449C1080.31 190.587 1080.76 191.223 1080.59 191.804C1080.42 192.412 1079.63 192.772 1078.91 192.634C1078.15 192.495 1077.71 191.859 1077.88 191.278C1078.05 190.67 1078.8 190.283 1079.56 190.449Z" fill="#5ED9D1"/>
<path d="M1082.68 209.782C1083.33 209.921 1083.71 210.446 1083.54 210.944C1083.37 211.47 1082.71 211.774 1082.1 211.636C1081.44 211.497 1081.07 210.972 1081.24 210.474C1081.38 209.976 1082.03 209.672 1082.68 209.782Z" fill="#5ED9D1"/>
<path d="M1086.56 227.815C1087 227.898 1087.31 228.285 1087.17 228.645C1087.07 229.005 1086.59 229.254 1086.14 229.143C1085.7 229.06 1085.39 228.673 1085.53 228.313C1085.63 227.954 1086.08 227.732 1086.56 227.815Z" fill="#5ED9D1"/>
<path d="M1074.65 251.686C1074.69 251.686 1074.72 251.741 1074.72 251.768C1074.72 251.796 1074.65 251.823 1074.62 251.823C1074.58 251.823 1074.55 251.768 1074.55 251.741C1074.58 251.686 1074.62 251.658 1074.65 251.686Z" fill="#5ED9D1"/>
<path d="M1094.72 260.039C1094.86 260.066 1094.96 260.177 1094.92 260.315C1094.89 260.426 1094.75 260.509 1094.58 260.481C1094.44 260.453 1094.34 260.343 1094.38 260.205C1094.41 260.094 1094.58 260.011 1094.72 260.039Z" fill="#5ED9D1"/>
<path d="M1114.68 267.7C1114.89 267.755 1115.03 267.921 1114.99 268.114C1114.92 268.28 1114.72 268.391 1114.48 268.363C1114.27 268.308 1114.13 268.142 1114.17 267.948C1114.24 267.783 1114.48 267.672 1114.68 267.7Z" fill="#5ED9D1"/>
<path d="M1134.51 274.67C1134.85 274.725 1135.02 275.002 1134.95 275.278C1134.89 275.555 1134.54 275.693 1134.2 275.638C1133.86 275.583 1133.69 275.306 1133.75 275.029C1133.86 274.753 1134.17 274.587 1134.51 274.67Z" fill="#5ED9D1"/>
<path d="M1154.1 281.004C1154.54 281.087 1154.78 281.446 1154.68 281.806C1154.58 282.166 1154.13 282.359 1153.68 282.276C1153.24 282.193 1153 281.834 1153.1 281.474C1153.2 281.142 1153.65 280.921 1154.1 281.004Z" fill="#5ED9D1"/>
<path d="M1173.37 286.894C1173.89 287.005 1174.2 287.42 1174.06 287.835C1173.92 288.25 1173.41 288.499 1172.89 288.388C1172.38 288.277 1172.07 287.863 1172.21 287.448C1172.38 287.033 1172.89 286.784 1173.37 286.894Z" fill="#5ED9D1"/>
<path d="M1108.44 28.479C1109.19 28.6173 1109.67 29.2534 1109.47 29.8619C1109.3 30.4704 1108.51 30.8576 1107.75 30.6917C1107 30.5534 1106.52 29.9172 1106.72 29.3087C1106.93 28.7002 1107.69 28.313 1108.44 28.479Z" fill="#5ED9D1"/>
<path d="M1090.02 58.3226C1090.88 58.4886 1091.43 59.2077 1091.19 59.8992C1090.98 60.5907 1090.09 61.0332 1089.23 60.8396C1088.37 60.6736 1087.82 59.9545 1088.07 59.263C1088.27 58.5716 1089.16 58.1567 1090.02 58.3226Z" fill="#5ED9D1"/>
<path d="M1076.57 86.5074C1077.53 86.701 1078.12 87.4755 1077.88 88.2499C1077.64 89.0244 1076.68 89.4945 1075.72 89.3009C1074.76 89.1073 1074.17 88.3329 1074.41 87.5584C1074.65 86.784 1075.61 86.3138 1076.57 86.5074Z" fill="#5ED9D1"/>
<path d="M1067.9 112.893C1068.82 113.087 1069.4 113.834 1069.16 114.608C1068.92 115.383 1068 115.825 1067.04 115.631C1066.11 115.438 1065.53 114.691 1065.77 113.917C1066.01 113.17 1066.97 112.7 1067.9 112.893Z" fill="#5ED9D1"/>
<path d="M1063.23 137.372C1064.12 137.538 1064.67 138.257 1064.43 138.976C1064.23 139.695 1063.33 140.138 1062.44 139.944C1061.55 139.778 1061 139.059 1061.24 138.34C1061.45 137.648 1062.37 137.206 1063.23 137.372Z" fill="#5ED9D1"/>
<path d="M1061.72 160.107C1062.51 160.273 1063.03 160.909 1062.82 161.573C1062.61 162.209 1061.83 162.624 1061 162.458C1060.21 162.292 1059.7 161.656 1059.9 160.992C1060.11 160.328 1060.93 159.941 1061.72 160.107Z" fill="#5ED9D1"/>
<path d="M1062.48 181.183C1063.13 181.321 1063.54 181.847 1063.37 182.4C1063.2 182.925 1062.51 183.257 1061.86 183.119C1061.21 182.981 1060.8 182.427 1060.97 181.902C1061.14 181.376 1061.79 181.072 1062.48 181.183Z" fill="#5ED9D1"/>
<path d="M1064.71 200.765C1065.26 200.876 1065.56 201.319 1065.43 201.733C1065.29 202.176 1064.74 202.425 1064.23 202.314C1063.68 202.204 1063.37 201.761 1063.51 201.346C1063.64 200.904 1064.16 200.655 1064.71 200.765Z" fill="#5ED9D1"/>
<path d="M1067.79 218.937C1068.17 219.02 1068.41 219.325 1068.31 219.629C1068.2 219.933 1067.83 220.127 1067.45 220.044C1067.07 219.961 1066.83 219.656 1066.94 219.352C1067.04 219.048 1067.42 218.882 1067.79 218.937Z" fill="#5ED9D1"/>
<path d="M1071.26 235.865C1071.46 235.92 1071.6 236.086 1071.57 236.279C1071.5 236.445 1071.29 236.556 1071.05 236.528C1070.85 236.473 1070.71 236.307 1070.74 236.114C1070.81 235.948 1071.05 235.837 1071.26 235.865Z" fill="#5ED9D1"/>
<path d="M1057.26 256.857C1057.47 256.885 1057.57 257.051 1057.54 257.217C1057.5 257.383 1057.3 257.466 1057.09 257.438C1056.88 257.41 1056.78 257.244 1056.82 257.078C1056.85 256.912 1057.06 256.802 1057.26 256.857Z" fill="#5ED9D1"/>
<path d="M1098.32 274.504L1098.36 274.531L1098.32 274.558L1098.29 274.531C1098.29 274.504 1098.29 274.504 1098.32 274.504Z" fill="#5ED9D1"/>
<path d="M1118.8 281.944C1118.9 281.972 1118.94 282.027 1118.94 282.11C1118.9 282.193 1118.83 282.221 1118.73 282.221C1118.63 282.193 1118.59 282.138 1118.59 282.055C1118.59 281.972 1118.7 281.944 1118.8 281.944Z" fill="#5ED9D1"/>
<path d="M1139.07 288.72C1139.24 288.748 1139.35 288.886 1139.31 289.024C1139.28 289.163 1139.11 289.246 1138.93 289.218C1138.76 289.19 1138.66 289.052 1138.69 288.914C1138.73 288.775 1138.9 288.692 1139.07 288.72Z" fill="#5ED9D1"/>
<path d="M1159.14 294.861C1159.41 294.916 1159.58 295.137 1159.52 295.359C1159.45 295.58 1159.17 295.718 1158.9 295.663C1158.62 295.608 1158.45 295.386 1158.52 295.165C1158.55 294.944 1158.83 294.806 1159.14 294.861Z" fill="#5ED9D1"/>
<path d="M1178.86 300.475C1179.24 300.558 1179.48 300.863 1179.38 301.167C1179.27 301.471 1178.9 301.665 1178.52 301.582C1178.14 301.499 1177.9 301.195 1178 300.89C1178.11 300.586 1178.48 300.42 1178.86 300.475Z" fill="#5ED9D1"/>
<path d="M1092.73 21.3709C1093.24 21.4815 1093.55 21.8964 1093.45 22.3113C1093.31 22.7262 1092.8 22.9751 1092.28 22.8921C1091.77 22.7815 1091.46 22.3666 1091.56 21.9517C1091.7 21.5092 1092.22 21.2603 1092.73 21.3709Z" fill="#5ED9D1"/>
<path d="M1075.68 49.804C1076.4 49.9423 1076.85 50.5508 1076.68 51.1316C1076.51 51.7125 1075.75 52.072 1075.03 51.9337C1074.31 51.7954 1073.86 51.187 1074.04 50.6061C1074.21 50.0253 1074.96 49.6657 1075.68 49.804Z" fill="#5ED9D1"/>
<path d="M1062.55 77.2413C1063.33 77.4073 1063.81 78.0434 1063.61 78.6519C1063.4 79.2881 1062.61 79.6753 1061.86 79.5094C1061.07 79.3434 1060.59 78.7073 1060.8 78.0988C1060.97 77.4626 1061.76 77.1031 1062.55 77.2413Z" fill="#5ED9D1"/>
<path d="M1053.52 103.075C1054.35 103.241 1054.86 103.904 1054.66 104.568C1054.45 105.232 1053.63 105.647 1052.8 105.481C1051.98 105.315 1051.47 104.651 1051.67 103.987C1051.88 103.324 1052.7 102.909 1053.52 103.075Z" fill="#5ED9D1"/>
<path d="M1048.14 127.415C1048.89 127.553 1049.34 128.189 1049.17 128.797C1049 129.406 1048.21 129.766 1047.45 129.627C1046.7 129.489 1046.25 128.853 1046.42 128.244C1046.63 127.636 1047.38 127.249 1048.14 127.415Z" fill="#5ED9D1"/>
<path d="M1045.74 150.067C1046.42 150.205 1046.83 150.759 1046.66 151.312C1046.49 151.865 1045.81 152.197 1045.12 152.059C1044.43 151.92 1044.02 151.367 1044.19 150.814C1044.4 150.288 1045.09 149.957 1045.74 150.067Z" fill="#5ED9D1"/>
<path d="M1045.57 171.198C1046.15 171.309 1046.53 171.807 1046.39 172.277C1046.25 172.747 1045.63 173.052 1045.05 172.941C1044.47 172.83 1044.09 172.332 1044.23 171.862C1044.36 171.364 1044.98 171.06 1045.57 171.198Z" fill="#5ED9D1"/>
<path d="M1046.9 190.974C1047.31 191.057 1047.55 191.389 1047.45 191.721C1047.35 192.053 1046.94 192.247 1046.53 192.164C1046.11 192.081 1045.87 191.749 1045.98 191.417C1046.05 191.085 1046.49 190.891 1046.9 190.974Z" fill="#5ED9D1"/>
<path d="M1049.17 209.284C1049.48 209.339 1049.65 209.588 1049.58 209.837C1049.51 210.086 1049.2 210.225 1048.89 210.169C1048.58 210.114 1048.41 209.865 1048.48 209.616C1048.58 209.395 1048.86 209.229 1049.17 209.284Z" fill="#5ED9D1"/>
<path d="M1051.88 226.488C1051.98 226.516 1052.05 226.599 1052.05 226.71C1052.01 226.793 1051.91 226.848 1051.77 226.848C1051.67 226.82 1051.6 226.737 1051.6 226.627C1051.64 226.516 1051.77 226.461 1051.88 226.488Z" fill="#5ED9D1"/>
<path d="M1122.23 295.081C1122.33 295.109 1122.4 295.192 1122.37 295.275C1122.33 295.358 1122.23 295.413 1122.13 295.386C1122.02 295.358 1121.95 295.275 1121.99 295.192C1121.99 295.109 1122.09 295.054 1122.23 295.081Z" fill="#5ED9D1"/>
<path d="M1163.29 307.916C1163.36 307.916 1163.39 307.971 1163.39 308.026C1163.39 308.082 1163.32 308.109 1163.25 308.109C1163.19 308.109 1163.15 308.054 1163.15 307.999C1163.19 307.916 1163.25 307.888 1163.29 307.916Z" fill="#5ED9D1"/>
<path d="M1077.19 13.4879C1077.6 13.5709 1077.84 13.9028 1077.74 14.2347C1077.64 14.5666 1077.23 14.7602 1076.81 14.6772C1076.4 14.5943 1076.16 14.2624 1076.26 13.9305C1076.37 13.5986 1076.78 13.4049 1077.19 13.4879Z" fill="#5ED9D1"/>
<path d="M1061.34 40.8418C1061.89 40.9524 1062.27 41.4226 1062.1 41.8652C1061.96 42.3077 1061.38 42.6119 1060.83 42.4737C1060.28 42.363 1059.9 41.8928 1060.08 41.4503C1060.21 41.0077 1060.8 40.7311 1061.34 40.8418Z" fill="#5ED9D1"/>
<path d="M1048.62 67.3673C1049.3 67.5056 1049.72 68.0588 1049.54 68.5843C1049.37 69.1374 1048.69 69.4693 1048.03 69.3311C1047.35 69.1928 1046.94 68.6396 1047.11 68.1141C1047.25 67.5609 1047.93 67.229 1048.62 67.3673Z" fill="#5ED9D1"/>
<path d="M1039.36 92.7299C1040.08 92.8682 1040.49 93.449 1040.32 94.0022C1040.15 94.583 1039.43 94.9149 1038.74 94.7766C1038.02 94.6383 1037.61 94.0575 1037.78 93.5043C1037.92 92.9511 1038.64 92.5916 1039.36 92.7299Z" fill="#5ED9D1"/>
<path d="M1033.32 116.738C1034.01 116.877 1034.38 117.43 1034.25 117.955C1034.07 118.509 1033.39 118.813 1032.74 118.702C1032.05 118.564 1031.67 118.011 1031.81 117.485C1031.98 116.932 1032.67 116.6 1033.32 116.738Z" fill="#5ED9D1"/>
<path d="M1030.06 139.308C1030.64 139.419 1031.02 139.916 1030.88 140.387C1030.75 140.857 1030.13 141.161 1029.55 141.05C1028.96 140.94 1028.59 140.442 1028.72 139.972C1028.86 139.502 1029.48 139.197 1030.06 139.308Z" fill="#5ED9D1"/>
<path d="M1028.93 160.522C1029.38 160.605 1029.68 160.993 1029.55 161.352C1029.44 161.712 1028.96 161.961 1028.52 161.85C1028.07 161.767 1027.76 161.38 1027.9 161.02C1028 160.661 1028.48 160.439 1028.93 160.522Z" fill="#5ED9D1"/>
<path d="M1029.34 180.326C1029.68 180.409 1029.92 180.686 1029.82 180.962C1029.72 181.239 1029.38 181.432 1029.03 181.349C1028.69 181.266 1028.45 180.99 1028.55 180.713C1028.66 180.437 1029 180.243 1029.34 180.326Z" fill="#5ED9D1"/>
<path d="M1030.75 198.913C1030.92 198.94 1031.02 199.078 1030.99 199.217C1030.95 199.355 1030.78 199.438 1030.61 199.41C1030.44 199.383 1030.34 199.244 1030.37 199.106C1030.4 198.968 1030.58 198.885 1030.75 198.913Z" fill="#5ED9D1"/>
<path d="M1034.86 232.103C1034.97 232.13 1035.04 232.213 1035.04 232.324C1035 232.407 1034.9 232.462 1034.76 232.462C1034.66 232.435 1034.59 232.352 1034.59 232.269C1034.62 232.13 1034.73 232.075 1034.86 232.103Z" fill="#5ED9D1"/>
<path d="M1145.86 313.807C1146.07 313.862 1146.21 314.028 1146.14 314.194C1146.07 314.36 1145.86 314.471 1145.66 314.416C1145.45 314.36 1145.31 314.194 1145.38 314.028C1145.45 313.862 1145.66 313.779 1145.86 313.807Z" fill="#5ED9D1"/>
<path d="M1166.65 319.836C1166.75 319.864 1166.82 319.947 1166.79 320.03C1166.75 320.113 1166.65 320.168 1166.55 320.141C1166.44 320.113 1166.38 320.03 1166.41 319.947C1166.41 319.864 1166.51 319.809 1166.65 319.836Z" fill="#5ED9D1"/>
<path d="M1062 5.27334C1062.17 5.301 1062.3 5.46694 1062.24 5.60524C1062.2 5.74353 1062 5.85417 1061.82 5.79885C1061.65 5.77119 1061.52 5.60524 1061.58 5.46694C1061.62 5.32865 1061.79 5.21802 1062 5.27334Z" fill="#5ED9D1"/>
<path d="M1047.21 31.3828C1047.62 31.4658 1047.86 31.7977 1047.76 32.1296C1047.66 32.4615 1047.25 32.6551 1046.84 32.5721C1046.42 32.4892 1046.18 32.1573 1046.29 31.8254C1046.39 31.5211 1046.8 31.2998 1047.21 31.3828Z" fill="#5ED9D1"/>
<path d="M1034.86 57.1336C1035.34 57.2442 1035.65 57.6314 1035.52 58.0186C1035.38 58.4059 1034.9 58.6548 1034.42 58.5441C1033.94 58.4335 1033.63 58.0463 1033.77 57.6591C1033.87 57.2718 1034.35 57.0506 1034.86 57.1336Z" fill="#5ED9D1"/>
<path d="M1025.43 81.8876C1026.01 81.9982 1026.36 82.4684 1026.22 82.9386C1026.08 83.4088 1025.5 83.6854 1024.92 83.5748C1024.33 83.4641 1023.99 82.9939 1024.13 82.5237C1024.26 82.0535 1024.85 81.777 1025.43 81.8876Z" fill="#5ED9D1"/>
<path d="M1018.84 105.509C1019.43 105.619 1019.77 106.09 1019.63 106.56C1019.5 107.03 1018.91 107.307 1018.33 107.196C1017.75 107.085 1017.4 106.615 1017.54 106.145C1017.68 105.675 1018.26 105.398 1018.84 105.509Z" fill="#5ED9D1"/>
<path d="M1014.76 127.94C1015.24 128.051 1015.55 128.438 1015.41 128.825C1015.28 129.213 1014.8 129.461 1014.32 129.351C1013.84 129.24 1013.53 128.853 1013.67 128.466C1013.77 128.078 1014.25 127.857 1014.76 127.94Z" fill="#5ED9D1"/>
<path d="M1012.7 149.098C1013.08 149.181 1013.32 149.486 1013.22 149.79C1013.12 150.094 1012.74 150.288 1012.36 150.205C1011.98 150.122 1011.74 149.818 1011.85 149.513C1011.95 149.209 1012.33 149.015 1012.7 149.098Z" fill="#5ED9D1"/>
<path d="M1012.19 168.957C1012.46 169.013 1012.64 169.234 1012.57 169.455C1012.5 169.676 1012.22 169.815 1011.95 169.759C1011.68 169.704 1011.5 169.483 1011.57 169.262C1011.64 169.013 1011.92 168.902 1012.19 168.957Z" fill="#5ED9D1"/>
<path d="M1012.7 187.655C1012.81 187.683 1012.84 187.738 1012.84 187.821C1012.81 187.904 1012.74 187.932 1012.64 187.932C1012.53 187.904 1012.5 187.849 1012.5 187.766C1012.5 187.683 1012.6 187.655 1012.7 187.655Z" fill="#5ED9D1"/>
<path d="M1013.87 204.942C1013.97 204.969 1014.01 205.025 1014.01 205.108C1013.97 205.191 1013.91 205.218 1013.8 205.218C1013.7 205.191 1013.67 205.135 1013.67 205.052C1013.67 204.969 1013.77 204.914 1013.87 204.942Z" fill="#5ED9D1"/>
<path d="M1147.82 325.036C1148.23 325.119 1148.5 325.451 1148.4 325.81C1148.3 326.142 1147.89 326.364 1147.44 326.281C1147.03 326.198 1146.75 325.866 1146.86 325.506C1146.96 325.174 1147.41 324.953 1147.82 325.036Z" fill="#5ED9D1"/>
<path d="M1033.49 21.5638C1033.73 21.6191 1033.87 21.7851 1033.8 21.9787C1033.73 22.1723 1033.53 22.2829 1033.29 22.2276C1033.05 22.1723 1032.91 22.0063 1032.98 21.8127C1033.01 21.6468 1033.25 21.5361 1033.49 21.5638Z" fill="#5ED9D1"/>
<path d="M1021.49 46.3738C1021.86 46.4568 1022.1 46.761 1022 47.0653C1021.9 47.3695 1021.52 47.5631 1021.14 47.4802C1020.77 47.3972 1020.53 47.0929 1020.63 46.7887C1020.7 46.4845 1021.07 46.3185 1021.49 46.3738Z" fill="#5ED9D1"/>
<path d="M1011.85 70.603C1012.26 70.686 1012.53 71.0179 1012.43 71.3498C1012.33 71.6817 1011.92 71.903 1011.5 71.82C1011.09 71.7371 1010.82 71.4052 1010.92 71.0732C1011.02 70.7137 1011.44 70.5201 1011.85 70.603Z" fill="#5ED9D1"/>
<path d="M1004.75 93.8089C1005.19 93.8919 1005.47 94.2514 1005.33 94.611C1005.23 94.9706 1004.78 95.1919 1004.33 95.0812C1003.89 94.9982 1003.61 94.6387 1003.75 94.2791C1003.89 93.9195 1004.3 93.6983 1004.75 93.8089Z" fill="#5ED9D1"/>
<path d="M999.91 115.991C1000.29 116.074 1000.49 116.351 1000.39 116.655C1000.29 116.959 999.945 117.125 999.567 117.042C999.19 116.959 998.984 116.683 999.087 116.378C999.156 116.102 999.533 115.936 999.91 115.991Z" fill="#5ED9D1"/>
<path d="M996.961 137.012C997.235 137.068 997.407 137.289 997.338 137.538C997.27 137.759 996.995 137.897 996.687 137.842C996.412 137.787 996.241 137.565 996.309 137.316C996.412 137.095 996.687 136.957 996.961 137.012Z" fill="#5ED9D1"/>
<path d="M995.52 156.899C995.657 156.926 995.76 157.037 995.726 157.175C995.691 157.286 995.554 157.369 995.383 157.341C995.246 157.313 995.143 157.203 995.177 157.064C995.211 156.926 995.383 156.871 995.52 156.899Z" fill="#5ED9D1"/>
<path d="M995.109 175.624C995.109 175.624 995.143 175.624 995.109 175.624C995.109 175.624 995.109 175.65 995.109 175.624C995.109 175.624 995.109 175.65 995.109 175.624Z" fill="#5ED9D1"/>
<path d="M995.486 192.772C995.657 192.8 995.76 192.938 995.691 193.076C995.657 193.215 995.486 193.297 995.314 193.242C995.143 193.215 995.04 193.076 995.108 192.938C995.177 192.827 995.348 192.744 995.486 192.772Z" fill="#5ED9D1"/>
<path d="M1008.55 35.4213C1008.73 35.449 1008.83 35.6149 1008.79 35.7532C1008.76 35.8915 1008.55 35.9745 1008.38 35.9468C1008.21 35.9192 1008.11 35.7532 1008.14 35.6149C1008.18 35.4766 1008.38 35.3937 1008.55 35.4213Z" fill="#5ED9D1"/>
<path d="M998.813 58.848C999.121 58.9034 999.327 59.1523 999.224 59.4012C999.156 59.6501 998.847 59.8161 998.538 59.7331C998.229 59.6778 998.024 59.4289 998.127 59.18C998.195 58.931 998.504 58.7927 998.813 58.848Z" fill="#5ED9D1"/>
<path d="M991.233 81.5839C991.576 81.6392 991.781 81.9158 991.678 82.1924C991.61 82.469 991.267 82.6349 990.924 82.552C990.581 82.4966 990.375 82.2201 990.478 81.9435C990.547 81.6945 990.89 81.5286 991.233 81.5839Z" fill="#5ED9D1"/>
<path d="M985.641 103.49C985.916 103.545 986.053 103.739 985.984 103.96C985.916 104.181 985.676 104.292 985.401 104.236C985.127 104.181 984.99 103.988 985.058 103.766C985.127 103.545 985.401 103.434 985.641 103.49Z" fill="#5ED9D1"/>
<path d="M981.868 124.289C982.073 124.316 982.176 124.482 982.142 124.648C982.108 124.814 981.902 124.897 981.696 124.87C981.49 124.842 981.387 124.676 981.422 124.51C981.49 124.344 981.662 124.233 981.868 124.289Z" fill="#5ED9D1"/>
<path d="M979.502 144.092C979.57 144.092 979.604 144.148 979.604 144.203C979.604 144.258 979.536 144.286 979.468 144.286C979.399 144.286 979.365 144.231 979.365 144.175C979.365 144.12 979.433 144.065 979.502 144.092Z" fill="#5ED9D1"/>
<path d="M978.232 162.624C978.301 162.624 978.335 162.679 978.335 162.734C978.335 162.79 978.267 162.817 978.198 162.817C978.13 162.817 978.095 162.762 978.095 162.707C978.13 162.624 978.164 162.596 978.232 162.624Z" fill="#5ED9D1"/>
<path d="M977.751 179.8C977.991 179.856 978.129 180.049 978.094 180.243C978.026 180.436 977.786 180.547 977.546 180.519C977.305 180.464 977.168 180.27 977.203 180.077C977.271 179.856 977.511 179.745 977.751 179.8Z" fill="#5ED9D1"/>
<path d="M977.649 195.953C978.061 196.036 978.335 196.395 978.232 196.727C978.129 197.059 977.683 197.28 977.272 197.197C976.86 197.114 976.586 196.755 976.689 196.423C976.826 196.063 977.237 195.87 977.649 195.953Z" fill="#5ED9D1"/>
<path d="M996.343 24.0537C996.378 24.0537 996.412 24.1089 996.412 24.1364C996.412 24.164 996.343 24.1916 996.309 24.1916C996.275 24.1916 996.24 24.1364 996.24 24.1088C996.24 24.0813 996.275 24.0537 996.343 24.0537Z" fill="#5ED9D1"/>
<path d="M986.396 46.8169C986.567 46.8445 986.636 46.9828 986.602 47.0935C986.567 47.2318 986.396 47.2871 986.259 47.2594C986.087 47.2318 986.019 47.0935 986.053 46.9828C986.087 46.8722 986.259 46.7892 986.396 46.8169Z" fill="#5ED9D1"/>
<path d="M978.335 69.0546C978.507 69.0822 978.61 69.2482 978.575 69.3865C978.541 69.5248 978.335 69.6078 978.164 69.5801C977.992 69.5525 977.889 69.3865 977.924 69.2482C977.992 69.1099 978.164 68.9993 978.335 69.0546Z" fill="#5ED9D1"/>
<path d="M972.126 90.4066C972.332 90.4343 972.435 90.6002 972.401 90.7662C972.366 90.9321 972.161 91.0151 971.955 90.9874C971.749 90.9598 971.646 90.7938 971.68 90.6279C971.715 90.4896 971.921 90.379 972.126 90.4066Z" fill="#5ED9D1"/>
<path d="M967.53 111.013C967.633 111.04 967.701 111.123 967.667 111.206C967.633 111.289 967.53 111.345 967.427 111.317C967.324 111.289 967.255 111.206 967.29 111.123C967.324 111.068 967.427 111.013 967.53 111.013Z" fill="#5ED9D1"/>
<path d="M966.296 56.082C966.364 56.1097 966.432 56.165 966.398 56.2203C966.364 56.2756 966.295 56.331 966.227 56.3033C966.159 56.2756 966.09 56.2203 966.124 56.165C966.124 56.1097 966.227 56.082 966.296 56.082Z" fill="#5ED9D1"/>
</g>
</g>
<defs>
<linearGradient id="paint0_linear_722_27" x1="1315" y1="918" x2="3.98198e-05" y2="-5.70404e-05" gradientUnits="userSpaceOnUse">
<stop stop-color="#BEF0ED"/>
<stop offset="1" stop-color="#BEF0ED" stop-opacity="0.2"/>
</linearGradient>
<clipPath id="clip0_722_27">
<rect width="1181" height="679" fill="white"/>
</clipPath>
<clipPath id="clip1_722_27">
<rect width="505.935" height="427.292" fill="white" transform="translate(1393.42 -66.9717) rotate(90)"/>
</clipPath>
</defs>
</svg>
