<svg width="757" height="553" viewBox="0 0 757 553" fill="none" xmlns="http://www.w3.org/2000/svg">
<g clip-path="url(#clip0_724_2)">
<rect width="757" height="553" fill="white"/>
<rect width="1449" height="1029" fill="url(#paint0_linear_724_2)"/>
<path opacity="0.8" d="M-177.455 277.918L-172.329 264.957C-152.67 215.054 -132.341 163.464 -89.6881 133.646C-64.24 115.855 -33.4358 108.119 -3.64712 100.644C20.9802 94.4679 46.4553 88.0746 69.0645 76.025C114.274 51.9435 145.31 6.32062 167.302 -30.7349C172.896 -40.1532 178.394 -49.8167 183.728 -59.1842C202.39 -91.9458 221.658 -125.839 247.345 -153.793C248.503 -155.065 249.674 -156.297 250.853 -157.547L252.387 -160.52C250.478 -158.591 248.55 -156.582 246.62 -154.483C220.87 -126.451 201.566 -92.5088 182.876 -59.694C177.547 -50.3354 172.044 -40.663 166.459 -31.2401C144.527 5.70048 113.599 51.1783 68.5664 75.1977C46.0682 87.1832 20.6548 93.5648 -3.92399 99.733C-33.7967 107.241 -64.6801 114.98 -90.2841 132.878C-133.145 162.799 -153.53 214.539 -173.218 264.585C-174.931 268.941 -176.639 273.262 -178.344 277.546C-186.197 297.239 -195.625 318.453 -207.579 338.017L-206.709 338.491C-194.759 318.869 -185.321 297.637 -177.455 277.918Z" fill="#8989C7"/>
<path d="M119.754 -59.7182C114.142 -43.4238 114.908 -27.2218 116.962 -10.9126C118.931 4.75767 121.407 20.6804 118.07 36.8244C111.228 70.056 85.3 96.0424 59.0743 114.362C29.7595 134.82 -3.55124 149.862 -28.6923 176.735C-41.0247 189.92 -50.8689 206.522 -52.2902 224.757C-53.5092 239.873 -47.8089 252.71 -38.5962 263.033C-33.3595 268.904 -27.4069 273.947 -21.3873 278.892L-23.6004 282.118C-25.3083 280.717 -27.0103 279.32 -28.6856 277.883C-38.4087 269.525 -47.9946 260.191 -52.8191 247.553C-58.3193 233.229 -56.438 216.307 -49.9464 201.681C-42.0185 183.828 -28.0696 169.495 -13.2949 157.709C0.935569 146.347 16.4076 137.055 31.7244 127.619C60.9499 109.619 92.2946 88.9099 107.989 55.64C111.711 47.8696 114.216 39.5916 115.4 31.1535C116.516 22.8253 116.17 14.517 115.354 6.33511C113.742 -9.65195 110.353 -25.5658 112.11 -42.0009C114.004 -59.1695 121.054 -75.6652 132.207 -89.0253L132.252 -89.0905L135.194 -86.9457C128.433 -78.9332 123.179 -69.6689 119.754 -59.7182V-59.7182Z" fill="#5ED9D1"/>
<path opacity="0.5" d="M194.042 -75.2585L194.042 -75.2586C199.089 -93.0126 200.169 -111.711 201.218 -129.855L201.224 -129.96C201.224 -129.96 201.224 -129.96 201.224 -129.96C201.627 -137.228 202.065 -144.552 202.747 -151.884L202.604 -151.988C201.903 -144.592 201.465 -137.189 201.047 -129.872L201.047 -129.872C200.01 -111.777 198.926 -93.0048 193.887 -75.2327L193.887 -75.2323C179.703 -25.38 136.73 9.62255 103.204 30.1737C85.9003 40.7815 67.6171 50.0903 49.9401 59.0891L49.7636 58.7283L49.94 59.0891C27.0048 70.7538 3.315 82.8214 -18.4622 97.8301C-29.1233 105.179 -46.9503 118.925 -62.5801 137.905C-78.2111 156.886 -91.6224 181.075 -93.5031 209.311C-95.6624 241.778 -81.8056 275.6 -52.1942 309.804C-49.4801 312.937 -46.6893 316.02 -43.8719 319.086L-43.7522 318.912C-46.5626 315.851 -49.3565 312.764 -52.0644 309.643L-52.0648 309.643C-81.5883 275.517 -95.5132 241.739 -93.3548 209.257L-92.9653 209.288L-93.3548 209.256C-91.467 181.023 -78.0318 156.859 -62.4362 137.938C-46.8394 119.016 -29.0596 105.309 -18.4313 97.9844L-18.211 98.3192L-18.4312 97.9844C3.34534 82.9815 27.0485 70.9061 49.95 59.251L50.1265 59.6118L49.95 59.251L50.0048 59.2231C67.6826 50.2277 85.9451 40.9348 103.231 30.3283L103.231 30.3282C136.882 9.70875 179.873 -25.3412 194.042 -75.2585Z" fill="#ECFFFE" stroke="#8989C7" stroke-width="0.793856"/>
<g opacity="0.5">
<mask id="path-5-inside-1_724_2" fill="white">
<ellipse cx="4.58097" cy="4.17701" rx="4.58097" ry="4.17701" transform="matrix(0.567489 -0.823304 -0.807738 -0.589727 51.4316 50.8125)"/>
</mask>
<path d="M50.554 44.7277C50.6661 44.8095 50.7919 44.8609 50.9063 44.8831C51.0154 44.9043 51.0925 44.8954 51.1316 44.8868C51.2049 44.8708 51.1809 44.8506 51.1308 44.9233L43.4361 39.3054C46.1244 35.4052 51.6453 33.7344 55.96 36.8846L50.554 44.7277ZM51.1308 44.9233C51.0807 44.996 51.1071 45.0127 51.0976 44.9362C51.0925 44.8954 51.0752 44.8175 51.0198 44.7186C50.9615 44.6147 50.8728 44.5096 50.7607 44.4277L45.3547 52.2707C41.0399 49.1205 40.7477 43.2056 43.4361 39.3054L51.1308 44.9233ZM50.7607 44.4277C50.6486 44.3458 50.5229 44.2944 50.4084 44.2722C50.2993 44.2511 50.2222 44.26 50.1831 44.2685C50.1098 44.2846 50.1338 44.3047 50.1839 44.232L57.8787 49.8499C55.1903 53.7501 49.6695 55.4209 45.3547 52.2707L50.7607 44.4277ZM50.1839 44.232C50.234 44.1593 50.2076 44.1426 50.2171 44.2192C50.2222 44.26 50.2395 44.3378 50.295 44.4368C50.3532 44.5406 50.4419 44.6458 50.554 44.7277L55.96 36.8846C60.2748 40.0348 60.567 45.9497 57.8787 49.8499L50.1839 44.232Z" fill="#8989C7" mask="url(#path-5-inside-1_724_2)"/>
</g>
<g opacity="0.3">
<path opacity="0.8" d="M-184.888 627.823C-184.888 627.823 -87.3088 542.995 192.625 603.083C342.221 635.203 387.716 548.198 451.511 533.188C547.725 510.611 624.936 590.238 774.795 443.462" stroke="#8989C7" stroke-width="1.28882" stroke-miterlimit="10"/>
<path opacity="0.8" d="M-182.203 638.195C-182.203 638.195 -81.5224 536.59 195.431 594.666C350.208 626.601 393.624 554.5 460.208 538.334C557.188 515.087 634.834 583.258 775.328 445.671" stroke="#8989C7" stroke-width="1.28882" stroke-miterlimit="10"/>
<path opacity="0.8" d="M-179.511 648.452C-179.511 648.452 -76.0611 530.898 198.11 586.106C357.946 618.365 399.329 560.397 468.729 543.186C566.407 519.018 644.598 576.068 775.697 447.662" stroke="#8989C7" stroke-width="1.28882" stroke-miterlimit="10"/>
<path opacity="0.8" d="M-176.741 658.876C-176.741 658.876 -70.3024 524.806 201.001 577.731C366.059 609.856 405.27 566.556 477.448 548.169C575.848 523.183 654.531 568.847 776.204 449.616" stroke="#8989C7" stroke-width="1.28882" stroke-miterlimit="10"/>
<path opacity="0.8" d="M-173.928 669.322C-173.928 669.322 -64.6952 518.649 203.871 569.214C374.155 601.171 411.067 572.563 486.145 552.959C585.26 527.14 664.468 561.525 776.821 451.432" stroke="#8989C7" stroke-width="1.28882" stroke-miterlimit="10"/>
<path opacity="0.8" d="M-171.096 679.675C-171.096 679.675 -58.9877 512.37 206.716 560.563C382.102 592.349 416.976 578.363 494.854 557.679C594.676 531.013 674.371 553.99 777.267 453.061" stroke="#8989C7" stroke-width="1.28882" stroke-miterlimit="10"/>
<path opacity="0.8" d="M-168.186 690.202C-168.186 690.202 -53.1592 506.114 209.586 552.049C390.199 583.603 422.958 584.375 503.565 562.36C604.118 534.953 684.128 546.429 777.688 454.625" stroke="#8989C7" stroke-width="1.28882" stroke-miterlimit="10"/>
<path opacity="0.8" d="M-165.217 700.867C-165.217 700.867 -47.4786 500.01 212.43 543.602C398.395 574.843 428.904 590.27 512.26 567.022C613.531 538.851 693.994 538.904 778.082 456.244" stroke="#8989C7" stroke-width="1.28882" stroke-miterlimit="10"/>
<path opacity="0.8" d="M-162.19 711.73C-162.19 711.73 -41.7853 493.902 215.053 535.233C406.204 565.988 434.693 596.26 520.774 571.738C622.834 542.609 703.587 531.243 778.309 457.671" stroke="#8989C7" stroke-width="1.28882" stroke-miterlimit="10"/>
<path opacity="0.8" d="M-159.098 722.705C-159.098 722.705 -36.0591 487.851 217.816 526.928C414.136 557.205 440.61 602.214 529.411 576.41C632.16 546.469 713.296 523.659 778.559 459.209" stroke="#8989C7" stroke-width="1.28882" stroke-miterlimit="10"/>
<path opacity="0.8" d="M-155.966 733.675C-155.966 733.675 -30.3557 481.613 220.569 518.586C422.105 548.123 446.536 608.157 538.05 581.063C641.483 550.307 722.939 515.93 778.775 460.615" stroke="#8989C7" stroke-width="1.28882" stroke-miterlimit="10"/>
<path opacity="0.8" d="M-152.832 744.524C-152.832 744.524 -24.6799 475.186 223.278 510.082C430.077 539.121 452.498 614.209 546.685 585.699C650.798 554.124 732.577 508.286 779.016 462.123" stroke="#8989C7" stroke-width="1.28882" stroke-miterlimit="10"/>
<path opacity="0.8" d="M-149.648 755.489C-149.648 755.489 -18.9704 468.811 226.006 501.66C437.896 530.123 458.426 620.153 555.314 590.338C660.104 557.944 742.15 500.512 779.223 463.526" stroke="#8989C7" stroke-width="1.28882" stroke-miterlimit="10"/>
<path opacity="0.8" d="M-146.442 766.459C-146.442 766.459 -13.1658 462.22 228.598 493.225C445.657 520.97 464.324 626.488 563.809 595.007C669.338 562.03 751.597 492.862 779.457 465.05" stroke="#8989C7" stroke-width="1.28882" stroke-miterlimit="10"/>
<path opacity="0.8" d="M-143.247 777.301C-143.247 777.301 -7.47896 455.584 231.281 484.588C453.621 511.589 470.256 632.436 572.397 599.521C678.599 565.723 761.084 484.914 779.632 466.339" stroke="#8989C7" stroke-width="1.28882" stroke-miterlimit="10"/>
<path opacity="0.8" d="M-139.968 788.585C-139.968 788.585 -1.68753 448.656 233.915 476.174C461.399 502.041 476.112 638.539 580.95 604.391C687.8 569.739 770.498 477.336 779.757 468.026" stroke="#8989C7" stroke-width="1.28882" stroke-miterlimit="10"/>
<path opacity="0.8" d="M-136.686 799.934C-136.686 799.934 4.00252 442.344 236.521 467.74C469.039 493.136 481.971 644.821 589.431 609.193C696.892 573.565 779.784 469.524 779.784 469.524" stroke="#8989C7" stroke-width="1.28882" stroke-miterlimit="10"/>
</g>
<path opacity="0.8" d="M525.924 615.442L531.05 602.481C550.709 552.578 571.038 500.989 613.691 471.17C639.139 453.38 669.943 445.643 699.732 438.168C724.359 431.992 749.834 425.599 772.443 413.549C817.653 389.468 848.689 343.845 870.68 306.789C876.275 297.371 881.773 287.708 887.107 278.34C905.768 245.579 925.037 211.685 950.724 183.732C951.882 182.459 953.053 181.227 954.232 179.977L955.766 177.005C953.857 178.934 951.929 180.943 949.999 183.041C924.249 211.074 904.944 245.016 886.255 277.83C880.926 287.189 875.423 296.861 869.838 306.284C847.906 343.225 816.978 388.703 771.945 412.722C749.447 424.708 724.034 431.089 699.455 437.257C669.582 444.766 638.699 452.505 613.095 470.403C570.234 500.323 549.849 552.064 530.161 602.109C528.448 606.466 526.74 610.786 525.034 615.071C517.182 634.764 507.754 655.978 495.8 675.541L496.67 676.016C508.62 656.394 518.058 635.162 525.924 615.442Z" fill="#ECFFFE"/>
<path d="M808.932 329.401C804.504 343.344 805.787 357.458 808.229 371.716C810.57 385.415 813.376 399.354 810.98 413.256C806.074 441.873 783.797 463.442 760.971 478.334C735.456 494.963 706.16 506.727 684.621 529.098C674.056 540.073 665.846 554.117 665.245 569.912C664.709 583.004 670.29 594.387 678.926 603.724C683.835 609.033 689.355 613.65 694.931 618.186L693.067 620.904C691.485 619.618 689.908 618.337 688.354 617.022C679.333 609.374 670.4 600.883 665.611 589.707C660.154 577.039 661.216 562.404 666.495 549.945C672.941 534.739 684.913 522.828 697.718 513.165C710.051 503.849 723.574 496.38 736.951 488.781C762.477 474.284 789.802 457.517 802.641 429.215C805.689 422.607 807.629 415.509 808.379 408.221C809.072 401.026 808.456 393.79 807.423 386.645C805.39 372.685 801.767 358.718 802.736 344.501C803.8 329.651 809.51 315.59 819.012 304.415L819.049 304.36L821.765 306.341C816.002 313.04 811.635 320.886 808.932 329.401V329.401Z" fill="#8989C7"/>
<path d="M911.646 285.388C896.723 344.257 845.573 383.76 805.27 406.519C784.54 418.242 762.544 428.342 741.274 438.111C713.738 450.76 685.27 463.852 659.317 480.529C633.995 496.805 574.908 541.892 573.131 608.673C572.125 647.074 590.841 687.933 628.762 730.114C632.331 734.073 636.01 737.996 639.71 741.89L639.043 742.862C635.284 738.91 631.554 734.935 627.922 730.901C589.781 688.501 570.972 647.341 571.989 608.613C573.763 541.276 633.218 495.903 658.697 479.522C684.708 462.801 713.215 449.693 740.784 437.039C762.038 427.273 784.002 417.179 804.695 405.487C844.799 382.831 895.668 343.531 910.522 285.093C915.797 264.255 916.181 242.008 916.542 220.502C916.69 211.541 916.86 202.465 917.383 193.413L918.495 194.223C918.016 203.002 917.847 211.787 917.717 220.514C917.345 242.099 916.972 264.413 911.646 285.388Z" fill="#5ED9D1"/>
<path d="M707.479 452.125C706.186 451.181 704.398 451.484 703.486 452.805C702.575 454.127 702.888 455.964 704.182 456.908C705.475 457.852 707.263 457.549 708.175 456.227C709.086 454.905 708.773 453.069 707.479 452.125Z" stroke="#5ED9D1" stroke-width="4.76314"/>
<g opacity="0.5" clip-path="url(#clip1_724_2)">
<path d="M749.758 133.483C750.791 133.753 751.429 134.834 751.187 135.893C750.923 136.952 749.868 137.605 748.834 137.357C747.801 137.087 747.164 136.006 747.405 134.947C747.647 133.866 748.703 133.213 749.758 133.483Z" fill="#5ED9D1"/>
<path d="M758.992 137.515C760.091 137.785 760.751 138.934 760.487 140.037C760.223 141.164 759.102 141.84 758.024 141.569C756.925 141.299 756.265 140.15 756.529 139.046C756.793 137.92 757.892 137.244 758.992 137.515Z" fill="#5ED9D1"/>
<path d="M759.189 83.9701C760.311 84.2629 760.992 85.4117 760.706 86.5381C760.421 87.6869 759.299 88.3852 758.2 88.0924C757.079 87.7995 756.397 86.6507 756.683 85.5244C756.947 84.3755 758.068 83.6772 759.189 83.9701Z" fill="#5ED9D1"/>
<path d="M752.133 110.393C753.233 110.663 753.914 111.812 753.65 112.961C753.386 114.087 752.265 114.786 751.144 114.515C750.044 114.245 749.363 113.096 749.627 111.947C749.891 110.798 751.012 110.1 752.133 110.393Z" fill="#5ED9D1"/>
<path d="M740.743 149.431C741.667 149.656 742.216 150.625 741.997 151.549C741.777 152.495 740.831 153.058 739.93 152.833C739.006 152.607 738.457 151.639 738.677 150.715C738.896 149.792 739.82 149.206 740.743 149.431Z" fill="#5ED9D1"/>
<path d="M750.527 153.959C751.495 154.207 752.088 155.221 751.846 156.212C751.605 157.203 750.615 157.811 749.648 157.563C748.68 157.316 748.087 156.302 748.329 155.311C748.57 154.32 749.56 153.734 750.527 153.959Z" fill="#5ED9D1"/>
<path d="M750.946 80.0502C752.001 80.3205 752.661 81.4243 752.397 82.5055C752.133 83.5868 751.056 84.2626 750 83.9923C748.945 83.7219 748.285 82.6182 748.549 81.5369C748.813 80.4331 749.868 79.7799 750.946 80.0502Z" fill="#5ED9D1"/>
<path d="M743.337 106.181C744.371 106.452 744.986 107.51 744.744 108.569C744.481 109.628 743.447 110.258 742.414 110.011C741.38 109.74 740.765 108.682 741.007 107.623C741.271 106.564 742.326 105.911 743.337 106.181Z" fill="#5ED9D1"/>
<path d="M740.458 129.045C741.448 129.292 742.041 130.329 741.8 131.342C741.558 132.356 740.546 132.964 739.557 132.716C738.568 132.468 737.974 131.432 738.216 130.419C738.458 129.405 739.469 128.797 740.458 129.045Z" fill="#5ED9D1"/>
<path d="M732.741 162.812C733.532 163.015 734.038 163.848 733.84 164.659C733.642 165.47 732.828 165.988 732.037 165.785C731.245 165.583 730.74 164.749 730.938 163.938C731.135 163.105 731.949 162.609 732.741 162.812Z" fill="#5ED9D1"/>
<path d="M743.095 167.767C743.953 167.992 744.48 168.871 744.261 169.75C744.041 170.628 743.183 171.169 742.326 170.943C741.468 170.718 740.941 169.84 741.161 168.961C741.38 168.105 742.238 167.564 743.095 167.767Z" fill="#5ED9D1"/>
<path d="M753.341 172.341C754.243 172.566 754.793 173.512 754.573 174.436C754.353 175.359 753.429 175.922 752.528 175.697C751.626 175.472 751.077 174.526 751.297 173.602C751.517 172.679 752.44 172.115 753.341 172.341Z" fill="#5ED9D1"/>
<path d="M756.926 46.2155C757.893 46.4633 758.487 47.4769 758.245 48.4681C758.003 49.4593 757.014 50.0675 756.046 49.8197C755.079 49.5719 754.485 48.5582 754.727 47.5671C754.969 46.5759 755.958 45.9677 756.926 46.2155Z" fill="#5ED9D1"/>
<path d="M742.59 75.7252C743.557 75.973 744.151 76.9867 743.909 77.9779C743.667 78.969 742.678 79.5772 741.71 79.3294C740.743 79.0817 740.149 78.068 740.391 77.0768C740.633 76.0857 741.622 75.4775 742.59 75.7252Z" fill="#5ED9D1"/>
<path d="M734.564 101.427C735.532 101.675 736.125 102.689 735.884 103.68C735.642 104.671 734.652 105.279 733.685 105.032C732.717 104.784 732.124 103.77 732.366 102.779C732.608 101.788 733.597 101.18 734.564 101.427Z" fill="#5ED9D1"/>
<path d="M731.136 124.134C732.082 124.382 732.653 125.35 732.411 126.319C732.169 127.288 731.224 127.873 730.279 127.626C729.333 127.378 728.762 126.409 729.003 125.44C729.245 124.472 730.191 123.886 731.136 124.134Z" fill="#5ED9D1"/>
<path d="M730.872 144.453C731.752 144.678 732.279 145.579 732.06 146.458C731.84 147.359 730.96 147.899 730.103 147.674C729.223 147.449 728.696 146.548 728.915 145.669C729.135 144.791 730.015 144.25 730.872 144.453Z" fill="#5ED9D1"/>
<path d="M725.002 174.187C725.661 174.367 726.079 175.043 725.903 175.742C725.727 176.417 725.068 176.845 724.386 176.665C723.726 176.485 723.309 175.809 723.485 175.111C723.66 174.413 724.342 174.007 725.002 174.187Z" fill="#5ED9D1"/>
<path d="M735.928 179.504C736.653 179.684 737.115 180.45 736.917 181.193C736.741 181.936 735.993 182.409 735.268 182.207C734.542 182.026 734.081 181.261 734.279 180.517C734.454 179.774 735.202 179.323 735.928 179.504Z" fill="#5ED9D1"/>
<path d="M746.723 184.415C747.515 184.617 747.977 185.428 747.801 186.239C747.603 187.05 746.811 187.523 746.02 187.343C745.228 187.14 744.767 186.329 744.942 185.518C745.14 184.707 745.932 184.212 746.723 184.415Z" fill="#5ED9D1"/>
<path d="M748.395 42.341C749.274 42.5663 749.824 43.4899 749.604 44.3909C749.384 45.292 748.483 45.8551 747.603 45.6299C746.724 45.4046 746.174 44.481 746.394 43.58C746.614 42.6564 747.515 42.1158 748.395 42.341Z" fill="#5ED9D1"/>
<path d="M734.148 70.95C735.05 71.1752 735.599 72.1214 735.379 73.0449C735.159 73.9685 734.236 74.5317 733.335 74.3064C732.433 74.0811 731.883 73.135 732.103 72.2115C732.323 71.2879 733.247 70.7247 734.148 70.95Z" fill="#5ED9D1"/>
<path d="M725.748 96.2469C726.628 96.4722 727.177 97.3958 726.957 98.2968C726.738 99.1979 725.836 99.761 724.957 99.5358C724.077 99.3105 723.527 98.3869 723.747 97.4859C723.945 96.5848 724.847 96.0217 725.748 96.2469Z" fill="#5ED9D1"/>
<path d="M721.791 118.728C722.671 118.953 723.22 119.877 723 120.778C722.78 121.679 721.879 122.242 721 122.017C720.12 121.791 719.57 120.868 719.79 119.967C720.01 119.043 720.912 118.502 721.791 118.728Z" fill="#5ED9D1"/>
<path d="M719.087 140.662C719.154 141.518 719.884 142.157 720.72 142.089C721.555 142.021 722.178 141.272 722.112 140.417C722.046 139.561 721.315 138.922 720.48 138.99C719.645 139.058 719.021 139.807 719.087 140.662Z" fill="#5ED9D1"/>
<path d="M722.318 157.405C723.065 157.586 723.527 158.374 723.329 159.14C723.153 159.906 722.384 160.379 721.636 160.176C720.889 159.996 720.427 159.207 720.625 158.442C720.801 157.676 721.57 157.203 722.318 157.405Z" fill="#5ED9D1"/>
<path d="M717.043 183.874C717.548 184.009 717.878 184.527 717.746 185.068C717.614 185.586 717.109 185.924 716.581 185.788C716.075 185.653 715.745 185.135 715.877 184.594C716.009 184.076 716.515 183.738 717.043 183.874Z" fill="#5ED9D1"/>
<path d="M728.157 191.789C728.787 191.831 729.331 191.342 729.372 190.696C729.413 190.051 728.935 189.493 728.305 189.452C727.675 189.41 727.131 189.899 727.09 190.545C727.049 191.19 727.527 191.748 728.157 191.789Z" fill="#5ED9D1"/>
<path d="M739.821 194.799C740.458 194.957 740.832 195.61 740.678 196.263C740.524 196.917 739.887 197.299 739.249 197.142C738.612 196.984 738.238 196.331 738.392 195.678C738.568 195.024 739.205 194.641 739.821 194.799Z" fill="#5ED9D1"/>
<path d="M751.011 199.619C751.693 199.8 752.11 200.498 751.934 201.196C751.758 201.894 751.077 202.322 750.395 202.142C749.714 201.962 749.296 201.264 749.472 200.565C749.626 199.867 750.329 199.439 751.011 199.619Z" fill="#5ED9D1"/>
<path d="M739.468 38.1518C740.26 38.3546 740.743 39.1655 740.546 39.9765C740.348 40.7874 739.556 41.283 738.765 41.0802C737.973 40.8775 737.489 40.0666 737.687 39.2556C737.885 38.4447 738.677 37.9491 739.468 38.1518Z" fill="#5ED9D1"/>
<path d="M725.55 65.6559C726.408 65.8812 726.936 66.7597 726.716 67.6382C726.496 68.5167 725.638 69.0574 724.781 68.8321C723.923 68.6068 723.396 67.7283 723.616 66.8498C723.835 65.9938 724.693 65.4532 725.55 65.6559Z" fill="#5ED9D1"/>
<path d="M716.91 90.4799C717.767 90.7051 718.295 91.5836 718.075 92.4622C717.855 93.3407 716.998 93.8813 716.14 93.6561C715.283 93.4308 714.755 92.5523 714.975 91.6737C715.173 90.7952 716.052 90.2546 716.91 90.4799Z" fill="#5ED9D1"/>
<path d="M712.447 112.826C713.261 113.028 713.766 113.884 713.568 114.718C713.371 115.551 712.535 116.069 711.722 115.867C710.908 115.664 710.402 114.808 710.6 113.974C710.798 113.118 711.612 112.623 712.447 112.826Z" fill="#5ED9D1"/>
<path d="M711.062 133.032C711.831 133.235 712.293 134.024 712.117 134.812C711.919 135.6 711.15 136.073 710.38 135.893C709.611 135.69 709.149 134.902 709.325 134.114C709.523 133.325 710.292 132.852 711.062 133.032Z" fill="#5ED9D1"/>
<path d="M711.831 151.503C712.513 151.683 712.931 152.382 712.755 153.08C712.579 153.778 711.897 154.206 711.216 154.026C710.534 153.846 710.116 153.148 710.292 152.449C710.468 151.751 711.15 151.323 711.831 151.503Z" fill="#5ED9D1"/>
<path d="M714.03 168.353C714.646 168.511 715.02 169.141 714.866 169.772C714.712 170.403 714.096 170.786 713.481 170.628C712.865 170.47 712.491 169.84 712.645 169.209C712.799 168.578 713.415 168.195 714.03 168.353Z" fill="#5ED9D1"/>
<path d="M708.468 192.141C708.819 192.231 709.039 192.614 708.951 192.974C708.863 193.335 708.49 193.56 708.138 193.47C707.786 193.38 707.566 192.997 707.654 192.637C707.764 192.276 708.116 192.051 708.468 192.141Z" fill="#5ED9D1"/>
<path d="M720.428 198.178C720.846 198.29 721.087 198.718 720.977 199.124C720.867 199.552 720.45 199.8 720.054 199.687C719.636 199.574 719.394 199.146 719.504 198.741C719.614 198.335 720.032 198.088 720.428 198.178Z" fill="#5ED9D1"/>
<path d="M732.3 203.742C732.762 203.855 733.047 204.35 732.937 204.823C732.827 205.296 732.344 205.589 731.882 205.476C731.42 205.364 731.135 204.868 731.244 204.395C731.354 203.9 731.838 203.607 732.3 203.742Z" fill="#5ED9D1"/>
<path d="M744.041 208.742C744.59 208.877 744.942 209.463 744.81 210.049C744.678 210.612 744.107 210.972 743.535 210.837C742.985 210.702 742.633 210.116 742.765 209.531C742.897 208.968 743.469 208.607 744.041 208.742Z" fill="#5ED9D1"/>
<path d="M755.585 213.428C756.222 213.586 756.596 214.239 756.442 214.892C756.288 215.545 755.651 215.928 755.013 215.771C754.375 215.613 754.002 214.96 754.155 214.306C754.309 213.653 754.947 213.27 755.585 213.428Z" fill="#5ED9D1"/>
<path d="M748.02 5.4208C748.614 5.57848 748.965 6.18669 748.812 6.77237C748.658 7.38058 748.064 7.74099 747.492 7.58331C746.899 7.42563 746.547 6.81742 746.701 6.23174C746.833 5.62353 747.426 5.26311 748.02 5.4208Z" fill="#5ED9D1"/>
<path d="M730.124 33.6013C730.805 33.7815 731.201 34.4573 731.047 35.1556C730.871 35.8539 730.211 36.2594 729.53 36.1017C728.848 35.9215 728.453 35.2457 728.606 34.5474C728.782 33.8491 729.464 33.4436 730.124 33.6013Z" fill="#5ED9D1"/>
<path d="M716.757 60.0699C717.504 60.2501 717.944 61.016 717.768 61.7819C717.592 62.5478 716.845 62.9983 716.097 62.8181C715.349 62.6379 714.91 61.872 715.086 61.1061C715.284 60.3402 716.031 59.8897 716.757 60.0699Z" fill="#5ED9D1"/>
<path d="M708.005 84.2853C708.775 84.488 709.236 85.2765 709.06 86.0649C708.862 86.8533 708.093 87.3263 707.323 87.1461C706.554 86.9434 706.092 86.155 706.268 85.3665C706.444 84.5781 707.235 84.1051 708.005 84.2853Z" fill="#5ED9D1"/>
<path d="M703.081 106.406C703.828 106.586 704.268 107.352 704.092 108.118C703.916 108.884 703.169 109.334 702.421 109.154C701.674 108.974 701.234 108.208 701.41 107.442C701.608 106.676 702.355 106.226 703.081 106.406Z" fill="#5ED9D1"/>
<path d="M701.146 126.589C701.827 126.769 702.245 127.468 702.069 128.166C701.893 128.864 701.212 129.292 700.53 129.112C699.848 128.932 699.431 128.233 699.607 127.535C699.783 126.837 700.464 126.409 701.146 126.589Z" fill="#5ED9D1"/>
<path d="M701.365 144.993C702.002 145.151 702.398 145.826 702.244 146.48C702.09 147.133 701.431 147.538 700.793 147.381C700.155 147.223 699.76 146.547 699.914 145.894C700.067 145.241 700.705 144.835 701.365 144.993Z" fill="#5ED9D1"/>
<path d="M702.993 161.978C703.564 162.113 703.894 162.699 703.762 163.284C703.63 163.87 703.059 164.208 702.487 164.073C701.915 163.938 701.585 163.352 701.717 162.766C701.871 162.181 702.443 161.843 702.993 161.978Z" fill="#5ED9D1"/>
<path d="M705.499 177.656C705.96 177.769 706.246 178.242 706.114 178.715C706.004 179.188 705.543 179.481 705.081 179.345C704.619 179.233 704.333 178.76 704.465 178.287C704.575 177.836 705.059 177.543 705.499 177.656Z" fill="#5ED9D1"/>
<path d="M699.123 199.124C699.321 199.169 699.431 199.372 699.387 199.575C699.343 199.777 699.145 199.89 698.947 199.845C698.749 199.8 698.639 199.597 698.683 199.394C698.727 199.192 698.925 199.079 699.123 199.124Z" fill="#5ED9D1"/>
<path d="M711.545 205.544C711.809 205.612 711.963 205.882 711.897 206.152C711.831 206.422 711.567 206.58 711.303 206.513C711.039 206.445 710.885 206.175 710.951 205.904C711.039 205.634 711.303 205.476 711.545 205.544Z" fill="#5ED9D1"/>
<path d="M723.901 211.423C724.209 211.513 724.407 211.828 724.319 212.144C724.231 212.459 723.923 212.662 723.615 212.572C723.307 212.482 723.11 212.166 723.198 211.851C723.285 211.536 723.593 211.333 723.901 211.423Z" fill="#5ED9D1"/>
<path d="M736.126 216.762C736.5 216.852 736.742 217.257 736.654 217.64C736.566 218.023 736.17 218.271 735.796 218.181C735.423 218.091 735.181 217.685 735.269 217.303C735.379 216.897 735.752 216.672 736.126 216.762Z" fill="#5ED9D1"/>
<path d="M748.22 221.65C748.681 221.763 748.967 222.258 748.857 222.731C748.747 223.204 748.264 223.497 747.802 223.385C747.34 223.272 747.054 222.776 747.164 222.303C747.274 221.83 747.736 221.537 748.22 221.65Z" fill="#5ED9D1"/>
<path d="M736.477 2.15444C736.961 2.26707 737.247 2.76265 737.137 3.25822C737.027 3.7538 736.543 4.04664 736.059 3.93401C735.576 3.82138 735.29 3.3258 735.4 2.83022C735.51 2.33465 735.993 2.01928 736.477 2.15444Z" fill="#5ED9D1"/>
<path d="M720.45 28.6006C721.043 28.7583 721.395 29.3665 721.241 29.9522C721.087 30.5379 720.494 30.9208 719.922 30.7632C719.328 30.6055 718.977 29.9973 719.131 29.4116C719.262 28.8259 719.856 28.4655 720.45 28.6006Z" fill="#5ED9D1"/>
<path d="M707.785 54.0096C708.422 54.1673 708.818 54.8431 708.664 55.4964C708.51 56.1496 707.851 56.5551 707.213 56.3974C706.575 56.2397 706.18 55.5639 706.333 54.9107C706.509 54.2574 707.147 53.8519 707.785 54.0096Z" fill="#5ED9D1"/>
<path d="M699.056 77.6179C699.737 77.7981 700.155 78.4964 699.979 79.1947C699.803 79.893 699.122 80.321 698.44 80.1408C697.759 79.9606 697.341 79.2623 697.517 78.564C697.671 77.8657 698.352 77.4602 699.056 77.6179Z" fill="#5ED9D1"/>
<path d="M693.78 99.4006C694.462 99.5808 694.88 100.279 694.704 100.977C694.528 101.676 693.846 102.104 693.165 101.924C692.483 101.743 692.066 101.045 692.241 100.347C692.395 99.6484 693.099 99.2204 693.78 99.4006Z" fill="#5ED9D1"/>
<path d="M691.295 119.494C691.933 119.652 692.307 120.305 692.153 120.958C691.999 121.612 691.361 121.994 690.724 121.837C690.086 121.679 689.712 121.026 689.866 120.373C690.02 119.742 690.658 119.336 691.295 119.494Z" fill="#5ED9D1"/>
<path d="M690.901 138.01C691.472 138.145 691.802 138.731 691.67 139.317C691.538 139.902 690.967 140.24 690.395 140.105C689.823 139.97 689.494 139.384 689.626 138.799C689.779 138.213 690.351 137.875 690.901 138.01Z" fill="#5ED9D1"/>
<path d="M691.977 155.108C692.461 155.22 692.747 155.738 692.637 156.211C692.527 156.707 692.021 157 691.559 156.887C691.076 156.774 690.79 156.256 690.9 155.783C691.01 155.288 691.493 154.972 691.977 155.108Z" fill="#5ED9D1"/>
<path d="M693.979 170.853C694.396 170.966 694.638 171.394 694.528 171.8C694.418 172.228 694.001 172.475 693.605 172.363C693.187 172.25 692.945 171.822 693.055 171.417C693.143 171.011 693.561 170.763 693.979 170.853Z" fill="#5ED9D1"/>
<path d="M696.462 185.541C696.748 185.608 696.946 185.924 696.858 186.216C696.792 186.509 696.484 186.712 696.198 186.622C695.912 186.554 695.715 186.239 695.802 185.946C695.868 185.653 696.154 185.473 696.462 185.541Z" fill="#5ED9D1"/>
<path d="M688.832 204.981C688.855 204.981 688.877 205.026 688.877 205.049C688.877 205.072 688.832 205.094 688.81 205.094C688.788 205.094 688.766 205.049 688.766 205.026C688.788 204.981 688.81 204.958 688.832 204.981Z" fill="#5ED9D1"/>
<path d="M701.696 211.784C701.784 211.806 701.85 211.896 701.828 212.009C701.806 212.099 701.718 212.167 701.608 212.144C701.52 212.122 701.454 212.031 701.476 211.919C701.498 211.829 701.608 211.761 701.696 211.784Z" fill="#5ED9D1"/>
<path d="M714.492 218.023C714.624 218.068 714.712 218.203 714.69 218.361C714.646 218.496 714.514 218.586 714.36 218.564C714.228 218.519 714.14 218.383 714.162 218.226C714.206 218.091 714.36 218 714.492 218.023Z" fill="#5ED9D1"/>
<path d="M727.199 223.7C727.419 223.745 727.529 223.97 727.485 224.196C727.441 224.421 727.221 224.534 727.001 224.488C726.781 224.443 726.671 224.218 726.715 223.993C726.781 223.768 726.979 223.632 727.199 223.7Z" fill="#5ED9D1"/>
<path d="M739.754 228.859C740.039 228.927 740.193 229.219 740.127 229.512C740.061 229.805 739.776 229.963 739.49 229.895C739.204 229.828 739.05 229.535 739.116 229.242C739.182 228.972 739.468 228.791 739.754 228.859Z" fill="#5ED9D1"/>
<path d="M752.11 233.656C752.439 233.746 752.637 234.084 752.549 234.422C752.461 234.76 752.132 234.963 751.802 234.873C751.472 234.782 751.274 234.445 751.362 234.107C751.472 233.769 751.802 233.566 752.11 233.656Z" fill="#5ED9D1"/>
<path d="M710.489 23.1945C710.973 23.3071 711.281 23.8252 711.149 24.3208C711.039 24.8164 710.533 25.1317 710.05 24.9966C709.566 24.8839 709.258 24.3658 709.39 23.8703C709.522 23.3747 710.006 23.0593 710.489 23.1945Z" fill="#5ED9D1"/>
<path d="M698.683 47.4995C699.233 47.6346 699.584 48.2203 699.43 48.7835C699.299 49.3466 698.727 49.707 698.177 49.5493C697.628 49.4142 697.276 48.8285 697.43 48.2653C697.562 47.7022 698.133 47.3643 698.683 47.4995Z" fill="#5ED9D1"/>
<path d="M690.063 70.4544C690.679 70.6121 691.053 71.2428 690.899 71.8736C690.745 72.5043 690.129 72.8872 689.514 72.7295C688.898 72.5719 688.524 71.9411 688.678 71.3104C688.832 70.6797 689.448 70.2967 690.063 70.4544Z" fill="#5ED9D1"/>
<path d="M684.501 91.9437C685.095 92.1014 685.469 92.7096 685.315 93.3404C685.161 93.9711 684.567 94.3315 683.952 94.1738C683.358 94.0162 682.984 93.408 683.138 92.7772C683.292 92.169 683.908 91.7861 684.501 91.9437Z" fill="#5ED9D1"/>
<path d="M681.511 111.88C682.082 112.015 682.434 112.601 682.28 113.187C682.148 113.772 681.577 114.133 681.005 113.975C680.433 113.84 680.082 113.254 680.235 112.668C680.367 112.105 680.961 111.745 681.511 111.88Z" fill="#5ED9D1"/>
<path d="M680.545 130.396C681.05 130.532 681.38 131.05 681.248 131.59C681.116 132.108 680.611 132.446 680.083 132.311C679.577 132.176 679.247 131.658 679.379 131.117C679.511 130.577 680.039 130.261 680.545 130.396Z" fill="#5ED9D1"/>
<path d="M681.028 147.561C681.446 147.674 681.71 148.102 681.6 148.553C681.49 148.981 681.05 149.251 680.633 149.138C680.215 149.026 679.951 148.575 680.061 148.147C680.171 147.719 680.589 147.471 681.028 147.561Z" fill="#5ED9D1"/>
<path d="M682.457 163.51C682.809 163.6 683.007 163.96 682.919 164.298C682.831 164.658 682.479 164.861 682.149 164.771C681.797 164.681 681.599 164.321 681.687 163.983C681.775 163.622 682.105 163.419 682.457 163.51Z" fill="#5ED9D1"/>
<path d="M684.436 178.309C684.678 178.377 684.832 178.625 684.766 178.873C684.7 179.12 684.458 179.278 684.216 179.21C683.974 179.143 683.821 178.895 683.886 178.647C683.952 178.399 684.194 178.264 684.436 178.309Z" fill="#5ED9D1"/>
<path d="M686.656 192.096C686.788 192.141 686.876 192.276 686.854 192.434C686.81 192.569 686.678 192.659 686.524 192.637C686.392 192.592 686.304 192.457 686.326 192.299C686.37 192.164 686.524 192.074 686.656 192.096Z" fill="#5ED9D1"/>
<path d="M677.685 209.193C677.817 209.216 677.883 209.351 677.861 209.486C677.839 209.621 677.707 209.689 677.575 209.666C677.443 209.644 677.377 209.509 677.399 209.374C677.421 209.238 677.553 209.148 677.685 209.193Z" fill="#5ED9D1"/>
<path d="M704.003 223.564L704.025 223.587L704.003 223.611L703.981 223.587C703.981 223.564 703.981 223.564 704.003 223.564Z" fill="#5ED9D1"/>
<path d="M717.129 229.624C717.195 229.647 717.217 229.692 717.217 229.759C717.195 229.827 717.151 229.849 717.085 229.849C717.019 229.827 716.997 229.782 716.997 229.714C716.997 229.647 717.063 229.624 717.129 229.624Z" fill="#5ED9D1"/>
<path d="M730.123 235.143C730.233 235.166 730.299 235.278 730.277 235.391C730.255 235.503 730.145 235.571 730.035 235.548C729.925 235.526 729.859 235.413 729.881 235.301C729.903 235.188 730.013 235.12 730.123 235.143Z" fill="#5ED9D1"/>
<path d="M742.987 240.145C743.163 240.19 743.273 240.37 743.229 240.55C743.185 240.73 743.009 240.843 742.833 240.798C742.657 240.753 742.547 240.573 742.591 240.393C742.613 240.212 742.789 240.1 742.987 240.145Z" fill="#5ED9D1"/>
<path d="M755.628 244.717C755.869 244.784 756.023 245.032 755.957 245.28C755.891 245.528 755.65 245.685 755.408 245.618C755.166 245.55 755.012 245.302 755.078 245.054C755.144 244.807 755.386 244.672 755.628 244.717Z" fill="#5ED9D1"/>
<path d="M700.42 17.4051C700.75 17.4952 700.948 17.8331 700.882 18.171C700.794 18.5089 700.464 18.7116 700.134 18.644C699.805 18.5539 699.607 18.216 699.673 17.8782C699.761 17.5177 700.09 17.315 700.42 17.4051Z" fill="#5ED9D1"/>
<path d="M689.493 40.5622C689.955 40.6748 690.241 41.1704 690.131 41.6434C690.021 42.1165 689.537 42.4093 689.075 42.2967C688.614 42.1841 688.328 41.6885 688.438 41.2155C688.548 40.7424 689.031 40.4496 689.493 40.5622Z" fill="#5ED9D1"/>
<path d="M681.071 62.9078C681.577 63.0429 681.885 63.561 681.753 64.0566C681.621 64.5747 681.115 64.8901 680.631 64.7549C680.126 64.6197 679.818 64.1016 679.95 63.6061C680.06 63.088 680.565 62.7951 681.071 62.9078Z" fill="#5ED9D1"/>
<path d="M675.29 83.9478C675.818 84.0829 676.148 84.6236 676.016 85.1642C675.884 85.7048 675.356 86.0427 674.829 85.9076C674.301 85.7724 673.971 85.2318 674.103 84.6911C674.235 84.1505 674.763 83.8126 675.29 83.9478Z" fill="#5ED9D1"/>
<path d="M671.836 103.771C672.32 103.883 672.606 104.401 672.496 104.897C672.386 105.393 671.88 105.685 671.397 105.573C670.913 105.46 670.627 104.942 670.737 104.446C670.869 103.951 671.353 103.635 671.836 103.771Z" fill="#5ED9D1"/>
<path d="M670.297 122.219C670.737 122.332 671.001 122.783 670.891 123.233C670.781 123.684 670.341 123.954 669.902 123.841C669.462 123.729 669.198 123.278 669.308 122.828C669.44 122.4 669.88 122.129 670.297 122.219Z" fill="#5ED9D1"/>
<path d="M670.189 139.43C670.562 139.52 670.804 139.925 670.716 140.308C670.628 140.691 670.233 140.939 669.859 140.849C669.485 140.759 669.243 140.353 669.331 139.97C669.419 139.565 669.815 139.317 670.189 139.43Z" fill="#5ED9D1"/>
<path d="M671.045 155.536C671.309 155.604 671.463 155.874 671.397 156.144C671.331 156.415 671.067 156.572 670.803 156.505C670.539 156.437 670.385 156.167 670.451 155.897C670.495 155.626 670.781 155.469 671.045 155.536Z" fill="#5ED9D1"/>
<path d="M672.496 170.448C672.694 170.493 672.804 170.696 672.76 170.899C672.716 171.101 672.518 171.214 672.32 171.169C672.122 171.124 672.012 170.921 672.056 170.719C672.122 170.538 672.298 170.403 672.496 170.448Z" fill="#5ED9D1"/>
<path d="M674.234 184.459C674.3 184.481 674.344 184.549 674.344 184.639C674.322 184.707 674.256 184.752 674.168 184.752C674.102 184.729 674.058 184.662 674.058 184.571C674.08 184.481 674.168 184.436 674.234 184.459Z" fill="#5ED9D1"/>
<path d="M719.328 240.324C719.394 240.347 719.438 240.414 719.416 240.482C719.394 240.549 719.328 240.595 719.262 240.572C719.196 240.549 719.152 240.482 719.174 240.414C719.174 240.347 719.24 240.302 719.328 240.324Z" fill="#5ED9D1"/>
<path d="M745.647 250.777C745.691 250.777 745.713 250.822 745.713 250.868C745.713 250.913 745.669 250.936 745.625 250.936C745.581 250.936 745.559 250.89 745.559 250.845C745.581 250.777 745.625 250.754 745.647 250.777Z" fill="#5ED9D1"/>
<path d="M690.459 10.9853C690.723 11.0529 690.877 11.3232 690.811 11.5935C690.745 11.8639 690.481 12.0215 690.217 11.954C689.953 11.8864 689.8 11.6161 689.866 11.3458C689.931 11.0754 690.195 10.9178 690.459 10.9853Z" fill="#5ED9D1"/>
<path d="M680.302 33.263C680.654 33.3531 680.896 33.7361 680.786 34.0965C680.698 34.4569 680.324 34.7047 679.972 34.5921C679.62 34.502 679.379 34.119 679.489 33.7586C679.576 33.3982 679.95 33.1729 680.302 33.263Z" fill="#5ED9D1"/>
<path d="M672.145 54.8664C672.585 54.979 672.849 55.4295 672.739 55.8575C672.629 56.308 672.189 56.5783 671.771 56.4657C671.332 56.3531 671.068 55.9026 671.178 55.4746C671.266 55.024 671.705 54.7537 672.145 54.8664Z" fill="#5ED9D1"/>
<path d="M666.209 75.5222C666.671 75.6349 666.935 76.1079 666.825 76.5584C666.715 77.0315 666.253 77.3018 665.813 77.1892C665.352 77.0765 665.088 76.6035 665.198 76.153C665.286 75.7024 665.747 75.4096 666.209 75.5222Z" fill="#5ED9D1"/>
<path d="M662.34 95.0753C662.779 95.188 663.021 95.6385 662.933 96.0665C662.823 96.517 662.384 96.7648 661.966 96.6747C661.526 96.5621 661.284 96.1115 661.372 95.6835C661.482 95.233 661.922 94.9627 662.34 95.0753Z" fill="#5ED9D1"/>
<path d="M660.251 113.457C660.625 113.547 660.867 113.953 660.779 114.336C660.691 114.718 660.295 114.966 659.921 114.876C659.548 114.786 659.306 114.381 659.394 113.998C659.482 113.615 659.877 113.367 660.251 113.457Z" fill="#5ED9D1"/>
<path d="M659.525 130.734C659.81 130.801 660.008 131.117 659.92 131.41C659.854 131.703 659.547 131.905 659.261 131.815C658.975 131.748 658.777 131.432 658.865 131.139C658.931 130.847 659.239 130.666 659.525 130.734Z" fill="#5ED9D1"/>
<path d="M659.788 146.863C660.008 146.931 660.162 147.156 660.096 147.382C660.03 147.607 659.81 147.764 659.59 147.697C659.37 147.629 659.216 147.404 659.282 147.179C659.348 146.954 659.568 146.796 659.788 146.863Z" fill="#5ED9D1"/>
<path d="M660.69 162C660.799 162.023 660.865 162.136 660.843 162.248C660.821 162.361 660.712 162.428 660.602 162.406C660.492 162.383 660.426 162.271 660.448 162.158C660.47 162.045 660.58 161.978 660.69 162Z" fill="#5ED9D1"/>
<path d="M663.33 189.032C663.395 189.055 663.439 189.122 663.439 189.212C663.417 189.28 663.352 189.325 663.264 189.325C663.198 189.302 663.154 189.235 663.154 189.167C663.176 189.055 663.242 189.009 663.33 189.032Z" fill="#5ED9D1"/>
<path d="M734.477 255.575C734.609 255.62 734.697 255.755 734.653 255.89C734.609 256.025 734.477 256.115 734.345 256.07C734.213 256.025 734.125 255.89 734.169 255.755C734.213 255.62 734.345 255.552 734.477 255.575Z" fill="#5ED9D1"/>
<path d="M747.801 260.485C747.867 260.508 747.911 260.575 747.889 260.643C747.867 260.711 747.801 260.756 747.735 260.733C747.669 260.711 747.625 260.643 747.647 260.575C747.647 260.508 747.713 260.463 747.801 260.485Z" fill="#5ED9D1"/>
<path d="M680.719 4.29407C680.829 4.3166 680.917 4.45175 680.873 4.56439C680.851 4.67702 680.719 4.76712 680.609 4.72207C680.499 4.69955 680.411 4.56439 680.455 4.45175C680.477 4.33912 680.587 4.24902 680.719 4.29407Z" fill="#5ED9D1"/>
<path d="M671.244 25.5592C671.508 25.6268 671.662 25.8971 671.596 26.1674C671.53 26.4378 671.266 26.5954 671.002 26.5279C670.739 26.4603 670.585 26.19 670.651 25.9197C670.717 25.6719 670.98 25.4917 671.244 25.5592Z" fill="#5ED9D1"/>
<path d="M663.329 46.5317C663.637 46.6218 663.835 46.9372 663.747 47.2525C663.659 47.5679 663.351 47.7706 663.043 47.6805C662.735 47.5904 662.537 47.2751 662.625 46.9597C662.691 46.6443 662.999 46.4641 663.329 46.5317Z" fill="#5ED9D1"/>
<path d="M657.282 66.6926C657.655 66.7828 657.875 67.1657 657.787 67.5486C657.699 67.9316 657.326 68.1568 656.952 68.0667C656.578 67.9766 656.358 67.5937 656.446 67.2107C656.534 66.8278 656.908 66.6025 657.282 66.6926Z" fill="#5ED9D1"/>
<path d="M653.061 85.93C653.435 86.0201 653.655 86.403 653.567 86.786C653.479 87.1689 653.105 87.3942 652.731 87.3041C652.357 87.214 652.137 86.831 652.225 86.4481C652.313 86.0651 652.687 85.8398 653.061 85.93Z" fill="#5ED9D1"/>
<path d="M650.444 104.199C650.752 104.289 650.95 104.604 650.862 104.92C650.774 105.235 650.466 105.438 650.158 105.348C649.85 105.257 649.653 104.942 649.741 104.627C649.806 104.311 650.114 104.131 650.444 104.199Z" fill="#5ED9D1"/>
<path d="M649.126 121.431C649.367 121.498 649.521 121.746 649.455 121.994C649.389 122.242 649.148 122.399 648.906 122.332C648.664 122.264 648.51 122.016 648.576 121.769C648.642 121.521 648.884 121.363 649.126 121.431Z" fill="#5ED9D1"/>
<path d="M648.795 137.605C648.971 137.65 649.081 137.83 649.037 138.011C648.993 138.191 648.817 138.303 648.641 138.258C648.466 138.213 648.356 138.033 648.4 137.853C648.444 137.65 648.619 137.56 648.795 137.605Z" fill="#5ED9D1"/>
<path d="M649.125 152.832C649.191 152.855 649.213 152.9 649.213 152.967C649.191 153.035 649.147 153.057 649.081 153.057C649.015 153.035 648.993 152.99 648.993 152.922C648.993 152.855 649.059 152.832 649.125 152.832Z" fill="#5ED9D1"/>
<path d="M649.873 166.911C649.939 166.934 649.961 166.979 649.961 167.046C649.939 167.114 649.895 167.136 649.829 167.136C649.763 167.114 649.741 167.069 649.741 167.001C649.741 166.934 649.807 166.889 649.873 166.911Z" fill="#5ED9D1"/>
<path d="M735.73 264.72C735.993 264.788 736.169 265.058 736.103 265.351C736.037 265.621 735.773 265.802 735.488 265.734C735.224 265.666 735.048 265.396 735.114 265.103C735.18 264.833 735.466 264.653 735.73 264.72Z" fill="#5ED9D1"/>
<path d="M662.449 17.562C662.603 17.6071 662.691 17.7423 662.647 17.8999C662.603 18.0576 662.471 18.1477 662.317 18.1027C662.163 18.0576 662.075 17.9225 662.119 17.7648C662.141 17.6296 662.295 17.5395 662.449 17.562Z" fill="#5ED9D1"/>
<path d="M654.754 37.7683C654.996 37.8359 655.15 38.0837 655.084 38.3315C655.018 38.5793 654.776 38.737 654.535 38.6694C654.293 38.6018 654.139 38.354 654.205 38.1062C654.249 37.8585 654.491 37.7233 654.754 37.7683Z" fill="#5ED9D1"/>
<path d="M648.575 57.5019C648.839 57.5694 649.015 57.8397 648.949 58.1101C648.883 58.3804 648.619 58.5606 648.355 58.493C648.091 58.4254 647.916 58.1551 647.982 57.8848C648.048 57.592 648.311 57.4343 648.575 57.5019Z" fill="#5ED9D1"/>
<path d="M644.025 76.4012C644.311 76.4688 644.487 76.7617 644.399 77.0545C644.333 77.3474 644.047 77.5276 643.762 77.4375C643.476 77.3699 643.3 77.077 643.388 76.7842C643.476 76.4914 643.74 76.3111 644.025 76.4012Z" fill="#5ED9D1"/>
<path d="M640.925 94.4666C641.167 94.5342 641.299 94.7595 641.233 95.0073C641.167 95.2551 640.947 95.3902 640.705 95.3226C640.464 95.2551 640.332 95.0298 640.398 94.782C640.442 94.5568 640.683 94.4216 640.925 94.4666Z" fill="#5ED9D1"/>
<path d="M639.034 111.587C639.209 111.632 639.319 111.812 639.275 112.015C639.231 112.195 639.056 112.308 638.858 112.263C638.682 112.218 638.572 112.038 638.616 111.835C638.682 111.655 638.858 111.542 639.034 111.587Z" fill="#5ED9D1"/>
<path d="M638.11 127.783C638.198 127.806 638.264 127.896 638.242 128.008C638.22 128.098 638.132 128.166 638.022 128.143C637.934 128.121 637.868 128.031 637.89 127.918C637.912 127.805 638.022 127.76 638.11 127.783Z" fill="#5ED9D1"/>
<path d="M637.846 143.033C637.846 143.033 637.868 143.033 637.846 143.033C637.846 143.033 637.846 143.055 637.846 143.033C637.846 143.033 637.846 143.055 637.846 143.033Z" fill="#5ED9D1"/>
<path d="M638.089 156.999C638.199 157.022 638.265 157.135 638.221 157.247C638.199 157.36 638.089 157.427 637.979 157.382C637.869 157.36 637.803 157.247 637.847 157.135C637.891 157.045 638.001 156.977 638.089 156.999Z" fill="#5ED9D1"/>
<path d="M646.465 28.8481C646.575 28.8706 646.641 29.0057 646.619 29.1184C646.597 29.231 646.465 29.2986 646.355 29.2761C646.245 29.2535 646.179 29.1184 646.201 29.0057C646.223 28.8931 646.355 28.8255 646.465 28.8481Z" fill="#5ED9D1"/>
<path d="M640.221 47.9278C640.419 47.9729 640.551 48.1756 640.485 48.3784C640.441 48.5811 640.243 48.7163 640.045 48.6487C639.847 48.6036 639.715 48.4009 639.781 48.1981C639.825 47.9954 640.023 47.8828 640.221 47.9278Z" fill="#5ED9D1"/>
<path d="M635.361 66.4442C635.581 66.4893 635.713 66.7145 635.647 66.9398C635.603 67.1651 635.383 67.3002 635.163 67.2326C634.943 67.1876 634.812 66.9623 634.877 66.7371C634.921 66.5343 635.141 66.3992 635.361 66.4442Z" fill="#5ED9D1"/>
<path d="M631.779 84.2849C631.955 84.33 632.043 84.4877 631.999 84.6679C631.955 84.8481 631.801 84.9382 631.625 84.8931C631.449 84.8481 631.361 84.6904 631.405 84.5102C631.449 84.33 631.625 84.2399 631.779 84.2849Z" fill="#5ED9D1"/>
<path d="M629.359 101.225C629.491 101.247 629.557 101.382 629.535 101.517C629.513 101.653 629.381 101.72 629.249 101.698C629.117 101.675 629.051 101.54 629.073 101.405C629.117 101.27 629.227 101.18 629.359 101.225Z" fill="#5ED9D1"/>
<path d="M627.842 117.354C627.886 117.354 627.908 117.399 627.908 117.444C627.908 117.49 627.864 117.512 627.82 117.512C627.776 117.512 627.754 117.467 627.754 117.422C627.754 117.376 627.798 117.331 627.842 117.354Z" fill="#5ED9D1"/>
<path d="M627.03 132.446C627.074 132.446 627.096 132.491 627.096 132.537C627.096 132.582 627.052 132.605 627.008 132.605C626.964 132.605 626.942 132.559 626.942 132.514C626.964 132.446 626.986 132.423 627.03 132.446Z" fill="#5ED9D1"/>
<path d="M626.72 146.435C626.874 146.48 626.962 146.638 626.94 146.796C626.896 146.953 626.742 147.044 626.588 147.021C626.434 146.976 626.346 146.818 626.368 146.661C626.412 146.48 626.566 146.39 626.72 146.435Z" fill="#5ED9D1"/>
<path d="M626.655 159.591C626.919 159.658 627.095 159.951 627.029 160.221C626.963 160.492 626.677 160.672 626.413 160.604C626.15 160.537 625.974 160.244 626.04 159.974C626.128 159.681 626.391 159.523 626.655 159.591Z" fill="#5ED9D1"/>
<path d="M638.637 19.5898C638.659 19.5898 638.682 19.6353 638.682 19.658C638.682 19.6808 638.637 19.7035 638.615 19.7035C638.593 19.7035 638.57 19.658 638.57 19.6353C638.57 19.6126 638.593 19.5898 638.637 19.5898Z" fill="#5ED9D1"/>
<path d="M632.261 38.1294C632.371 38.1519 632.415 38.2645 632.393 38.3546C632.371 38.4673 632.261 38.5123 632.173 38.4898C632.063 38.4673 632.019 38.3546 632.041 38.2645C632.063 38.1744 632.173 38.1068 632.261 38.1294Z" fill="#5ED9D1"/>
<path d="M627.094 56.2404C627.204 56.2629 627.27 56.398 627.248 56.5107C627.226 56.6233 627.094 56.6909 626.984 56.6684C626.874 56.6458 626.808 56.5107 626.83 56.398C626.874 56.2854 626.984 56.1953 627.094 56.2404Z" fill="#5ED9D1"/>
<path d="M623.115 73.6304C623.247 73.653 623.313 73.7881 623.291 73.9233C623.269 74.0584 623.137 74.126 623.005 74.1035C622.873 74.0809 622.807 73.9458 622.829 73.8106C622.851 73.698 622.983 73.6079 623.115 73.6304Z" fill="#5ED9D1"/>
<path d="M620.168 90.4121C620.234 90.4346 620.278 90.5022 620.256 90.5698C620.234 90.6374 620.168 90.6824 620.102 90.6599C620.036 90.6374 619.992 90.5698 620.014 90.5022C620.036 90.4572 620.102 90.4121 620.168 90.4121Z" fill="#5ED9D1"/>
<path d="M619.377 45.6748C619.421 45.6973 619.465 45.7424 619.443 45.7874C619.421 45.8325 619.377 45.8775 619.333 45.855C619.289 45.8325 619.246 45.7874 619.267 45.7424C619.267 45.6973 619.333 45.6748 619.377 45.6748Z" fill="#5ED9D1"/>
</g>
</g>
<defs>
<linearGradient id="paint0_linear_724_2" x1="1315" y1="918" x2="3.98198e-05" y2="-5.70404e-05" gradientUnits="userSpaceOnUse">
<stop stop-color="#BEF0ED"/>
<stop offset="1" stop-color="#BEF0ED" stop-opacity="0.2"/>
</linearGradient>
<clipPath id="clip0_724_2">
<rect width="757" height="553" fill="white"/>
</clipPath>
<clipPath id="clip1_724_2">
<rect width="412.05" height="273.887" fill="white" transform="translate(893.154 -54.5439) rotate(90)"/>
</clipPath>
</defs>
</svg>
