<svg width="1440" height="1024" viewBox="0 0 1440 1024" fill="none" xmlns="http://www.w3.org/2000/svg">
<g clip-path="url(#clip0_1244_6292)">
<rect width="1440" height="1024" fill="#ECFFFE"/>
<g opacity="0.7">
<path opacity="0.7" d="M-38.1678 169.5L-4.39754 177.845C125.492 210.063 259.781 243.365 389.925 227.195C467.573 217.547 534.889 190.73 599.972 164.789C653.771 143.339 709.431 121.156 771.156 108.463C894.554 83.068 1035.51 97.5517 1144.52 113.002C1172.24 116.924 1200.27 121.225 1227.44 125.389C1322.5 139.944 1420.77 155.046 1518.48 156.274C1522.91 156.344 1527.28 156.354 1531.7 156.373L1540.05 157.876C1533.08 157.948 1525.92 157.954 1518.58 157.863C1420.62 156.62 1322.19 141.506 1226.98 126.924C1199.83 122.764 1171.78 118.459 1144.07 114.522C1035.37 99.1299 894.886 84.6812 771.908 109.941C710.497 122.577 654.964 144.703 601.262 166.106C535.971 192.106 468.516 219.012 390.395 228.72C259.7 245.018 125.025 211.614 -5.19004 179.272C-16.5222 176.455 -27.7791 173.673 -38.9605 170.927C-90.3788 158.32 -147.416 145.852 -205.556 138.088L-204.995 136.57C-146.748 144.402 -89.6607 156.88 -38.1678 169.5Z" fill="#5ED9D1"/>
<path opacity="0.7" d="M1291.57 92.7795C1148.98 44.8344 981.263 59.68 865.671 80.6152C806.182 91.3638 747.688 105.352 691.119 118.877C617.88 136.383 542.133 154.465 463.7 165.714C387.162 176.684 194.506 194.435 59.2747 122.732C-18.4588 81.4815 -66.5235 14.9758 -83.5788 -74.9395C-85.1625 -83.3904 -86.4815 -91.9275 -87.7078 -100.455L-90.7978 -100.766C-89.561 -92.1058 -88.2286 -83.4545 -86.6064 -74.8493C-69.5036 15.5596 -21.006 82.5037 57.3943 124.103C193.721 196.424 387.586 178.569 464.605 167.535C543.23 156.267 619.075 138.158 692.381 120.621C748.916 107.112 807.343 93.154 866.705 82.4115C981.746 61.59 1148.56 46.8424 1290.19 94.3888C1340.65 111.367 1385.33 135.492 1428.51 158.826C1446.5 168.551 1464.76 178.379 1483.58 187.774L1483.92 185.609C1465.72 176.464 1448.04 166.957 1430.55 157.47C1387.19 134.062 1342.39 109.851 1291.57 92.7795Z" fill="#8989C7"/>
</g>
<path d="M1156.42 73.7107L1170.11 81.7612C1172.36 83.0493 1176.23 83.2103 1178.48 81.9222L1192.33 74.1937C1193.46 73.5497 1194.11 72.5836 1194.11 71.7785V65.4991C1194.11 65.4991 1194.11 65.4991 1193.95 65.4991L1188.31 68.3973L1183.31 58.8977C1181.06 57.2876 1168.98 56.3215 1166.56 57.6096L1160.6 67.9143L1154.81 64.8551H1154.64V71.1345C1154.64 72.1006 1155.29 72.9056 1156.42 73.7107ZM1182.99 69.5244L1179.93 71.1345V72.4226L1167.69 71.6175V70.3294L1165.92 69.3634L1172.36 65.8211C1173.65 65.1771 1175.74 65.1771 1176.87 65.8211L1182.99 69.5244Z" fill="#8989C7"/>
<path d="M1192.66 74.6767L1178.8 82.4052C1176.23 83.8543 1172.2 83.6933 1169.78 82.2442L1156.09 74.1936C1154.64 73.3886 1154 72.4225 1154 71.1344V64.855V64.372L1154.64 64.05L1160.12 66.9482L1165.92 57.1265L1166.08 56.9655C1168.66 55.5164 1181.06 56.6435 1183.48 58.0926L1183.64 58.2536L1188.47 67.2702L1193.62 64.694L1193.95 64.533L1194.59 65.016V71.6175C1194.59 72.2615 1194.43 72.9056 1193.95 73.5496C1193.78 73.8716 1193.3 74.3547 1192.66 74.6767ZM1188.63 68.7193L1188.31 68.8803L1187.82 68.7193L1182.83 59.2196C1180.42 58.0926 1169.46 57.1265 1167.05 58.0926L1161.09 68.3973L1160.44 68.5583L1155.45 65.9821V71.2955C1155.45 71.9395 1155.93 72.5835 1156.74 73.0666L1170.43 81.1171C1172.52 82.4052 1176.07 82.4052 1178.16 81.2781L1192.01 73.5496C1192.98 73.0666 1193.46 72.4225 1193.46 71.6175V66.3041L1188.63 68.7193ZM1180.58 71.6175C1180.58 71.7785 1180.58 71.7785 1180.58 71.9395C1180.58 72.9056 1180.58 72.9056 1180.25 73.0666L1180.09 73.2276L1167.53 72.4225C1166.89 72.2615 1166.89 71.7785 1166.89 70.9734V70.8124L1164.31 69.5243L1171.72 65.3381C1173.17 64.533 1175.58 64.533 1177.03 65.3381L1183.31 69.0413L1183.64 69.3633V70.1684L1180.58 71.6175ZM1167.85 69.6853C1168.34 69.8464 1168.34 70.1684 1168.34 70.9734C1168.34 70.9734 1168.34 70.9734 1168.34 71.1344L1179.29 71.9395C1179.29 70.9734 1179.29 70.8124 1179.61 70.6514L1181.7 69.6853L1176.39 66.6261C1175.26 65.9821 1173.49 65.9821 1172.52 66.6261L1167.21 69.6853H1167.85Z" fill="#171753"/>
<path d="M1178.8 88.4643L1198.14 77.1291C1198.47 76.9377 1198.59 76.5261 1198.42 76.1878C1198.23 75.8161 1197.77 75.6792 1197.41 75.8893L1178.16 87.1763C1176.28 88.1861 1173.24 88.2911 1171.13 87.3755C1170.74 87.208 1170.27 87.3402 1170.08 87.7179C1169.91 88.0498 1170.02 88.4569 1170.36 88.6235C1172.91 89.9061 1176.41 89.81 1178.8 88.4643Z" fill="#171753"/>
<path d="M1170.43 54.7115L1156.58 62.601C1154.32 63.8891 1154.16 65.9822 1156.58 67.4313L1170.27 75.4819C1172.52 76.7699 1176.23 76.931 1178.64 75.6429L1192.5 67.7533C1194.75 66.4653 1194.91 64.3721 1192.5 62.923L1178.8 54.8725C1176.39 53.4234 1172.68 53.4234 1170.43 54.7115ZM1172.2 59.3808C1173.49 58.7367 1175.42 58.7367 1176.71 59.3808L1184.28 63.8891C1185.57 64.6941 1185.57 65.8212 1184.28 66.4653L1176.55 70.8125C1175.26 71.4566 1173.33 71.4566 1172.04 70.8125L1164.47 66.3042C1163.34 65.6602 1163.34 64.3721 1164.63 63.7281L1172.2 59.3808Z" fill="#E3E0EB"/>
<path d="M1192.66 68.3974L1178.8 76.287C1176.23 77.7361 1172.36 77.7361 1169.78 76.126L1156.09 68.0754C1154.81 67.1094 1154 66.1433 1154 64.8552C1154 63.7281 1154.81 62.6011 1156.09 61.957L1170.11 54.0675C1172.68 52.6184 1176.55 52.6184 1179.13 54.2285L1192.82 62.279C1194.11 63.0841 1194.91 64.2112 1194.91 65.3382C1194.91 65.9823 1194.75 66.6263 1194.27 67.1094C1193.78 67.5924 1193.3 68.0754 1192.66 68.3974ZM1178.32 55.3556C1176.23 54.0675 1172.68 54.0675 1170.59 55.1946L1156.9 63.0841C1155.93 63.5671 1155.45 64.2112 1155.45 65.0162C1155.45 65.6603 1155.93 66.3043 1156.74 66.7873L1170.43 74.8379C1172.52 76.126 1176.07 76.126 1178.16 74.9989L1192.01 67.1094C1192.98 66.6263 1193.46 65.9823 1193.46 65.3382C1193.46 64.6942 1192.98 64.0502 1192.17 63.5671L1178.32 55.3556ZM1184.6 67.1094L1176.87 71.4566C1175.42 72.2617 1173.17 72.2617 1171.72 71.4566L1164.15 66.9483C1163.34 66.4653 1162.86 65.8213 1163.02 65.0162C1163.02 64.2112 1163.5 63.5671 1164.31 63.0841L1172.04 58.7368C1173.49 57.9317 1175.74 57.9317 1177.19 58.7368L1184.76 63.2451C1185.57 63.7281 1186.05 64.3722 1186.05 65.1772C1186.05 65.6603 1185.89 65.9823 1185.57 66.3043C1185.25 66.7873 1185.09 66.9483 1184.6 67.1094ZM1164.95 64.3722C1164.47 64.5332 1164.31 64.8552 1164.31 65.0162C1164.31 65.1772 1164.47 65.4992 1164.95 65.6603L1172.52 70.1686C1173.49 70.8126 1175.26 70.8126 1176.39 70.1686L1183.96 65.9823C1184.44 65.8213 1184.6 65.4993 1184.6 65.3382C1184.6 65.1772 1184.44 64.8552 1183.96 64.6942L1176.39 60.1859C1175.42 59.5419 1173.65 59.5419 1172.52 60.1859L1164.95 64.3722Z" fill="#171753"/>
<path d="M1173.68 76.5746L1173.61 82.854L1174.9 82.8667L1174.96 76.5873L1173.68 76.5746Z" fill="#171753"/>
<path d="M1173.79 58.8402L1173.73 65.1196L1175.02 65.1323L1175.08 58.8529L1173.79 58.8402Z" fill="#171753"/>
<path d="M1190.36 68.431L1190.3 74.7104L1191.59 74.7232L1191.65 68.4438L1190.36 68.431Z" fill="#171753"/>
<path d="M1158.34 68.6386L1158.28 74.918L1159.56 74.9307L1159.63 68.6512L1158.34 68.6386Z" fill="#171753"/>
<path d="M1185.25 65.8214C1185.25 65.8214 1182.03 67.9145 1181.86 68.0756C1181.7 68.2366 1176.71 65.4994 1176.71 65.4994L1174.62 64.8553V58.8979L1177.68 60.025C1177.68 60.025 1184.76 63.8893 1184.76 64.0503C1184.76 64.2113 1185.25 65.8214 1185.25 65.8214Z" fill="#171753"/>
<path d="M43.4159 201.711L57.1068 209.761C59.3618 211.049 63.2274 211.21 65.4824 209.922L79.3344 202.194C80.4619 201.55 81.1061 200.584 81.1061 199.779V193.499C81.1061 193.499 81.1061 193.499 80.9451 193.499L75.3076 196.397L70.3145 186.898C68.0595 185.288 55.9793 184.322 53.5633 185.61L47.6037 195.914L41.8052 192.855H41.6442V199.134C41.6442 200.101 42.2884 200.906 43.4159 201.711ZM69.9924 197.524L66.932 199.134V200.423L54.6908 199.618V198.329L52.919 197.363L59.3618 193.821C60.6503 193.177 62.7442 193.177 63.8717 193.821L69.9924 197.524Z" fill="#8989C7"/>
<path d="M79.6566 202.677L65.8046 210.405C63.2275 211.854 59.2008 211.693 56.7847 210.244L43.0938 202.194C41.6442 201.389 40.9999 200.423 40.9999 199.134V192.855V192.372L41.6442 192.05L47.1206 194.948L52.9191 185.127L53.0801 184.965C55.6572 183.516 68.0596 184.643 70.4756 186.093L70.6367 186.254L75.4688 195.27L80.623 192.694L80.9451 192.533L81.5894 193.016V199.617C81.5894 200.262 81.4283 200.906 80.9451 201.55C80.784 201.872 80.3008 202.355 79.6566 202.677ZM75.6298 196.719L75.3077 196.88L74.8245 196.719L69.8313 187.22C67.4153 186.093 56.4626 185.127 54.0465 186.093L48.087 196.397L47.4427 196.558L42.4496 193.982V199.295C42.4496 199.939 42.9328 200.584 43.7381 201.067L57.429 209.117C59.5229 210.405 63.0664 210.405 65.1603 209.278L79.0123 201.55C79.9787 201.067 80.4619 200.423 80.4619 199.617V194.304L75.6298 196.719ZM67.5764 199.617C67.5764 199.778 67.5764 199.778 67.5764 199.939C67.5764 200.906 67.5764 200.906 67.2542 201.067L67.0932 201.228L54.5298 200.423C53.8855 200.262 53.8855 199.778 53.8855 198.973V198.812L51.3084 197.524L58.7176 193.338C60.1672 192.533 62.5832 192.533 64.0328 193.338L70.3145 197.041L70.6367 197.363V198.168L67.5764 199.617ZM54.8519 197.685C55.3351 197.846 55.3351 198.168 55.3351 198.973C55.3351 198.973 55.3351 198.973 55.3351 199.134L66.2878 199.939C66.2878 198.973 66.2878 198.812 66.6099 198.651L68.7038 197.685L63.3886 194.626C62.2611 193.982 60.4893 193.982 59.5229 194.626L54.2076 197.685H54.8519Z" fill="#171753"/>
<path d="M65.8047 216.464L85.1409 205.129C85.4672 204.938 85.5894 204.526 85.4201 204.188C85.2342 203.816 84.7727 203.679 84.4141 203.889L65.1604 215.176C63.2843 216.186 60.2444 216.291 58.1262 215.376C57.7385 215.208 57.2665 215.34 57.0776 215.718C56.9116 216.05 57.0237 216.457 57.3553 216.623C59.9071 217.906 63.4115 217.81 65.8047 216.464Z" fill="#171753"/>
<path d="M57.4291 182.711L43.5771 190.601C41.3221 191.889 41.1611 193.982 43.5771 195.431L57.268 203.482C59.523 204.77 63.2275 204.931 65.6436 203.643L79.4955 195.753C81.7505 194.465 81.9116 192.372 79.4955 190.923L65.8047 182.872C63.3886 181.423 59.684 181.423 57.4291 182.711ZM59.2008 187.381C60.4894 186.737 62.4222 186.737 63.7108 187.381L71.281 191.889C72.5696 192.694 72.5696 193.821 71.281 194.465L63.5497 198.813C62.2611 199.457 60.3283 199.457 59.0397 198.813L51.4695 194.304C50.342 193.66 50.342 192.372 51.6306 191.728L59.2008 187.381Z" fill="#E3E0EB"/>
<path d="M79.6566 196.397L65.8047 204.287C63.2276 205.736 59.3619 205.736 56.7848 204.126L43.0939 196.075C41.8053 195.109 41 194.143 41 192.855C41 191.728 41.8053 190.601 43.0939 189.957L57.1069 182.067C59.684 180.618 63.5497 180.618 66.1268 182.229L79.8177 190.279C81.1062 191.084 81.9116 192.211 81.9116 193.338C81.9116 193.982 81.7505 194.626 81.2673 195.109C80.7841 195.592 80.3009 196.075 79.6566 196.397ZM65.3215 183.356C63.2276 182.067 59.684 182.067 57.5901 183.195L43.8992 191.084C42.9328 191.567 42.4496 192.211 42.4496 193.016C42.4496 193.66 42.9328 194.304 43.7382 194.787L57.4291 202.838C59.523 204.126 63.0665 204.126 65.1604 202.999L79.0123 195.109C79.9788 194.626 80.462 193.982 80.462 193.338C80.462 192.694 79.9788 192.05 79.1734 191.567L65.3215 183.356ZM71.6032 195.109L63.8718 199.457C62.4222 200.262 60.1672 200.262 58.7176 199.457L51.1474 194.948C50.342 194.465 49.8588 193.821 50.0199 193.016C50.0199 192.211 50.5031 191.567 51.3084 191.084L59.0398 186.737C60.4894 185.932 62.7443 185.932 64.194 186.737L71.7642 191.245C72.5696 191.728 73.0528 192.372 73.0528 193.177C73.0528 193.66 72.8917 193.982 72.5696 194.304C72.2474 194.787 72.0864 194.948 71.6032 195.109ZM51.9527 192.372C51.4695 192.533 51.3084 192.855 51.3084 193.016C51.3084 193.177 51.4695 193.499 51.9527 193.66L59.523 198.169C60.4894 198.813 62.2611 198.813 63.3886 198.169L70.9589 193.982C71.4421 193.821 71.6032 193.499 71.6032 193.338C71.6032 193.177 71.4421 192.855 70.9589 192.694L63.3886 188.186C62.4222 187.542 60.6504 187.542 59.523 188.186L51.9527 192.372Z" fill="#171753"/>
<path d="M60.6753 204.575L60.6134 210.854L61.902 210.867L61.9638 204.587L60.6753 204.575Z" fill="#171753"/>
<path d="M60.7931 186.84L60.7312 193.12L62.0198 193.132L62.0816 186.853L60.7931 186.84Z" fill="#171753"/>
<path d="M77.3608 196.431L77.2986 202.71L78.5872 202.723L78.6494 196.444L77.3608 196.431Z" fill="#171753"/>
<path d="M45.3372 196.639L45.2753 202.918L46.5639 202.931L46.6258 196.651L45.3372 196.639Z" fill="#171753"/>
<path d="M72.2473 193.821C72.2473 193.821 69.0259 195.915 68.8649 196.076C68.7038 196.237 63.7107 193.499 63.7107 193.499L61.6168 192.855V186.898L64.6771 188.025C64.6771 188.025 71.7641 191.889 71.7641 192.05C71.7641 192.211 72.2473 193.821 72.2473 193.821Z" fill="#171753"/>
<g opacity="0.5">
<g style="mix-blend-mode:overlay" opacity="0.96">
<path fill-rule="evenodd" clip-rule="evenodd" d="M-141.789 683.595C-172.042 748.336 -95.6916 773.67 -65.0216 792.275C-37.0925 809.214 -11.2095 868.352 13.3835 865.617C76.2541 858.628 19.8217 778.37 65.4753 731.842C140.022 655.893 62.4386 589.668 10.9027 589.027C-40.6332 588.385 -106.675 608.423 -141.789 683.595Z" stroke="#8989C7" stroke-width="2" stroke-miterlimit="10"/>
</g>
<g style="mix-blend-mode:overlay" opacity="0.96">
<path fill-rule="evenodd" clip-rule="evenodd" d="M-159.85 944.265C-146.401 971.739 -122.853 992.451 -94.1327 1002.07C-51.054 1016.56 12.2156 1027.55 68.2891 997.785C164.634 946.492 131.906 912.8 195.41 847.426C258.915 782.051 274.756 748.361 247.844 657.235C220.933 566.109 227.434 616.408 187.576 515.537C147.718 414.666 100.91 408.002 50.6151 425.881C-9.59381 447.28 -165.099 645.632 -283.778 491.165C-343.544 413.383 -489.324 551.752 -458.203 648.467C-427.081 745.182 -485.062 864.79 -403.925 851.242C-322.788 837.694 -297.056 851.102 -235.443 867.836C-198.794 877.776 -173.969 915.396 -159.85 944.265Z" stroke="#8989C7" stroke-miterlimit="10"/>
</g>
<g style="mix-blend-mode:overlay" opacity="0.96">
<path fill-rule="evenodd" clip-rule="evenodd" d="M147.293 526.653C107.049 453.967 72.1891 447.432 29.6221 462.547C9.0919 469.822 -18.1578 497.894 -51.2305 522.752C-105.424 563.496 -192.174 588.754 -255.891 538.609C-335.728 475.779 -411.158 588.605 -388.723 669.849C-378.975 705.127 -391.581 718.682 -390.084 750.374C-388.137 791.978 -375.102 827.82 -336.468 832.992C-270.572 841.867 -248.139 846.334 -205.277 860.801C-201.783 861.992 -198.192 863.205 -194.444 864.44C-164.593 874.235 -143.561 904.981 -130.468 928.924C-118.246 951.45 -98.3132 968.437 -74.3142 976.78C-38.761 989.002 12.0605 997.125 57.3185 973.627C133.302 933.879 112.208 906.071 162.58 854.124C188.337 827.564 204.461 803.582 214.301 779.019C226.867 747.381 228.508 713.212 217.196 665.732C204.934 614.214 200.649 604.013 188.025 583.459C179.346 569.457 163.337 555.707 147.293 526.653Z" stroke="#8989C7" stroke-width="0.86" stroke-miterlimit="10"/>
</g>
<g style="mix-blend-mode:overlay" opacity="0.96">
<path fill-rule="evenodd" clip-rule="evenodd" d="M106.986 537.811C69.2569 493.265 43.425 486.883 8.5865 499.215C-9.19437 505.518 -31.3471 526.042 -57.5616 544.059C-102.729 575.129 -170.392 604.672 -229.805 572.118C-275.016 547.393 -394.721 511.673 -319.265 691.213C-309.635 714.146 -310.856 739.985 -308.98 764.594C-306.919 791.097 -301.669 808.298 -277.364 820.601C-246.547 836.147 -211.399 838.739 -179.277 850.515C-147.099 862.402 -119.784 884.462 -101.206 913.564C-90.2339 931.091 -73.8916 944.347 -54.5917 951.375C-26.5443 961.329 11.9054 966.64 46.2718 949.348C65.0117 939.917 81.7788 928.024 93.9279 910.416C122.401 869.19 159.09 832.699 176.872 785.28C189.041 752.892 193.768 717.714 186.466 674.231C178.787 628.73 173.949 609.521 159.103 586.745C147.973 569.572 125.245 559.362 106.986 537.811Z" stroke="#8989C7" stroke-width="0.72" stroke-miterlimit="10"/>
</g>
<g style="mix-blend-mode:overlay" opacity="0.96">
<path fill-rule="evenodd" clip-rule="evenodd" d="M82.7103 550.375C55.9708 536.189 24.7543 530.606 -5.9822 538.036C-48.6121 548.298 -83.6571 581.367 -125.732 594.032C-154.958 602.87 -187.846 602.118 -212.607 620.677C-232.581 635.671 -243.173 660.708 -247.472 685.321C-252.263 712.941 -250.377 741.089 -241.979 767.3C-234.786 789.639 -221.969 811.122 -201.64 822.006C-184.041 831.407 -162.878 831.912 -144.337 839.352C-105.629 854.895 -84.339 897.525 -48.5825 919.072C54.8174 981.309 139.926 820.137 152.562 736.934C160.241 686.288 157.631 621.5 123.551 582.718C111.97 569.531 98.1503 558.587 82.7103 550.375V550.375Z" stroke="#8989C7" stroke-width="0.58" stroke-miterlimit="10"/>
</g>
<g style="mix-blend-mode:overlay" opacity="0.96">
<path fill-rule="evenodd" clip-rule="evenodd" d="M-76.0897 851.859C-63.9547 862.481 -53.1578 874.676 -40.6466 884.859C-28.1354 895.042 -12.9002 903.548 3.57356 904.337C19.6924 905.121 35.8307 898.517 49.036 888.492C80.032 864.978 94.587 825.613 105.637 788.178C114.097 759.469 121.514 730.305 124.062 700.657C128.45 650.373 118.196 587.826 67.7254 567.062C10.8672 543.742 -60.8761 577.341 -111.121 607.321C-133.298 620.556 -154.846 635.873 -171.016 656.29C-187.186 676.708 -197.559 702.916 -194.723 728.483C-191.398 758.264 -170.969 782.661 -147.984 800.686C-124.999 818.711 -98.7032 832.268 -76.6215 851.43L-76.0897 851.859Z" stroke="#8989C7" stroke-width="0.44" stroke-miterlimit="10"/>
</g>
</g>
<g opacity="0.5">
<g style="mix-blend-mode:overlay" opacity="0.96">
<path fill-rule="evenodd" clip-rule="evenodd" d="M1492.79 883.345C1532.6 942.686 1593.73 890.387 1625.5 873.731C1654.43 858.562 1718.43 866.937 1728.79 844.465C1755.27 787.017 1657.4 793.896 1641.14 730.773C1614.6 627.715 1517.82 659.952 1490.66 703.753C1463.49 747.554 1446.55 814.456 1492.79 883.345Z" stroke="#8989C7" stroke-width="2" stroke-miterlimit="10"/>
</g>
<g style="mix-blend-mode:overlay" opacity="0.96">
<path fill-rule="evenodd" clip-rule="evenodd" d="M1706.68 1033.43C1737.15 1036.1 1767.05 1026.63 1790.11 1007C1824.77 977.593 1866.86 929.092 1870.33 865.702C1876.16 756.71 1830.4 767.336 1807.22 679.195C1784.03 591.053 1763.36 560.089 1671.43 536.076C1579.49 512.062 1625.92 532.47 1518.96 514.51C1412 496.55 1382.12 533.193 1371.46 585.494C1358.69 648.105 1448.24 883.702 1254.68 905.561C1157.2 916.574 1200.41 1112.87 1299.3 1136.16C1398.19 1159.46 1470.68 1270.88 1500.98 1194.4C1531.27 1117.92 1556.05 1102.81 1602.19 1058.69C1629.63 1032.44 1674.67 1030.61 1706.68 1033.43Z" stroke="#8989C7" stroke-miterlimit="10"/>
</g>
<g style="mix-blend-mode:overlay" opacity="0.96">
<path fill-rule="evenodd" clip-rule="evenodd" d="M1507.68 554.746C1424.65 551.672 1401.05 578.149 1392.01 622.407C1387.64 643.744 1397.61 681.576 1401.82 722.735C1408.72 790.184 1385.55 877.514 1309.7 906.182C1214.67 942.103 1272.34 1064.96 1353.49 1087.71C1388.74 1097.58 1393.83 1115.37 1421.75 1130.46C1458.38 1150.27 1495.8 1157.62 1520.18 1127.21C1561.81 1075.36 1577.22 1058.46 1611.75 1029.22C1614.57 1026.85 1617.46 1024.4 1620.46 1021.83C1644.26 1001.32 1681.45 999.191 1708.72 1000.34C1734.32 1001.51 1759.16 993.213 1778.7 976.971C1807.52 952.837 1840.72 913.511 1843.97 862.62C1849.17 777.026 1814.47 780.729 1796 710.768C1786.55 674.995 1774.35 648.802 1758.39 627.691C1737.79 600.592 1709.38 581.541 1662.88 566.709C1612.43 550.605 1601.48 549.005 1577.36 549.202C1560.89 549.403 1540.84 556.011 1507.68 554.746Z" stroke="#8989C7" stroke-width="0.86" stroke-miterlimit="10"/>
</g>
<g style="mix-blend-mode:overlay" opacity="0.96">
<path fill-rule="evenodd" clip-rule="evenodd" d="M1496.42 595.025C1438.79 604.329 1419.98 623.154 1412.55 659.356C1408.77 677.837 1414.9 707.407 1416.79 739.159C1420.07 793.884 1410.43 867.081 1351.87 901.148C1307.35 927.095 1214.94 1011.16 1407.66 1039.26C1432.27 1042.86 1453.76 1057.24 1475.81 1068.35C1499.57 1080.27 1517.01 1084.66 1540.1 1070.2C1569.32 1051.83 1589.69 1023.07 1616.37 1001.65C1643.16 980.232 1676.16 968.233 1710.67 967.353C1731.35 967.009 1751.14 959.86 1767.13 946.962C1790.13 928.084 1814.54 897.901 1817.48 859.542C1819.08 838.624 1817.55 818.124 1808.75 798.627C1788.15 752.955 1775.85 702.692 1744.42 662.976C1722.97 635.83 1695.29 613.616 1654.28 597.413C1611.35 580.491 1592.41 574.714 1565.24 575.665C1544.78 576.328 1524.3 590.518 1496.42 595.025Z" stroke="#8989C7" stroke-width="0.72" stroke-miterlimit="10"/>
</g>
<g style="mix-blend-mode:overlay" opacity="0.96">
<path fill-rule="evenodd" clip-rule="evenodd" d="M1494.64 622.301C1468.68 637.873 1447.78 661.722 1438.27 691.879C1425.04 733.684 1435.26 780.772 1424.38 823.343C1416.86 852.934 1399.23 880.71 1402.33 911.497C1404.86 936.345 1420.83 958.345 1439.69 974.737C1460.86 993.103 1485.94 1006.02 1512.73 1012.37C1535.57 1017.74 1560.59 1017.86 1580.4 1006.08C1597.54 995.86 1608.9 977.999 1624.85 965.963C1658.15 940.843 1705.65 944.626 1742.57 925.134C1849.26 868.729 1755.19 712.615 1690.47 658.827C1651.07 626.096 1594.24 594.874 1543.43 604.03C1526.15 607.137 1509.65 613.32 1494.64 622.301V622.301Z" stroke="#8989C7" stroke-width="0.58" stroke-miterlimit="10"/>
</g>
<g style="mix-blend-mode:overlay" opacity="0.96">
<path fill-rule="evenodd" clip-rule="evenodd" d="M1670.8 913.979C1686.17 909.073 1702.19 906.125 1717.37 900.67C1732.55 895.215 1747.7 886.561 1756.88 872.861C1765.88 859.463 1768.56 842.233 1766.79 825.748C1762.66 787.061 1736.47 754.269 1710.12 725.474C1689.9 703.404 1668.76 681.991 1644.69 664.498C1603.89 634.774 1545.04 611.253 1501.19 643.751C1451.86 680.398 1443.58 759.185 1443.31 817.694C1443.19 843.52 1445.18 869.882 1454.31 894.273C1463.44 918.664 1480.53 941.08 1503.89 951.855C1531.11 964.388 1562.55 959.492 1589.86 949.118C1617.16 938.745 1642.35 923.227 1670.16 914.213L1670.8 913.979Z" stroke="#8989C7" stroke-width="0.44" stroke-miterlimit="10"/>
</g>
</g>
<path d="M769.658 397.278L776.369 389.895L766.302 387.211L770.329 368.418C768.987 364.392 753.55 352.311 749.188 351.64L733.08 357.344L729.389 347.613C729.389 347.613 729.389 347.613 729.053 347.613L722.342 354.995C721.335 356.002 720.999 357.68 721.67 359.694L729.389 384.19C730.731 388.217 735.093 392.244 739.456 393.251L764.624 398.62C766.973 398.62 768.651 398.285 769.658 397.278ZM749.523 366.741C751.872 367.076 754.221 369.425 754.892 371.774L758.584 382.848L755.228 382.177L753.886 383.855L738.449 371.439L739.792 369.761L738.114 364.392L749.523 366.741Z" fill="#8989C7"/>
<path d="M766.638 399.291C765.967 399.291 765.296 399.291 764.96 398.955L739.792 393.586C735.094 392.579 730.396 388.217 729.054 383.854L721.336 359.357C720.664 357.008 721 354.995 722.342 353.652L729.389 345.599L730.732 345.934L731.067 346.605L734.423 355.33L749.859 349.961H750.195C754.893 350.968 770.665 363.384 772.007 367.747V368.082L767.645 385.868L777.377 388.217L777.712 389.559L777.377 390.23L770.665 397.613C769.658 398.955 768.316 399.291 766.638 399.291ZM729.054 348.954L723.349 355.33C722.678 356.001 722.342 357.344 723.013 359.022L730.732 383.519C732.074 387.21 736.101 390.901 739.792 391.908L764.96 397.277C766.638 397.613 767.98 397.277 768.652 396.606L774.356 390.23L765.296 387.881L764.96 386.874L768.987 368.082C767.309 364.391 753.215 353.317 749.188 352.31L733.081 358.015L732.074 357.679L731.738 357.008L729.054 348.954ZM753.886 384.525C753.551 384.525 753.551 384.525 753.215 384.19L737.443 371.438V371.102C737.443 370.767 737.443 370.767 738.45 369.424L738.785 369.089L736.772 364.055L737.779 363.049H738.45L749.859 365.398C752.544 366.069 755.229 368.418 756.235 371.102L760.598 384.19L756.235 382.847L755.9 383.183C754.893 384.19 754.222 384.525 753.886 384.525ZM740.128 371.102L753.886 382.176C754.893 381.17 754.893 380.834 755.564 381.17L756.907 381.505L753.886 372.109C753.215 370.096 751.202 368.418 749.188 367.747L739.792 365.733L741.135 369.089C741.135 369.76 741.134 369.76 740.128 371.102Z" fill="#171753"/>
<path d="M759.256 351.639L734.088 346.27C730.061 345.263 727.712 347.948 729.054 351.975L737.108 376.472C738.45 380.499 742.813 384.525 747.175 385.532L772.343 390.901C776.37 391.908 778.719 389.224 777.377 385.197L769.323 360.7C767.645 356.337 763.283 352.31 759.256 351.639ZM765.967 377.478C766.638 379.827 765.296 381.17 763.283 380.499L749.524 377.478C747.175 377.143 744.826 374.794 744.155 372.78L739.792 359.357C739.121 357.008 740.464 355.666 742.477 356.337L756.236 359.357C758.585 359.693 760.934 362.042 761.605 364.055L765.967 377.478Z" fill="#ECFFFE"/>
<path d="M773.35 391.908C772.679 391.908 772.007 391.908 771.672 391.573L746.504 386.203C741.806 385.197 737.108 380.834 735.765 376.472L727.711 352.31C727.04 349.961 727.376 347.948 728.383 346.606C729.725 345.263 731.738 344.592 734.087 345.263L759.256 350.632C763.954 351.639 768.652 356.002 769.994 360.364L778.048 384.861C778.719 387.21 778.383 389.224 777.377 390.566C776.37 391.237 775.028 391.908 773.35 391.908ZM732.41 346.941C731.403 346.941 730.732 347.277 730.06 347.612C729.389 348.283 729.389 349.626 729.725 351.304L737.779 375.801C739.121 379.492 743.148 383.183 746.839 384.19L772.007 389.559C773.685 389.895 775.028 389.559 775.699 388.888C776.37 388.217 776.37 386.875 776.034 385.197L767.98 360.7C766.638 357.008 762.611 353.317 758.92 352.31L733.752 346.941C733.416 347.277 732.745 346.941 732.41 346.941ZM764.289 381.841C763.954 381.841 763.618 381.841 763.282 381.841L749.524 378.821C746.839 378.15 744.155 375.801 743.483 373.116L739.121 359.693C738.785 358.351 738.785 357.008 739.792 356.002C740.463 354.995 741.806 354.659 743.483 354.995L757.242 358.015C759.927 358.686 762.611 361.035 763.282 363.72L767.645 377.143C767.98 378.485 767.98 379.828 766.974 380.834C765.967 381.505 765.296 381.841 764.289 381.841ZM741.806 357.008C741.47 357.008 741.134 357.008 740.799 357.344C740.463 357.68 740.463 358.015 740.799 358.686L745.161 372.109C745.833 373.787 747.846 375.801 749.859 376.136L763.618 379.156C764.289 379.156 764.96 379.156 764.96 378.821C765.296 378.485 765.296 378.15 764.96 377.478L760.598 364.055C759.927 362.378 757.913 360.364 755.9 360.029L742.141 357.008C742.141 357.344 741.806 357.008 741.806 357.008Z" fill="#171753"/>
<path d="M739.654 381.301L732.891 388.758L734.631 390.336L741.394 382.879L739.654 381.301Z" fill="#171753"/>
<path d="M758.919 360.331L752.16 367.792L753.901 369.369L760.66 361.908L758.919 360.331Z" fill="#171753"/>
<path d="M729.022 353.623L722.263 361.084L724.004 362.661L730.763 355.2L729.022 353.623Z" fill="#171753"/>
<path d="M766.446 388.631L759.687 396.092L761.427 397.669L768.187 390.209L766.446 388.631Z" fill="#171753"/>
</g>
<defs>
<clipPath id="clip0_1244_6292">
<rect width="1440" height="1024" fill="white"/>
</clipPath>
</defs>
</svg>
