<svg width="850" height="675" viewBox="0 0 850 675" fill="none" xmlns="http://www.w3.org/2000/svg">
<g clip-path="url(#clip0_712_32)">
<rect width="850" height="675" fill="#171753"/>
<path opacity="0.8" d="M-199.492 336.512L-193.841 320.735C-172.172 259.987 -149.764 197.187 -101.657 161.421C-72.9545 140.082 -38.0188 131.142 -4.23484 122.505C23.6956 115.37 52.5875 107.983 78.1403 93.6224C129.236 64.9232 163.907 9.6109 188.409 -35.37C194.642 -46.8024 200.762 -58.5368 206.699 -69.9117C227.473 -109.694 248.921 -150.851 277.754 -184.626C279.054 -186.164 280.368 -187.652 281.692 -189.161L283.396 -192.773C281.251 -190.445 279.086 -188.019 276.92 -185.483C248.016 -151.613 226.528 -110.397 205.724 -70.5505C199.791 -59.1864 193.666 -47.4412 187.443 -36.0028C163.008 8.8383 128.457 63.9749 77.5621 92.6011C52.1347 106.885 23.3129 114.259 -4.5625 121.386C-38.4417 130.062 -73.4674 139.003 -102.346 160.471C-150.688 196.358 -173.157 259.342 -194.858 320.264C-196.745 325.567 -198.629 330.826 -200.509 336.042C-209.168 360.013 -219.598 385.818 -232.924 409.561L-231.928 410.156C-218.607 386.342 -208.166 360.515 -199.492 336.512Z" fill="#8989C7"/>
<path d="M133.004 -72.8898C126.874 -52.9819 128 -33.0884 130.592 -13.0435C133.077 6.21618 136.144 25.7934 132.6 45.5521C125.337 86.2247 96.2419 117.711 66.6888 139.785C33.6544 164.434 -4.01147 182.376 -32.1964 214.963C-46.0219 230.951 -56.9627 251.171 -58.2942 273.524C-59.4443 292.055 -52.7574 307.895 -42.1132 320.706C-36.0628 327.99 -29.2109 334.271 -22.2842 340.432L-24.7518 344.357C-26.717 342.611 -28.6755 340.87 -30.6041 339.082C-41.7982 328.675 -52.8515 317.072 -58.5389 301.489C-65.0216 283.826 -63.146 263.091 -55.9889 245.243C-47.2481 223.46 -31.6013 206.087 -14.9751 191.854C1.03864 178.133 18.4974 166.969 35.7773 155.628C68.7486 133.993 104.089 109.067 121.425 68.4846C125.538 59.0072 128.259 48.888 129.474 38.5519C130.613 28.3497 130.089 18.1492 129.032 8.09642C126.948 -11.5464 122.842 -31.1269 124.584 -51.2673C126.47 -72.3056 134.233 -92.4383 146.714 -108.66L146.764 -108.739L150.145 -106.062C142.578 -96.3341 136.746 -85.0473 133.004 -72.8898V-72.8898Z" fill="#5ED9D1"/>
<path d="M218.06 -90.4768C202.683 -29.2743 154.214 13.1411 116.242 37.9328C96.711 50.7022 76.0479 61.8387 56.0666 72.6103C30.1985 86.5574 3.45504 100.992 -21.0494 119.041C-44.9583 136.657 -100.934 185.091 -104.326 254.022C-106.261 293.658 -89.9703 335.184 -55.903 377.444C-52.6962 381.41 -49.3862 385.336 -46.0569 389.231L-46.7006 390.255C-50.0839 386.302 -53.4392 382.325 -56.7021 378.283C-90.968 335.805 -107.337 293.972 -105.383 253.997C-101.98 184.493 -45.6559 135.752 -21.5986 118.023C2.96166 99.9266 29.7417 85.4746 55.64 71.5207C75.6062 60.7526 96.2392 49.6229 115.736 36.8876C153.521 12.2085 201.723 -29.9886 217.025 -90.7437C222.462 -112.407 223.398 -135.363 224.294 -157.555C224.665 -166.801 225.06 -176.168 225.782 -185.52L226.792 -184.72C226.118 -175.651 225.732 -166.586 225.384 -157.581C224.475 -135.308 223.547 -112.283 218.06 -90.4768Z" fill="#ECFFFE"/>
<path d="M24.7889 88.6472C23.8587 87.9086 22.2123 88.0351 21.215 89.6218C20.2177 91.2085 20.6618 92.995 21.592 93.7337C22.5223 94.4724 24.1687 94.3459 25.166 92.7591C26.1633 91.1724 25.7191 89.3859 24.7889 88.6472Z" stroke="#ECFFFE" stroke-width="4.76314"/>
<g opacity="0.3">
<path opacity="0.8" d="M-208.293 766.43C-208.293 766.43 -95.2817 662.938 214.57 736.12C380.153 775.239 435.088 669.112 507.059 650.781C615.601 623.212 698.081 720.297 872.421 541.235" stroke="#8989C7" stroke-width="1.28882" stroke-miterlimit="10"/>
<path opacity="0.8" d="M-205.693 779.116C-205.693 779.116 -88.4446 655.19 218.173 725.853C389.553 764.71 441.446 676.783 516.581 657.039C626.002 628.648 709.52 711.721 872.935 543.905" stroke="#8989C7" stroke-width="1.28882" stroke-miterlimit="10"/>
<path opacity="0.8" d="M-203.137 791.626C-203.137 791.626 -82.049 648.26 221.596 715.416C398.611 754.658 447.565 683.966 525.894 662.947C636.137 633.432 720.788 702.94 873.272 546.329" stroke="#8989C7" stroke-width="1.28882" stroke-miterlimit="10"/>
<path opacity="0.8" d="M-200.566 804.308C-200.566 804.308 -75.3353 640.768 225.214 705.201C408.069 744.311 453.914 691.491 535.408 669.04C646.503 638.529 732.236 694.186 873.782 548.735" stroke="#8989C7" stroke-width="1.28882" stroke-miterlimit="10"/>
<path opacity="0.8" d="M-198.004 817.006C-198.004 817.006 -68.8116 633.136 228.793 694.799C417.495 733.77 460.09 698.856 544.893 674.924C656.84 643.405 743.687 685.351 874.434 550.998" stroke="#8989C7" stroke-width="1.28882" stroke-miterlimit="10"/>
<path opacity="0.8" d="M-195.476 829.591C-195.476 829.591 -62.1925 625.296 232.334 684.213C426.747 723.074 466.38 706.002 554.379 680.759C667.18 648.217 755.11 676.297 874.914 553.06" stroke="#8989C7" stroke-width="1.28882" stroke-miterlimit="10"/>
<path opacity="0.8" d="M-192.915 842.398C-192.915 842.398 -55.441 617.425 235.901 673.77C436.174 712.475 472.739 713.443 563.875 686.586C677.559 653.152 766.4 667.239 875.401 555.073" stroke="#8989C7" stroke-width="1.28882" stroke-miterlimit="10"/>
<path opacity="0.8" d="M-190.345 855.38C-190.345 855.38 -48.8452 609.654 239.467 663.373C445.752 701.873 479.087 720.8 573.39 692.454C687.958 658.105 777.878 658.28 875.933 557.202" stroke="#8989C7" stroke-width="1.28882" stroke-miterlimit="10"/>
<path opacity="0.8" d="M-187.781 868.598C-187.781 868.598 -42.1824 601.716 242.864 653.004C455.008 691.167 485.33 728.361 582.802 698.485C698.369 662.996 789.221 649.243 876.469 559.182" stroke="#8989C7" stroke-width="1.28882" stroke-miterlimit="10"/>
<path opacity="0.8" d="M-185.178 881.975C-185.178 881.975 -35.4923 593.862 246.425 642.685C464.427 680.511 491.72 735.888 592.36 704.475C708.811 668.026 800.725 640.265 877.03 561.302" stroke="#8989C7" stroke-width="1.28882" stroke-miterlimit="10"/>
<path opacity="0.8" d="M-182.566 895.366C-182.566 895.366 -28.8346 585.796 249.977 632.304C473.918 669.461 498.112 743.413 601.92 710.456C719.255 673.043 812.191 631.085 877.559 563.265" stroke="#8989C7" stroke-width="1.28882" stroke-miterlimit="10"/>
<path opacity="0.8" d="M-179.976 908.628C-179.976 908.628 -22.2102 577.518 253.49 621.712C483.431 658.491 504.536 751.086 611.481 716.43C729.7 678.05 823.677 621.993 878.114 565.362" stroke="#8989C7" stroke-width="1.28882" stroke-miterlimit="10"/>
<path opacity="0.8" d="M-177.348 922.047C-177.348 922.047 -15.5553 569.332 257.027 611.216C492.792 647.507 510.933 758.623 621.045 722.411C740.146 683.064 835.125 612.718 878.635 567.326" stroke="#8989C7" stroke-width="1.28882" stroke-miterlimit="10"/>
<path opacity="0.8" d="M-174.711 935.484C-174.711 935.484 -8.7878 560.907 260.416 600.705C502.117 636.321 517.28 766.648 630.468 728.434C750.511 688.412 846.453 603.584 879.186 569.441" stroke="#8989C7" stroke-width="1.28882" stroke-miterlimit="10"/>
<path opacity="0.8" d="M-172.1 948.774C-172.1 948.774 -2.1638 552.458 263.912 589.949C511.689 624.852 523.679 774.196 640.004 734.268C760.928 693.278 857.855 594.071 879.672 571.263" stroke="#8989C7" stroke-width="1.28882" stroke-miterlimit="10"/>
<path opacity="0.8" d="M-169.43 962.558C-169.43 962.558 4.65176 543.584 267.44 579.422C521.211 613.156 530.109 781.942 649.63 740.561C771.435 698.572 869.365 585.034 880.271 573.602" stroke="#8989C7" stroke-width="1.28882" stroke-miterlimit="10"/>
<path opacity="0.8" d="M-166.75 976.41C-166.75 976.41 11.3349 535.495 270.964 568.87C530.593 602.244 536.574 789.891 659.23 746.755C781.886 703.619 880.809 575.691 880.809 575.691" stroke="#8989C7" stroke-width="1.28882" stroke-miterlimit="10"/>
</g>
<path opacity="0.8" d="M590.298 748.5L595.949 732.722C617.618 671.975 640.026 609.174 688.133 573.408C716.836 552.069 751.771 543.129 785.555 534.493C813.486 527.357 842.378 519.97 867.93 505.61C919.026 476.91 953.697 421.598 978.199 376.617C984.432 365.185 990.552 353.45 996.489 342.076C1017.26 302.294 1038.71 261.137 1067.54 227.361C1068.84 225.823 1070.16 224.335 1071.48 222.826L1073.19 219.214C1071.04 221.542 1068.88 223.968 1066.71 226.504C1037.81 260.375 1016.32 301.59 995.514 341.437C989.581 352.801 983.456 364.546 977.234 375.985C952.798 420.826 918.247 475.962 867.352 504.588C841.925 518.872 813.103 526.246 785.228 533.373C751.348 542.049 716.323 550.991 687.444 572.458C639.102 608.345 616.633 671.33 594.932 732.252C593.045 737.555 591.161 742.814 589.281 748.029C580.622 772 570.192 797.806 556.866 821.548L557.862 822.144C571.183 798.33 581.624 772.503 590.298 748.5Z" fill="#ECFFFE"/>
<path d="M906.984 402.075C902.167 419.111 903.85 436.445 906.85 453.973C909.729 470.815 913.139 487.957 910.633 504.974C905.504 540.005 880.507 566.12 854.781 584.037C826.024 604.043 792.891 618.023 768.747 645.133C756.903 658.434 747.787 675.536 747.352 694.902C746.949 710.955 753.475 725.005 763.444 736.591C769.11 743.18 775.461 748.93 781.874 754.58L779.797 757.885C777.977 756.283 776.164 754.687 774.376 753.051C763.996 743.529 753.701 732.975 748.079 719.191C741.674 703.567 742.652 685.63 748.459 670.427C755.551 651.873 768.979 637.446 783.391 625.789C797.271 614.551 812.533 605.598 827.628 596.482C856.43 579.092 887.244 558.944 901.4 524.423C904.763 516.363 906.857 507.687 907.596 498.758C908.271 489.942 907.456 481.056 906.169 472.276C903.637 455.118 899.296 437.929 900.175 420.503C901.152 402.303 907.424 385.141 918.055 371.58L918.097 371.513L921.217 373.984C914.767 382.113 909.925 391.671 906.984 402.075V402.075Z" fill="#8989C7"/>
<path d="M1023.34 349.891C1007.31 421.859 949.781 469.52 904.323 496.813C880.942 510.872 856.096 522.921 832.07 534.575C800.966 549.665 768.809 565.285 739.569 585.338C711.039 604.911 644.58 659.298 643.613 741.17C643.076 788.248 664.999 838.644 708.775 890.957C712.895 895.867 717.139 900.735 721.407 905.567L720.664 906.748C716.328 901.844 712.025 896.912 707.833 891.909C663.803 839.325 641.77 788.559 642.314 741.078C643.268 658.525 710.141 603.792 738.848 584.094C768.154 563.987 800.355 548.349 831.496 533.253C855.504 521.602 880.313 509.559 903.653 495.539C948.887 468.369 1006.1 420.953 1022.06 349.513C1027.73 324.039 1027.81 296.761 1027.88 270.392C1027.91 259.404 1027.96 248.276 1028.41 237.183L1029.69 238.194C1029.28 248.952 1029.23 259.724 1029.22 270.424C1029.14 296.89 1029.07 324.25 1023.34 349.891Z" fill="#5ED9D1"/>
<path d="M794.584 551.547C792.936 550.238 790.684 550.62 789.556 552.415C788.427 554.21 788.86 556.723 790.507 558.031C792.155 559.339 794.407 558.958 795.535 557.163C796.664 555.368 796.231 552.855 794.584 551.547Z" stroke="#5ED9D1" stroke-width="4.76314"/>
<g opacity="0.2" clip-path="url(#clip1_712_32)">
<path d="M841.869 186.661C843.029 186.991 843.745 188.311 843.474 189.603C843.177 190.896 841.992 191.693 840.832 191.391C839.672 191.061 838.956 189.741 839.227 188.449C839.499 187.129 840.684 186.331 841.869 186.661Z" fill="#5ED9D1"/>
<path d="M852.238 191.583C853.473 191.913 854.214 193.316 853.917 194.663C853.621 196.038 852.362 196.863 851.152 196.533C849.918 196.203 849.177 194.8 849.473 193.453C849.77 192.078 851.004 191.253 852.238 191.583Z" fill="#5ED9D1"/>
<path d="M852.46 126.225C853.719 126.582 854.484 127.985 854.163 129.36C853.842 130.762 852.583 131.614 851.349 131.257C850.09 130.899 849.324 129.497 849.645 128.122C849.942 126.72 851.201 125.868 852.46 126.225Z" fill="#5ED9D1"/>
<path d="M844.536 158.478C845.77 158.808 846.535 160.21 846.239 161.612C845.943 162.987 844.684 163.84 843.425 163.51C842.19 163.18 841.425 161.777 841.721 160.375C842.017 158.973 843.276 158.121 844.536 158.478Z" fill="#5ED9D1"/>
<path d="M831.748 206.128C832.784 206.403 833.402 207.586 833.155 208.713C832.908 209.868 831.846 210.555 830.834 210.28C829.797 210.005 829.18 208.823 829.427 207.696C829.674 206.568 830.711 205.853 831.748 206.128Z" fill="#5ED9D1"/>
<path d="M842.733 211.655C843.82 211.958 844.486 213.195 844.215 214.405C843.943 215.615 842.832 216.357 841.746 216.055C840.66 215.752 839.993 214.515 840.265 213.305C840.536 212.095 841.647 211.38 842.733 211.655Z" fill="#5ED9D1"/>
<path d="M843.202 121.441C844.387 121.771 845.127 123.118 844.831 124.438C844.535 125.757 843.325 126.582 842.14 126.252C840.955 125.922 840.215 124.575 840.511 123.255C840.807 121.908 841.992 121.111 843.202 121.441Z" fill="#5ED9D1"/>
<path d="M834.66 153.336C835.82 153.666 836.511 154.959 836.24 156.251C835.944 157.543 834.783 158.313 833.623 158.011C832.463 157.681 831.771 156.388 832.043 155.096C832.339 153.804 833.524 153.006 834.66 153.336Z" fill="#5ED9D1"/>
<path d="M831.428 181.244C832.539 181.547 833.205 182.811 832.934 184.049C832.662 185.286 831.526 186.028 830.415 185.726C829.305 185.424 828.638 184.159 828.91 182.921C829.181 181.684 830.317 180.942 831.428 181.244Z" fill="#5ED9D1"/>
<path d="M822.762 222.461C823.651 222.708 824.219 223.725 823.997 224.715C823.774 225.705 822.861 226.337 821.972 226.09C821.084 225.843 820.516 224.825 820.738 223.835C820.96 222.818 821.874 222.213 822.762 222.461Z" fill="#5ED9D1"/>
<path d="M834.389 228.51C835.352 228.785 835.945 229.857 835.698 230.93C835.451 232.002 834.488 232.662 833.525 232.387C832.563 232.112 831.97 231.04 832.217 229.967C832.464 228.922 833.427 228.263 834.389 228.51Z" fill="#5ED9D1"/>
<path d="M845.893 234.092C846.905 234.367 847.523 235.522 847.276 236.649C847.029 237.776 845.992 238.464 844.98 238.189C843.968 237.914 843.35 236.759 843.597 235.632C843.844 234.504 844.881 233.817 845.893 234.092Z" fill="#5ED9D1"/>
<path d="M849.917 80.1427C851.003 80.4452 851.67 81.6825 851.398 82.8923C851.127 84.1021 850.016 84.8445 848.93 84.5421C847.843 84.2396 847.177 83.0023 847.448 81.7925C847.72 80.5827 848.831 79.8403 849.917 80.1427Z" fill="#5ED9D1"/>
<path d="M833.821 116.162C834.908 116.465 835.574 117.702 835.303 118.912C835.031 120.122 833.92 120.864 832.834 120.562C831.748 120.259 831.081 119.022 831.353 117.812C831.624 116.602 832.735 115.86 833.821 116.162Z" fill="#5ED9D1"/>
<path d="M824.81 147.534C825.896 147.837 826.562 149.074 826.291 150.284C826.019 151.494 824.908 152.236 823.822 151.934C822.736 151.631 822.069 150.394 822.341 149.184C822.612 147.974 823.723 147.232 824.81 147.534Z" fill="#5ED9D1"/>
<path d="M820.959 175.25C822.021 175.552 822.662 176.735 822.391 177.917C822.119 179.099 821.058 179.814 819.996 179.512C818.935 179.209 818.293 178.027 818.564 176.845C818.836 175.662 819.897 174.948 820.959 175.25Z" fill="#5ED9D1"/>
<path d="M820.664 200.052C821.651 200.327 822.244 201.427 821.997 202.499C821.75 203.599 820.762 204.259 819.8 203.984C818.812 203.709 818.22 202.609 818.466 201.537C818.713 200.464 819.701 199.804 820.664 200.052Z" fill="#5ED9D1"/>
<path d="M814.071 236.346C814.812 236.566 815.281 237.391 815.084 238.243C814.886 239.068 814.146 239.591 813.38 239.371C812.64 239.151 812.17 238.326 812.368 237.473C812.565 236.621 813.331 236.126 814.071 236.346Z" fill="#5ED9D1"/>
<path d="M826.341 242.836C827.156 243.055 827.674 243.99 827.452 244.898C827.255 245.805 826.415 246.382 825.601 246.135C824.786 245.915 824.268 244.98 824.49 244.073C824.687 243.165 825.527 242.616 826.341 242.836Z" fill="#5ED9D1"/>
<path d="M838.463 248.829C839.352 249.076 839.871 250.066 839.673 251.056C839.451 252.046 838.562 252.623 837.673 252.403C836.785 252.156 836.266 251.166 836.464 250.176C836.686 249.186 837.575 248.581 838.463 248.829Z" fill="#5ED9D1"/>
<path d="M840.34 75.4128C841.327 75.6878 841.944 76.8151 841.698 77.9149C841.451 79.0148 840.438 79.7022 839.451 79.4272C838.463 79.1523 837.846 78.0249 838.093 76.9251C838.34 75.7978 839.352 75.1379 840.34 75.4128Z" fill="#5ED9D1"/>
<path d="M824.34 110.333C825.353 110.608 825.97 111.763 825.723 112.89C825.476 114.017 824.439 114.705 823.427 114.43C822.415 114.155 821.798 113 822.045 111.873C822.291 110.745 823.328 110.058 824.34 110.333Z" fill="#5ED9D1"/>
<path d="M814.91 141.211C815.898 141.486 816.515 142.613 816.268 143.713C816.021 144.813 815.009 145.5 814.021 145.225C813.034 144.95 812.417 143.823 812.663 142.723C812.886 141.623 813.898 140.936 814.91 141.211Z" fill="#5ED9D1"/>
<path d="M810.467 168.651C811.454 168.926 812.071 170.053 811.824 171.153C811.578 172.253 810.565 172.94 809.578 172.665C808.59 172.391 807.973 171.263 808.22 170.163C808.467 169.036 809.479 168.376 810.467 168.651Z" fill="#5ED9D1"/>
<path d="M807.43 195.425C807.504 196.469 808.325 197.249 809.263 197.166C810.2 197.083 810.9 196.169 810.826 195.125C810.752 194.08 809.931 193.301 808.993 193.383C808.055 193.466 807.355 194.38 807.43 195.425Z" fill="#5ED9D1"/>
<path d="M811.059 215.862C811.898 216.082 812.417 217.044 812.195 217.979C811.997 218.914 811.133 219.492 810.294 219.244C809.454 219.024 808.936 218.062 809.158 217.127C809.356 216.192 810.22 215.615 811.059 215.862Z" fill="#5ED9D1"/>
<path d="M805.134 248.169C805.702 248.334 806.072 248.967 805.924 249.627C805.776 250.259 805.208 250.671 804.616 250.506C804.048 250.341 803.678 249.709 803.826 249.049C803.974 248.417 804.542 248.004 805.134 248.169Z" fill="#5ED9D1"/>
<path d="M817.615 257.832C818.323 257.883 818.933 257.285 818.979 256.497C819.025 255.709 818.489 255.029 817.781 254.978C817.074 254.927 816.463 255.525 816.417 256.313C816.371 257.101 816.908 257.781 817.615 257.832Z" fill="#5ED9D1"/>
<path d="M830.711 261.505C831.427 261.698 831.847 262.495 831.674 263.292C831.501 264.09 830.785 264.557 830.069 264.365C829.353 264.172 828.934 263.375 829.107 262.577C829.304 261.78 830.02 261.313 830.711 261.505Z" fill="#5ED9D1"/>
<path d="M843.277 267.389C844.043 267.609 844.512 268.462 844.314 269.314C844.117 270.166 843.351 270.689 842.586 270.469C841.821 270.249 841.352 269.396 841.549 268.544C841.722 267.692 842.512 267.169 843.277 267.389Z" fill="#5ED9D1"/>
<path d="M830.317 70.2986C831.205 70.546 831.749 71.5359 831.526 72.5257C831.304 73.5156 830.415 74.1205 829.527 73.873C828.638 73.6256 828.095 72.6357 828.317 71.6459C828.539 70.656 829.428 70.0511 830.317 70.2986Z" fill="#5ED9D1"/>
<path d="M814.688 103.871C815.651 104.146 816.244 105.219 815.997 106.291C815.75 107.363 814.787 108.023 813.824 107.748C812.861 107.473 812.269 106.401 812.516 105.329C812.763 104.284 813.725 103.624 814.688 103.871Z" fill="#5ED9D1"/>
<path d="M804.987 134.172C805.95 134.447 806.542 135.519 806.296 136.591C806.049 137.664 805.086 138.324 804.123 138.049C803.16 137.774 802.568 136.701 802.815 135.629C803.037 134.557 804.024 133.897 804.987 134.172Z" fill="#5ED9D1"/>
<path d="M799.974 161.448C800.887 161.695 801.455 162.74 801.233 163.757C801.011 164.775 800.073 165.407 799.159 165.16C798.246 164.912 797.678 163.867 797.9 162.85C798.122 161.805 799.036 161.2 799.974 161.448Z" fill="#5ED9D1"/>
<path d="M798.42 186.111C799.284 186.359 799.802 187.321 799.605 188.283C799.382 189.246 798.518 189.823 797.654 189.603C796.79 189.356 796.272 188.393 796.469 187.431C796.691 186.469 797.556 185.891 798.42 186.111Z" fill="#5ED9D1"/>
<path d="M799.283 208.658C800.048 208.878 800.518 209.73 800.32 210.582C800.123 211.435 799.357 211.957 798.592 211.737C797.827 211.517 797.358 210.665 797.555 209.813C797.753 208.96 798.518 208.438 799.283 208.658Z" fill="#5ED9D1"/>
<path d="M801.752 229.225C802.443 229.417 802.862 230.187 802.69 230.957C802.517 231.727 801.826 232.194 801.134 232.002C800.443 231.81 800.023 231.04 800.196 230.27C800.369 229.5 801.06 229.032 801.752 229.225Z" fill="#5ED9D1"/>
<path d="M795.505 258.261C795.9 258.371 796.147 258.838 796.049 259.278C795.95 259.718 795.53 259.993 795.135 259.883C794.74 259.773 794.493 259.305 794.592 258.866C794.715 258.426 795.11 258.151 795.505 258.261Z" fill="#5ED9D1"/>
<path d="M808.937 265.629C809.406 265.766 809.678 266.289 809.554 266.784C809.431 267.306 808.962 267.609 808.517 267.471C808.048 267.334 807.777 266.811 807.9 266.316C808.024 265.821 808.493 265.519 808.937 265.629Z" fill="#5ED9D1"/>
<path d="M822.267 272.421C822.786 272.559 823.107 273.163 822.983 273.741C822.86 274.318 822.317 274.676 821.798 274.538C821.28 274.401 820.959 273.796 821.082 273.218C821.206 272.614 821.749 272.256 822.267 272.421Z" fill="#5ED9D1"/>
<path d="M835.45 278.525C836.068 278.69 836.463 279.405 836.315 280.12C836.166 280.807 835.525 281.247 834.883 281.082C834.265 280.917 833.87 280.202 834.019 279.487C834.167 278.8 834.809 278.36 835.45 278.525Z" fill="#5ED9D1"/>
<path d="M848.412 284.244C849.128 284.437 849.548 285.234 849.375 286.032C849.202 286.829 848.487 287.296 847.771 287.104C847.055 286.911 846.635 286.114 846.808 285.317C846.981 284.519 847.697 284.052 848.412 284.244Z" fill="#5ED9D1"/>
<path d="M839.918 30.3469C840.585 30.5394 840.98 31.2818 840.807 31.9967C840.634 32.7391 839.968 33.179 839.326 32.9865C838.659 32.7941 838.264 32.0517 838.437 31.3368C838.585 30.5944 839.252 30.1545 839.918 30.3469Z" fill="#5ED9D1"/>
<path d="M819.824 64.7445C820.59 64.9645 821.034 65.7893 820.861 66.6417C820.664 67.4941 819.923 67.989 819.158 67.7965C818.393 67.5766 817.948 66.7517 818.121 65.8993C818.318 65.047 819.084 64.552 819.824 64.7445Z" fill="#5ED9D1"/>
<path d="M804.813 97.0522C805.653 97.2722 806.146 98.2071 805.949 99.1419C805.751 100.077 804.912 100.627 804.073 100.407C803.233 100.187 802.739 99.2519 802.937 98.317C803.159 97.3822 803.998 96.8323 804.813 97.0522Z" fill="#5ED9D1"/>
<path d="M794.988 126.61C795.852 126.858 796.37 127.82 796.173 128.782C795.951 129.745 795.087 130.322 794.223 130.102C793.359 129.855 792.84 128.892 793.038 127.93C793.235 126.968 794.124 126.39 794.988 126.61Z" fill="#5ED9D1"/>
<path d="M789.458 153.611C790.297 153.831 790.791 154.766 790.593 155.701C790.396 156.635 789.556 157.185 788.717 156.965C787.878 156.745 787.384 155.81 787.581 154.876C787.804 153.941 788.643 153.391 789.458 153.611Z" fill="#5ED9D1"/>
<path d="M787.285 178.248C788.05 178.468 788.52 179.32 788.322 180.172C788.125 181.025 787.359 181.547 786.594 181.327C785.829 181.107 785.359 180.255 785.557 179.402C785.754 178.55 786.52 178.028 787.285 178.248Z" fill="#5ED9D1"/>
<path d="M787.532 200.711C788.248 200.904 788.692 201.729 788.519 202.526C788.347 203.324 787.606 203.819 786.89 203.626C786.174 203.434 785.73 202.609 785.902 201.811C786.075 201.014 786.791 200.519 787.532 200.711Z" fill="#5ED9D1"/>
<path d="M789.359 221.443C790.001 221.608 790.371 222.323 790.223 223.038C790.075 223.753 789.433 224.166 788.791 224.001C788.15 223.836 787.779 223.121 787.927 222.406C788.1 221.691 788.742 221.278 789.359 221.443Z" fill="#5ED9D1"/>
<path d="M792.173 240.58C792.691 240.718 793.012 241.295 792.864 241.873C792.741 242.45 792.222 242.807 791.704 242.642C791.185 242.505 790.864 241.928 791.013 241.35C791.136 240.8 791.679 240.443 792.173 240.58Z" fill="#5ED9D1"/>
<path d="M785.013 266.784C785.235 266.839 785.359 267.087 785.31 267.334C785.26 267.582 785.038 267.719 784.816 267.664C784.594 267.609 784.47 267.362 784.519 267.114C784.569 266.867 784.791 266.73 785.013 266.784Z" fill="#5ED9D1"/>
<path d="M798.963 274.621C799.259 274.703 799.432 275.033 799.358 275.363C799.284 275.693 798.988 275.885 798.691 275.803C798.395 275.72 798.222 275.39 798.296 275.061C798.395 274.731 798.691 274.538 798.963 274.621Z" fill="#5ED9D1"/>
<path d="M812.837 281.797C813.183 281.907 813.405 282.292 813.307 282.677C813.208 283.062 812.862 283.309 812.517 283.199C812.171 283.089 811.949 282.704 812.047 282.319C812.146 281.934 812.492 281.687 812.837 281.797Z" fill="#5ED9D1"/>
<path d="M826.563 288.313C826.983 288.423 827.254 288.918 827.155 289.385C827.057 289.853 826.612 290.155 826.193 290.045C825.773 289.935 825.501 289.44 825.6 288.973C825.724 288.478 826.143 288.203 826.563 288.313Z" fill="#5ED9D1"/>
<path d="M840.142 294.279C840.661 294.417 840.982 295.022 840.858 295.599C840.735 296.177 840.192 296.534 839.673 296.397C839.155 296.259 838.834 295.654 838.957 295.077C839.081 294.499 839.599 294.142 840.142 294.279Z" fill="#5ED9D1"/>
<path d="M826.958 26.3606C827.501 26.4981 827.822 27.103 827.698 27.7079C827.575 28.3128 827.032 28.6702 826.489 28.5328C825.945 28.3953 825.624 27.7904 825.748 27.1855C825.871 26.5805 826.415 26.1956 826.958 26.3606Z" fill="#5ED9D1"/>
<path d="M808.961 58.6401C809.628 58.8326 810.023 59.575 809.85 60.2899C809.677 61.0047 809.011 61.4722 808.369 61.2797C807.702 61.0872 807.307 60.3448 807.48 59.63C807.628 58.9151 808.295 58.4751 808.961 58.6401Z" fill="#5ED9D1"/>
<path d="M794.741 89.6558C795.457 89.8483 795.901 90.6731 795.728 91.4705C795.556 92.2679 794.815 92.7628 794.099 92.5704C793.383 92.3779 792.939 91.553 793.111 90.7556C793.309 89.9583 794.025 89.4633 794.741 89.6558Z" fill="#5ED9D1"/>
<path d="M784.939 118.471C785.705 118.691 786.174 119.543 785.976 120.396C785.779 121.248 785.013 121.771 784.248 121.551C783.483 121.331 783.014 120.478 783.211 119.626C783.384 118.774 784.149 118.279 784.939 118.471Z" fill="#5ED9D1"/>
<path d="M779.016 145.06C779.781 145.28 780.25 146.132 780.052 146.985C779.855 147.837 779.09 148.36 778.324 148.14C777.559 147.92 777.09 147.067 777.287 146.215C777.46 145.363 778.25 144.84 779.016 145.06Z" fill="#5ED9D1"/>
<path d="M776.225 169.587C776.941 169.779 777.361 170.576 777.188 171.374C777.015 172.171 776.299 172.639 775.583 172.446C774.867 172.254 774.447 171.456 774.62 170.659C774.793 169.889 775.509 169.394 776.225 169.587Z" fill="#5ED9D1"/>
<path d="M775.781 192.188C776.423 192.353 776.793 193.067 776.645 193.782C776.497 194.497 775.855 194.91 775.213 194.745C774.571 194.58 774.201 193.865 774.349 193.15C774.522 192.435 775.164 192.023 775.781 192.188Z" fill="#5ED9D1"/>
<path d="M776.991 213.057C777.534 213.194 777.855 213.827 777.731 214.404C777.608 215.009 777.04 215.367 776.522 215.229C775.979 215.092 775.658 214.459 775.781 213.882C775.905 213.277 776.448 212.892 776.991 213.057Z" fill="#5ED9D1"/>
<path d="M779.238 232.276C779.707 232.414 779.978 232.936 779.855 233.431C779.732 233.954 779.263 234.256 778.818 234.119C778.349 233.981 778.078 233.459 778.201 232.964C778.3 232.469 778.769 232.166 779.238 232.276Z" fill="#5ED9D1"/>
<path d="M782.026 250.204C782.347 250.286 782.569 250.671 782.47 251.029C782.396 251.386 782.051 251.634 781.73 251.524C781.409 251.441 781.187 251.056 781.285 250.699C781.36 250.341 781.68 250.121 782.026 250.204Z" fill="#5ED9D1"/>
<path d="M773.46 273.933C773.485 273.933 773.51 273.988 773.51 274.015C773.51 274.043 773.46 274.071 773.435 274.071C773.411 274.071 773.386 274.015 773.386 273.988C773.411 273.933 773.435 273.905 773.46 273.933Z" fill="#5ED9D1"/>
<path d="M787.902 282.237C788.001 282.264 788.075 282.374 788.05 282.512C788.025 282.622 787.926 282.704 787.803 282.677C787.704 282.649 787.63 282.539 787.655 282.402C787.68 282.292 787.803 282.209 787.902 282.237Z" fill="#5ED9D1"/>
<path d="M802.27 289.853C802.418 289.908 802.517 290.073 802.492 290.265C802.443 290.43 802.295 290.54 802.122 290.513C801.974 290.458 801.875 290.293 801.9 290.1C801.949 289.935 802.122 289.825 802.27 289.853Z" fill="#5ED9D1"/>
<path d="M816.539 296.782C816.786 296.837 816.91 297.112 816.86 297.387C816.811 297.662 816.564 297.799 816.317 297.744C816.07 297.689 815.947 297.414 815.996 297.14C816.07 296.865 816.293 296.7 816.539 296.782Z" fill="#5ED9D1"/>
<path d="M830.638 303.079C830.958 303.161 831.131 303.519 831.057 303.876C830.983 304.234 830.662 304.426 830.341 304.344C830.02 304.261 829.848 303.904 829.922 303.546C829.996 303.216 830.317 302.996 830.638 303.079Z" fill="#5ED9D1"/>
<path d="M844.512 308.935C844.882 309.045 845.105 309.458 845.006 309.87C844.907 310.283 844.537 310.53 844.166 310.42C843.796 310.31 843.574 309.898 843.673 309.485C843.796 309.073 844.166 308.825 844.512 308.935Z" fill="#5ED9D1"/>
<path d="M813.751 21.714C814.121 21.824 814.343 22.2365 814.269 22.6489C814.17 23.0613 813.8 23.3088 813.43 23.2263C813.059 23.1163 812.837 22.7039 812.911 22.2915C813.01 21.879 813.38 21.6316 813.751 21.714Z" fill="#5ED9D1"/>
<path d="M797.778 52.0412C798.321 52.1787 798.666 52.8111 798.518 53.416C798.395 54.0209 797.827 54.4059 797.284 54.2409C796.741 54.1034 796.395 53.471 796.543 52.8661C796.691 52.2612 797.235 51.8763 797.778 52.0412Z" fill="#5ED9D1"/>
<path d="M784.52 81.7091C785.137 81.8741 785.532 82.589 785.36 83.2764C785.212 83.9638 784.57 84.4037 783.952 84.2113C783.335 84.0463 782.94 83.3314 783.113 82.644C783.261 81.9566 783.903 81.5442 784.52 81.7091Z" fill="#5ED9D1"/>
<path d="M774.843 109.728C775.535 109.92 775.954 110.69 775.781 111.46C775.609 112.23 774.917 112.697 774.226 112.505C773.535 112.312 773.115 111.543 773.288 110.773C773.461 110.003 774.152 109.535 774.843 109.728Z" fill="#5ED9D1"/>
<path d="M768.596 135.958C769.263 136.151 769.683 136.893 769.51 137.663C769.337 138.433 768.67 138.873 767.979 138.681C767.313 138.488 766.893 137.746 767.066 136.976C767.239 136.233 767.93 135.766 768.596 135.958Z" fill="#5ED9D1"/>
<path d="M765.24 160.293C765.882 160.457 766.277 161.172 766.104 161.887C765.956 162.602 765.314 163.042 764.672 162.85C764.03 162.685 763.635 161.97 763.808 161.255C763.956 160.567 764.623 160.128 765.24 160.293Z" fill="#5ED9D1"/>
<path d="M764.152 182.895C764.72 183.06 765.09 183.692 764.942 184.352C764.794 184.984 764.226 185.397 763.633 185.232C763.066 185.067 762.695 184.434 762.843 183.774C762.992 183.115 763.584 182.73 764.152 182.895Z" fill="#5ED9D1"/>
<path d="M764.695 203.846C765.164 203.983 765.461 204.506 765.337 205.056C765.214 205.578 764.72 205.908 764.251 205.77C763.782 205.633 763.486 205.083 763.609 204.561C763.732 204.038 764.202 203.736 764.695 203.846Z" fill="#5ED9D1"/>
<path d="M766.3 223.313C766.695 223.423 766.917 223.863 766.818 224.275C766.72 224.715 766.325 224.963 765.954 224.853C765.559 224.743 765.337 224.303 765.436 223.891C765.535 223.451 765.905 223.203 766.3 223.313Z" fill="#5ED9D1"/>
<path d="M768.523 241.378C768.794 241.46 768.967 241.763 768.893 242.065C768.819 242.368 768.547 242.56 768.276 242.477C768.004 242.395 767.831 242.093 767.905 241.79C767.98 241.488 768.251 241.323 768.523 241.378Z" fill="#5ED9D1"/>
<path d="M771.016 258.205C771.164 258.26 771.263 258.425 771.238 258.618C771.189 258.783 771.041 258.893 770.868 258.865C770.72 258.81 770.621 258.645 770.646 258.453C770.695 258.288 770.868 258.178 771.016 258.205Z" fill="#5ED9D1"/>
<path d="M760.942 279.075C761.09 279.102 761.165 279.267 761.14 279.432C761.115 279.597 760.967 279.68 760.819 279.652C760.671 279.625 760.597 279.46 760.621 279.295C760.646 279.13 760.794 279.02 760.942 279.075Z" fill="#5ED9D1"/>
<path d="M790.495 296.617L790.52 296.645L790.495 296.673L790.47 296.645C790.47 296.617 790.47 296.617 790.495 296.617Z" fill="#5ED9D1"/>
<path d="M805.233 304.014C805.307 304.041 805.332 304.096 805.332 304.179C805.307 304.261 805.258 304.289 805.184 304.289C805.11 304.261 805.085 304.206 805.085 304.124C805.085 304.041 805.159 304.014 805.233 304.014Z" fill="#5ED9D1"/>
<path d="M819.824 310.75C819.948 310.778 820.022 310.915 819.997 311.053C819.973 311.19 819.849 311.273 819.726 311.245C819.602 311.218 819.528 311.08 819.553 310.943C819.578 310.805 819.701 310.723 819.824 310.75Z" fill="#5ED9D1"/>
<path d="M834.266 316.854C834.464 316.909 834.587 317.129 834.538 317.349C834.489 317.569 834.291 317.706 834.094 317.651C833.896 317.596 833.773 317.376 833.822 317.156C833.847 316.936 834.044 316.799 834.266 316.854Z" fill="#5ED9D1"/>
<path d="M848.462 322.435C848.734 322.518 848.906 322.82 848.832 323.123C848.758 323.425 848.487 323.618 848.215 323.535C847.944 323.453 847.771 323.15 847.845 322.848C847.919 322.545 848.191 322.38 848.462 322.435Z" fill="#5ED9D1"/>
<path d="M800.666 16.242C800.913 16.297 801.061 16.572 800.987 16.8469C800.937 17.1219 800.69 17.2869 800.444 17.2044C800.197 17.1494 800.049 16.8744 800.123 16.5995C800.197 16.3245 800.444 16.1595 800.666 16.242Z" fill="#5ED9D1"/>
<path d="M786.471 44.9752C786.842 45.0852 787.064 45.4977 786.99 45.9101C786.891 46.3225 786.521 46.57 786.15 46.4875C785.78 46.3775 785.558 45.9651 785.632 45.5526C785.731 45.1127 786.101 44.8653 786.471 44.9752Z" fill="#5ED9D1"/>
<path d="M774.201 73.2404C774.719 73.3778 775.04 73.9827 774.917 74.5602C774.794 75.1376 774.25 75.495 773.732 75.3575C773.213 75.2201 772.893 74.6152 773.016 74.0377C773.139 73.4603 773.683 73.1029 774.201 73.2404Z" fill="#5ED9D1"/>
<path d="M764.745 100.517C765.313 100.682 765.659 101.314 765.511 101.919C765.362 102.551 764.795 102.936 764.252 102.771C763.684 102.606 763.338 101.974 763.486 101.369C763.61 100.737 764.177 100.379 764.745 100.517Z" fill="#5ED9D1"/>
<path d="M758.252 126.198C758.845 126.362 759.215 127.022 759.067 127.682C758.919 128.342 758.326 128.755 757.734 128.59C757.141 128.425 756.771 127.765 756.919 127.105C757.067 126.445 757.66 126.033 758.252 126.198Z" fill="#5ED9D1"/>
<path d="M754.376 150.394C754.919 150.531 755.24 151.164 755.116 151.769C754.993 152.373 754.425 152.731 753.882 152.593C753.339 152.456 753.018 151.824 753.141 151.219C753.289 150.614 753.832 150.229 754.376 150.394Z" fill="#5ED9D1"/>
<path d="M752.649 172.914C753.143 173.051 753.439 173.601 753.316 174.151C753.192 174.701 752.699 175.031 752.205 174.893C751.711 174.756 751.415 174.206 751.538 173.656C751.686 173.134 752.18 172.804 752.649 172.914Z" fill="#5ED9D1"/>
<path d="M752.524 193.92C752.944 194.03 753.215 194.525 753.116 194.992C753.018 195.46 752.573 195.762 752.154 195.652C751.734 195.542 751.462 195.047 751.561 194.58C751.66 194.085 752.104 193.782 752.524 193.92Z" fill="#5ED9D1"/>
<path d="M753.488 213.58C753.785 213.662 753.957 213.992 753.883 214.322C753.809 214.652 753.513 214.844 753.217 214.762C752.92 214.679 752.748 214.349 752.822 214.02C752.871 213.69 753.192 213.497 753.488 213.58Z" fill="#5ED9D1"/>
<path d="M755.117 231.782C755.339 231.837 755.462 232.085 755.413 232.332C755.364 232.58 755.141 232.717 754.919 232.662C754.697 232.607 754.574 232.36 754.623 232.112C754.697 231.892 754.895 231.727 755.117 231.782Z" fill="#5ED9D1"/>
<path d="M757.068 248.884C757.142 248.911 757.191 248.994 757.191 249.104C757.167 249.186 757.093 249.241 756.994 249.241C756.92 249.214 756.87 249.131 756.87 249.021C756.895 248.911 756.994 248.856 757.068 248.884Z" fill="#5ED9D1"/>
<path d="M807.701 317.074C807.776 317.101 807.825 317.184 807.8 317.266C807.776 317.349 807.701 317.404 807.627 317.376C807.553 317.349 807.504 317.266 807.529 317.184C807.529 317.101 807.603 317.046 807.701 317.074Z" fill="#5ED9D1"/>
<path d="M837.252 329.833C837.301 329.833 837.326 329.888 837.326 329.943C837.326 329.998 837.277 330.025 837.227 330.025C837.178 330.025 837.153 329.97 837.153 329.915C837.178 329.833 837.227 329.805 837.252 329.833Z" fill="#5ED9D1"/>
<path d="M787.976 10.0275C788.074 10.055 788.124 10.165 788.099 10.2475C788.074 10.3575 787.976 10.4125 787.902 10.385C787.803 10.3575 787.754 10.2475 787.778 10.165C787.803 10.055 787.877 10 787.976 10.0275Z" fill="#5ED9D1"/>
<path d="M775.287 37.1392C775.583 37.2217 775.756 37.5516 775.682 37.8816C775.608 38.2115 775.312 38.404 775.016 38.3215C774.719 38.239 774.546 37.9091 774.621 37.5791C774.695 37.2492 774.991 37.0567 775.287 37.1392Z" fill="#5ED9D1"/>
<path d="M763.882 64.3319C764.277 64.4419 764.548 64.9093 764.425 65.3492C764.326 65.7892 763.907 66.0916 763.512 65.9541C763.117 65.8441 762.845 65.3767 762.968 64.9368C763.067 64.4968 763.487 64.2219 763.882 64.3319Z" fill="#5ED9D1"/>
<path d="M754.721 90.7011C755.215 90.8386 755.511 91.3885 755.388 91.9109C755.265 92.4608 754.771 92.7908 754.302 92.6533C753.808 92.5158 753.512 91.9659 753.635 91.4435C753.734 90.8936 754.228 90.5636 754.721 90.7011Z" fill="#5ED9D1"/>
<path d="M748.056 115.914C748.575 116.052 748.871 116.629 748.747 117.179C748.624 117.756 748.106 118.086 747.612 117.949C747.093 117.811 746.797 117.234 746.921 116.684C747.019 116.134 747.538 115.777 748.056 115.914Z" fill="#5ED9D1"/>
<path d="M743.712 139.781C744.205 139.919 744.477 140.469 744.378 140.991C744.255 141.541 743.761 141.843 743.292 141.733C742.798 141.596 742.527 141.046 742.626 140.524C742.749 139.974 743.243 139.644 743.712 139.781Z" fill="#5ED9D1"/>
<path d="M741.366 162.217C741.785 162.327 742.057 162.822 741.958 163.289C741.859 163.757 741.415 164.059 740.995 163.949C740.576 163.839 740.304 163.344 740.403 162.877C740.502 162.409 740.946 162.107 741.366 162.217Z" fill="#5ED9D1"/>
<path d="M740.551 183.306C740.872 183.389 741.095 183.774 740.996 184.131C740.922 184.489 740.576 184.736 740.255 184.626C739.934 184.544 739.712 184.159 739.811 183.801C739.885 183.444 740.231 183.224 740.551 183.306Z" fill="#5ED9D1"/>
<path d="M740.848 202.994C741.095 203.076 741.268 203.351 741.194 203.626C741.12 203.901 740.873 204.094 740.626 204.011C740.379 203.929 740.206 203.654 740.28 203.379C740.354 203.104 740.601 202.911 740.848 202.994Z" fill="#5ED9D1"/>
<path d="M741.86 221.471C741.983 221.499 742.057 221.636 742.032 221.774C742.008 221.911 741.884 221.994 741.761 221.966C741.637 221.939 741.563 221.801 741.588 221.664C741.613 221.526 741.736 221.444 741.86 221.471Z" fill="#5ED9D1"/>
<path d="M744.822 254.466C744.896 254.493 744.945 254.576 744.945 254.686C744.921 254.768 744.847 254.823 744.748 254.823C744.674 254.796 744.624 254.713 744.624 254.631C744.649 254.493 744.723 254.438 744.822 254.466Z" fill="#5ED9D1"/>
<path d="M824.712 335.689C824.86 335.744 824.958 335.909 824.909 336.074C824.86 336.239 824.712 336.349 824.563 336.294C824.415 336.239 824.317 336.074 824.366 335.909C824.415 335.744 824.563 335.661 824.712 335.689Z" fill="#5ED9D1"/>
<path d="M839.672 341.683C839.746 341.71 839.796 341.793 839.771 341.875C839.746 341.958 839.672 342.013 839.598 341.985C839.524 341.958 839.475 341.875 839.499 341.793C839.499 341.71 839.573 341.655 839.672 341.683Z" fill="#5ED9D1"/>
<path d="M775.953 2.85188C776.027 2.87937 776.077 2.96186 776.052 3.04435C776.027 3.12684 775.953 3.18183 775.879 3.15433C775.805 3.12684 775.756 3.04435 775.781 2.96186C775.805 2.87938 775.879 2.82438 775.953 2.85188Z" fill="#5ED9D1"/>
<path d="M764.349 28.9725C764.473 29 764.572 29.1649 764.522 29.3024C764.497 29.4399 764.349 29.5499 764.226 29.4949C764.102 29.4674 764.004 29.3024 764.053 29.1649C764.078 29.0275 764.201 28.9175 764.349 28.9725Z" fill="#5ED9D1"/>
<path d="M753.709 54.9286C754.005 55.0111 754.178 55.341 754.104 55.671C754.03 56.0009 753.734 56.1934 753.437 56.1109C753.141 56.0284 752.968 55.6985 753.042 55.3685C753.116 55.0661 753.413 54.8461 753.709 54.9286Z" fill="#5ED9D1"/>
<path d="M744.822 80.527C745.167 80.637 745.39 81.0219 745.291 81.4069C745.192 81.7918 744.847 82.0393 744.501 81.9293C744.155 81.8193 743.933 81.4344 744.032 81.0494C744.106 80.6645 744.452 80.4445 744.822 80.527Z" fill="#5ED9D1"/>
<path d="M738.034 105.136C738.453 105.246 738.7 105.714 738.601 106.181C738.503 106.649 738.083 106.924 737.663 106.814C737.244 106.704 736.997 106.236 737.095 105.769C737.194 105.301 737.614 105.026 738.034 105.136Z" fill="#5ED9D1"/>
<path d="M733.293 128.618C733.713 128.728 733.96 129.195 733.861 129.663C733.762 130.13 733.343 130.405 732.923 130.295C732.503 130.185 732.256 129.718 732.355 129.25C732.454 128.783 732.874 128.508 733.293 128.618Z" fill="#5ED9D1"/>
<path d="M730.355 150.917C730.701 151.027 730.923 151.412 730.824 151.797C730.725 152.181 730.38 152.429 730.034 152.319C729.688 152.209 729.466 151.824 729.565 151.439C729.639 151.054 729.985 150.834 730.355 150.917Z" fill="#5ED9D1"/>
<path d="M728.874 171.951C729.146 172.033 729.319 172.336 729.245 172.638C729.17 172.941 728.899 173.133 728.627 173.051C728.356 172.968 728.183 172.666 728.257 172.363C728.331 172.061 728.603 171.868 728.874 171.951Z" fill="#5ED9D1"/>
<path d="M728.505 191.693C728.702 191.748 728.826 191.968 728.776 192.188C728.727 192.407 728.529 192.545 728.332 192.49C728.134 192.435 728.011 192.215 728.06 191.995C728.11 191.748 728.307 191.638 728.505 191.693Z" fill="#5ED9D1"/>
<path d="M728.874 210.28C728.948 210.308 728.973 210.363 728.973 210.445C728.948 210.528 728.899 210.555 728.825 210.555C728.75 210.528 728.726 210.473 728.726 210.39C728.726 210.308 728.8 210.28 728.874 210.28Z" fill="#5ED9D1"/>
<path d="M729.714 227.465C729.788 227.493 729.812 227.548 729.812 227.63C729.788 227.713 729.738 227.74 729.664 227.74C729.59 227.713 729.566 227.658 729.566 227.575C729.566 227.493 729.64 227.438 729.714 227.465Z" fill="#5ED9D1"/>
<path d="M826.119 346.852C826.416 346.935 826.613 347.265 826.539 347.622C826.465 347.952 826.169 348.172 825.848 348.09C825.552 348.007 825.354 347.677 825.428 347.32C825.502 346.99 825.823 346.77 826.119 346.852Z" fill="#5ED9D1"/>
<path d="M743.835 45.1673C744.008 45.2223 744.107 45.3873 744.058 45.5797C744.008 45.7722 743.86 45.8822 743.687 45.8272C743.514 45.7722 743.416 45.6072 743.465 45.4148C743.49 45.2498 743.663 45.1398 743.835 45.1673Z" fill="#5ED9D1"/>
<path d="M735.195 69.8318C735.466 69.9143 735.639 70.2167 735.565 70.5192C735.491 70.8216 735.219 71.0141 734.948 70.9316C734.676 70.8491 734.503 70.5467 734.577 70.2442C734.627 69.9418 734.898 69.7768 735.195 69.8318Z" fill="#5ED9D1"/>
<path d="M728.256 93.9174C728.552 93.9999 728.75 94.3298 728.676 94.6598C728.602 94.9897 728.305 95.2097 728.009 95.1272C727.713 95.0447 727.515 94.7148 727.59 94.3848C727.664 94.0274 727.96 93.8349 728.256 93.9174Z" fill="#5ED9D1"/>
<path d="M723.147 116.986C723.468 117.069 723.665 117.426 723.566 117.784C723.492 118.141 723.171 118.361 722.85 118.251C722.529 118.169 722.332 117.811 722.431 117.454C722.529 117.096 722.826 116.876 723.147 116.986Z" fill="#5ED9D1"/>
<path d="M719.665 139.038C719.936 139.12 720.084 139.395 720.01 139.698C719.936 140 719.689 140.165 719.418 140.083C719.146 140 718.998 139.725 719.072 139.423C719.122 139.148 719.393 138.983 719.665 139.038Z" fill="#5ED9D1"/>
<path d="M717.542 159.935C717.739 159.99 717.863 160.21 717.813 160.457C717.764 160.677 717.566 160.815 717.344 160.76C717.147 160.705 717.023 160.485 717.073 160.237C717.147 160.017 717.344 159.88 717.542 159.935Z" fill="#5ED9D1"/>
<path d="M716.505 179.705C716.604 179.733 716.678 179.843 716.653 179.98C716.629 180.09 716.53 180.173 716.407 180.145C716.308 180.118 716.234 180.008 716.258 179.87C716.283 179.733 716.407 179.678 716.505 179.705Z" fill="#5ED9D1"/>
<path d="M716.209 198.319C716.209 198.319 716.235 198.319 716.209 198.319C716.209 198.319 716.209 198.352 716.209 198.319C716.209 198.319 716.209 198.352 716.209 198.319Z" fill="#5ED9D1"/>
<path d="M716.481 215.367C716.604 215.394 716.678 215.532 716.629 215.669C716.604 215.807 716.481 215.889 716.358 215.834C716.234 215.807 716.16 215.669 716.209 215.532C716.259 215.422 716.382 215.339 716.481 215.367Z" fill="#5ED9D1"/>
<path d="M725.887 58.9428C726.01 58.9703 726.084 59.1352 726.06 59.2727C726.035 59.4102 725.887 59.4927 725.763 59.4652C725.64 59.4377 725.566 59.2727 725.591 59.1352C725.615 58.9978 725.763 58.9153 725.887 58.9428Z" fill="#5ED9D1"/>
<path d="M718.876 82.2318C719.098 82.2868 719.246 82.5342 719.172 82.7817C719.123 83.0291 718.901 83.1941 718.678 83.1116C718.456 83.0566 718.308 82.8092 718.382 82.5617C718.431 82.3143 718.654 82.1768 718.876 82.2318Z" fill="#5ED9D1"/>
<path d="M713.42 104.834C713.667 104.889 713.815 105.164 713.741 105.439C713.691 105.714 713.444 105.879 713.197 105.796C712.951 105.741 712.803 105.466 712.877 105.191C712.926 104.944 713.173 104.779 713.42 104.834Z" fill="#5ED9D1"/>
<path d="M709.395 126.611C709.592 126.666 709.691 126.858 709.642 127.078C709.592 127.298 709.42 127.408 709.222 127.353C709.025 127.298 708.926 127.106 708.975 126.886C709.025 126.666 709.222 126.556 709.395 126.611Z" fill="#5ED9D1"/>
<path d="M706.681 147.287C706.829 147.314 706.903 147.479 706.878 147.644C706.853 147.809 706.705 147.892 706.557 147.864C706.409 147.837 706.335 147.672 706.36 147.507C706.409 147.342 706.532 147.232 706.681 147.287Z" fill="#5ED9D1"/>
<path d="M704.977 166.974C705.026 166.974 705.051 167.029 705.051 167.084C705.051 167.139 705.001 167.167 704.952 167.167C704.903 167.167 704.878 167.112 704.878 167.057C704.878 167.002 704.927 166.947 704.977 166.974Z" fill="#5ED9D1"/>
<path d="M704.063 185.396C704.112 185.396 704.137 185.451 704.137 185.506C704.137 185.561 704.087 185.589 704.038 185.589C703.989 185.589 703.964 185.534 703.964 185.479C703.989 185.396 704.013 185.369 704.063 185.396Z" fill="#5ED9D1"/>
<path d="M703.718 202.471C703.891 202.526 703.99 202.719 703.965 202.911C703.916 203.103 703.743 203.213 703.57 203.186C703.397 203.131 703.298 202.938 703.323 202.746C703.372 202.526 703.545 202.416 703.718 202.471Z" fill="#5ED9D1"/>
<path d="M703.643 218.529C703.939 218.611 704.137 218.969 704.063 219.299C703.988 219.629 703.668 219.849 703.371 219.766C703.075 219.684 702.877 219.326 702.952 218.996C703.05 218.639 703.347 218.446 703.643 218.529Z" fill="#5ED9D1"/>
<path d="M717.097 47.6426C717.122 47.6426 717.146 47.6978 717.146 47.7253C717.146 47.7529 717.097 47.7805 717.072 47.7805C717.047 47.7805 717.023 47.7253 717.023 47.6977C717.023 47.6702 717.047 47.6426 717.097 47.6426Z" fill="#5ED9D1"/>
<path d="M709.939 70.271C710.063 70.2984 710.112 70.4359 710.088 70.5459C710.063 70.6834 709.939 70.7384 709.841 70.7109C709.717 70.6834 709.668 70.5459 709.693 70.4359C709.717 70.3259 709.841 70.2435 709.939 70.271Z" fill="#5ED9D1"/>
<path d="M704.137 92.3777C704.26 92.4052 704.334 92.5702 704.31 92.7077C704.285 92.8452 704.137 92.9277 704.013 92.9002C703.89 92.8727 703.816 92.7077 703.841 92.5702C703.89 92.4327 704.013 92.3228 704.137 92.3777Z" fill="#5ED9D1"/>
<path d="M699.669 113.605C699.817 113.632 699.891 113.797 699.866 113.962C699.842 114.127 699.694 114.21 699.545 114.182C699.397 114.155 699.323 113.99 699.348 113.825C699.373 113.687 699.521 113.577 699.669 113.605Z" fill="#5ED9D1"/>
<path d="M696.36 134.089C696.434 134.116 696.483 134.199 696.458 134.281C696.434 134.364 696.36 134.419 696.286 134.391C696.212 134.364 696.162 134.281 696.187 134.199C696.212 134.144 696.286 134.089 696.36 134.089Z" fill="#5ED9D1"/>
<path d="M695.472 79.4824C695.521 79.5099 695.571 79.5649 695.546 79.6199C695.521 79.6749 695.472 79.7299 695.423 79.7024C695.373 79.6749 695.324 79.6199 695.349 79.5649C695.349 79.5099 695.423 79.4824 695.472 79.4824Z" fill="#5ED9D1"/>
</g>
</g>
<defs>
<clipPath id="clip0_712_32">
<rect width="850" height="675" fill="white"/>
</clipPath>
<clipPath id="clip1_712_32">
<rect width="502.954" height="307.535" fill="white" transform="translate(1002.88 -42.8467) rotate(90)"/>
</clipPath>
</defs>
</svg>
