<svg width="1440" height="1024" viewBox="0 0 1440 1024" fill="none" xmlns="http://www.w3.org/2000/svg">
<g clip-path="url(#clip0_1429_5324)">
<rect width="1440" height="1024" fill="url(#paint0_linear_1429_5324)"/>
<g opacity="0.7">
<path opacity="0.7" d="M1262.5 1060.22L1270.85 1026.45C1303.06 896.558 1336.37 762.269 1320.2 632.125C1310.55 554.478 1283.73 487.161 1257.79 422.078C1236.34 368.279 1214.16 312.619 1201.46 250.895C1176.07 127.496 1190.55 -13.457 1206 -122.474C1209.92 -150.19 1214.23 -178.217 1218.39 -205.393C1232.94 -300.449 1248.05 -398.724 1249.27 -496.426C1249.34 -500.855 1249.35 -505.226 1249.37 -509.647L1250.88 -518C1250.95 -511.027 1250.95 -503.866 1250.86 -496.528C1249.62 -398.566 1234.51 -300.137 1219.92 -204.931C1215.76 -177.78 1211.46 -149.729 1207.52 -122.018C1192.13 -13.3243 1177.68 127.164 1202.94 250.142C1215.58 311.553 1237.7 367.087 1259.11 420.788C1285.11 486.079 1312.01 553.534 1321.72 631.655C1338.02 762.35 1304.61 897.025 1272.27 1027.24C1269.46 1038.57 1266.67 1049.83 1263.93 1061.01C1251.32 1112.43 1238.85 1169.47 1231.09 1227.61L1229.57 1227.05C1237.4 1168.8 1249.88 1111.71 1262.5 1060.22Z" fill="#FFEE81"/>
<path opacity="0.7" d="M1246.55 120.255C1198.6 262.851 1213.45 430.563 1234.38 546.156C1245.13 605.645 1259.12 664.139 1272.64 720.708C1290.15 793.946 1308.23 869.693 1319.48 948.127C1330.45 1024.66 1348.2 1217.32 1276.5 1352.55C1235.25 1430.29 1168.74 1478.35 1078.83 1495.41C1070.38 1496.99 1061.84 1498.31 1053.31 1499.53L1053 1502.62C1061.66 1501.39 1070.31 1500.06 1078.92 1498.43C1169.33 1481.33 1236.27 1432.83 1277.87 1354.43C1350.19 1218.11 1332.34 1024.24 1321.3 947.222C1310.03 868.597 1291.92 792.751 1274.39 719.445C1260.88 662.91 1246.92 604.484 1236.18 545.121C1215.36 430.08 1200.61 263.262 1248.15 121.639C1265.13 71.1781 1289.26 26.4922 1312.59 -16.6865C1322.32 -34.6745 1332.14 -52.9289 1341.54 -71.7538L1339.38 -72.096C1330.23 -53.8908 1320.72 -36.2134 1311.24 -18.7214C1287.83 24.6339 1263.62 69.4317 1246.55 120.255Z" fill="#ECFFFE"/>
</g>
<g opacity="0.5">
<g style="mix-blend-mode:overlay" opacity="0.96">
<path fill-rule="evenodd" clip-rule="evenodd" d="M20.2113 -71.4047C-10.042 -6.66334 66.3086 18.671 96.9787 37.2753C124.908 54.2145 150.791 113.352 175.384 110.618C238.254 103.628 181.822 23.3707 227.476 -23.1578C302.022 -99.1069 224.439 -165.332 172.903 -165.973C121.367 -166.614 55.3251 -146.576 20.2113 -71.4047Z" stroke="white" stroke-width="2" stroke-miterlimit="10"/>
</g>
<g style="mix-blend-mode:overlay" opacity="0.96">
<path fill-rule="evenodd" clip-rule="evenodd" d="M2.15068 189.265C15.5995 216.739 39.1478 237.451 67.8677 247.066C110.946 261.556 174.216 272.552 230.289 242.785C326.634 191.492 293.907 157.8 357.411 92.4258C420.915 27.0512 436.756 -6.63948 409.844 -97.765C382.933 -188.891 389.434 -138.592 349.576 -239.463C309.718 -340.334 262.91 -346.998 212.615 -329.119C152.407 -307.72 -3.09859 -109.368 -121.777 -263.835C-181.544 -341.617 -327.324 -203.248 -296.202 -106.533C-265.081 -9.81793 -323.062 109.79 -241.925 96.2416C-160.787 82.6936 -135.056 96.102 -73.443 112.836C-36.7938 122.776 -11.9686 160.396 2.15068 189.265Z" stroke="white" stroke-miterlimit="10"/>
</g>
<g style="mix-blend-mode:overlay" opacity="0.96">
<path fill-rule="evenodd" clip-rule="evenodd" d="M309.294 -228.347C269.049 -301.033 234.19 -307.568 191.623 -292.453C171.092 -285.178 143.843 -257.106 110.77 -232.248C56.5761 -191.504 -30.1735 -166.246 -93.8909 -216.391C-173.728 -279.221 -249.157 -166.395 -226.723 -85.151C-216.975 -49.8733 -229.58 -36.3179 -228.084 -4.62631C-226.136 36.9776 -213.101 72.8198 -174.468 77.9922C-108.571 86.8666 -86.1389 91.334 -43.2761 105.801C-39.7824 106.992 -36.1911 108.205 -32.443 109.44C-2.59278 119.235 18.4395 149.981 31.5328 173.924C43.7548 196.45 63.6873 213.437 87.6863 221.78C123.24 234.002 174.061 242.125 219.319 218.627C295.303 178.879 274.208 151.071 324.581 99.1242C350.337 72.564 366.462 48.5821 376.301 24.0185C388.868 -7.61886 390.509 -41.7883 379.196 -89.2675C366.934 -140.786 362.65 -150.987 350.025 -171.541C341.347 -185.543 325.338 -199.293 309.294 -228.347Z" stroke="white" stroke-width="0.86" stroke-miterlimit="10"/>
</g>
<g style="mix-blend-mode:overlay" opacity="0.96">
<path fill-rule="evenodd" clip-rule="evenodd" d="M268.987 -217.189C231.257 -261.735 205.425 -268.117 170.587 -255.785C152.806 -249.482 130.653 -228.958 104.439 -210.941C59.2708 -179.871 -8.39146 -150.328 -67.8049 -182.882C-113.016 -207.607 -232.721 -243.327 -157.265 -63.787C-147.635 -40.8537 -148.856 -15.015 -146.98 9.59368C-144.919 36.0974 -139.669 53.298 -115.364 65.6012C-84.5467 81.1468 -49.3991 83.7388 -17.2767 95.5151C14.9011 107.402 42.216 129.462 60.794 158.564C71.7662 176.091 88.1086 189.347 107.408 196.375C135.456 206.329 173.906 211.64 208.272 194.348C227.012 184.917 243.779 173.024 255.928 155.416C284.401 114.19 321.09 77.6986 338.873 30.2796C351.041 -2.10781 355.768 -37.2859 348.466 -80.7686C340.787 -126.27 335.949 -145.479 321.104 -168.255C309.973 -185.428 287.245 -195.638 268.987 -217.189Z" stroke="white" stroke-width="0.72" stroke-miterlimit="10"/>
</g>
<g style="mix-blend-mode:overlay" opacity="0.96">
<path fill-rule="evenodd" clip-rule="evenodd" d="M244.711 -204.625C217.971 -218.811 186.755 -224.394 156.018 -216.964C113.388 -206.702 78.3432 -173.633 36.2686 -160.968C7.0426 -152.13 -25.8459 -152.882 -50.6069 -134.323C-70.5805 -119.329 -81.173 -94.2918 -85.4717 -69.6794C-90.2626 -42.0592 -88.3765 -13.9109 -79.9785 12.2998C-72.7855 34.639 -59.9687 56.1219 -39.6398 67.0065C-22.0409 76.4073 -0.878131 76.9123 17.6632 84.3516C56.3712 99.8947 77.6613 142.525 113.418 164.072C216.818 226.309 301.927 65.1369 314.562 -18.0665C322.242 -68.7121 319.632 -133.5 285.551 -172.282C273.97 -185.469 260.151 -196.413 244.711 -204.625V-204.625Z" stroke="white" stroke-width="0.58" stroke-miterlimit="10"/>
</g>
<g style="mix-blend-mode:overlay" opacity="0.96">
<path fill-rule="evenodd" clip-rule="evenodd" d="M85.9106 96.8586C98.0457 107.48 108.843 119.676 121.354 129.859C133.865 140.042 149.1 148.547 165.574 149.336C181.693 150.121 197.831 143.516 211.036 133.492C242.032 109.977 256.587 70.6122 267.637 33.1771C276.098 4.46862 283.515 -24.6958 286.063 -54.3437C290.45 -104.628 280.197 -167.175 229.726 -187.939C172.868 -211.258 101.124 -177.659 50.8798 -147.679C28.7022 -134.444 7.15469 -119.128 -9.0156 -98.7102C-25.1859 -78.2928 -35.5583 -52.0848 -32.7222 -26.5178C-29.398 3.26357 -8.96821 27.6602 14.0163 45.6856C37.0009 63.711 63.2971 77.2673 85.3788 96.4291L85.9106 96.8586Z" stroke="white" stroke-width="0.44" stroke-miterlimit="10"/>
</g>
</g>
<g opacity="0.5">
<g style="mix-blend-mode:overlay" opacity="0.96">
<path fill-rule="evenodd" clip-rule="evenodd" d="M615.962 902.705C562.767 950.423 623.093 1003.64 644.025 1032.77C663.088 1059.3 663.739 1123.85 687.437 1130.96C748.022 1149.16 727.536 1053.21 787.766 1028.28C886.105 987.6 840.661 896.279 793.494 875.502C746.328 854.725 677.714 847.294 615.962 902.705Z" stroke="#ECFFFE" stroke-width="2" stroke-miterlimit="10"/>
</g>
<g style="mix-blend-mode:overlay" opacity="0.96">
<path fill-rule="evenodd" clip-rule="evenodd" d="M497.241 1135.47C498.853 1166.02 512.407 1194.3 535.066 1214.4C569.027 1244.6 622.933 1279.5 686.186 1274.08C794.924 1264.62 778.008 1220.8 862.045 1185.53C946.082 1150.25 973.854 1125.45 984.786 1031.07C995.718 936.684 981.998 985.51 984.836 877.087C987.674 768.664 947.216 744.198 893.937 740.948C830.157 737.054 609.384 858.645 560.692 670.036C536.168 575.059 347.839 645.269 338.59 746.446C329.342 847.623 229.144 934.963 309.105 954.279C389.066 973.594 407.489 996.01 457.624 1035.54C487.451 1059.04 495.557 1103.38 497.241 1135.47Z" stroke="#ECFFFE" stroke-miterlimit="10"/>
</g>
<g style="mix-blend-mode:overlay" opacity="0.96">
<path fill-rule="evenodd" clip-rule="evenodd" d="M943.418 871.536C934.86 788.894 905.346 769.227 860.26 766.461C838.52 765.113 802.452 780.268 762.285 790.186C696.463 806.447 606.752 795.706 567.767 724.61C518.92 635.529 405.324 709.795 394.143 793.334C389.294 829.611 372.386 837.146 361.349 866.891C346.845 905.934 344.799 944.018 378.32 963.909C435.475 997.886 454.365 1010.78 488.136 1040.88C490.884 1043.35 493.713 1045.87 496.678 1048.47C520.307 1069.18 527.615 1105.71 530.284 1132.87C532.706 1158.38 544.392 1181.82 563.205 1198.89C591.13 1224.06 634.709 1251.44 685.555 1247.55C771.037 1240.74 762.52 1206.89 829.214 1178.83C863.316 1164.48 887.546 1148.73 906.221 1129.98C930.175 1105.8 945.069 1075 953.258 1026.88C962.155 974.678 962.209 963.614 958.645 939.757C956.144 923.475 946.8 904.552 943.418 871.536Z" stroke="#ECFFFE" stroke-width="0.86" stroke-miterlimit="10"/>
</g>
<g style="mix-blend-mode:overlay" opacity="0.96">
<path fill-rule="evenodd" clip-rule="evenodd" d="M901.962 866.014C884.695 810.249 863.427 794.258 826.542 791.959C807.714 790.793 779.292 801 748.115 807.31C694.386 818.205 620.559 818.884 578.644 765.66C546.73 725.201 450.581 645.447 449.683 840.197C449.561 865.07 438.316 888.366 430.403 911.743C421.918 936.936 420.012 954.819 437.555 975.659C459.821 1002.03 491.144 1018.19 516.087 1041.6C541.038 1065.14 557.53 1096.14 563.224 1130.19C566.454 1150.62 576.298 1169.22 591.303 1183.24C613.211 1203.39 646.507 1223.33 684.901 1220.89C705.838 1219.55 725.923 1215.17 743.999 1203.73C786.344 1176.95 834.396 1157.75 869.331 1121.08C893.213 1096.05 911.342 1065.53 921.655 1022.67C932.412 977.792 935.485 958.223 930.747 931.451C927.233 911.291 910.32 892.994 901.962 866.014Z" stroke="#ECFFFE" stroke-width="0.72" stroke-miterlimit="10"/>
</g>
<g style="mix-blend-mode:overlay" opacity="0.96">
<path fill-rule="evenodd" clip-rule="evenodd" d="M874.704 868.066C855.658 844.54 829.123 827.175 797.932 821.972C754.689 814.716 709.491 831.415 665.817 826.588C635.465 823.272 605.499 809.698 575.447 817.075C551.196 823.047 531.643 841.935 518.047 862.897C502.821 886.434 493.53 913.072 490.991 940.477C488.859 963.849 492.237 988.636 506.678 1006.61C519.188 1022.16 538.462 1030.91 552.608 1045.02C582.135 1074.48 585.026 1122.04 609.485 1155.87C680.245 1253.64 821.683 1138.68 865.9 1067.08C892.803 1023.49 915.779 962.853 899.613 913.821C894.123 897.152 885.694 881.669 874.704 868.066V868.066Z" stroke="#ECFFFE" stroke-width="0.58" stroke-miterlimit="10"/>
</g>
<g style="mix-blend-mode:overlay" opacity="0.96">
<path fill-rule="evenodd" clip-rule="evenodd" d="M610.503 1083.26C617.508 1097.78 622.665 1113.23 630.188 1127.5C637.711 1141.77 648.397 1155.57 663.245 1162.75C677.769 1169.78 695.205 1170.03 711.281 1165.98C749.011 1156.48 777.822 1125.96 802.652 1095.85C821.682 1072.75 839.93 1048.82 853.887 1022.54C877.62 977.989 892.686 916.424 854.381 877.55C811.2 833.822 732.029 836.635 674.056 844.539C648.466 848.029 622.641 853.682 599.765 866.134C576.89 878.586 557.081 898.637 549.676 923.272C541.069 951.976 550.31 982.425 564.398 1008.01C578.485 1033.6 597.37 1056.37 610.182 1082.65L610.503 1083.26Z" stroke="#ECFFFE" stroke-width="0.44" stroke-miterlimit="10"/>
</g>
</g>
</g>
<defs>
<linearGradient id="paint0_linear_1429_5324" x1="720" y1="0" x2="720" y2="1024" gradientUnits="userSpaceOnUse">
<stop stop-color="#BEF0ED"/>
<stop offset="0.901042" stop-color="#8989C7"/>
</linearGradient>
<clipPath id="clip0_1429_5324">
<rect width="1440" height="1024" fill="white"/>
</clipPath>
</defs>
</svg>
