<svg width="390" height="735" viewBox="0 0 390 735" fill="none" xmlns="http://www.w3.org/2000/svg">
<g clip-path="url(#clip0_722_2)">
<rect width="390" height="735" fill="white"/>
<rect x="-44" y="-89" width="478" height="883" fill="url(#paint0_linear_722_2)"/>
<path opacity="0.8" d="M-349.525 340.73L-340.837 322.702C-307.509 253.294 -273.047 181.539 -204.056 138.978C-162.893 113.586 -113.65 101.848 -66.0307 90.5066C-26.6623 81.1361 14.0616 71.4359 50.4736 54.048C123.282 19.2968 174.495 -44.6183 210.983 -96.4179C220.265 -109.584 229.403 -123.084 238.27 -136.171C269.289 -181.94 301.319 -229.29 343.291 -268.686C345.184 -270.479 347.094 -272.217 349.02 -273.979L351.581 -278.126C348.468 -275.403 345.322 -272.569 342.169 -269.611C300.093 -230.104 268.004 -182.686 236.939 -136.843C228.081 -123.768 218.934 -110.256 209.666 -97.0838C173.277 -45.4447 122.243 18.2669 49.7175 52.9263C13.4846 70.2221 -27.1407 79.9039 -66.4318 89.2624C-114.186 100.653 -163.555 112.396 -204.97 137.943C-274.296 180.651 -308.853 252.616 -342.233 322.222C-345.136 328.281 -348.033 334.29 -350.921 340.25C-364.223 367.643 -380.092 397.187 -399.901 424.547L-398.54 425.17C-378.733 397.729 -362.85 368.161 -349.525 340.73Z" fill="#8989C7"/>
<path d="M138.553 -132.16C128.977 -109.653 129.59 -87.5224 132.253 -65.2951C134.804 -43.9382 138.156 -22.256 132.218 -0.0441885C120.04 45.6765 77.6589 82.2322 35.0928 108.313C-12.4863 137.439 -66.2411 159.313 -107.398 197.051C-127.587 215.566 -143.932 238.659 -146.89 263.655C-149.408 284.378 -140.791 301.714 -126.471 315.475C-118.332 323.3 -109.018 329.965 -99.593 336.494L-103.249 340.993C-105.923 339.143 -108.587 337.299 -111.208 335.4C-126.417 324.347 -141.37 311.954 -148.596 294.855C-156.837 275.478 -153.194 252.259 -142.277 232C-128.944 207.273 -106.131 187.123 -82.095 170.426C-58.9443 154.331 -33.8894 141.016 -9.07696 127.513C38.2667 101.752 89.0965 72.2035 115.413 26.0849C121.648 15.3115 125.961 3.89114 128.17 -7.69659C130.266 -19.1313 130.028 -30.4818 129.034 -41.6411C127.064 -63.4451 122.254 -85.0795 125.68 -107.628C129.353 -131.185 141.232 -154.022 159.544 -172.731L159.618 -172.822L164.235 -170.004C153.137 -158.78 144.399 -145.904 138.553 -132.16V-132.16Z" fill="#5ED9D1"/>
<path opacity="0.5" d="M257.173 -156.739L257.173 -156.74C265.915 -181.259 268.348 -206.911 270.705 -231.773L270.72 -231.93C271.642 -241.936 272.621 -252.018 273.997 -262.118L273.284 -262.553C271.856 -252.267 270.863 -241.983 269.908 -231.823L269.908 -231.822C267.569 -207.015 265.132 -181.31 256.421 -156.821L256.421 -156.821C231.91 -88.1297 161.994 -38.5856 107.659 -9.15567C79.6186 6.03338 50.0604 19.4847 21.4719 32.4927L21.3175 32.2111L21.4718 32.4928C-15.6159 49.3533 -53.9425 66.8026 -89.3248 88.2052C-106.649 98.686 -135.676 118.211 -161.389 144.819C-187.103 171.429 -209.482 205.101 -213.557 243.882C-218.238 288.481 -197.324 334.281 -151.264 379.957C-146.972 384.208 -142.553 388.387 -138.091 392.54L-137.575 391.904C-141.999 387.782 -146.395 383.624 -150.649 379.415L-150.65 379.415C-196.517 333.899 -217.455 288.278 -212.792 243.827L-212.487 243.839L-212.792 243.827C-208.72 205.183 -186.377 171.634 -160.763 145.151C-135.149 118.667 -106.242 99.2273 -88.9932 88.7942L-88.7977 89.0541L-88.9931 88.7941C-53.6456 67.4197 -15.3283 49.9727 21.7099 33.1243L21.8031 33.0819C50.3883 20.0806 79.9298 6.64418 107.961 -8.55269L108.129 -8.30118L107.962 -8.55279C162.526 -38.0965 232.621 -87.7864 257.173 -156.739Z" fill="#ECFFFE" stroke="#8989C7" stroke-width="0.681393"/>
<path opacity="0.5" d="M25.2709 8.44401C23.4002 7.30578 20.3618 7.7748 18.557 9.9887C16.7521 12.2026 17.2646 14.832 19.1353 15.9703C21.0061 17.1085 24.0445 16.6395 25.8493 14.4256C27.6541 12.2117 27.1417 9.58223 25.2709 8.44401Z" stroke="#8989C7" stroke-width="4.08836"/>
<g opacity="0.3">
<path opacity="0.8" d="M-724.883 807.077C-724.883 807.077 -565.536 677.796 -108.502 799.139C135.734 863.999 210.045 726.747 314.209 707.839C471.307 679.422 597.345 815.171 842.071 589.863" stroke="#8989C7" stroke-width="1.10624" stroke-miterlimit="10"/>
<path opacity="0.8" d="M-720.494 823.984C-720.494 823.984 -556.109 667.685 -103.907 785.453C148.808 850.424 219.694 737.128 328.408 716.557C486.753 687.082 613.534 804.29 842.923 592.993" stroke="#8989C7" stroke-width="1.10624" stroke-miterlimit="10"/>
<path opacity="0.8" d="M-716.097 840.756C-716.097 840.756 -547.198 658.802 -99.5322 771.669C161.447 837.589 229.01 747.046 342.322 725.014C501.806 694.097 629.479 793.307 843.523 596.092" stroke="#8989C7" stroke-width="1.10624" stroke-miterlimit="10"/>
<path opacity="0.8" d="M-711.59 857.727C-711.59 857.727 -537.771 649.305 -94.8188 758.278C174.669 824.457 238.7 757.555 356.553 733.878C517.219 701.728 645.677 782.511 844.364 599.459" stroke="#8989C7" stroke-width="1.10624" stroke-miterlimit="10"/>
<path opacity="0.8" d="M-707.033 874.689C-707.033 874.689 -528.559 639.736 -90.1305 744.747C187.856 811.162 248.146 767.938 370.741 742.586C532.583 709.216 661.872 771.76 845.405 602.876" stroke="#8989C7" stroke-width="1.10624" stroke-miterlimit="10"/>
<path opacity="0.8" d="M-702.486 891.423C-702.486 891.423 -519.158 630.016 -85.4735 731.077C200.793 797.747 257.753 778.098 384.93 751.314C547.943 716.736 678.006 760.857 846.174 606.208" stroke="#8989C7" stroke-width="1.10624" stroke-miterlimit="10"/>
<path opacity="0.8" d="M-697.862 908.262C-697.862 908.262 -509.533 620.302 -80.7622 717.626C213.979 784.492 267.452 788.606 399.103 760.011C563.331 724.431 693.905 750.002 846.912 609.561" stroke="#8989C7" stroke-width="1.10624" stroke-miterlimit="10"/>
<path opacity="0.8" d="M-693.215 924.911C-693.215 924.911 -500.104 610.645 -76.0662 704.161C227.334 771.156 277.062 798.801 413.227 768.609C578.66 732.047 709.996 739.267 847.632 613.094" stroke="#8989C7" stroke-width="1.10624" stroke-miterlimit="10"/>
<path opacity="0.8" d="M-688.597 940.978C-688.597 940.978 -490.576 600.548 -71.6794 690.464C240.082 757.374 286.369 808.779 427.031 777.021C593.802 739.28 725.677 728.259 848.141 616.361" stroke="#8989C7" stroke-width="1.10624" stroke-miterlimit="10"/>
<path opacity="0.8" d="M-683.921 957.2C-683.921 957.2 -480.993 590.702 -67.0317 677.007C253.082 743.839 295.879 818.697 441.034 785.378C608.988 746.692 741.607 717.481 848.7 619.814" stroke="#8989C7" stroke-width="1.10624" stroke-miterlimit="10"/>
<path opacity="0.8" d="M-679.231 973.39C-679.231 973.39 -471.455 580.727 -62.3767 663.638C266.185 729.975 305.39 828.604 455.033 793.728C624.167 754.097 757.477 706.589 849.21 623.077" stroke="#8989C7" stroke-width="1.10624" stroke-miterlimit="10"/>
<path opacity="0.8" d="M-674.578 989.353C-674.578 989.353 -461.958 570.618 -57.7648 650.158C279.338 716.391 314.954 838.687 469.028 802.068C639.34 761.494 773.389 695.963 849.772 626.533" stroke="#8989C7" stroke-width="1.10624" stroke-miterlimit="10"/>
<path opacity="0.8" d="M-669.873 1005.48C-669.873 1005.48 -452.413 560.738 -53.1016 636.93C292.278 702.913 324.462 848.558 483.016 810.39C654.504 768.873 789.242 685.197 850.285 629.78" stroke="#8989C7" stroke-width="1.10624" stroke-miterlimit="10"/>
<path opacity="0.8" d="M-665.162 1021.58C-665.162 1021.58 -442.712 550.67 -48.6424 623.802C305.161 689.312 333.914 859.026 496.79 818.736C669.555 776.66 804.928 674.717 850.848 633.212" stroke="#8989C7" stroke-width="1.10624" stroke-miterlimit="10"/>
<path opacity="0.8" d="M-660.495 1037.47C-660.495 1037.47 -433.214 540.681 -44.0214 610.506C318.405 675.516 343.422 868.874 510.718 826.85C684.656 783.829 820.716 663.872 851.318 636.256" stroke="#8989C7" stroke-width="1.10624" stroke-miterlimit="10"/>
<path opacity="0.8" d="M-655.782 1053.24C-655.782 1053.24 -423.49 530.023 -39.4162 597.369C331.436 661.283 352.819 878.494 524.619 835.142C699.712 791.197 836.495 653.538 851.789 639.762" stroke="#8989C7" stroke-width="1.10624" stroke-miterlimit="10"/>
<path opacity="0.8" d="M-651.079 1068.95C-651.079 1068.95 -413.939 520.407 -34.8294 584.263C344.28 648.118 362.24 888.257 538.433 843.197C714.627 798.137 852.13 642.846 852.13 642.846" stroke="#8989C7" stroke-width="1.10624" stroke-miterlimit="10"/>
</g>
</g>
<defs>
<linearGradient id="paint0_linear_722_2" x1="389.796" y1="698.749" x2="-212.06" y2="537.23" gradientUnits="userSpaceOnUse">
<stop stop-color="#BEF0ED"/>
<stop offset="1" stop-color="#BEF0ED" stop-opacity="0.2"/>
</linearGradient>
<clipPath id="clip0_722_2">
<rect width="390" height="735" fill="white"/>
</clipPath>
</defs>
</svg>
