<svg width="1440" height="1510" viewBox="0 0 1440 1510" fill="none" xmlns="http://www.w3.org/2000/svg">
<g clip-path="url(#clip0_1412_5324)">
<rect width="1440" height="1510" fill="url(#paint0_linear_1412_5324)"/>
<g opacity="0.7">
<path opacity="0.7" d="M1336.74 1287.6L1306.52 1281.17C1190.31 1256.33 1070.15 1230.65 956.807 1254.12C889.18 1268.12 831.732 1298.67 776.189 1328.22C730.278 1352.65 682.777 1377.93 629.34 1394.07C522.511 1426.36 397.704 1419.84 300.904 1410.55C276.294 1408.2 251.387 1405.49 227.236 1402.86C142.763 1393.69 55.4262 1384.15 -30.521 1388.42C-34.4179 1388.6 -38.2602 1388.84 -42.1468 1389.07L-49.5842 1388.04C-43.4602 1387.57 -37.1669 1387.16 -30.7124 1386.84C55.464 1382.57 142.938 1392.11 227.544 1401.3C251.672 1403.93 276.601 1406.64 301.207 1409.01C397.72 1418.25 522.116 1424.76 628.584 1392.63C681.75 1376.57 729.142 1351.36 774.972 1326.98C830.693 1297.36 888.258 1266.71 956.296 1252.62C1070.12 1229 1190.62 1254.75 1307.13 1279.7C1317.27 1281.87 1327.34 1284.02 1337.34 1286.13C1383.34 1295.81 1434.26 1305.05 1485.86 1309.52L1485.46 1311.07C1433.77 1306.53 1382.8 1297.29 1336.74 1287.6Z" fill="#FFEE81"/>
<path opacity="0.7" d="M172.96 1439.01C301.349 1478.83 447.799 1454.58 548.053 1427.18C599.649 1413.1 650.164 1395.85 699.017 1379.17C762.266 1357.58 827.683 1335.27 895.897 1319.63C962.463 1304.37 1130.65 1275.81 1254.09 1339.75C1325.04 1376.54 1371.53 1440.21 1392.27 1528.98C1394.2 1537.32 1395.91 1545.77 1397.53 1554.21L1400.27 1554.35C1398.63 1545.77 1396.9 1537.21 1394.93 1528.72C1374.12 1439.46 1327.21 1375.38 1255.65 1338.28C1131.21 1273.78 961.97 1302.51 894.985 1317.86C826.604 1333.53 761.102 1355.87 697.796 1377.5C648.972 1394.16 598.514 1411.38 547.029 1425.44C447.252 1452.7 301.582 1476.81 174.073 1437.33C128.639 1423.23 87.8233 1401.67 48.3829 1380.81C31.952 1372.12 15.2804 1363.34 -1.86499 1355.02L-2.02734 1357.2C14.5574 1365.3 30.7014 1373.8 46.6811 1382.28C86.2814 1403.2 127.201 1424.84 172.96 1439.01Z" fill="#ECFFFE"/>
</g>
<g opacity="0.8">
<g style="mix-blend-mode:overlay" opacity="0.96">
<path fill-rule="evenodd" clip-rule="evenodd" d="M-58.7938 712.985C-130.132 717.185 -125.472 636.876 -131.432 601.503C-136.857 569.292 -182.252 523.396 -170.627 501.552C-140.909 445.709 -87.1718 527.796 -27.0705 502.557C71.0431 461.337 103.927 557.895 85.4871 606.023C67.0471 654.151 24.0317 708.121 -58.7938 712.985Z" stroke="#ECFFFE" stroke-width="2" stroke-miterlimit="10"/>
</g>
<g style="mix-blend-mode:overlay" opacity="0.96">
<path fill-rule="evenodd" clip-rule="evenodd" d="M-307.7 633.484C-328.264 610.838 -338.813 581.304 -337.14 551.064C-334.693 505.679 -321.541 442.822 -273.167 401.71C-189.914 331.125 -170.694 373.983 -86.4855 339.117C-2.27733 304.252 34.8821 301.976 109.623 360.644C184.363 419.312 140.023 394.691 219.038 468.989C298.053 543.288 286.956 589.247 251.764 629.381C209.638 677.428 -32.1255 748.669 67.5798 916.011C117.785 1000.28 -64.6455 1084.64 -143.026 1020C-221.406 955.353 -353.971 965.053 -311.411 894.658C-268.851 824.264 -271.807 795.399 -264.599 731.962C-260.299 694.233 -286.089 657.268 -307.7 633.484Z" stroke="#ECFFFE" stroke-miterlimit="10"/>
</g>
<g style="mix-blend-mode:overlay" opacity="0.96">
<path fill-rule="evenodd" clip-rule="evenodd" d="M193.829 502.317C246.51 566.564 239.706 601.373 209.937 635.346C195.593 651.737 159.441 666.691 124.124 688.242C66.2438 723.554 10.7295 794.839 33.7926 872.573C62.689 969.971 -70.0199 998.391 -137.231 947.534C-166.414 925.445 -183.667 932.152 -212.564 919.055C-250.506 901.877 -278.999 876.525 -269.535 838.713C-253.442 774.199 -249.307 751.703 -246.919 706.527C-246.735 702.841 -246.536 699.056 -246.298 695.117C-244.375 663.759 -265.178 632.857 -282.592 611.846C-299.01 592.168 -307.433 567.37 -306.322 541.987C-304.547 504.433 -293.323 454.206 -254.769 420.828C-189.765 364.9 -171.716 394.774 -104.837 367.152C-70.641 353.027 -42.3991 346.901 -15.9381 346.831C18.1036 346.839 50.4627 357.936 90.4057 385.986C133.751 416.41 141.649 424.16 156.086 443.484C165.892 456.72 172.756 476.676 193.829 502.317Z" stroke="#ECFFFE" stroke-width="0.86" stroke-miterlimit="10"/>
</g>
<g style="mix-blend-mode:overlay" opacity="0.96">
<path fill-rule="evenodd" clip-rule="evenodd" d="M168.572 535.652C196.031 587.168 192.421 613.53 168.092 641.35C155.667 655.545 128.412 668.55 101.986 686.256C56.4289 716.753 3.98323 768.718 12.2887 835.954C18.5656 887.1 7.54345 1011.53 -131.428 875.097C-149.183 857.676 -173.645 849.267 -195.82 838.434C-219.688 826.728 -233.733 815.496 -236.189 788.366C-239.252 753.986 -228.678 720.366 -227.756 686.166C-226.917 651.873 -237.327 618.341 -257.509 590.327C-269.744 573.657 -276.026 553.574 -275.428 533.043C-274.317 503.303 -265.051 465.61 -236.288 440.061C-220.601 426.131 -203.356 414.942 -182.506 410.156C-133.679 398.924 -86.2153 378.309 -35.5813 379.3C-0.989692 379.955 33.4467 388.556 71.1571 411.403C110.604 435.346 126.667 446.937 142.35 469.146C154.197 485.832 155.289 510.725 168.572 535.652Z" stroke="#ECFFFE" stroke-width="0.72" stroke-miterlimit="10"/>
</g>
<g style="mix-blend-mode:overlay" opacity="0.96">
<path fill-rule="evenodd" clip-rule="evenodd" d="M147.929 553.571C151.235 583.659 144.893 614.73 126.635 640.549C101.352 676.373 57.6771 696.725 30.3665 731.146C11.3581 755.041 -0.0916319 785.881 -26.4839 802.036C-47.7952 815.058 -74.9746 815.653 -99.4342 810.557C-126.871 804.807 -152.332 792.657 -173.587 775.171C-191.689 760.235 -206.919 740.39 -209.525 717.478C-211.76 697.651 -204.412 677.798 -204.477 657.82C-204.623 616.109 -236.374 580.578 -243.19 539.391C-262.832 420.315 -81.6209 400.758 0.36565 419.749C50.2662 431.32 109.508 457.676 132.959 503.672C140.936 519.304 146.001 536.189 147.929 553.571V553.571Z" stroke="#ECFFFE" stroke-width="0.58" stroke-miterlimit="10"/>
</g>
<g style="mix-blend-mode:overlay" opacity="0.96">
<path fill-rule="evenodd" clip-rule="evenodd" d="M-190.89 589.78C-196.278 574.58 -203.623 560.042 -208.465 544.654C-213.307 529.266 -215.583 511.967 -210.231 496.367C-205.007 481.098 -192.908 468.541 -178.715 459.972C-145.414 439.854 -103.456 440.868 -64.5872 444.428C-34.7839 447.17 -4.94227 451.05 23.5501 459.633C71.8985 474.13 126.235 506.761 126.888 561.333C127.556 622.784 69.8333 677.043 23.414 712.66C2.9233 728.38 -19.2693 742.747 -44.2156 750.232C-69.162 757.717 -97.3479 757.675 -120.059 745.595C-146.507 731.506 -161.632 703.509 -169.892 675.492C-178.153 647.475 -181.038 618.031 -190.688 590.433L-190.89 589.78Z" stroke="#ECFFFE" stroke-width="0.44" stroke-miterlimit="10"/>
</g>
</g>
<g opacity="0.8">
<g style="mix-blend-mode:overlay" opacity="0.96">
<path fill-rule="evenodd" clip-rule="evenodd" d="M1455.21 384.986C1383.87 389.186 1388.53 308.877 1382.57 273.504C1377.14 241.293 1331.75 195.397 1343.37 173.553C1373.09 117.71 1426.83 199.797 1486.93 174.558C1585.04 133.338 1617.93 229.896 1599.49 278.024C1581.05 326.152 1538.03 380.122 1455.21 384.986Z" stroke="#FFA6A6" stroke-width="2" stroke-miterlimit="10"/>
</g>
<g style="mix-blend-mode:overlay" opacity="0.96">
<path fill-rule="evenodd" clip-rule="evenodd" d="M1206.3 305.485C1185.74 282.839 1175.19 253.305 1176.86 223.065C1179.31 177.68 1192.46 114.823 1240.83 73.7105C1324.09 3.12626 1343.31 45.9837 1427.52 11.1183C1511.72 -23.7471 1548.88 -26.0233 1623.62 32.6446C1698.36 91.3125 1654.02 66.6918 1733.04 140.99C1812.05 215.289 1800.96 261.248 1765.76 301.382C1723.64 349.429 1481.88 420.67 1581.58 588.012C1631.79 672.283 1449.35 756.643 1370.97 691.999C1292.59 627.354 1160.03 637.054 1202.59 566.659C1245.15 496.264 1242.19 467.4 1249.4 403.963C1253.7 366.234 1227.91 329.269 1206.3 305.485Z" stroke="#FFA6A6" stroke-miterlimit="10"/>
</g>
<g style="mix-blend-mode:overlay" opacity="0.96">
<path fill-rule="evenodd" clip-rule="evenodd" d="M1707.83 174.318C1760.51 238.565 1753.71 273.374 1723.94 307.347C1709.59 323.738 1673.44 338.692 1638.12 360.243C1580.24 395.555 1524.73 466.84 1547.79 544.574C1576.69 641.972 1443.98 670.392 1376.77 619.535C1347.59 597.446 1330.33 604.153 1301.44 591.056C1263.49 573.878 1235 548.526 1244.47 510.714C1260.56 446.2 1264.69 423.704 1267.08 378.528C1267.27 374.842 1267.46 371.057 1267.7 367.118C1269.63 335.76 1248.82 304.858 1231.41 283.847C1214.99 264.169 1206.57 239.371 1207.68 213.988C1209.45 176.434 1220.68 126.207 1259.23 92.8291C1324.24 36.9006 1342.28 66.7748 1409.16 39.1528C1443.36 25.0282 1471.6 18.9025 1498.06 18.8318C1532.1 18.8402 1564.46 29.9368 1604.41 57.9866C1647.75 88.4113 1655.65 96.1607 1670.09 115.485C1679.89 128.721 1686.76 148.677 1707.83 174.318Z" stroke="#FFA6A6" stroke-width="0.86" stroke-miterlimit="10"/>
</g>
<g style="mix-blend-mode:overlay" opacity="0.96">
<path fill-rule="evenodd" clip-rule="evenodd" d="M1682.57 207.653C1710.03 259.169 1706.42 285.531 1682.09 313.351C1669.67 327.546 1642.41 340.551 1615.99 358.257C1570.43 388.754 1517.98 440.719 1526.29 507.955C1532.57 559.101 1521.54 683.535 1382.57 547.098C1364.82 529.677 1340.36 521.268 1318.18 510.435C1294.31 498.729 1280.27 487.497 1277.81 460.367C1274.75 425.987 1285.32 392.367 1286.24 358.167C1287.08 323.874 1276.67 290.342 1256.49 262.328C1244.26 245.658 1237.97 225.575 1238.57 205.044C1239.68 175.304 1248.95 137.611 1277.71 112.062C1293.4 98.1316 1310.64 86.9431 1331.49 82.1572C1380.32 70.9253 1427.79 50.3102 1478.42 51.3007C1513.01 51.956 1547.45 60.5571 1585.16 83.4043C1624.6 107.347 1640.67 118.938 1656.35 141.147C1668.2 157.833 1669.29 182.726 1682.57 207.653Z" stroke="#FFA6A6" stroke-width="0.72" stroke-miterlimit="10"/>
</g>
<g style="mix-blend-mode:overlay" opacity="0.96">
<path fill-rule="evenodd" clip-rule="evenodd" d="M1661.93 225.572C1665.24 255.66 1658.89 286.731 1640.64 312.55C1615.35 348.374 1571.68 368.726 1544.37 403.147C1525.36 427.042 1513.91 457.882 1487.52 474.037C1466.21 487.059 1439.03 487.654 1414.57 482.558C1387.13 476.808 1361.67 464.658 1340.41 447.172C1322.31 432.236 1307.08 412.391 1304.48 389.479C1302.24 369.652 1309.59 349.799 1309.52 329.821C1309.38 288.11 1277.63 252.579 1270.81 211.392C1251.17 92.3157 1432.38 72.7585 1514.37 91.7496C1564.27 103.321 1623.51 129.677 1646.96 175.673C1654.94 191.305 1660 208.19 1661.93 225.572V225.572Z" stroke="#FFA6A6" stroke-width="0.58" stroke-miterlimit="10"/>
</g>
<g style="mix-blend-mode:overlay" opacity="0.96">
<path fill-rule="evenodd" clip-rule="evenodd" d="M1323.11 261.781C1317.72 246.581 1310.38 232.043 1305.54 216.655C1300.69 201.267 1298.42 183.968 1303.77 168.368C1308.99 153.099 1321.09 140.542 1335.29 131.973C1368.59 111.855 1410.54 112.869 1449.41 116.429C1479.22 119.171 1509.06 123.051 1537.55 131.634C1585.9 146.131 1640.24 178.762 1640.89 233.334C1641.56 294.785 1583.83 349.044 1537.41 384.661C1516.92 400.381 1494.73 414.747 1469.78 422.233C1444.84 429.718 1416.65 429.676 1393.94 417.596C1367.49 403.507 1352.37 375.51 1344.11 347.493C1335.85 319.476 1332.96 290.032 1323.31 262.434L1323.11 261.781Z" stroke="#FFA6A6" stroke-width="0.44" stroke-miterlimit="10"/>
</g>
</g>
</g>
<defs>
<linearGradient id="paint0_linear_1412_5324" x1="720" y1="0" x2="720" y2="1510" gradientUnits="userSpaceOnUse">
<stop offset="0.0001" stop-color="#FFEE81"/>
<stop offset="1" stop-color="#FFA6A6"/>
</linearGradient>
<clipPath id="clip0_1412_5324">
<rect width="1440" height="1510" fill="white"/>
</clipPath>
</defs>
</svg>
