<svg width="1440" height="1024" viewBox="0 0 1440 1024" fill="none" xmlns="http://www.w3.org/2000/svg">
<g clip-path="url(#clip0_37_440)">
<rect width="1440" height="1024" fill="#ECFFFE"/>
<g opacity="0.7">
<path opacity="0.7" d="M-38.1678 169.5L-4.39754 177.845C125.492 210.064 259.781 243.366 389.925 227.195C467.573 217.547 534.889 190.73 599.972 164.789C653.771 143.339 709.431 121.156 771.156 108.463C894.554 83.068 1035.51 97.5518 1144.52 113.002C1172.24 116.924 1200.27 121.225 1227.44 125.389C1322.5 139.944 1420.77 155.047 1518.48 156.274C1522.91 156.344 1527.28 156.354 1531.7 156.373L1540.05 157.877C1533.08 157.948 1525.92 157.954 1518.58 157.863C1420.62 156.62 1322.19 141.506 1226.98 126.924C1199.83 122.764 1171.78 118.459 1144.07 114.522C1035.37 99.13 894.886 84.6813 771.908 109.941C710.497 122.577 654.964 144.703 601.262 166.106C535.971 192.106 468.516 219.012 390.395 228.72C259.7 245.018 125.025 211.614 -5.19004 179.272C-16.5222 176.455 -27.7791 173.673 -38.9605 170.927C-90.3788 158.321 -147.416 145.852 -205.556 138.088L-204.995 136.57C-146.748 144.402 -89.6607 156.88 -38.1678 169.5Z" fill="#5ED9D1"/>
<path opacity="0.7" d="M1291.57 92.7796C1148.98 44.8345 981.263 59.6801 865.671 80.6154C806.182 91.364 747.688 105.353 691.119 118.877C617.88 136.383 542.133 154.465 463.7 165.714C387.162 176.684 194.506 194.435 59.2747 122.732C-18.4588 81.4816 -66.5235 14.9759 -83.5788 -74.9394C-85.1625 -83.3903 -86.4815 -91.9274 -87.7078 -100.455L-90.7978 -100.766C-89.561 -92.1056 -88.2286 -83.4544 -86.6064 -74.8491C-69.5036 15.5598 -21.006 82.5039 57.3943 124.103C193.721 196.424 387.586 178.569 464.605 167.535C543.23 156.267 619.075 138.158 692.381 120.621C748.916 107.112 807.343 93.1541 866.705 82.4116C981.746 61.5901 1148.56 46.8425 1290.19 94.3889C1340.65 111.367 1385.33 135.492 1428.51 158.826C1446.5 168.551 1464.76 178.379 1483.58 187.775L1483.92 185.609C1465.72 176.464 1448.04 166.958 1430.55 157.47C1387.19 134.062 1342.39 109.851 1291.57 92.7796Z" fill="#8989C7"/>
</g>
<g opacity="0.5">
<g style="mix-blend-mode:overlay" opacity="0.96">
<path fill-rule="evenodd" clip-rule="evenodd" d="M-141.789 683.595C-172.042 748.336 -95.6919 773.671 -65.0218 792.275C-37.0928 809.214 -11.2097 868.352 13.3832 865.618C76.2538 858.628 19.8215 778.37 65.4751 731.842C140.021 655.893 62.4384 589.668 10.9025 589.027C-40.6334 588.385 -106.675 608.424 -141.789 683.595Z" stroke="#8989C7" stroke-width="2" stroke-miterlimit="10"/>
</g>
<g style="mix-blend-mode:overlay" opacity="0.96">
<path fill-rule="evenodd" clip-rule="evenodd" d="M-159.85 944.265C-146.401 971.739 -122.853 992.451 -94.1328 1002.07C-51.0541 1016.56 12.2155 1027.55 68.289 997.785C164.633 946.492 131.906 912.8 195.41 847.426C258.915 782.051 274.756 748.361 247.844 657.235C220.932 566.11 227.434 616.408 187.576 515.537C147.718 414.666 100.91 408.002 50.615 425.881C-9.59393 447.28 -165.099 645.632 -283.778 491.166C-343.544 413.384 -489.324 551.752 -458.203 648.467C-427.082 745.182 -485.062 864.79 -403.925 851.242C-322.788 837.694 -297.057 851.102 -235.443 867.836C-198.794 877.776 -173.969 915.396 -159.85 944.265Z" stroke="#8989C7" stroke-miterlimit="10"/>
</g>
<g style="mix-blend-mode:overlay" opacity="0.96">
<path fill-rule="evenodd" clip-rule="evenodd" d="M147.293 526.653C107.048 453.966 72.1889 447.431 29.6218 462.547C9.09166 469.822 -18.1581 497.894 -51.2307 522.752C-105.425 563.496 -192.174 588.753 -255.892 538.608C-335.729 475.779 -411.158 588.605 -388.723 669.849C-378.976 705.127 -391.581 718.682 -390.085 750.374C-388.137 791.977 -375.102 827.82 -336.468 832.992C-270.572 841.867 -248.14 846.334 -205.277 860.801C-201.783 861.992 -198.192 863.205 -194.444 864.44C-164.594 874.234 -143.561 904.981 -130.468 928.924C-118.246 951.45 -98.3134 968.437 -74.3144 976.78C-38.7612 989.002 12.0603 997.125 57.3182 973.626C133.302 933.879 112.208 906.071 162.58 854.124C188.337 827.564 204.461 803.582 214.301 779.018C226.867 747.381 228.508 713.212 217.196 665.732C204.933 614.214 200.649 604.013 188.024 583.458C179.346 569.457 163.337 555.707 147.293 526.653Z" stroke="#8989C7" stroke-width="0.86" stroke-miterlimit="10"/>
</g>
<g style="mix-blend-mode:overlay" opacity="0.96">
<path fill-rule="evenodd" clip-rule="evenodd" d="M106.986 537.811C69.2569 493.265 43.4249 486.883 8.58644 499.215C-9.19443 505.517 -31.3472 526.042 -57.5617 544.059C-102.729 575.129 -170.392 604.671 -229.805 572.118C-275.016 547.393 -394.721 511.672 -319.265 691.213C-309.635 714.146 -310.856 739.985 -308.98 764.593C-306.919 791.097 -301.669 808.298 -277.364 820.601C-246.547 836.147 -211.399 838.739 -179.277 850.515C-147.099 862.402 -119.784 884.461 -101.206 913.564C-90.234 931.091 -73.8917 944.347 -54.5918 951.375C-26.5443 961.328 11.9053 966.64 46.2717 949.348C65.0116 939.916 81.7787 928.024 93.9279 910.415C122.401 869.19 159.09 832.698 176.872 785.279C189.041 752.892 193.768 717.714 186.466 674.231C178.787 628.73 173.949 609.521 159.103 586.744C147.973 569.571 125.245 559.362 106.986 537.811Z" stroke="#8989C7" stroke-width="0.72" stroke-miterlimit="10"/>
</g>
<g style="mix-blend-mode:overlay" opacity="0.96">
<path fill-rule="evenodd" clip-rule="evenodd" d="M82.7101 550.375C55.9706 536.189 24.7542 530.606 -5.98238 538.036C-48.6123 548.298 -83.6573 581.367 -125.732 594.032C-154.958 602.87 -187.846 602.118 -212.607 620.677C-232.581 635.671 -243.173 660.708 -247.472 685.321C-252.263 712.941 -250.377 741.089 -241.979 767.3C-234.786 789.639 -221.969 811.122 -201.64 822.007C-184.041 831.407 -162.879 831.912 -144.337 839.352C-105.629 854.895 -84.3392 897.525 -48.5827 919.072C54.8172 981.309 139.926 820.137 152.562 736.934C160.241 686.288 157.631 621.5 123.551 582.718C111.97 569.531 98.1501 558.587 82.7101 550.375V550.375Z" stroke="#8989C7" stroke-width="0.58" stroke-miterlimit="10"/>
</g>
<g style="mix-blend-mode:overlay" opacity="0.96">
<path fill-rule="evenodd" clip-rule="evenodd" d="M-76.0898 851.859C-63.9548 862.48 -53.1579 874.676 -40.6467 884.859C-28.1355 895.042 -12.9003 903.548 3.57344 904.337C19.6923 905.121 35.8305 898.516 49.0359 888.492C80.0319 864.977 94.5869 825.613 105.636 788.177C114.097 759.469 121.514 730.304 124.062 700.657C128.45 650.373 118.196 587.825 67.7253 567.062C10.867 543.742 -60.8762 577.341 -111.121 607.321C-133.298 620.556 -154.846 635.873 -171.016 656.29C-187.186 676.707 -197.559 702.915 -194.723 728.482C-191.398 758.264 -170.969 782.66 -147.984 800.686C-125 818.711 -98.7034 832.268 -76.6216 851.429L-76.0898 851.859Z" stroke="#8989C7" stroke-width="0.44" stroke-miterlimit="10"/>
</g>
</g>
<g opacity="0.5">
<g style="mix-blend-mode:overlay" opacity="0.96">
<path fill-rule="evenodd" clip-rule="evenodd" d="M1492.79 883.345C1532.6 942.686 1593.73 890.387 1625.5 873.731C1654.43 858.562 1718.43 866.937 1728.79 844.465C1755.27 787.017 1657.4 793.896 1641.14 730.773C1614.6 627.715 1517.82 659.952 1490.66 703.753C1463.49 747.554 1446.55 814.456 1492.79 883.345Z" stroke="#8989C7" stroke-width="2" stroke-miterlimit="10"/>
</g>
<g style="mix-blend-mode:overlay" opacity="0.96">
<path fill-rule="evenodd" clip-rule="evenodd" d="M1706.68 1033.43C1737.15 1036.1 1767.05 1026.63 1790.11 1007C1824.77 977.593 1866.86 929.092 1870.33 865.702C1876.16 756.709 1830.4 767.336 1807.22 679.195C1784.03 591.053 1763.36 560.089 1671.43 536.076C1579.49 512.062 1625.92 532.47 1518.96 514.51C1412 496.55 1382.12 533.192 1371.46 585.494C1358.69 648.104 1448.24 883.702 1254.68 905.561C1157.2 916.573 1200.41 1112.87 1299.3 1136.16C1398.19 1159.46 1470.68 1270.87 1500.98 1194.4C1531.27 1117.92 1556.05 1102.81 1602.19 1058.69C1629.63 1032.44 1674.67 1030.61 1706.68 1033.43Z" stroke="#8989C7" stroke-miterlimit="10"/>
</g>
<g style="mix-blend-mode:overlay" opacity="0.96">
<path fill-rule="evenodd" clip-rule="evenodd" d="M1507.68 554.746C1424.65 551.672 1401.05 578.149 1392.01 622.406C1387.64 643.744 1397.61 681.576 1401.82 722.735C1408.72 790.184 1385.55 877.514 1309.7 906.182C1214.67 942.102 1272.34 1064.96 1353.49 1087.71C1388.74 1097.58 1393.83 1115.37 1421.75 1130.46C1458.38 1150.27 1495.8 1157.62 1520.18 1127.21C1561.81 1075.36 1577.22 1058.46 1611.75 1029.22C1614.57 1026.85 1617.46 1024.4 1620.46 1021.83C1644.26 1001.32 1681.45 999.191 1708.72 1000.34C1734.32 1001.51 1759.16 993.213 1778.7 976.971C1807.52 952.837 1840.72 913.511 1843.97 862.62C1849.17 777.026 1814.47 780.729 1796 710.768C1786.55 674.995 1774.35 648.802 1758.39 627.691C1737.79 600.592 1709.38 581.541 1662.88 566.709C1612.43 550.605 1601.48 549.005 1577.36 549.202C1560.89 549.402 1540.84 556.011 1507.68 554.746Z" stroke="#8989C7" stroke-width="0.86" stroke-miterlimit="10"/>
</g>
<g style="mix-blend-mode:overlay" opacity="0.96">
<path fill-rule="evenodd" clip-rule="evenodd" d="M1496.42 595.024C1438.79 604.329 1419.98 623.154 1412.55 659.356C1408.77 677.837 1414.9 707.406 1416.79 739.159C1420.07 793.883 1410.43 867.081 1351.87 901.148C1307.35 927.095 1214.94 1011.16 1407.66 1039.26C1432.27 1042.86 1453.76 1057.24 1475.81 1068.35C1499.57 1080.27 1517.01 1084.65 1540.1 1070.2C1569.32 1051.83 1589.69 1023.07 1616.37 1001.65C1643.16 980.232 1676.16 968.233 1710.67 967.353C1731.35 967.008 1751.14 959.859 1767.13 946.962C1790.13 928.084 1814.54 897.901 1817.48 859.542C1819.08 838.624 1817.55 818.124 1808.75 798.627C1788.15 752.955 1775.85 702.692 1744.42 662.976C1722.97 635.83 1695.29 613.615 1654.28 597.413C1611.35 580.491 1592.41 574.714 1565.24 575.665C1544.78 576.327 1524.3 590.518 1496.42 595.024Z" stroke="#8989C7" stroke-width="0.72" stroke-miterlimit="10"/>
</g>
<g style="mix-blend-mode:overlay" opacity="0.96">
<path fill-rule="evenodd" clip-rule="evenodd" d="M1494.64 622.301C1468.68 637.873 1447.78 661.722 1438.27 691.88C1425.04 733.685 1435.26 780.772 1424.38 823.343C1416.86 852.934 1399.23 880.71 1402.33 911.497C1404.86 936.345 1420.83 958.345 1439.69 974.737C1460.86 993.103 1485.94 1006.02 1512.73 1012.37C1535.57 1017.75 1560.59 1017.86 1580.4 1006.08C1597.54 995.86 1608.9 977.999 1624.85 965.963C1658.15 940.843 1705.65 944.626 1742.57 925.134C1849.26 868.729 1755.19 712.615 1690.47 658.827C1651.07 626.097 1594.24 594.874 1543.43 604.03C1526.15 607.137 1509.65 613.32 1494.64 622.301V622.301Z" stroke="#8989C7" stroke-width="0.58" stroke-miterlimit="10"/>
</g>
<g style="mix-blend-mode:overlay" opacity="0.96">
<path fill-rule="evenodd" clip-rule="evenodd" d="M1670.8 913.979C1686.17 909.073 1702.19 906.125 1717.37 900.67C1732.55 895.215 1747.7 886.561 1756.88 872.861C1765.88 859.463 1768.56 842.233 1766.79 825.748C1762.66 787.061 1736.47 754.268 1710.12 725.474C1689.9 703.403 1668.76 681.991 1644.69 664.498C1603.89 634.774 1545.04 611.253 1501.19 643.751C1451.86 680.398 1443.58 759.185 1443.31 817.694C1443.19 843.52 1445.18 869.882 1454.31 894.273C1463.44 918.664 1480.53 941.08 1503.89 951.855C1531.11 964.388 1562.55 959.492 1589.86 949.118C1617.16 938.744 1642.35 923.227 1670.16 914.213L1670.8 913.979Z" stroke="#8989C7" stroke-width="0.44" stroke-miterlimit="10"/>
</g>
</g>
</g>
<defs>
<clipPath id="clip0_37_440">
<rect width="1440" height="1024" fill="white"/>
</clipPath>
</defs>
</svg>
