<svg width="1440" height="1372" viewBox="0 0 1440 1372" fill="none" xmlns="http://www.w3.org/2000/svg">
<g clip-path="url(#clip0_1244_6294)">
<rect width="1440" height="1372" fill="#ECFFFE"/>
<g opacity="0.7">
<path opacity="0.7" d="M1336.74 1194.6L1306.52 1188.17C1190.31 1163.33 1070.15 1137.65 956.807 1161.12C889.18 1175.12 831.732 1205.67 776.189 1235.22C730.278 1259.65 682.777 1284.92 629.34 1301.07C522.511 1333.36 397.704 1326.84 300.904 1317.55C276.294 1315.2 251.387 1312.49 227.236 1309.86C142.763 1300.69 55.4262 1291.15 -30.521 1295.42C-34.4179 1295.6 -38.2602 1295.84 -42.1468 1296.07L-49.5842 1295.04C-43.4602 1294.57 -37.1669 1294.16 -30.7124 1293.84C55.464 1289.57 142.938 1299.11 227.544 1308.3C251.672 1310.93 276.601 1313.64 301.207 1316.01C397.72 1325.25 522.116 1331.76 628.584 1299.63C681.75 1283.57 729.142 1258.36 774.972 1233.98C830.693 1204.35 888.258 1173.71 956.296 1159.62C1070.12 1136 1190.62 1161.75 1307.13 1186.7C1317.27 1188.87 1327.34 1191.02 1337.34 1193.13C1383.34 1202.81 1434.26 1212.05 1485.86 1216.52L1485.46 1218.07C1433.77 1213.53 1382.8 1204.29 1336.74 1194.6Z" fill="#5ED9D1"/>
<path opacity="0.7" d="M172.96 1346.01C301.349 1385.83 447.799 1361.58 548.053 1334.18C599.649 1320.1 650.164 1302.85 699.017 1286.17C762.266 1264.57 827.682 1242.27 895.897 1226.62C962.463 1211.37 1130.65 1182.81 1254.09 1246.75C1325.04 1283.54 1371.53 1347.21 1392.27 1435.98C1394.2 1444.32 1395.91 1452.77 1397.53 1461.21L1400.27 1461.35C1398.63 1452.77 1396.9 1444.21 1394.93 1435.72C1374.12 1346.46 1327.21 1282.38 1255.65 1245.28C1131.21 1180.78 961.97 1209.51 894.985 1224.86C826.604 1240.53 761.102 1262.87 697.796 1284.5C648.972 1301.16 598.514 1318.38 547.029 1332.44C447.252 1359.7 301.582 1383.81 174.073 1344.33C128.639 1330.23 87.8233 1308.67 48.3829 1287.81C31.952 1279.12 15.2804 1270.34 -1.86499 1262.02L-2.02734 1264.2C14.5574 1272.3 30.7014 1280.79 46.6811 1289.28C86.2814 1310.2 127.201 1331.84 172.96 1346.01Z" fill="#8989C7"/>
</g>
<g opacity="0.5">
<g style="mix-blend-mode:overlay" opacity="0.96">
<path fill-rule="evenodd" clip-rule="evenodd" d="M-56.7938 777.986C-128.132 782.186 -123.472 701.877 -129.432 666.504C-134.857 634.293 -180.252 588.397 -168.627 566.553C-138.909 510.71 -85.1718 592.797 -25.0705 567.558C73.0431 526.338 105.927 622.896 87.4871 671.024C69.0471 719.152 26.0317 773.122 -56.7938 777.986Z" stroke="#5ED9D1" stroke-width="2" stroke-miterlimit="10"/>
</g>
<g style="mix-blend-mode:overlay" opacity="0.96">
<path fill-rule="evenodd" clip-rule="evenodd" d="M-305.7 698.485C-326.264 675.839 -336.813 646.305 -335.14 616.065C-332.693 570.68 -319.541 507.823 -271.167 466.711C-187.914 396.126 -168.694 438.984 -84.4855 404.118C-0.277329 369.253 36.8821 366.977 111.623 425.645C186.363 484.313 142.023 459.692 221.038 533.99C300.053 608.289 288.956 654.248 253.764 694.382C211.638 742.429 -30.1255 813.67 69.5798 981.012C119.785 1065.28 -62.6455 1149.64 -141.026 1085C-219.406 1020.35 -351.971 1030.05 -309.411 959.659C-266.851 889.264 -269.807 860.4 -262.599 796.963C-258.299 759.234 -284.089 722.269 -305.7 698.485Z" stroke="#5ED9D1" stroke-miterlimit="10"/>
</g>
<g style="mix-blend-mode:overlay" opacity="0.96">
<path fill-rule="evenodd" clip-rule="evenodd" d="M195.829 567.318C248.51 631.565 241.706 666.374 211.937 700.347C197.593 716.738 161.441 731.692 126.124 753.243C68.2438 788.555 12.7295 859.84 35.7926 937.574C64.689 1034.97 -68.0199 1063.39 -135.231 1012.53C-164.414 990.446 -181.667 997.153 -210.564 984.056C-248.506 966.878 -276.999 941.526 -267.535 903.714C-251.442 839.2 -247.307 816.704 -244.919 771.528C-244.735 767.842 -244.536 764.057 -244.298 760.118C-242.375 728.76 -263.178 697.858 -280.592 676.847C-297.01 657.169 -305.433 632.371 -304.322 606.988C-302.547 569.434 -291.323 519.207 -252.769 485.829C-187.765 429.901 -169.716 459.775 -102.837 432.153C-68.641 418.028 -40.3991 411.902 -13.9381 411.832C20.1036 411.84 52.4627 422.937 92.4057 450.987C135.751 481.411 143.649 489.161 158.086 508.485C167.892 521.721 174.756 541.677 195.829 567.318Z" stroke="#5ED9D1" stroke-width="0.86" stroke-miterlimit="10"/>
</g>
<g style="mix-blend-mode:overlay" opacity="0.96">
<path fill-rule="evenodd" clip-rule="evenodd" d="M170.572 600.653C198.031 652.169 194.421 678.531 170.092 706.351C157.667 720.546 130.412 733.551 103.986 751.257C58.4289 781.754 5.98323 833.719 14.2887 900.955C20.5656 952.101 9.54345 1076.54 -129.428 940.098C-147.183 922.677 -171.645 914.268 -193.82 903.435C-217.688 891.729 -231.733 880.497 -234.189 853.367C-237.252 818.987 -226.678 785.367 -225.756 751.167C-224.917 716.874 -235.327 683.342 -255.509 655.328C-267.744 638.658 -274.026 618.575 -273.428 598.044C-272.317 568.304 -263.051 530.611 -234.288 505.062C-218.601 491.132 -201.356 479.943 -180.506 475.157C-131.679 463.925 -84.2153 443.31 -33.5813 444.301C1.01031 444.956 35.4467 453.557 73.1571 476.404C112.604 500.347 128.667 511.938 144.35 534.147C156.197 550.833 157.289 575.726 170.572 600.653Z" stroke="#5ED9D1" stroke-width="0.72" stroke-miterlimit="10"/>
</g>
<g style="mix-blend-mode:overlay" opacity="0.96">
<path fill-rule="evenodd" clip-rule="evenodd" d="M149.929 618.572C153.235 648.66 146.893 679.731 128.635 705.55C103.352 741.374 59.6771 761.726 32.3665 796.147C13.3581 820.042 1.90837 850.882 -24.4839 867.037C-45.7952 880.059 -72.9746 880.654 -97.4342 875.558C-124.871 869.808 -150.332 857.658 -171.587 840.172C-189.689 825.236 -204.919 805.391 -207.525 782.479C-209.76 762.652 -202.412 742.799 -202.477 722.821C-202.623 681.11 -234.374 645.579 -241.19 604.392C-260.832 485.316 -79.6209 465.758 2.36565 484.75C52.2662 496.321 111.508 522.677 134.959 568.673C142.936 584.305 148.001 601.19 149.929 618.572V618.572Z" stroke="#5ED9D1" stroke-width="0.58" stroke-miterlimit="10"/>
</g>
<g style="mix-blend-mode:overlay" opacity="0.96">
<path fill-rule="evenodd" clip-rule="evenodd" d="M-188.89 654.781C-194.278 639.58 -201.623 625.042 -206.465 609.655C-211.307 594.267 -213.583 576.967 -208.231 561.367C-203.007 546.098 -190.908 533.541 -176.715 524.972C-143.414 504.854 -101.456 505.869 -62.5872 509.428C-32.7839 512.17 -2.94227 516.05 25.5501 524.634C73.8985 539.13 128.235 571.762 128.888 626.333C129.556 687.784 71.8333 742.043 25.414 777.66C4.9233 793.381 -17.2693 807.747 -42.2156 815.232C-67.162 822.717 -95.3479 822.675 -118.059 810.596C-144.507 796.506 -159.632 768.51 -167.892 740.493C-176.153 712.475 -179.038 683.031 -188.688 655.433L-188.89 654.781Z" stroke="#5ED9D1" stroke-width="0.44" stroke-miterlimit="10"/>
</g>
</g>
<g opacity="0.5">
<g style="mix-blend-mode:overlay" opacity="0.96">
<path fill-rule="evenodd" clip-rule="evenodd" d="M1466.21 376.986C1394.87 381.186 1399.53 300.877 1393.57 265.504C1388.14 233.293 1342.75 187.397 1354.37 165.553C1384.09 109.71 1437.83 191.797 1497.93 166.558C1596.04 125.338 1628.93 221.896 1610.49 270.024C1592.05 318.152 1549.03 372.122 1466.21 376.986Z" stroke="#8989C7" stroke-width="2" stroke-miterlimit="10"/>
</g>
<g style="mix-blend-mode:overlay" opacity="0.96">
<path fill-rule="evenodd" clip-rule="evenodd" d="M1217.3 297.485C1196.74 274.839 1186.19 245.305 1187.86 215.065C1190.31 169.68 1203.46 106.823 1251.83 65.7105C1335.09 -4.87374 1354.31 37.9837 1438.52 3.11831C1522.72 -31.7471 1559.88 -34.0233 1634.62 24.6446C1709.36 83.3125 1665.02 58.6918 1744.04 132.99C1823.05 207.289 1811.96 253.248 1776.76 293.382C1734.64 341.429 1492.88 412.67 1592.58 580.012C1642.79 664.283 1460.35 748.643 1381.97 683.999C1303.59 619.354 1171.03 629.054 1213.59 558.659C1256.15 488.264 1253.19 459.4 1260.4 395.963C1264.7 358.234 1238.91 321.269 1217.3 297.485Z" stroke="#8989C7" stroke-miterlimit="10"/>
</g>
<g style="mix-blend-mode:overlay" opacity="0.96">
<path fill-rule="evenodd" clip-rule="evenodd" d="M1718.83 166.318C1771.51 230.565 1764.71 265.374 1734.94 299.347C1720.59 315.738 1684.44 330.692 1649.12 352.243C1591.24 387.555 1535.73 458.84 1558.79 536.574C1587.69 633.972 1454.98 662.392 1387.77 611.535C1358.59 589.446 1341.33 596.153 1312.44 583.056C1274.49 565.878 1246 540.526 1255.47 502.714C1271.56 438.2 1275.69 415.704 1278.08 370.528C1278.27 366.842 1278.46 363.057 1278.7 359.118C1280.63 327.76 1259.82 296.858 1242.41 275.847C1225.99 256.169 1217.57 231.371 1218.68 205.988C1220.45 168.434 1231.68 118.207 1270.23 84.8291C1335.24 28.9006 1353.28 58.7748 1420.16 31.1528C1454.36 17.0282 1482.6 10.9025 1509.06 10.8318C1543.1 10.8402 1575.46 21.9368 1615.41 49.9866C1658.75 80.4113 1666.65 88.1607 1681.09 107.485C1690.89 120.721 1697.76 140.677 1718.83 166.318Z" stroke="#8989C7" stroke-width="0.86" stroke-miterlimit="10"/>
</g>
<g style="mix-blend-mode:overlay" opacity="0.96">
<path fill-rule="evenodd" clip-rule="evenodd" d="M1693.57 199.653C1721.03 251.169 1717.42 277.531 1693.09 305.351C1680.67 319.546 1653.41 332.551 1626.99 350.257C1581.43 380.754 1528.98 432.719 1537.29 499.955C1543.57 551.101 1532.54 675.535 1393.57 539.098C1375.82 521.677 1351.36 513.268 1329.18 502.435C1305.31 490.729 1291.27 479.497 1288.81 452.367C1285.75 417.987 1296.32 384.367 1297.24 350.167C1298.08 315.874 1287.67 282.342 1267.49 254.328C1255.26 237.658 1248.97 217.575 1249.57 197.044C1250.68 167.304 1259.95 129.611 1288.71 104.062C1304.4 90.1316 1321.64 78.9431 1342.49 74.1572C1391.32 62.9253 1438.79 42.3102 1489.42 43.3007C1524.01 43.956 1558.45 52.5571 1596.16 75.4043C1635.6 99.3469 1651.67 110.938 1667.35 133.147C1679.2 149.833 1680.29 174.726 1693.57 199.653Z" stroke="#8989C7" stroke-width="0.72" stroke-miterlimit="10"/>
</g>
<g style="mix-blend-mode:overlay" opacity="0.96">
<path fill-rule="evenodd" clip-rule="evenodd" d="M1672.93 217.572C1676.24 247.66 1669.89 278.731 1651.64 304.55C1626.35 340.374 1582.68 360.726 1555.37 395.147C1536.36 419.042 1524.91 449.882 1498.52 466.037C1477.21 479.059 1450.03 479.654 1425.57 474.558C1398.13 468.808 1372.67 456.658 1351.41 439.172C1333.31 424.236 1318.08 404.391 1315.48 381.479C1313.24 361.652 1320.59 341.799 1320.52 321.821C1320.38 280.11 1288.63 244.579 1281.81 203.392C1262.17 84.3157 1443.38 64.7585 1525.37 83.7496C1575.27 95.3207 1634.51 121.677 1657.96 167.673C1665.94 183.305 1671 200.19 1672.93 217.572V217.572Z" stroke="#8989C7" stroke-width="0.58" stroke-miterlimit="10"/>
</g>
<g style="mix-blend-mode:overlay" opacity="0.96">
<path fill-rule="evenodd" clip-rule="evenodd" d="M1334.11 253.781C1328.72 238.58 1321.38 224.042 1316.54 208.655C1311.69 193.267 1309.42 175.967 1314.77 160.367C1319.99 145.098 1332.09 132.541 1346.29 123.972C1379.59 103.854 1421.54 104.869 1460.41 108.428C1490.22 111.17 1520.06 115.05 1548.55 123.634C1596.9 138.13 1651.24 170.762 1651.89 225.333C1652.56 286.784 1594.83 341.043 1548.41 376.66C1527.92 392.381 1505.73 406.747 1480.78 414.232C1455.84 421.717 1427.65 421.675 1404.94 409.596C1378.49 395.506 1363.37 367.51 1355.11 339.493C1346.85 311.475 1343.96 282.031 1334.31 254.433L1334.11 253.781Z" stroke="#8989C7" stroke-width="0.44" stroke-miterlimit="10"/>
</g>
</g>
</g>
<defs>
<clipPath id="clip0_1244_6294">
<rect width="1440" height="1372" fill="white"/>
</clipPath>
</defs>
</svg>
