<svg width="1440" height="1372" viewBox="0 0 1440 1372" fill="none" xmlns="http://www.w3.org/2000/svg">
<g clip-path="url(#clip0_1246_6001)">
<rect width="1440" height="1372" fill="url(#paint0_linear_1246_6001)"/>
<g opacity="0.7">
<path opacity="0.7" d="M1336.74 1194.6L1306.52 1188.17C1190.31 1163.33 1070.15 1137.65 956.807 1161.12C889.18 1175.12 831.732 1205.67 776.189 1235.22C730.278 1259.65 682.777 1284.93 629.34 1301.07C522.511 1333.36 397.704 1326.84 300.904 1317.55C276.294 1315.2 251.387 1312.49 227.236 1309.86C142.763 1300.69 55.4262 1291.15 -30.521 1295.42C-34.4179 1295.6 -38.2602 1295.84 -42.1468 1296.07L-49.5842 1295.04C-43.4602 1294.57 -37.1669 1294.16 -30.7124 1293.84C55.464 1289.57 142.938 1299.11 227.544 1308.3C251.672 1310.93 276.601 1313.64 301.207 1316.01C397.72 1325.25 522.116 1331.76 628.584 1299.63C681.75 1283.57 729.142 1258.36 774.972 1233.98C830.693 1204.36 888.258 1173.71 956.296 1159.62C1070.12 1136 1190.62 1161.75 1307.13 1186.7C1317.27 1188.87 1327.34 1191.02 1337.34 1193.13C1383.34 1202.81 1434.26 1212.05 1485.86 1216.52L1485.46 1218.07C1433.77 1213.53 1382.8 1204.29 1336.74 1194.6Z" fill="#ECFFFE"/>
<path opacity="0.7" d="M172.96 1346.01C301.349 1385.83 447.799 1361.58 548.053 1334.18C599.649 1320.1 650.164 1302.85 699.017 1286.17C762.266 1264.58 827.682 1242.27 895.897 1226.63C962.463 1211.37 1130.65 1182.81 1254.09 1246.75C1325.04 1283.54 1371.53 1347.21 1392.27 1435.98C1394.2 1444.32 1395.91 1452.77 1397.53 1461.21L1400.27 1461.35C1398.63 1452.77 1396.9 1444.21 1394.93 1435.72C1374.12 1346.46 1327.21 1282.38 1255.65 1245.28C1131.21 1180.78 961.97 1209.51 894.985 1224.86C826.604 1240.53 761.102 1262.87 697.796 1284.5C648.972 1301.16 598.514 1318.38 547.029 1332.44C447.252 1359.7 301.582 1383.81 174.073 1344.33C128.639 1330.23 87.8233 1308.67 48.3829 1287.81C31.952 1279.12 15.2804 1270.34 -1.86499 1262.02L-2.02734 1264.2C14.5574 1272.3 30.7014 1280.8 46.6811 1289.28C86.2814 1310.2 127.201 1331.84 172.96 1346.01Z" fill="#6B5FA5"/>
</g>
<g opacity="0.5">
<g style="mix-blend-mode:overlay" opacity="0.96">
<path fill-rule="evenodd" clip-rule="evenodd" d="M-55.7938 696.987C-127.132 701.187 -122.472 620.878 -128.432 585.505C-133.857 553.294 -179.252 507.397 -167.627 485.553C-137.909 429.711 -84.1718 511.797 -24.0705 486.559C74.0431 445.338 106.927 541.896 88.4871 590.024C70.0471 638.153 27.0317 692.123 -55.7938 696.987Z" stroke="#4D3D8D" stroke-width="2" stroke-miterlimit="10"/>
</g>
<g style="mix-blend-mode:overlay" opacity="0.96">
<path fill-rule="evenodd" clip-rule="evenodd" d="M-304.7 617.485C-325.264 594.839 -335.813 565.306 -334.14 535.065C-331.693 489.681 -318.541 426.824 -270.167 385.711C-186.914 315.127 -167.694 357.984 -83.4855 323.119C0.722671 288.253 37.8821 285.977 112.623 344.645C187.363 403.313 143.023 378.692 222.038 452.991C301.053 527.29 289.956 573.249 254.764 613.383C212.638 661.429 -29.1255 732.671 70.5798 900.013C120.785 984.283 -61.6455 1068.64 -140.026 1004C-218.406 939.355 -350.971 949.055 -308.411 878.66C-265.851 808.265 -268.807 779.401 -261.599 715.964C-257.299 678.235 -283.089 641.269 -304.7 617.485Z" stroke="#4D3D8D" stroke-miterlimit="10"/>
</g>
<g style="mix-blend-mode:overlay" opacity="0.96">
<path fill-rule="evenodd" clip-rule="evenodd" d="M196.829 486.319C249.51 550.566 242.706 585.374 212.937 619.348C198.593 635.739 162.441 650.692 127.124 672.244C69.2438 707.555 13.7295 778.841 36.7926 856.574C65.689 953.973 -67.0199 982.393 -134.231 931.535C-163.414 909.446 -180.667 916.153 -209.564 903.056C-247.506 885.879 -275.999 860.527 -266.535 822.714C-250.442 758.2 -246.307 735.704 -243.919 690.529C-243.735 686.842 -243.536 683.057 -243.298 679.118C-241.375 647.761 -262.178 616.859 -279.592 595.847C-296.01 576.169 -304.433 551.372 -303.322 525.988C-301.547 488.435 -290.323 438.207 -251.769 404.83C-186.765 348.901 -168.716 378.775 -101.837 351.153C-67.641 337.029 -39.3991 330.903 -12.9381 330.832C21.1036 330.841 53.4627 341.937 93.4057 369.987C136.751 400.412 144.649 408.161 159.086 427.485C168.892 440.722 175.756 460.678 196.829 486.319Z" stroke="#4D3D8D" stroke-width="0.86" stroke-miterlimit="10"/>
</g>
<g style="mix-blend-mode:overlay" opacity="0.96">
<path fill-rule="evenodd" clip-rule="evenodd" d="M171.572 519.654C199.031 571.169 195.421 597.532 171.092 625.351C158.667 639.547 131.412 652.552 104.986 670.257C59.4289 700.754 6.98323 752.719 15.2887 819.955C21.5656 871.102 10.5434 995.536 -128.428 859.098C-146.183 841.678 -170.645 833.268 -192.82 822.435C-216.688 810.73 -230.733 799.498 -233.189 772.367C-236.252 737.987 -225.678 704.368 -224.756 670.167C-223.917 635.874 -234.327 602.343 -254.509 574.329C-266.744 557.659 -273.026 537.576 -272.428 517.045C-271.317 487.304 -262.051 449.612 -233.288 424.063C-217.601 410.132 -200.356 398.944 -179.506 394.158C-130.679 382.926 -83.2153 362.311 -32.5813 363.301C2.01031 363.956 36.4467 372.558 74.1571 395.405C113.604 419.347 129.667 430.939 145.35 453.148C157.197 469.834 158.289 494.726 171.572 519.654Z" stroke="#4D3D8D" stroke-width="0.72" stroke-miterlimit="10"/>
</g>
<g style="mix-blend-mode:overlay" opacity="0.96">
<path fill-rule="evenodd" clip-rule="evenodd" d="M150.929 537.572C154.235 567.661 147.893 598.732 129.635 624.55C104.352 660.375 60.6771 680.727 33.3665 715.147C14.3581 739.042 2.90837 769.882 -23.4839 786.037C-44.7952 799.06 -71.9746 799.655 -96.4342 794.558C-123.871 788.808 -149.332 776.658 -170.587 759.173C-188.689 744.237 -203.919 724.391 -206.525 701.479C-208.76 681.653 -201.412 661.8 -201.477 641.822C-201.623 600.11 -233.374 564.579 -240.19 523.392C-259.832 404.316 -78.6209 384.759 3.36565 403.75C53.2662 415.321 112.508 441.678 135.959 487.673C143.936 503.306 149.001 520.191 150.929 537.572V537.572Z" stroke="#4D3D8D" stroke-width="0.58" stroke-miterlimit="10"/>
</g>
<g style="mix-blend-mode:overlay" opacity="0.96">
<path fill-rule="evenodd" clip-rule="evenodd" d="M-187.89 573.781C-193.278 558.581 -200.623 544.043 -205.465 528.655C-210.307 513.267 -212.583 495.968 -207.231 480.368C-202.007 465.099 -189.908 452.542 -175.715 443.973C-142.414 423.855 -100.456 424.869 -61.5872 428.429C-31.7839 431.171 -1.94227 435.051 26.5501 443.634C74.8985 458.131 129.235 490.762 129.888 545.334C130.556 606.785 72.8333 661.044 26.414 696.661C5.9233 712.381 -16.2693 726.747 -41.2156 734.233C-66.162 741.718 -94.3479 741.676 -117.059 729.596C-143.507 715.507 -158.632 687.51 -166.892 659.493C-175.153 631.476 -178.038 602.032 -187.688 574.434L-187.89 573.781Z" stroke="#4D3D8D" stroke-width="0.44" stroke-miterlimit="10"/>
</g>
</g>
<g opacity="0.5">
<g style="mix-blend-mode:overlay" opacity="0.96">
<path fill-rule="evenodd" clip-rule="evenodd" d="M1466.21 376.986C1394.87 381.186 1399.53 300.877 1393.57 265.504C1388.14 233.293 1342.75 187.397 1354.37 165.553C1384.09 109.71 1437.83 191.797 1497.93 166.558C1596.04 125.338 1628.93 221.896 1610.49 270.024C1592.05 318.152 1549.03 372.122 1466.21 376.986Z" stroke="#ECFFFE" stroke-width="2" stroke-miterlimit="10"/>
</g>
<g style="mix-blend-mode:overlay" opacity="0.96">
<path fill-rule="evenodd" clip-rule="evenodd" d="M1217.3 297.485C1196.74 274.839 1186.19 245.305 1187.86 215.065C1190.31 169.68 1203.46 106.823 1251.83 65.7105C1335.09 -4.87374 1354.31 37.9837 1438.52 3.11831C1522.72 -31.7471 1559.88 -34.0233 1634.62 24.6446C1709.36 83.3125 1665.02 58.6918 1744.04 132.99C1823.05 207.289 1811.96 253.248 1776.76 293.382C1734.64 341.429 1492.88 412.67 1592.58 580.012C1642.79 664.283 1460.35 748.643 1381.97 683.999C1303.59 619.354 1171.03 629.054 1213.59 558.659C1256.15 488.264 1253.19 459.4 1260.4 395.963C1264.7 358.234 1238.91 321.269 1217.3 297.485Z" stroke="#ECFFFE" stroke-miterlimit="10"/>
</g>
<g style="mix-blend-mode:overlay" opacity="0.96">
<path fill-rule="evenodd" clip-rule="evenodd" d="M1718.83 166.318C1771.51 230.565 1764.71 265.374 1734.94 299.347C1720.59 315.738 1684.44 330.692 1649.12 352.243C1591.24 387.555 1535.73 458.84 1558.79 536.574C1587.69 633.972 1454.98 662.392 1387.77 611.535C1358.59 589.446 1341.33 596.153 1312.44 583.056C1274.49 565.878 1246 540.526 1255.47 502.714C1271.56 438.2 1275.69 415.704 1278.08 370.528C1278.27 366.842 1278.46 363.057 1278.7 359.118C1280.63 327.76 1259.82 296.858 1242.41 275.847C1225.99 256.169 1217.57 231.371 1218.68 205.988C1220.45 168.434 1231.68 118.207 1270.23 84.8291C1335.24 28.9006 1353.28 58.7748 1420.16 31.1528C1454.36 17.0282 1482.6 10.9025 1509.06 10.8318C1543.1 10.8402 1575.46 21.9368 1615.41 49.9866C1658.75 80.4113 1666.65 88.1607 1681.09 107.485C1690.89 120.721 1697.76 140.677 1718.83 166.318Z" stroke="#ECFFFE" stroke-width="0.86" stroke-miterlimit="10"/>
</g>
<g style="mix-blend-mode:overlay" opacity="0.96">
<path fill-rule="evenodd" clip-rule="evenodd" d="M1693.57 199.653C1721.03 251.169 1717.42 277.531 1693.09 305.351C1680.67 319.546 1653.41 332.551 1626.99 350.257C1581.43 380.754 1528.98 432.719 1537.29 499.955C1543.57 551.101 1532.54 675.535 1393.57 539.098C1375.82 521.677 1351.36 513.268 1329.18 502.435C1305.31 490.729 1291.27 479.497 1288.81 452.367C1285.75 417.987 1296.32 384.367 1297.24 350.167C1298.08 315.874 1287.67 282.342 1267.49 254.328C1255.26 237.658 1248.97 217.575 1249.57 197.044C1250.68 167.304 1259.95 129.611 1288.71 104.062C1304.4 90.1316 1321.64 78.9431 1342.49 74.1572C1391.32 62.9253 1438.79 42.3102 1489.42 43.3007C1524.01 43.956 1558.45 52.5571 1596.16 75.4043C1635.6 99.3469 1651.67 110.938 1667.35 133.147C1679.2 149.833 1680.29 174.726 1693.57 199.653Z" stroke="#ECFFFE" stroke-width="0.72" stroke-miterlimit="10"/>
</g>
<g style="mix-blend-mode:overlay" opacity="0.96">
<path fill-rule="evenodd" clip-rule="evenodd" d="M1672.93 217.572C1676.24 247.66 1669.89 278.731 1651.64 304.55C1626.35 340.374 1582.68 360.726 1555.37 395.147C1536.36 419.042 1524.91 449.882 1498.52 466.037C1477.21 479.059 1450.03 479.654 1425.57 474.558C1398.13 468.808 1372.67 456.658 1351.41 439.172C1333.31 424.236 1318.08 404.391 1315.48 381.479C1313.24 361.652 1320.59 341.799 1320.52 321.821C1320.38 280.11 1288.63 244.579 1281.81 203.392C1262.17 84.3157 1443.38 64.7585 1525.37 83.7496C1575.27 95.3207 1634.51 121.677 1657.96 167.673C1665.94 183.305 1671 200.19 1672.93 217.572V217.572Z" stroke="#ECFFFE" stroke-width="0.58" stroke-miterlimit="10"/>
</g>
<g style="mix-blend-mode:overlay" opacity="0.96">
<path fill-rule="evenodd" clip-rule="evenodd" d="M1334.11 253.781C1328.72 238.58 1321.38 224.042 1316.54 208.655C1311.69 193.267 1309.42 175.967 1314.77 160.367C1319.99 145.098 1332.09 132.541 1346.29 123.972C1379.59 103.854 1421.54 104.869 1460.41 108.428C1490.22 111.17 1520.06 115.05 1548.55 123.634C1596.9 138.13 1651.24 170.762 1651.89 225.333C1652.56 286.784 1594.83 341.043 1548.41 376.66C1527.92 392.381 1505.73 406.747 1480.78 414.232C1455.84 421.717 1427.65 421.675 1404.94 409.596C1378.49 395.506 1363.37 367.51 1355.11 339.493C1346.85 311.475 1343.96 282.031 1334.31 254.433L1334.11 253.781Z" stroke="#ECFFFE" stroke-width="0.44" stroke-miterlimit="10"/>
</g>
</g>
</g>
<defs>
<linearGradient id="paint0_linear_1246_6001" x1="720" y1="0" x2="720" y2="1372" gradientUnits="userSpaceOnUse">
<stop stop-color="#8989C7"/>
<stop offset="1" stop-color="#BEF0ED"/>
</linearGradient>
<clipPath id="clip0_1246_6001">
<rect width="1440" height="1372" fill="white"/>
</clipPath>
</defs>
</svg>
