<svg width="45" height="37" viewBox="0 0 45 37" fill="none" xmlns="http://www.w3.org/2000/svg">
<path d="M2.4158 20.7107L16.1067 28.7612C18.3617 30.0493 22.2273 30.2103 24.4823 28.9222L38.3342 21.1937C39.4617 20.5497 40.106 19.5836 40.106 18.7785V12.4991C40.106 12.4991 40.106 12.4991 39.9449 12.4991L34.3075 15.3973L29.3144 5.89767C27.0594 4.28757 14.9792 3.3215 12.5632 4.60959L6.6036 14.9143L0.805112 11.8551H0.644043L0.644043 18.1345C0.644043 19.1006 1.28832 19.9056 2.4158 20.7107ZM28.9922 16.5244L25.9319 18.1345L25.9319 19.4226L13.6907 18.6175V17.3294L11.9189 16.3634L18.3617 12.8211C19.6502 12.1771 21.7441 12.1771 22.8716 12.8211L28.9922 16.5244Z" fill="#8989C7"/>
<path d="M38.6566 21.6767L24.8047 29.4052C22.2276 30.8543 18.2008 30.6933 15.7848 29.2442L2.0939 21.1936C0.644277 20.3886 0 19.4225 0 18.1344L0 11.855L0 11.372L0.644277 11.05L6.12063 13.9482L11.9191 4.12651L12.0802 3.96549C14.6573 2.5164 27.0596 3.64347 29.4757 5.09257L29.6367 5.25358L34.4688 14.2702L39.623 11.694L39.9452 11.533L40.5895 12.016V18.6175C40.5895 19.2615 40.4284 19.9056 39.9452 20.5496C39.7841 20.8716 39.3009 21.3547 38.6566 21.6767ZM34.6299 15.7193L34.3077 15.8803L33.8245 15.7193L28.8314 6.21964C26.4154 5.09257 15.4626 4.12651 13.0466 5.09257L7.08705 15.3973L6.44277 15.5583L1.44962 12.9821L1.44962 18.2955C1.44962 18.9395 1.93283 19.5835 2.73818 20.0666L16.4291 28.1171C18.523 29.4052 22.0665 29.4052 24.1604 28.2781L38.0123 20.5496C38.9788 20.0666 39.462 19.4225 39.462 18.6175V13.3041L34.6299 15.7193ZM26.5764 18.6175C26.5764 18.7785 26.5764 18.7785 26.5764 18.9395C26.5764 19.9056 26.5764 19.9056 26.2543 20.0666L26.0932 20.2276L13.5298 19.4225C12.8855 19.2615 12.8855 18.7785 12.8855 17.9734V17.8124L10.3084 16.5243L17.7176 12.3381C19.1672 11.533 21.5833 11.533 23.0329 12.3381L29.3146 16.0413L29.6367 16.3633V17.1684L26.5764 18.6175ZM13.852 16.6853C14.3352 16.8464 14.3352 17.1684 14.3352 17.9734C14.3352 17.9734 14.3352 17.9734 14.3352 18.1344L25.2879 18.9395C25.2879 17.9734 25.2879 17.8124 25.61 17.6514L27.7039 16.6853L22.3886 13.6261C21.2611 12.9821 19.4894 12.9821 18.523 13.6261L13.2077 16.6853H13.852Z" fill="#171753"/>
<path d="M24.8045 35.4643L44.1408 24.1291C44.4671 23.9377 44.5892 23.5261 44.42 23.1878C44.2341 22.8161 43.7725 22.6792 43.414 22.8893L24.1603 34.1763C22.2841 35.1861 19.2443 35.2911 17.1261 34.3755C16.7384 34.208 16.2664 34.3402 16.0775 34.7179C15.9115 35.0498 16.0236 35.4569 16.3552 35.6235C18.907 36.9061 22.4114 36.81 24.8045 35.4643Z" fill="#171753"/>
<path d="M16.4293 1.71147L2.57734 9.601C0.322374 10.8891 0.161305 12.9822 2.57734 14.4313L16.2682 22.4819C18.5232 23.7699 22.2278 23.931 24.6438 22.6429L38.4958 14.7533C40.7508 13.4653 40.9118 11.3721 38.4958 9.92302L24.8049 1.87249C22.3889 0.423389 18.6843 0.423389 16.4293 1.71147ZM18.2011 6.38079C19.4896 5.73674 21.4224 5.73674 22.711 6.38079L30.2813 10.8891C31.5698 11.6941 31.5698 12.8212 30.2813 13.4653L22.5499 17.8125C21.2614 18.4566 19.3285 18.4566 18.04 17.8125L10.4697 13.3042C9.34225 12.6602 9.34225 11.3721 10.6308 10.7281L18.2011 6.38079Z" fill="#E3E0EB"/>
<path d="M38.6566 15.3974L24.8047 23.287C22.2276 24.7361 18.3619 24.7361 15.7848 23.126L2.0939 15.0754C0.805346 14.1094 0 13.1433 0 11.8552C0 10.7281 0.805346 9.60106 2.0939 8.95701L16.1069 1.06749C18.684 -0.381606 22.5497 -0.381606 25.1268 1.2285L38.8177 9.27904C40.1062 10.0841 40.9116 11.2112 40.9116 12.3382C40.9116 12.9823 40.7505 13.6263 40.2673 14.1094C39.7841 14.5924 39.3009 15.0754 38.6566 15.3974ZM24.3215 2.35558C22.2276 1.06749 18.684 1.06749 16.5901 2.19457L2.89925 10.0841C1.93283 10.5671 1.44962 11.2112 1.44962 12.0162C1.44962 12.6603 1.93283 13.3043 2.73818 13.7873L16.4291 21.8379C18.523 23.126 22.0665 23.126 24.1604 21.9989L38.0123 14.1094C38.9788 13.6263 39.462 12.9823 39.462 12.3382C39.462 11.6942 38.9788 11.0502 38.1734 10.5671L24.3215 2.35558ZM30.6032 14.1094L22.8718 18.4566C21.4222 19.2617 19.1672 19.2617 17.7176 18.4566L10.1474 13.9483C9.34202 13.4653 8.85881 12.8213 9.01988 12.0162C9.01988 11.2112 9.50309 10.5671 10.3084 10.0841L18.0398 5.7368C19.4894 4.93175 21.7443 4.93175 23.194 5.7368L30.7642 10.2451C31.5696 10.7281 32.0528 11.3722 32.0528 12.1772C32.0528 12.6603 31.8917 12.9823 31.5696 13.3043C31.2474 13.7873 31.0864 13.9483 30.6032 14.1094ZM10.9527 11.3722C10.4695 11.5332 10.3084 11.8552 10.3084 12.0162C10.3084 12.1772 10.4695 12.4992 10.9527 12.6603L18.523 17.1686C19.4894 17.8126 21.2611 17.8126 22.3886 17.1686L29.9589 12.9823C30.4421 12.8213 30.6032 12.4993 30.6032 12.3382C30.6032 12.1772 30.4421 11.8552 29.9589 11.6942L22.3886 7.1859C21.4222 6.54185 19.6504 6.54185 18.523 7.1859L10.9527 11.3722Z" fill="#171753"/>
<path d="M19.6756 23.5746L19.6138 29.854L20.9023 29.8667L20.9642 23.5873L19.6756 23.5746Z" fill="#171753"/>
<path d="M19.7933 5.84021L19.7314 12.1196L21.02 12.1323L21.0819 5.8529L19.7933 5.84021Z" fill="#171753"/>
<path d="M36.361 15.431L36.2988 21.7104L37.5874 21.7232L37.6496 15.4438L36.361 15.431Z" fill="#171753"/>
<path d="M4.33726 15.6386L4.27539 21.918L5.56394 21.9307L5.62581 15.6512L4.33726 15.6386Z" fill="#171753"/>
<path d="M31.2473 12.8214C31.2473 12.8214 28.0259 14.9145 27.8648 15.0756C27.7037 15.2366 22.7106 12.4994 22.7106 12.4994L20.6167 11.8553V5.89795L23.677 7.02502C23.677 7.02502 30.7641 10.8893 30.7641 11.0503C30.7641 11.2113 31.2473 12.8214 31.2473 12.8214Z" fill="#171753"/>
</svg>
