<?xml version="1.0"?>
<svg width="170" height="170" xmlns="http://www.w3.org/2000/svg" xmlnsSvg="http://www.w3.org/2000/svg" xmlns:xlink="http://www.w3.org/1999/xlink">
 <!-- Created with SVG-edit - https://github.com/SVG-Edit/svgedit-->
 <defs>
  <symbol height="75" id="svg_1" viewBox="0 0 54 75" width="54" xmlns="http://www.w3.org/2000/svg">
   <path d="m23.41,73.58l-9.58,-6.12l9.58,-0.26l1.06,1.06l0.8,3.19l-1.86,2.13z" fill="#171753"/>
   <path d="m23.67,74.65l2.66,-3.2l0,-0.53l-0.79,-3.46l-0.27,-0.26l-1.33,-1.33l-0.27,0l-10.11,0.53l-0.26,1.06l0.53,0.27l9.84,6.92zm0.8,-3.73l-1.33,1.33l-6.92,-4.52l6.66,-0.27l0.79,0.8l0.8,2.66z" fill="#171753"/>
   <path d="m7.45,19.58l29.79,-17.29c1.6,-1.06 3.19,-1.06 4.26,-0.53l9.84,6.12c-0.53,0.79 -4.52,9.31 -4.79,10.9c-0.26,0.53 -1.33,7.19 -2.92,14.63l0,3.73c0,2.13 -0.8,4.52 -2.13,6.65c-1.6,7.98 -2.93,14.63 -2.93,14.63l-13.57,4.52l-1.06,0l0.8,-2.13c0.26,-1.06 0.26,-2.12 0.53,-3.19l-12.77,14.37c0,0 0,0 -0.26,0l-9.31,-5.86c0,0 0,0 -0.27,0c-1.06,-0.79 -1.86,-2.12 -1.86,-3.99l0,-31.39c0,-3.99 2.92,-9.04 6.65,-11.17z" fill="#5ED9D1"/>
   <path d="m13,29l-9.5,-5.5c-2,2 -2.5,6.5 -2.5,8.5l9,6c0,-2.8 2,-7.17 3,-9z" fill="#171753"/>
   <path d="m10,60l-9,-5.5l0,8.5l9.5,5.5l-0.5,-8.5z" fill="#8989C7"/>
   <path d="m12.24,72.78c0.26,0 0.53,0 0.79,-0.26l11.18,-12.51c0,0.27 0,0.54 0,0.8l-0.8,2.13c-0.27,0.53 0,0.8 0.53,1.06l0.27,0l1.33,0l13.83,-4.78l0,-0.27c0,-0.27 1.33,-6.92 2.93,-14.63c1.33,-2.39 2.12,-4.79 2.12,-6.92l0,-3.72c1.87,-9.05 2.66,-14.1 2.93,-14.63c0.27,-1.07 2.66,-6.12 4.79,-10.64c0.27,-0.53 0,-1.07 -0.27,-1.07l-9.84,-6.11c-1.6,-0.8 -3.46,-0.54 -5.32,0.53l-29.79,17.29c-3.73,2.13 -6.92,7.45 -6.92,11.97l0,30.86c0,2.12 0.8,3.99 2.13,4.79l0.26,0l9.31,5.85c0.27,0.26 0.27,0.26 0.54,0.26zm13.83,-17.29l-14.1,15.7l-8.78,-5.59l-0.53,0.53l0.53,-0.79c-0.8,-0.54 -1.33,-1.87 -1.33,-3.46l0,-31.13c0,-3.72 2.66,-8.51 6.12,-10.64l29.53,-17.02c1.33,-0.8 2.66,-1.07 3.72,-0.53l9.05,5.58c-1.33,2.66 -4.26,9.05 -4.53,10.38c-0.26,0.53 -1.06,5.32 -2.92,14.63l0,0.26l0,3.73c0,1.86 -0.8,3.99 -1.86,6.12l0,0.26c-1.33,6.65 -2.4,12.5 -2.66,14.37l-12.77,4.25l0.53,-1.33c0.27,-1.06 0.27,-2.39 0.53,-3.46l-0.53,-1.86z" fill="#171753"/>
   <path d="m7.45,19.58l28.2,-16.23l14.1,8.78l-30.33,15.96l-6.38,1.07l-9.58,-5.86c1.06,-1.59 2.39,-2.92 3.99,-3.72z" fill="#8989C7"/>
   <path d="m13.03,29.95l6.92,-1.06l31.39,-16.76l-15.69,-9.84l-27.65,15.71c-1.6,0.8 -3.67,2.64 -5,4.5l-0.5,1l10.53,6.45zm6.12,-2.66l-5.85,0.8l-8.51,-5.05c0.21,-0.54 1.71,-1.54 3.19,-2.66l27.93,-15.96l12.5,7.71l-29.26,15.16z" fill="#171753"/>
   <path d="m1.26,30.93l9.57,5.77l-0.82,1.36l-9.57,-5.76l0.82,-1.37z" fill="#171753"/>
   <path d="m1.44,53.51l9.57,5.77l-0.82,1.37l-9.57,-5.77l0.82,-1.37z" fill="#171753"/>
   <path d="m46.82,8.41l-29.8,17.29c-3.45,2.13 -6.38,6.92 -6.38,11.17l0,31.13c0,3.99 2.93,5.85 6.38,3.72l3.46,-1.86c0.53,-0.27 1.07,-0.27 1.33,0.53c0.27,1.86 1.6,5.32 6.65,3.19c1.07,-0.26 1.6,-1.86 1.33,-2.66c-0.26,-1.06 -0.79,-2.66 -0.79,-4.52c0,-0.8 0.53,-1.86 1.33,-2.13l16.49,-9.58c3.46,-2.12 6.38,-6.91 6.38,-11.17l0,-31.39c0,-4.25 -2.92,-5.85 -6.38,-3.72z" fill="#BEF0ED"/>
   <path d="m25.54,74.91c0.79,0 1.86,-0.26 2.92,-0.8c1.33,-0.53 2.4,-2.39 1.86,-3.72c-0.26,-1.06 -0.53,-2.39 -0.53,-4.26c0,-0.53 0.53,-1.33 0.8,-1.59l16.49,-9.58c3.73,-2.13 6.92,-7.45 6.92,-11.97l0,-30.86c0,-2.39 -0.8,-3.99 -2.39,-4.79c-1.6,-0.79 -3.46,-0.79 -5.32,0.54l-29.8,17.29c-3.72,2.13 -6.91,7.45 -6.91,11.97l0,31.12c0,2.4 0.79,3.99 2.39,4.79c1.6,0.8 3.46,0.8 5.32,-0.53l3.46,-1.86c0.26,1.33 1.06,3.19 2.66,3.99c0.53,0 1.33,0.26 2.13,0.26zm23.94,-66.77c0.53,0 0.8,0 1.33,0.27c1.06,0.53 1.59,1.86 1.59,3.46l0,31.39c0,3.72 -2.66,8.51 -6.11,10.37l-16.5,9.58c-1.06,0.53 -1.59,1.86 -1.59,2.92c0,1.6 0.26,3.2 0.79,4.79c0.27,0.53 -0.26,1.6 -1.06,1.86c-1.6,0.54 -2.66,0.8 -3.72,0.27c-1.07,-0.53 -1.6,-2.13 -1.87,-2.93c0,-0.53 -0.53,-1.06 -0.79,-1.06c-0.54,-0.27 -1.07,-0.27 -1.6,0.27l-3.46,1.86c-1.33,0.8 -2.66,1.06 -3.72,0.53c-1.07,-0.53 -1.6,-1.86 -1.6,-3.46l0,-31.65c0,-3.73 2.66,-8.52 6.12,-10.38l29.79,-17.29c0.8,-0.53 1.87,-0.8 2.4,-0.8z" fill="#171753"/>
   <path d="m0.8,58.69l9.57,5.85l0,4.25l0.53,2.4l-8.24,-5.06l-1.6,-2.12l-0.26,-2.4l0,-2.92z" fill="#171753"/>
  </symbol>
  <symbol height="36" id="svg_4" viewBox="0 0 31 36" width="31" xmlns="http://www.w3.org/2000/svg">
   <path d="m22.77,14.69c0.24,-1.19 1.07,-2.43 1.84,-2.79c0.77,-0.36 1.19,0.36 0.89,1.48c-0.24,1.19 -1.07,2.44 -1.84,2.79c-0.71,0.42 -1.13,-0.29 -0.89,-1.48z" fill="#171753"/>
   <path d="m29.71,15.87c-0.17,0.66 -0.35,1.31 -0.59,1.96c-0.83,2.32 -2.02,4.69 -3.56,6.47c-2.14,2.5 -4.27,3.21 -6,3.21c-2.01,2.67 -2.01,2.67 -2.01,2.67c-0.48,0.6 -0.83,0.3 -0.48,-0.47c-0.47,0.41 -0.53,-0.18 -0.24,-0.77c-0.47,0.65 -0.65,0.06 -0.35,-0.6c0.24,-0.41 0.53,-0.89 0.71,-1.24c-2.02,-0.66 -3.8,-1.96 -5.7,-3.27c1.13,0.53 5.64,1.6 6.71,1.72c1.07,0.12 2.14,0.24 3.32,0c0.95,-0.24 2.2,-0.77 3.33,-2.14c1.01,-1.18 1.66,-2.96 2.07,-4.39c0.95,-3.2 1.01,-6.29 0.6,-8.49c-0.48,-2.31 -1.72,-4.09 -3.68,-4.09c-0.71,0 -1.55,0.29 -2.38,0.83c-1.9,1.18 -3.97,3.62 -5.75,6.29c-2.61,3.98 -4.81,8.55 -6.89,13.06c-1.42,3.09 -3.97,10.09 -6.64,9.32c-1.25,-0.36 -1.78,-1.96 -2.02,-3.62c-0.3,-1.84 -0.24,-4.51 0.71,-7.12c2.02,-5.53 6.35,-3.51 7.77,-2.74c-0.11,0 -3.62,-0.59 -5.57,2.14c-0.89,1.25 -1.19,2.91 -1.31,4.1c-0.24,2.08 0,4.81 1.31,5.16c1.66,0.42 3.56,-4.69 4.39,-6.53c1.36,-3.08 2.67,-6.17 4.09,-9.26c1.55,-3.32 3.27,-6.71 5.28,-9.62c-0.23,-0.41 -0.53,-0.95 -0.41,-1.66c0.12,-0.83 0.89,-1.96 1.36,-1.72c-0.47,-0.89 0.84,-2.91 1.55,-2.61c-0.18,-0.83 0.71,-2.26 1.3,-2.44c0.36,-0.11 0.66,0.24 0.83,0.42c0.6,0.47 1.13,1.01 1.73,1.42c6.7,-3.91 8.9,5.23 6.52,14.01z" fill="#171753"/>
  </symbol>
 </defs>
 <g class="layer">
  <title>Layer 1</title>
  <use id="svg_2" transform="matrix(2.13333 0 0 2.13333 0 0)" x="15" xlink:href="#svg_1" y="0.94"/>
  <use id="svg_5" transform="matrix(2.0642 0 0 2.0642 82.4743 140.312)" x="-7.27" xlink:href="#svg_4" y="-43.16"/>
 </g>
</svg>