<svg width="390" height="735" viewBox="0 0 390 735" fill="none" xmlns="http://www.w3.org/2000/svg">
<g clip-path="url(#clip0_712_2)">
<rect width="390" height="735" fill="white"/>
<rect width="1237.38" height="879.911" transform="translate(-424 -36)" fill="#171753"/>
<path opacity="0.8" d="M-289.337 316.326L-280.639 298.278C-247.275 228.792 -212.774 156.958 -143.706 114.35C-102.498 88.9286 -53.1998 77.1777 -5.52747 65.8239C33.8847 56.4429 74.6539 46.732 111.106 29.3247C183.996 -5.46516 235.266 -69.4513 271.794 -121.309C281.086 -134.489 290.235 -148.004 299.111 -161.105C330.165 -206.926 362.23 -254.328 404.249 -293.768C406.144 -295.563 408.057 -297.303 409.985 -299.067L412.549 -303.219C409.433 -300.493 406.283 -297.655 403.126 -294.694C361.004 -255.143 328.879 -207.673 297.779 -161.778C288.911 -148.689 279.754 -135.162 270.476 -121.975C234.047 -70.2786 182.955 -6.49616 110.349 28.2018C74.0763 45.5168 33.4057 55.2094 -5.92909 64.5783C-53.7365 75.9812 -103.16 87.7379 -144.621 113.313C-214.025 156.069 -248.62 228.113 -282.037 297.797C-284.944 303.862 -287.843 309.878 -290.735 315.845C-304.052 343.269 -319.938 372.845 -339.769 400.236L-338.406 400.859C-318.578 373.388 -302.677 343.787 -289.337 316.326Z" fill="#8989C7"/>
<path d="M199.283 -157.091C189.697 -134.559 190.31 -112.404 192.976 -90.1517C195.53 -68.7711 198.886 -47.0647 192.941 -24.8282C180.749 20.9434 138.321 57.5397 95.7077 83.6495C48.0757 112.808 -5.7389 134.706 -46.942 172.486C-67.1534 191.022 -83.5166 214.14 -86.478 239.164C-88.9981 259.911 -80.3719 277.266 -66.036 291.042C-57.8873 298.875 -48.5631 305.548 -39.1279 312.084L-42.7875 316.589C-45.4645 314.737 -48.1324 312.89 -50.7558 310.989C-65.9817 299.924 -80.9516 287.517 -88.1855 270.399C-96.4357 251 -92.7886 227.756 -81.859 207.474C-68.5116 182.719 -45.6728 162.547 -21.6104 145.832C1.56598 129.718 26.6488 116.389 51.4888 102.871C98.8851 77.0809 149.771 47.4999 176.117 1.32995C182.359 -9.45543 186.677 -20.8885 188.889 -32.4891C190.987 -43.9365 190.749 -55.2996 189.753 -66.4713C187.781 -88.2996 182.966 -109.958 186.396 -132.532C190.072 -156.115 201.965 -178.978 220.298 -197.708L220.372 -197.799L224.994 -194.977C213.884 -183.741 205.136 -170.85 199.283 -157.091V-157.091Z" fill="#5ED9D1"/>
<path d="M318.38 -181.615C293.759 -112.465 223.482 -62.6637 168.838 -33.0766C140.73 -17.8385 111.109 -4.36875 82.4653 8.6593C45.3825 25.5279 7.04404 42.9851 -28.3197 64.3694C-62.8243 85.2399 -143.957 142.139 -152.091 219.329C-156.747 263.715 -135.846 309.306 -89.9651 354.836C-85.6458 359.108 -81.1791 363.33 -76.6838 367.517L-77.6396 368.693C-82.208 364.444 -86.736 360.167 -91.1306 355.813C-137.28 310.049 -158.277 264.118 -153.578 219.354C-145.4 141.523 -63.7618 84.2629 -29.043 63.2592C6.40169 41.8188 44.7925 24.3408 81.918 7.46305C110.54 -5.56045 140.119 -19.0211 168.176 -34.2193C222.552 -63.6714 292.443 -113.215 316.938 -181.862C325.644 -206.338 328.082 -232.035 330.424 -256.876C331.397 -267.227 332.409 -277.712 333.881 -288.198L335.263 -287.355C333.874 -277.188 332.888 -267.039 331.959 -256.96C329.595 -232.027 327.166 -206.253 318.38 -181.615Z" fill="#ECFFFE"/>
<path d="M36.8299 25.4214C34.957 24.2819 31.9153 24.7515 30.1084 26.9678C28.3016 29.1842 28.8146 31.8166 30.6874 32.9561C32.5603 34.0955 35.602 33.626 37.4088 31.4096C39.2157 29.1933 38.7027 26.5609 36.8299 25.4214Z" stroke="#ECFFFE" stroke-width="4.09291"/>
<g opacity="0.3">
<path opacity="0.8" d="M-726.22 814.926C-726.22 814.926 -566.695 685.501 -109.153 806.98C135.355 871.912 209.748 734.507 314.028 715.577C471.301 687.129 597.479 823.029 842.477 597.47" stroke="#8989C7" stroke-width="1.10747" stroke-miterlimit="10"/>
<path opacity="0.8" d="M-721.826 831.851C-721.826 831.851 -557.258 675.379 -104.553 793.278C148.443 858.321 219.408 744.899 328.243 724.306C486.765 694.797 613.686 812.136 843.331 600.603" stroke="#8989C7" stroke-width="1.10747" stroke-miterlimit="10"/>
<path opacity="0.8" d="M-717.424 848.643C-717.424 848.643 -548.337 666.487 -100.174 779.48C161.096 845.473 228.734 754.829 342.172 732.773C501.833 701.821 629.649 801.141 843.93 603.707" stroke="#8989C7" stroke-width="1.10747" stroke-miterlimit="10"/>
<path opacity="0.8" d="M-712.911 865.632C-712.911 865.632 -538.899 656.978 -95.4546 766.073C174.333 832.325 238.435 765.349 356.419 741.645C517.264 709.46 645.865 790.333 844.773 607.077" stroke="#8989C7" stroke-width="1.10747" stroke-miterlimit="10"/>
<path opacity="0.8" d="M-708.35 882.614C-708.35 882.614 -529.677 647.399 -90.7605 752.528C187.535 819.017 247.892 775.745 370.624 750.364C532.646 716.957 662.078 779.571 845.815 610.499" stroke="#8989C7" stroke-width="1.10747" stroke-miterlimit="10"/>
<path opacity="0.8" d="M-703.797 899.365C-703.797 899.365 -520.265 637.667 -86.0983 738.841C200.487 805.585 257.51 785.915 384.829 759.101C548.023 724.484 678.231 768.655 846.585 613.833" stroke="#8989C7" stroke-width="1.10747" stroke-miterlimit="10"/>
<path opacity="0.8" d="M-699.167 916.224C-699.167 916.224 -510.629 627.943 -81.3814 725.376C213.687 792.317 267.22 796.434 399.018 767.808C563.428 732.188 694.148 757.787 847.325 617.19" stroke="#8989C7" stroke-width="1.10747" stroke-miterlimit="10"/>
<path opacity="0.8" d="M-694.516 932.891C-694.516 932.891 -501.19 618.276 -76.6805 711.896C227.057 778.965 276.84 806.641 413.157 776.415C578.774 739.813 710.256 747.041 848.045 620.728" stroke="#8989C7" stroke-width="1.10747" stroke-miterlimit="10"/>
<path opacity="0.8" d="M-689.894 948.976C-689.894 948.976 -491.652 608.167 -72.2899 698.183C239.818 765.168 286.156 816.63 426.975 784.837C593.932 747.054 725.954 736.02 848.553 623.998" stroke="#8989C7" stroke-width="1.10747" stroke-miterlimit="10"/>
<path opacity="0.8" d="M-685.211 965.217C-685.211 965.217 -482.058 598.31 -67.6362 684.712C252.834 751.619 295.678 826.56 440.994 793.204C609.135 754.474 741.902 725.231 849.114 627.455" stroke="#8989C7" stroke-width="1.10747" stroke-miterlimit="10"/>
<path opacity="0.8" d="M-680.516 981.423C-680.516 981.423 -472.509 588.324 -62.9758 671.327C265.951 737.738 305.2 836.476 455.009 801.562C624.332 761.887 757.789 714.326 849.625 630.721" stroke="#8989C7" stroke-width="1.10747" stroke-miterlimit="10"/>
<path opacity="0.8" d="M-675.859 997.405C-675.859 997.405 -463.002 578.205 -58.3595 657.833C279.118 724.139 314.774 846.572 469.02 809.912C639.521 769.293 773.719 703.689 850.187 634.182" stroke="#8989C7" stroke-width="1.10747" stroke-miterlimit="10"/>
<path opacity="0.8" d="M-671.148 1013.55C-671.148 1013.55 -453.446 568.313 -53.6909 644.59C292.073 710.647 324.293 856.454 483.023 818.243C654.702 776.68 789.59 692.911 850.7 637.432" stroke="#8989C7" stroke-width="1.10747" stroke-miterlimit="10"/>
<path opacity="0.8" d="M-666.432 1029.67C-666.432 1029.67 -443.735 558.234 -49.2263 631.446C304.97 697.03 333.756 866.932 496.813 826.598C669.77 784.475 805.294 682.418 851.265 640.867" stroke="#8989C7" stroke-width="1.10747" stroke-miterlimit="10"/>
<path opacity="0.8" d="M-661.76 1045.58C-661.76 1045.58 -434.226 548.234 -44.6006 618.136C318.229 683.219 343.274 876.792 510.756 834.721C684.888 791.653 821.098 671.562 851.735 643.915" stroke="#8989C7" stroke-width="1.10747" stroke-miterlimit="10"/>
<path opacity="0.8" d="M-657.041 1061.36C-657.041 1061.36 -424.491 537.564 -39.9896 604.984C331.275 668.969 352.682 886.422 524.673 843.022C699.961 799.028 836.896 661.216 852.207 647.425" stroke="#8989C7" stroke-width="1.10747" stroke-miterlimit="10"/>
<path opacity="0.8" d="M-652.334 1077.09C-652.334 1077.09 -414.929 527.937 -35.3982 591.863C344.133 655.79 362.113 896.195 538.502 851.085C714.892 805.975 852.548 650.512 852.548 650.512" stroke="#8989C7" stroke-width="1.10747" stroke-miterlimit="10"/>
</g>
<path opacity="0.8" d="M-37.3372 980.787L-28.6394 962.739C4.72529 893.253 39.2258 821.419 108.294 778.81C149.502 753.39 198.8 741.639 246.473 730.285C285.885 720.904 326.654 711.193 363.106 693.786C435.996 658.996 487.266 595.01 523.794 543.152C533.086 529.972 542.235 516.457 551.111 503.355C582.165 457.535 614.23 410.133 656.249 370.693C658.144 368.898 660.057 367.158 661.985 365.394L664.549 361.242C661.433 363.968 658.283 366.806 655.126 369.767C613.004 409.318 580.879 456.788 549.779 502.683C540.911 515.772 531.754 529.299 522.476 542.486C486.047 594.182 434.955 657.965 362.349 692.663C326.076 709.978 285.406 719.67 246.071 729.039C198.263 740.442 148.84 752.199 107.379 777.774C37.975 820.53 3.37981 892.574 -30.0372 962.258C-32.9437 968.323 -35.8431 974.339 -38.7351 980.306C-52.0516 1007.73 -67.9377 1037.31 -87.7688 1064.7L-86.4064 1065.32C-66.578 1037.85 -50.6766 1008.25 -37.3372 980.787Z" fill="#ECFFFE"/>
<path d="M427.715 578.865C420.104 598.142 421.627 617.43 424.996 636.868C428.226 655.546 432.19 674.533 427.834 693.674C418.907 733.075 382.452 763.5 345.37 784.8C303.919 808.585 256.604 825.853 221.3 857.347C203.982 872.8 190.318 892.364 188.761 914.027C187.411 931.986 195.912 947.363 209.377 959.815C217.032 966.896 225.689 973.007 234.441 979.002L231.355 982.798C228.873 981.1 226.398 979.406 223.961 977.666C209.816 967.541 195.842 956.258 188.601 941.133C180.347 923.991 182.598 903.898 191.513 886.621C202.399 865.534 222.002 848.746 242.854 835.004C262.938 821.756 284.855 810.992 306.545 800.056C347.932 779.192 392.283 755.147 413.89 715.866C419.016 706.693 422.387 696.893 423.862 686.878C425.242 676.992 424.529 667.103 423.145 657.355C420.417 638.308 415.146 619.314 417.232 599.797C419.495 579.41 429.159 559.92 444.783 544.237L444.845 544.161L449.116 546.767C439.642 556.171 432.361 567.093 427.715 578.865V578.865Z" fill="#8989C7"/>
<path d="M593.154 513.92C567.048 595.21 483.655 651.378 418.261 684.166C384.625 701.054 349.022 715.766 314.595 729.996C270.024 748.422 223.945 767.491 181.759 791.375C140.599 814.686 44.2865 878.823 38.9334 970.438C35.8816 1023.12 64.32 1078.39 123.462 1134.72C129.029 1140.01 134.774 1145.24 140.553 1150.43L139.448 1151.79C133.577 1146.52 127.753 1141.22 122.088 1135.83C62.6015 1079.21 34.0256 1023.53 37.1071 970.401C42.4761 878.023 139.387 813.48 180.803 790.02C223.085 766.073 269.227 746.98 313.85 728.546C348.252 714.32 383.802 699.617 417.379 682.774C482.451 650.136 565.385 594.256 591.365 513.561C600.595 484.788 602.045 454.275 603.429 424.78C604.002 412.489 604.615 400.04 605.793 387.611L607.543 388.679C606.447 400.731 605.845 412.781 605.31 424.749C603.905 454.354 602.471 484.957 593.154 513.92Z" fill="#5ED9D1"/>
</g>
<defs>
<clipPath id="clip0_712_2">
<rect width="390" height="735" fill="white"/>
</clipPath>
</defs>
</svg>
